<svg width="40" height="40" viewBox="0 0 40 40" fill="none" xmlns="http://www.w3.org/2000/svg">
<g clip-path="url(#clip0_4112_34558)">
<path d="M35.1286 39.272L30.2755 19.8579C30.2102 19.597 29.9759 19.4141 29.707 19.4141H26.3464C27.7547 16.978 28.9881 14.2785 29.4338 11.6682C29.4883 11.3492 29.2739 11.0465 28.9549 10.992C28.6355 10.9378 28.3332 11.152 28.2788 11.4709C27.2856 17.2859 23.2177 21.9221 20 26.6336C16.5531 21.5865 11.5555 16.106 11.5555 9.61641C11.5555 4.96008 15.3437 1.17188 20 1.17188C24.4349 1.17188 28.1357 4.63445 28.4255 9.05477C28.4466 9.37773 28.7274 9.62148 29.0485 9.60109C29.3715 9.57992 29.6161 9.30102 29.5949 8.97805C29.2649 3.94367 25.0503 0 20 0C14.6975 0 10.3836 4.31391 10.3836 9.61641C10.3836 12.8624 11.8701 16.3424 13.6474 19.4141H10.293C10.0241 19.4141 9.78977 19.597 9.72454 19.8579L8.83313 23.4227C8.75462 23.7367 8.94548 24.0548 9.25946 24.1333C9.55524 24.2041 9.79212 24.062 9.97009 23.707L10.7505 20.5859H14.3503C14.6166 21.0152 14.8856 21.4341 15.1539 21.8406H12.7195C12.4507 21.8406 12.2163 22.0236 12.1511 22.2845L10.9379 27.1384C10.8906 27.5659 11.0801 27.8086 11.5063 27.8664H28.4938C28.92 27.8086 29.1095 27.5659 29.0622 27.1384L27.849 22.2845C27.7838 22.0236 27.5494 21.8406 27.2806 21.8406H24.8425C25.1099 21.4347 25.3784 21.0157 25.6445 20.5859H29.2495L33.8098 38.8281H6.19024L9.35126 26.1843C9.4297 25.8704 9.23891 25.5523 8.92493 25.4737C8.61095 25.3952 8.2929 25.5861 8.2143 25.9001L4.87134 39.272C4.82407 39.6995 5.01352 39.9422 5.43977 40H34.5601C34.9864 39.9422 35.1759 39.6995 35.1286 39.272ZM13.177 23.0125H15.9466C16.8091 24.2584 17.7203 25.4671 18.6081 26.6945H12.2566L13.177 23.0125ZM26.823 23.0125L27.7433 26.6945H21.392C22.2795 25.4674 23.1902 24.2589 24.0513 23.0125H26.823Z" fill="#999999"/>
<path d="M15.7739 10.2929C15.7739 12.6231 17.6698 14.5189 20 14.5189C22.3303 14.5189 24.2261 12.6231 24.2261 10.2929C24.2261 7.96268 22.3303 6.06689 20 6.06689C17.6698 6.06689 15.7739 7.96268 15.7739 10.2929ZM23.0542 10.2929C23.0542 11.977 21.6842 13.3471 20 13.3471C18.3159 13.3471 16.9458 11.977 16.9458 10.2929C16.9458 8.60885 18.3159 7.23877 20 7.23877C21.6842 7.23877 23.0542 8.60885 23.0542 10.2929Z" fill="#999999"/>
<path d="M9.07963 37.5731H18.7866C19.1103 37.5731 19.3725 37.3108 19.3725 36.9872V29.7065C19.339 29.3494 19.1437 29.1541 18.7866 29.1206L10.8997 29.1211C10.6309 29.1211 10.3965 29.304 10.3313 29.5649L8.51119 36.8451C8.4244 37.1744 8.64752 37.5731 9.07963 37.5731ZM11.3571 30.2929L18.2006 30.2925V36.4012H9.83002L11.3571 30.2929Z" fill="#999999"/>
<path d="M26.5696 36.9873C26.5696 37.3109 26.8319 37.5732 27.1556 37.5732H30.9204C31.3467 37.5154 31.5362 37.2728 31.4888 36.8452L29.6685 29.5639C29.6033 29.3031 29.3689 29.1201 29.1001 29.1201H21.2134C20.8897 29.1201 20.6274 29.3825 20.6274 29.7061V36.9873C20.6274 37.3109 20.8897 37.5732 21.2134 37.5732H24.6017C24.9253 37.5732 25.1876 37.3109 25.1876 36.9873C25.1876 36.6637 24.9253 36.4014 24.6017 36.4014H21.7993V30.292H28.6427L30.17 36.4014H27.1556C26.8319 36.4014 26.5696 36.6637 26.5696 36.9873Z" fill="#999999"/>
</g>
<defs>
<clipPath id="clip0_4112_34558">
<rect width="40" height="40" fill="white"/>
</clipPath>
</defs>
</svg>
