<svg width="74" height="91" viewBox="0 0 74 91" fill="none" xmlns="http://www.w3.org/2000/svg">
<g clip-path="url(#clip0_1582_12915)">
<path d="M61.2862 62.8351L53.5212 31.7726C53.4169 31.3552 53.0419 31.0625 52.6117 31.0625H47.2347C49.488 27.1649 51.4614 22.8456 52.1746 18.6691C52.2617 18.1587 51.9187 17.6744 51.4084 17.5871C50.8972 17.5005 50.4136 17.8431 50.3265 18.3534C48.7374 27.6574 42.2289 35.0754 37.0805 42.6138C31.5654 34.5384 23.5692 25.7696 23.5692 15.3862C23.5692 7.93612 29.6304 1.875 37.0805 1.875C44.1762 1.875 50.0976 7.41512 50.5612 14.4876C50.5951 15.0044 51.0444 15.3944 51.5581 15.3617C52.0749 15.3279 52.4662 14.8816 52.4324 14.3649C51.9042 6.30987 45.161 0 37.0805 0C28.5965 0 21.6942 6.90225 21.6942 15.3862C21.6942 20.5799 24.0726 26.1479 26.9164 31.0625H21.5492C21.1191 31.0625 20.7441 31.3552 20.6397 31.7726L19.2135 37.4764C19.0879 37.9788 19.3932 38.4876 19.8956 38.6133C20.3689 38.7265 20.7479 38.4991 21.0326 37.9311L22.2812 32.9375H28.041C28.467 33.6244 28.8975 34.2945 29.3267 34.945H25.4317C25.0016 34.945 24.6266 35.2378 24.5222 35.6551L22.5811 43.4214C22.5055 44.1055 22.8086 44.4938 23.4906 44.5863H50.6705C51.3525 44.4938 51.6557 44.1055 51.58 43.4214L49.6389 35.6551C49.5345 35.2378 49.1595 34.945 48.7294 34.945H44.8285C45.2562 34.2955 45.686 33.6251 46.1117 32.9375H51.8797L59.1761 62.125H14.9849L20.0425 41.8949C20.168 41.3926 19.8627 40.8836 19.3604 40.758C18.858 40.6324 18.3491 40.9377 18.2234 41.4401L12.8746 62.8351C12.799 63.5192 13.1021 63.9075 13.7841 64H60.3766C61.0587 63.9075 61.362 63.5192 61.2862 62.8351ZM26.1637 36.82H30.5951C31.975 38.8135 33.433 40.7474 34.8534 42.7113H24.6911L26.1637 36.82ZM47.9972 36.82L49.4697 42.7113H39.3076C40.7277 40.7479 42.1849 38.8143 43.5626 36.82H47.9972Z" fill="#FF0090"/>
<path d="M30.3184 16.4687C30.3184 20.197 33.3517 23.2303 37.0801 23.2303C40.8085 23.2303 43.8419 20.197 43.8419 16.4687C43.8419 12.7403 40.8085 9.70703 37.0801 9.70703C33.3517 9.70703 30.3184 12.7403 30.3184 16.4687ZM41.9669 16.4687C41.9669 19.1632 39.7747 21.3553 37.0801 21.3553C34.3855 21.3553 32.1934 19.1632 32.1934 16.4687C32.1934 13.7742 34.3855 11.582 37.0801 11.582C39.7747 11.582 41.9669 13.7742 41.9669 16.4687Z" fill="#FF0090"/>
<path d="M19.6081 60.1168H35.1392C35.6571 60.1168 36.0767 59.697 36.0767 59.1793V47.5303C36.0231 46.9589 35.7106 46.6464 35.1392 46.5928L22.5202 46.5935C22.0901 46.5935 21.7151 46.8863 21.6107 47.3036L18.6986 58.952C18.5597 59.4789 18.9167 60.1168 19.6081 60.1168ZM23.2521 48.4684L34.2017 48.4678V58.2418H20.8087L23.2521 48.4684Z" fill="#FF0090"/>
<path d="M47.5915 59.1803C47.5915 59.698 48.0111 60.1178 48.529 60.1178H54.5527C55.2347 60.0253 55.538 59.637 55.4622 58.9529L52.5497 47.3029C52.4454 46.8855 52.0704 46.5928 51.6402 46.5928H39.0215C38.5036 46.5928 38.084 47.0125 38.084 47.5303V59.1803C38.084 59.698 38.5036 60.1178 39.0215 60.1178H44.4427C44.9606 60.1178 45.3802 59.698 45.3802 59.1803C45.3802 58.6625 44.9606 58.2428 44.4427 58.2428H39.959V48.4678H50.9084L53.3521 58.2428H48.529C48.0111 58.2428 47.5915 58.6625 47.5915 59.1803Z" fill="#FF0090"/>
</g>
<path d="M6.07866 87H2.31161V75.3636H6.19798C7.33813 75.3636 8.31729 75.5966 9.13548 76.0625C9.95366 76.5246 10.5806 77.1894 11.0162 78.0568C11.4556 78.9205 11.6752 79.9564 11.6752 81.1648C11.6752 82.3769 11.4537 83.4186 11.0105 84.2898C10.5711 85.161 9.93472 85.8314 9.10139 86.3011C8.26805 86.767 7.26048 87 6.07866 87ZM4.06729 85.4659H5.98207C6.86843 85.4659 7.60517 85.2992 8.19229 84.9659C8.77942 84.6288 9.21881 84.142 9.51048 83.5057C9.80214 82.8655 9.94798 82.0852 9.94798 81.1648C9.94798 80.2519 9.80214 79.4773 9.51048 78.8409C9.2226 78.2045 8.79267 77.7216 8.2207 77.392C7.64873 77.0625 6.93851 76.8977 6.09002 76.8977H4.06729V85.4659ZM13.7221 87V78.2727H15.421V87H13.7221ZM14.5801 76.9261C14.2846 76.9261 14.0308 76.8277 13.8187 76.6307C13.6104 76.4299 13.5062 76.1913 13.5062 75.9148C13.5062 75.6345 13.6104 75.3958 13.8187 75.1989C14.0308 74.9981 14.2846 74.8977 14.5801 74.8977C14.8755 74.8977 15.1274 74.9981 15.3358 75.1989C15.5479 75.3958 15.6539 75.6345 15.6539 75.9148C15.6539 76.1913 15.5479 76.4299 15.3358 76.6307C15.1274 76.8277 14.8755 76.9261 14.5801 76.9261ZM17.7065 87V78.2727H19.3485V79.6591H19.4395C19.5985 79.1894 19.8788 78.8201 20.2804 78.5511C20.6857 78.2784 21.144 78.142 21.6554 78.142C21.7614 78.142 21.8864 78.1458 22.0304 78.1534C22.1781 78.161 22.2936 78.1705 22.377 78.1818V79.8068C22.3088 79.7879 22.1876 79.767 22.0133 79.7443C21.8391 79.7178 21.6648 79.7045 21.4906 79.7045C21.0891 79.7045 20.7311 79.7898 20.4167 79.9602C20.1061 80.1269 19.8599 80.3598 19.6781 80.6591C19.4963 80.9545 19.4054 81.2917 19.4054 81.6705V87H17.7065ZM27.296 87.1761C26.4361 87.1761 25.6956 86.9924 25.0744 86.625C24.457 86.2538 23.9797 85.733 23.6426 85.0625C23.3092 84.3883 23.1426 83.5985 23.1426 82.6932C23.1426 81.7992 23.3092 81.0114 23.6426 80.3295C23.9797 79.6477 24.4494 79.1155 25.0517 78.733C25.6577 78.3504 26.3661 78.1591 27.1767 78.1591C27.6691 78.1591 28.1464 78.2405 28.6085 78.4034C29.0706 78.5663 29.4854 78.822 29.8528 79.1705C30.2202 79.5189 30.51 79.9716 30.7221 80.5284C30.9342 81.0814 31.0403 81.7538 31.0403 82.5455V83.1477H24.1028V81.875H29.3755C29.3755 81.428 29.2846 81.0322 29.1028 80.6875C28.921 80.339 28.6653 80.0644 28.3358 79.8636C28.01 79.6629 27.6274 79.5625 27.188 79.5625C26.7108 79.5625 26.2941 79.6799 25.938 79.9148C25.5858 80.1458 25.313 80.4489 25.1199 80.8239C24.9305 81.1951 24.8358 81.5985 24.8358 82.0341V83.0284C24.8358 83.6117 24.938 84.108 25.1426 84.517C25.3509 84.9261 25.6407 85.2386 26.0119 85.4545C26.3831 85.6667 26.8168 85.7727 27.313 85.7727C27.635 85.7727 27.9286 85.7273 28.1937 85.6364C28.4589 85.5417 28.688 85.4015 28.8812 85.2159C29.0744 85.0303 29.2221 84.8011 29.3244 84.5284L30.9324 84.8182C30.8036 85.2917 30.5725 85.7064 30.2392 86.0625C29.9096 86.4148 29.4949 86.6894 28.9949 86.8864C28.4986 87.0795 27.9324 87.1761 27.296 87.1761ZM36.6014 87.1761C35.7567 87.1761 35.0294 86.9848 34.4196 86.6023C33.8135 86.2159 33.3476 85.6837 33.0218 85.0057C32.6961 84.3277 32.5332 83.5511 32.5332 82.6761C32.5332 81.7898 32.6999 81.0076 33.0332 80.3295C33.3665 79.6477 33.8362 79.1155 34.4423 78.733C35.0484 78.3504 35.7624 78.1591 36.5843 78.1591C37.2472 78.1591 37.8381 78.2822 38.3571 78.5284C38.876 78.7708 39.2946 79.1117 39.6127 79.5511C39.9347 79.9905 40.126 80.5038 40.1866 81.0909H38.5332C38.4423 80.6818 38.234 80.3295 37.9082 80.0341C37.5862 79.7386 37.1544 79.5909 36.6127 79.5909C36.1393 79.5909 35.7245 79.7159 35.3684 79.9659C35.0162 80.2121 34.7415 80.5644 34.5446 81.0227C34.3476 81.4773 34.2491 82.0152 34.2491 82.6364C34.2491 83.2727 34.3457 83.822 34.5389 84.2841C34.7321 84.7462 35.0048 85.1042 35.3571 85.358C35.7131 85.6117 36.1317 85.7386 36.6127 85.7386C36.9347 85.7386 37.2264 85.6799 37.4877 85.5625C37.7529 85.4413 37.9745 85.2689 38.1525 85.0455C38.3343 84.822 38.4612 84.553 38.5332 84.2386H40.1866C40.126 84.803 39.9423 85.3068 39.6355 85.75C39.3287 86.1932 38.9177 86.5417 38.4025 86.7955C37.8912 87.0492 37.2908 87.1761 36.6014 87.1761ZM45.6795 87.1761C44.8348 87.1761 44.1075 86.9848 43.4977 86.6023C42.8916 86.2159 42.4257 85.6837 42.1 85.0057C41.7742 84.3277 41.6113 83.5511 41.6113 82.6761C41.6113 81.7898 41.778 81.0076 42.1113 80.3295C42.4447 79.6477 42.9144 79.1155 43.5204 78.733C44.1265 78.3504 44.8405 78.1591 45.6625 78.1591C46.3253 78.1591 46.9163 78.2822 47.4352 78.5284C47.9541 78.7708 48.3727 79.1117 48.6909 79.5511C49.0128 79.9905 49.2041 80.5038 49.2647 81.0909H47.6113C47.5204 80.6818 47.3121 80.3295 46.9863 80.0341C46.6644 79.7386 46.2325 79.5909 45.6909 79.5909C45.2174 79.5909 44.8026 79.7159 44.4466 79.9659C44.0943 80.2121 43.8197 80.5644 43.6227 81.0227C43.4257 81.4773 43.3272 82.0152 43.3272 82.6364C43.3272 83.2727 43.4238 83.822 43.617 84.2841C43.8102 84.7462 44.0829 85.1042 44.4352 85.358C44.7913 85.6117 45.2098 85.7386 45.6909 85.7386C46.0128 85.7386 46.3045 85.6799 46.5659 85.5625C46.831 85.4413 47.0526 85.2689 47.2306 85.0455C47.4125 84.822 47.5394 84.553 47.6113 84.2386H49.2647C49.2041 84.803 49.0204 85.3068 48.7136 85.75C48.4068 86.1932 47.9958 86.5417 47.4806 86.7955C46.9693 87.0492 46.3689 87.1761 45.6795 87.1761ZM51.0815 87V78.2727H52.7804V87H51.0815ZM51.9395 76.9261C51.644 76.9261 51.3902 76.8277 51.1781 76.6307C50.9698 76.4299 50.8656 76.1913 50.8656 75.9148C50.8656 75.6345 50.9698 75.3958 51.1781 75.1989C51.3902 74.9981 51.644 74.8977 51.9395 74.8977C52.2349 74.8977 52.4868 74.9981 52.6951 75.1989C52.9073 75.3958 53.0133 75.6345 53.0133 75.9148C53.0133 76.1913 52.9073 76.4299 52.6951 76.6307C52.4868 76.8277 52.2349 76.9261 51.9395 76.9261ZM58.742 87.1761C57.9238 87.1761 57.2098 86.9886 56.6 86.6136C55.9901 86.2386 55.5166 85.714 55.1795 85.0398C54.8424 84.3655 54.6738 83.5777 54.6738 82.6761C54.6738 81.7708 54.8424 80.9792 55.1795 80.3011C55.5166 79.6231 55.9901 79.0966 56.6 78.7216C57.2098 78.3466 57.9238 78.1591 58.742 78.1591C59.5602 78.1591 60.2742 78.3466 60.8841 78.7216C61.4939 79.0966 61.9674 79.6231 62.3045 80.3011C62.6416 80.9792 62.8102 81.7708 62.8102 82.6761C62.8102 83.5777 62.6416 84.3655 62.3045 85.0398C61.9674 85.714 61.4939 86.2386 60.8841 86.6136C60.2742 86.9886 59.5602 87.1761 58.742 87.1761ZM58.7477 85.75C59.278 85.75 59.7174 85.6098 60.0659 85.3295C60.4144 85.0492 60.6719 84.6761 60.8386 84.2102C61.0091 83.7443 61.0943 83.2311 61.0943 82.6705C61.0943 82.1136 61.0091 81.6023 60.8386 81.1364C60.6719 80.6667 60.4144 80.2898 60.0659 80.0057C59.7174 79.7216 59.278 79.5795 58.7477 79.5795C58.2136 79.5795 57.7704 79.7216 57.4181 80.0057C57.0697 80.2898 56.8102 80.6667 56.6397 81.1364C56.4731 81.6023 56.3897 82.1136 56.3897 82.6705C56.3897 83.2311 56.4731 83.7443 56.6397 84.2102C56.8102 84.6761 57.0697 85.0492 57.4181 85.3295C57.7704 85.6098 58.2136 85.75 58.7477 85.75ZM58.0431 77.108L59.3727 74.4886H61.1625L59.4011 77.108H58.0431ZM66.4054 81.8182V87H64.7065V78.2727H66.3372V79.6932H66.4451C66.6459 79.2311 66.9603 78.8598 67.3883 78.5795C67.8201 78.2992 68.3637 78.1591 69.019 78.1591C69.6137 78.1591 70.1345 78.2841 70.5815 78.5341C71.0285 78.7803 71.3751 79.1477 71.6213 79.6364C71.8675 80.125 71.9906 80.7292 71.9906 81.4489V87H70.2917V81.6534C70.2917 81.0208 70.127 80.5265 69.7974 80.1705C69.4679 79.8106 69.0152 79.6307 68.4395 79.6307C68.0455 79.6307 67.6951 79.7159 67.3883 79.8864C67.0853 80.0568 66.8448 80.3068 66.6667 80.6364C66.4925 80.9621 66.4054 81.3561 66.4054 81.8182Z" fill="#FF0090"/>
<defs>
<clipPath id="clip0_1582_12915">
<rect width="64" height="64" fill="white" transform="translate(5.08008)"/>
</clipPath>
</defs>
</svg>
