<svg width="74" height="92" viewBox="0 0 74 92" fill="none" xmlns="http://www.w3.org/2000/svg">
<g clip-path="url(#clip0_1582_12857)">
<path d="M61.0265 63.5851L53.2615 32.5226C53.1571 32.1052 52.7821 31.8125 52.352 31.8125H46.975C49.2282 27.9149 51.2016 23.5956 51.9148 19.4191C52.002 18.9087 51.659 18.4244 51.1486 18.3371C50.6375 18.2505 50.1538 18.5931 50.0667 19.1034C48.4776 28.4074 41.9691 35.8254 36.8207 43.3638C31.3056 35.2884 23.3095 26.5196 23.3095 16.1362C23.3095 8.68612 29.3706 2.625 36.8207 2.625C43.9165 2.625 49.8378 8.16512 50.3015 15.2376C50.3353 15.7544 50.7846 16.1444 51.2983 16.1117C51.8151 16.0779 52.2065 15.6316 52.1726 15.1149C51.6445 7.05987 44.9012 0.75 36.8207 0.75C28.3367 0.75 21.4345 7.65225 21.4345 16.1362C21.4345 21.3299 23.8128 26.8979 26.6566 31.8125H21.2895C20.8593 31.8125 20.4843 32.1052 20.38 32.5226L18.9537 38.2264C18.8281 38.7288 19.1335 39.2376 19.6358 39.3633C20.1091 39.4765 20.4881 39.2491 20.7728 38.6811L22.0215 33.6875H27.7812C28.2072 34.3744 28.6377 35.0445 29.067 35.695H25.172C24.7418 35.695 24.3668 35.9878 24.2625 36.4051L22.3213 44.1714C22.2457 44.8555 22.5488 45.2438 23.2308 45.3363H50.4107C51.0927 45.2438 51.396 44.8555 51.3202 44.1714L49.3791 36.4051C49.2747 35.9878 48.8997 35.695 48.4696 35.695H44.5687C44.9965 35.0455 45.4262 34.3751 45.852 33.6875H51.62L58.9163 62.875H14.7251L19.7827 42.6449C19.9082 42.1426 19.603 41.6336 19.1006 41.508C18.5982 41.3824 18.0893 41.6877 17.9636 42.1901L12.6148 63.5851C12.5392 64.2692 12.8423 64.6575 13.5243 64.75H60.1168C60.799 64.6575 61.1022 64.2692 61.0265 63.5851ZM25.904 37.57H30.3353C31.7152 39.5635 33.1732 41.4974 34.5936 43.4613H24.4313L25.904 37.57ZM47.7375 37.57L49.21 43.4613H39.0478C40.468 41.4979 41.9251 39.5643 43.3028 37.57H47.7375Z" fill="#999999"/>
<path d="M30.0586 17.2187C30.0586 20.947 33.092 23.9803 36.8203 23.9803C40.5487 23.9803 43.5821 20.947 43.5821 17.2187C43.5821 13.4903 40.5487 10.457 36.8203 10.457C33.092 10.457 30.0586 13.4903 30.0586 17.2187ZM41.7071 17.2187C41.7071 19.9132 39.515 22.1053 36.8203 22.1053C34.1257 22.1053 31.9336 19.9132 31.9336 17.2187C31.9336 14.5242 34.1257 12.332 36.8203 12.332C39.515 12.332 41.7071 14.5242 41.7071 17.2187Z" fill="#999999"/>
<path d="M19.3483 60.8668H34.8794C35.3973 60.8668 35.8169 60.447 35.8169 59.9293V48.2803C35.7633 47.7089 35.4508 47.3964 34.8794 47.3428L22.2604 47.3435C21.8303 47.3435 21.4553 47.6363 21.3509 48.0536L18.4388 59.702C18.2999 60.2289 18.6569 60.8668 19.3483 60.8668ZM22.9923 49.2184L33.9419 49.2178V58.9918H20.5489L22.9923 49.2184Z" fill="#999999"/>
<path d="M47.3317 59.9303C47.3317 60.448 47.7513 60.8678 48.2692 60.8678H54.293C54.975 60.7753 55.2782 60.387 55.2025 59.7029L52.29 48.0529C52.1856 47.6355 51.8106 47.3428 51.3805 47.3428H38.7617C38.2438 47.3428 37.8242 47.7625 37.8242 48.2803V59.9303C37.8242 60.448 38.2438 60.8678 38.7617 60.8678H44.183C44.7008 60.8678 45.1205 60.448 45.1205 59.9303C45.1205 59.4125 44.7008 58.9928 44.183 58.9928H39.6992V49.2178H50.6486L53.0923 58.9928H48.2692C47.7513 58.9928 47.3317 59.4125 47.3317 59.9303Z" fill="#999999"/>
</g>
<path d="M5.81889 87.75H2.05185V76.1136H5.93821C7.07836 76.1136 8.05753 76.3466 8.87571 76.8125C9.69389 77.2746 10.3208 77.9394 10.7564 78.8068C11.1958 79.6705 11.4155 80.7064 11.4155 81.9148C11.4155 83.1269 11.1939 84.1686 10.7507 85.0398C10.3113 85.911 9.67495 86.5814 8.84162 87.0511C8.00829 87.517 7.00071 87.75 5.81889 87.75ZM3.80753 86.2159H5.7223C6.60867 86.2159 7.34541 86.0492 7.93253 85.7159C8.51965 85.3788 8.95904 84.892 9.25071 84.2557C9.54238 83.6155 9.68821 82.8352 9.68821 81.9148C9.68821 81.0019 9.54238 80.2273 9.25071 79.5909C8.96283 78.9545 8.53291 78.4716 7.96094 78.142C7.38897 77.8125 6.67874 77.6477 5.83026 77.6477H3.80753V86.2159ZM13.4624 87.75V79.0227H15.1612V87.75H13.4624ZM14.3203 77.6761C14.0249 77.6761 13.7711 77.5777 13.5589 77.3807C13.3506 77.1799 13.2464 76.9413 13.2464 76.6648C13.2464 76.3845 13.3506 76.1458 13.5589 75.9489C13.7711 75.7481 14.0249 75.6477 14.3203 75.6477C14.6158 75.6477 14.8677 75.7481 15.076 75.9489C15.2881 76.1458 15.3942 76.3845 15.3942 76.6648C15.3942 76.9413 15.2881 77.1799 15.076 77.3807C14.8677 77.5777 14.6158 77.6761 14.3203 77.6761ZM17.4467 87.75V79.0227H19.0888V80.4091H19.1797C19.3388 79.9394 19.6191 79.5701 20.0206 79.3011C20.4259 79.0284 20.8842 78.892 21.3956 78.892C21.5017 78.892 21.6267 78.8958 21.7706 78.9034C21.9183 78.911 22.0339 78.9205 22.1172 78.9318V80.5568C22.049 80.5379 21.9278 80.517 21.7536 80.4943C21.5793 80.4678 21.4051 80.4545 21.2308 80.4545C20.8293 80.4545 20.4714 80.5398 20.157 80.7102C19.8464 80.8769 19.6001 81.1098 19.4183 81.4091C19.2365 81.7045 19.1456 82.0417 19.1456 82.4205V87.75H17.4467ZM27.0362 87.9261C26.1764 87.9261 25.4358 87.7424 24.8146 87.375C24.1972 87.0038 23.7199 86.483 23.3828 85.8125C23.0495 85.1383 22.8828 84.3485 22.8828 83.4432C22.8828 82.5492 23.0495 81.7614 23.3828 81.0795C23.7199 80.3977 24.1896 79.8655 24.7919 79.483C25.398 79.1004 26.1063 78.9091 26.9169 78.9091C27.4093 78.9091 27.8866 78.9905 28.3487 79.1534C28.8108 79.3163 29.2256 79.572 29.593 79.9205C29.9605 80.2689 30.2502 80.7216 30.4624 81.2784C30.6745 81.8314 30.7805 82.5038 30.7805 83.2955V83.8977H23.843V82.625H29.1158C29.1158 82.178 29.0249 81.7822 28.843 81.4375C28.6612 81.089 28.4055 80.8144 28.076 80.6136C27.7502 80.4129 27.3677 80.3125 26.9283 80.3125C26.451 80.3125 26.0343 80.4299 25.6783 80.6648C25.326 80.8958 25.0533 81.1989 24.8601 81.5739C24.6707 81.9451 24.576 82.3485 24.576 82.7841V83.7784C24.576 84.3617 24.6783 84.858 24.8828 85.267C25.0911 85.6761 25.3809 85.9886 25.7521 86.2045C26.1233 86.4167 26.5571 86.5227 27.0533 86.5227C27.3752 86.5227 27.6688 86.4773 27.9339 86.3864C28.1991 86.2917 28.4283 86.1515 28.6214 85.9659C28.8146 85.7803 28.9624 85.5511 29.0646 85.2784L30.6726 85.5682C30.5438 86.0417 30.3127 86.4564 29.9794 86.8125C29.6499 87.1648 29.2351 87.4394 28.7351 87.6364C28.2389 87.8295 27.6726 87.9261 27.0362 87.9261ZM36.3416 87.9261C35.4969 87.9261 34.7696 87.7348 34.1598 87.3523C33.5537 86.9659 33.0878 86.4337 32.7621 85.7557C32.4363 85.0777 32.2734 84.3011 32.2734 83.4261C32.2734 82.5398 32.4401 81.7576 32.7734 81.0795C33.1068 80.3977 33.5765 79.8655 34.1825 79.483C34.7886 79.1004 35.5026 78.9091 36.3246 78.9091C36.9875 78.9091 37.5784 79.0322 38.0973 79.2784C38.6162 79.5208 39.0348 79.8617 39.353 80.3011C39.675 80.7405 39.8662 81.2538 39.9268 81.8409H38.2734C38.1825 81.4318 37.9742 81.0795 37.6484 80.7841C37.3265 80.4886 36.8946 80.3409 36.353 80.3409C35.8795 80.3409 35.4647 80.4659 35.1087 80.7159C34.7564 80.9621 34.4818 81.3144 34.2848 81.7727C34.0878 82.2273 33.9893 82.7652 33.9893 83.3864C33.9893 84.0227 34.0859 84.572 34.2791 85.0341C34.4723 85.4962 34.745 85.8542 35.0973 86.108C35.4534 86.3617 35.8719 86.4886 36.353 86.4886C36.675 86.4886 36.9666 86.4299 37.228 86.3125C37.4931 86.1913 37.7147 86.0189 37.8928 85.7955C38.0746 85.572 38.2015 85.303 38.2734 84.9886H39.9268C39.8662 85.553 39.6825 86.0568 39.3757 86.5C39.0689 86.9432 38.6579 87.2917 38.1428 87.5455C37.6314 87.7992 37.031 87.9261 36.3416 87.9261ZM45.4197 87.9261C44.575 87.9261 43.8478 87.7348 43.2379 87.3523C42.6319 86.9659 42.166 86.4337 41.8402 85.7557C41.5144 85.0777 41.3516 84.3011 41.3516 83.4261C41.3516 82.5398 41.5182 81.7576 41.8516 81.0795C42.1849 80.3977 42.6546 79.8655 43.2607 79.483C43.8667 79.1004 44.5807 78.9091 45.4027 78.9091C46.0656 78.9091 46.6565 79.0322 47.1754 79.2784C47.6944 79.5208 48.1129 79.8617 48.4311 80.3011C48.7531 80.7405 48.9444 81.2538 49.005 81.8409H47.3516C47.2607 81.4318 47.0523 81.0795 46.7266 80.7841C46.4046 80.4886 45.9728 80.3409 45.4311 80.3409C44.9576 80.3409 44.5429 80.4659 44.1868 80.7159C43.8345 80.9621 43.5599 81.3144 43.3629 81.7727C43.166 82.2273 43.0675 82.7652 43.0675 83.3864C43.0675 84.0227 43.1641 84.572 43.3572 85.0341C43.5504 85.4962 43.8232 85.8542 44.1754 86.108C44.5315 86.3617 44.95 86.4886 45.4311 86.4886C45.7531 86.4886 46.0447 86.4299 46.3061 86.3125C46.5713 86.1913 46.7929 86.0189 46.9709 85.7955C47.1527 85.572 47.2796 85.303 47.3516 84.9886H49.005C48.9444 85.553 48.7607 86.0568 48.4538 86.5C48.147 86.9432 47.736 87.2917 47.2209 87.5455C46.7095 87.7992 46.1091 87.9261 45.4197 87.9261ZM50.8217 87.75V79.0227H52.5206V87.75H50.8217ZM51.6797 77.6761C51.3842 77.6761 51.1304 77.5777 50.9183 77.3807C50.71 77.1799 50.6058 76.9413 50.6058 76.6648C50.6058 76.3845 50.71 76.1458 50.9183 75.9489C51.1304 75.7481 51.3842 75.6477 51.6797 75.6477C51.9751 75.6477 52.227 75.7481 52.4354 75.9489C52.6475 76.1458 52.7536 76.3845 52.7536 76.6648C52.7536 76.9413 52.6475 77.1799 52.4354 77.3807C52.227 77.5777 51.9751 77.6761 51.6797 77.6761ZM58.4822 87.9261C57.6641 87.9261 56.95 87.7386 56.3402 87.3636C55.7304 86.9886 55.2569 86.464 54.9197 85.7898C54.5826 85.1155 54.4141 84.3277 54.4141 83.4261C54.4141 82.5208 54.5826 81.7292 54.9197 81.0511C55.2569 80.3731 55.7304 79.8466 56.3402 79.4716C56.95 79.0966 57.6641 78.9091 58.4822 78.9091C59.3004 78.9091 60.0144 79.0966 60.6243 79.4716C61.2341 79.8466 61.7076 80.3731 62.0447 81.0511C62.3819 81.7292 62.5504 82.5208 62.5504 83.4261C62.5504 84.3277 62.3819 85.1155 62.0447 85.7898C61.7076 86.464 61.2341 86.9886 60.6243 87.3636C60.0144 87.7386 59.3004 87.9261 58.4822 87.9261ZM58.4879 86.5C59.0182 86.5 59.4576 86.3598 59.8061 86.0795C60.1546 85.7992 60.4122 85.4261 60.5788 84.9602C60.7493 84.4943 60.8345 83.9811 60.8345 83.4205C60.8345 82.8636 60.7493 82.3523 60.5788 81.8864C60.4122 81.4167 60.1546 81.0398 59.8061 80.7557C59.4576 80.4716 59.0182 80.3295 58.4879 80.3295C57.9538 80.3295 57.5107 80.4716 57.1584 80.7557C56.8099 81.0398 56.5504 81.4167 56.38 81.8864C56.2133 82.3523 56.13 82.8636 56.13 83.4205C56.13 83.9811 56.2133 84.4943 56.38 84.9602C56.5504 85.4261 56.8099 85.7992 57.1584 86.0795C57.5107 86.3598 57.9538 86.5 58.4879 86.5ZM57.7834 77.858L59.1129 75.2386H60.9027L59.1413 77.858H57.7834ZM66.1456 82.5682V87.75H64.4467V79.0227H66.0774V80.4432H66.1854C66.3861 79.9811 66.7005 79.6098 67.1286 79.3295C67.5604 79.0492 68.1039 78.9091 68.7592 78.9091C69.3539 78.9091 69.8748 79.0341 70.3217 79.2841C70.7687 79.5303 71.1153 79.8977 71.3615 80.3864C71.6077 80.875 71.7308 81.4792 71.7308 82.1989V87.75H70.032V82.4034C70.032 81.7708 69.8672 81.2765 69.5376 80.9205C69.2081 80.5606 68.7554 80.3807 68.1797 80.3807C67.7857 80.3807 67.4354 80.4659 67.1286 80.6364C66.8255 80.8068 66.585 81.0568 66.407 81.3864C66.2327 81.7121 66.1456 82.1061 66.1456 82.5682Z" fill="#999999"/>
<defs>
<clipPath id="clip0_1582_12857">
<rect width="64" height="64" fill="white" transform="translate(4.82031 0.75)"/>
</clipPath>
</defs>
</svg>
