<svg width="24" height="24" viewBox="0 0 24 24" fill="none" xmlns="http://www.w3.org/2000/svg">
<path d="M1.20041 23.998C0.978956 23.998 0.771564 23.9559 0.588778 23.868C0.314599 23.7379 0.121268 23.513 0.0404204 23.2353C-0.149396 22.5779 0.346235 21.7976 1.17229 21.4531C1.65034 21.2527 2.14597 21.2457 2.52912 21.4285C2.8033 21.5586 2.99663 21.7835 3.07748 22.0612C3.26729 22.7185 2.77166 23.4989 1.94561 23.8434C1.69604 23.9453 1.43944 23.998 1.20041 23.998ZM1.92101 22.0015C1.77337 22.0015 1.60465 22.0366 1.44295 22.1034C0.919199 22.3213 0.641505 22.7713 0.718837 23.0384C0.743443 23.1228 0.8032 23.1861 0.894593 23.2318C1.09144 23.3267 1.39022 23.3091 1.67495 23.1931C2.1987 22.9751 2.47639 22.5252 2.39906 22.2581C2.37446 22.1737 2.3147 22.1104 2.22331 22.0647C2.13894 22.0226 2.03349 22.0015 1.92101 22.0015Z" fill="#0A1B33"/>
<path d="M5.34567 22.9326C5.12422 22.9326 4.91683 22.8904 4.73404 22.8026C4.45986 22.6725 4.26653 22.4475 4.18568 22.1698C3.99587 21.5125 4.4915 20.7322 5.31755 20.3877C5.79912 20.1873 6.29124 20.1803 6.67438 20.3631C6.94856 20.4931 7.14189 20.7181 7.22274 20.9958C7.41256 21.6531 6.91693 22.4335 6.09088 22.7779C5.8413 22.8799 5.5847 22.9326 5.34567 22.9326ZM6.06627 20.9395C5.91864 20.9395 5.74991 20.9747 5.58821 21.0415C5.06446 21.2594 4.78677 21.7094 4.8641 21.9765C4.88871 22.0609 4.94846 22.1241 5.03986 22.1698C5.2367 22.2647 5.53549 22.2472 5.82021 22.1277C6.34396 21.9097 6.62166 21.4598 6.54432 21.1926C6.51972 21.1083 6.45996 21.045 6.36857 20.9993C6.28421 20.9571 6.17875 20.9395 6.06627 20.9395Z" fill="#0A1B33"/>
<path d="M2.7375 22.5103C2.54417 22.5103 2.38599 22.3521 2.38599 22.1588V17.5435C2.38599 17.1287 2.6672 16.7631 3.07143 16.6612L6.09795 15.8843C6.37212 15.814 6.65685 15.8738 6.88182 16.046C7.10678 16.2183 7.23333 16.4819 7.23333 16.7666V21.0937C7.23333 21.2871 7.07515 21.4452 6.88182 21.4452C6.68848 21.4452 6.5303 21.2871 6.5303 21.0937V16.7666C6.5303 16.6787 6.48109 16.626 6.44946 16.6014C6.41782 16.5768 6.35455 16.5417 6.27019 16.5627L3.24367 17.3396C3.15228 17.3642 3.08901 17.445 3.08901 17.5399V22.1518C3.08901 22.3521 2.93434 22.5103 2.7375 22.5103Z" fill="#0A1B33"/>
<path d="M19.149 8.92682C19.1033 8.92682 19.0576 8.91979 19.0155 8.8987C18.8854 8.84598 18.7975 8.71592 18.7975 8.57531V7.21848H14.6462C13.8236 7.21848 13.1558 6.55061 13.1558 5.72807V1.49236C13.1558 0.669824 13.8236 0.00195312 14.6462 0.00195312H22.5095C23.332 0.00195312 23.9999 0.669824 23.9999 1.49236V1.87551C23.9999 2.06884 23.8417 2.22702 23.6484 2.22702C23.455 2.22702 23.2969 2.06884 23.2969 1.87551V1.49236C23.2969 1.05649 22.9418 0.704976 22.5095 0.704976H14.6462C14.2103 0.704976 13.8588 1.06 13.8588 1.49236V5.72807C13.8588 6.16395 14.2138 6.51546 14.6462 6.51546H19.149C19.3424 6.51546 19.5005 6.67364 19.5005 6.86697V7.72817L20.6113 6.61739C20.6781 6.55061 20.766 6.51546 20.8609 6.51546H22.5095C22.9454 6.51546 23.2969 6.16043 23.2969 5.72807V3.74906C23.2969 3.55573 23.455 3.39755 23.6484 3.39755C23.8417 3.39755 23.9999 3.55573 23.9999 3.74906V5.72807C23.9999 6.55061 23.332 7.21848 22.5095 7.21848H21.005L19.3986 8.82489C19.3318 8.89167 19.2404 8.92682 19.149 8.92682Z" fill="#0A1B33"/>
<path d="M21.5257 3.1288H15.6274C15.4341 3.1288 15.2759 2.97062 15.2759 2.77729C15.2759 2.58396 15.4341 2.42578 15.6274 2.42578H21.5222C21.7156 2.42578 21.8737 2.58396 21.8737 2.77729C21.8737 2.97062 21.7191 3.1288 21.5257 3.1288Z" fill="#0A1B33"/>
<path d="M20.4099 4.81337H16.7436C16.5503 4.81337 16.3921 4.65519 16.3921 4.46186C16.3921 4.26853 16.5503 4.11035 16.7436 4.11035H20.4134C20.6067 4.11035 20.7649 4.26853 20.7649 4.46186C20.7649 4.65519 20.6067 4.81337 20.4099 4.81337Z" fill="#0A1B33"/>
<path d="M11.6054 23.9971C11.412 23.9971 11.2538 23.8389 11.2538 23.6456V18.5909C10.6176 18.1972 10.1009 17.6418 9.75289 16.9774C9.6615 16.8052 9.72828 16.5943 9.90053 16.5029C10.0728 16.4115 10.2837 16.4783 10.3751 16.6505C10.6914 17.2551 11.1765 17.7508 11.7741 18.0812C11.8866 18.1444 11.9569 18.2604 11.9569 18.387V23.6386C11.9569 23.8389 11.7987 23.9971 11.6054 23.9971Z" fill="#0A1B33"/>
<path d="M9.63056 15.3933C9.43723 15.3933 9.27905 15.2351 9.27905 15.0418V12.4511C9.27905 12.2578 9.43723 12.0996 9.63056 12.0996C9.8239 12.0996 9.98208 12.2578 9.98208 12.4511V15.0418C9.98208 15.2351 9.8239 15.3933 9.63056 15.3933Z" fill="#0A1B33"/>
<path d="M15.309 23.9972C15.1157 23.9972 14.9575 23.839 14.9575 23.6457V18.3906C14.9575 18.264 15.0278 18.1445 15.1403 18.0848C16.0507 17.5786 16.6834 16.7068 16.8768 15.6875C16.9119 15.4976 17.0947 15.3711 17.288 15.4063C17.4779 15.4414 17.6044 15.6242 17.5692 15.8175C17.3513 16.974 16.6623 17.9758 15.6641 18.5945V23.6457C15.6605 23.839 15.5024 23.9972 15.309 23.9972Z" fill="#0A1B33"/>
<path d="M10.699 9.55232C10.6498 9.55232 10.6006 9.54177 10.5549 9.52068L8.6181 8.64191C8.44234 8.56106 8.36149 8.35367 8.44234 8.17791C8.52319 8.00215 8.73058 7.92131 8.90634 8.00215L10.8432 8.88093C11.0189 8.96178 11.0998 9.16917 11.0189 9.34493C10.9592 9.47499 10.8326 9.55232 10.699 9.55232Z" fill="#0A1B33"/>
<path d="M9.56429 12.6328C9.51508 12.6328 9.46587 12.6222 9.42017 12.6011L7.26189 11.6204C7.08614 11.5396 7.00529 11.3322 7.08614 11.1564C7.16699 10.9807 7.37438 10.8998 7.55013 10.9807L9.70841 11.9614C9.88417 12.0422 9.96502 12.2496 9.88417 12.4254C9.82441 12.5554 9.69787 12.6328 9.56429 12.6328Z" fill="#0A1B33"/>
<path d="M18.6785 16.6847C18.5098 16.6847 18.3446 16.6495 18.1864 16.5757L12.6572 14.0659C12.4814 13.985 12.4006 13.7777 12.4814 13.6019C12.5623 13.4261 12.7696 13.3453 12.9454 13.4261L18.4782 15.9359C18.5977 15.9887 18.7278 15.9957 18.8508 15.95C18.9738 15.9043 19.0687 15.8129 19.125 15.6934L19.7858 14.2452C19.8385 14.1257 19.8456 13.9921 19.7999 13.8691C19.7542 13.746 19.6663 13.6511 19.5468 13.5984L17.1354 12.5052C16.9597 12.4243 16.8788 12.2169 16.9597 12.0412C17.0405 11.8654 17.2479 11.7846 17.4237 11.8654L19.835 12.9586C20.1233 13.0922 20.3447 13.3277 20.4572 13.6265C20.5662 13.9253 20.5556 14.2487 20.422 14.5369L19.7612 15.9851C19.6276 16.2734 19.3921 16.4948 19.0968 16.6073C18.9633 16.66 18.8227 16.6847 18.6785 16.6847Z" fill="#0A1B33"/>
<path d="M5.38754 12.3205C4.86028 12.3205 4.33301 12.208 3.84089 11.983L3.41908 11.7897C1.54904 10.9355 0.719473 8.71749 1.57365 6.84745L1.57716 6.84042C1.99194 5.93352 2.73363 5.24456 3.66514 4.89656C4.60016 4.54857 5.61251 4.58372 6.51941 4.9985L6.94122 5.19183C7.84812 5.60662 8.5406 6.3483 8.8886 7.27981C9.23659 8.21483 9.20144 9.22718 8.78666 10.1341L8.78314 10.1411C8.37187 11.0445 7.62667 11.7335 6.69516 12.0815C6.26984 12.2431 5.82693 12.3205 5.38754 12.3205ZM4.97276 5.36056C4.61422 5.36056 4.25568 5.42383 3.9112 5.55389C3.15193 5.8351 2.55085 6.39752 2.21691 7.13217L2.2134 7.1392C1.52092 8.65773 2.1923 10.4575 3.71083 11.1499L4.13265 11.3433C4.86731 11.6807 5.68984 11.7089 6.44911 11.4241C7.20837 11.1429 7.80946 10.5805 8.14339 9.84584L8.14691 9.83881C8.48084 9.10415 8.51248 8.28162 8.22775 7.52235C7.94655 6.76309 7.38413 6.162 6.64947 5.82807L6.22765 5.63474C5.82693 5.45195 5.39809 5.36056 4.97276 5.36056Z" fill="#0A1B33"/>
<path d="M3.77616 12.6635C3.72695 12.6635 3.67774 12.653 3.63204 12.6319C3.45629 12.551 3.37896 12.3436 3.4598 12.1679L6.8308 4.7756C6.91164 4.59984 7.11904 4.52251 7.29479 4.60336C7.47055 4.68421 7.54788 4.8916 7.46703 5.06735L4.09604 12.4596C4.03628 12.5897 3.90974 12.6635 3.77616 12.6635Z" fill="#0A1B33"/>
<path d="M21.4758 23.9962C21.2824 23.9962 21.1243 23.838 21.1243 23.6446V17.7639C21.1243 16.7656 20.5372 15.8516 19.6303 15.4369C19.4546 15.356 19.3772 15.1486 19.4581 14.9729C19.5389 14.7971 19.7463 14.7198 19.9221 14.8006C21.0821 15.3279 21.8273 16.4949 21.8273 17.7674V23.6482C21.8273 23.838 21.6726 23.9962 21.4758 23.9962Z" fill="#0A1B33"/>
<path d="M14.8115 12.618C14.1647 12.618 13.6375 12.0908 13.6375 11.444V10.2278C13.6375 9.58098 14.1647 9.05371 14.8115 9.05371C15.4583 9.05371 15.9855 9.58098 15.9855 10.2278V11.444C15.9855 12.0908 15.4618 12.618 14.8115 12.618ZM14.8115 9.75322C14.5514 9.75322 14.3405 9.96413 14.3405 10.2242V11.4405C14.3405 11.7006 14.5514 11.9115 14.8115 11.9115C15.0716 11.9115 15.2825 11.7006 15.2825 11.4405V10.2242C15.2825 9.96413 15.0716 9.75322 14.8115 9.75322Z" fill="#0A1B33"/>
<path d="M16.4538 13.4575C15.8071 13.4575 15.2798 12.9302 15.2798 12.2834V11.0637C15.2798 10.4169 15.8071 9.88965 16.4538 9.88965C17.1006 9.88965 17.6279 10.4169 17.6279 11.0637V12.2834C17.6279 12.9302 17.1006 13.4575 16.4538 13.4575ZM16.4538 10.5927C16.1937 10.5927 15.9828 10.8036 15.9828 11.0637V12.2834C15.9828 12.5436 16.1937 12.7545 16.4538 12.7545C16.714 12.7545 16.9249 12.5436 16.9249 12.2834V11.0637C16.9249 10.8071 16.714 10.5927 16.4538 10.5927Z" fill="#0A1B33"/>
<path d="M13.166 11.8661C12.5192 11.8661 11.9919 11.3388 11.9919 10.692V9.47581C11.9919 8.82902 12.5192 8.30176 13.166 8.30176C13.8128 8.30176 14.34 8.82902 14.34 9.47581V10.692C14.34 11.3388 13.8163 11.8661 13.166 11.8661ZM13.166 9.00127C12.9059 9.00127 12.695 9.21217 12.695 9.47229V10.6885C12.695 10.9486 12.9059 11.1595 13.166 11.1595C13.4261 11.1595 13.637 10.9486 13.637 10.6885V9.47229C13.637 9.21569 13.4261 9.00127 13.166 9.00127Z" fill="#0A1B33"/>
<path d="M11.5222 11.176C11.4027 11.176 11.2832 11.1585 11.1707 11.1233C10.9844 11.0636 10.8824 10.8667 10.9422 10.6839C11.002 10.4976 11.1988 10.3957 11.3816 10.4554C11.4273 10.4695 11.473 10.4765 11.5222 10.4765C11.7823 10.4765 11.9932 10.2656 11.9932 10.0055V8.78928C11.9932 8.52916 11.7823 8.31826 11.5222 8.31826C11.2621 8.31826 11.0512 8.52916 11.0512 8.78928V9.87897C11.0512 10.0723 10.893 10.2305 10.6997 10.2305C10.5063 10.2305 10.3481 10.0723 10.3481 9.87897V8.78928C10.3481 8.1425 10.8754 7.61523 11.5222 7.61523C12.169 7.61523 12.6962 8.1425 12.6962 8.78928V10.0055C12.6962 10.6488 12.169 11.176 11.5222 11.176Z" fill="#0A1B33"/>
<path d="M13.2863 15.4685C13.093 15.4685 12.9348 15.3103 12.9348 15.117C12.9348 14.6178 12.7942 14.2312 12.5165 13.9605C12.0419 13.4965 11.2932 13.5035 11.2827 13.5035C11.1878 13.507 11.0964 13.4719 11.0296 13.4051C10.9628 13.3383 10.9241 13.2469 10.9241 13.152V10.6985C10.9241 10.4383 10.7132 10.2274 10.4531 10.2274C10.193 10.2274 9.98208 10.4383 9.98208 10.6985V14.8076C9.98208 15.001 9.8239 15.1591 9.63056 15.1591C9.43723 15.1591 9.27905 15.001 9.27905 14.8076V10.6985C9.27905 10.0517 9.80632 9.52441 10.4531 9.52441C11.0999 9.52441 11.6271 10.0517 11.6271 10.6985V12.8251C11.9927 12.8743 12.5622 13.022 13.0086 13.4543C13.4269 13.8621 13.6378 14.421 13.6378 15.1134C13.6378 15.3103 13.4796 15.4685 13.2863 15.4685Z" fill="#0A1B33"/>
</svg>
