<svg width="25" height="25" viewBox="0 0 25 25" fill="none" xmlns="http://www.w3.org/2000/svg">
<path fill-rule="evenodd" clip-rule="evenodd" d="M11.7929 20.0079C12.1834 20.3984 12.8166 20.3984 13.2071 20.0079C13.5976 19.6174 13.5976 18.9842 13.2071 18.5937L7.91421 13.3008L19.5 13.3008C20.0523 13.3008 20.5 12.8531 20.5 12.3008C20.5 11.7485 20.0523 11.3008 19.5 11.3008L7.91421 11.3008L13.2071 6.00789C13.5976 5.61736 13.5976 4.9842 13.2071 4.59367C12.8166 4.20315 12.1834 4.20315 11.7929 4.59367L4.79361 11.593C4.79119 11.5954 4.78879 11.5978 4.7864 11.6002C4.6099 11.78 4.5008 12.0261 4.5 12.2978C4.5 12.2988 4.5 12.2998 4.5 12.3008C4.5 12.3018 4.5 12.3028 4.5 12.3038C4.5004 12.4383 4.52735 12.5665 4.57588 12.6836C4.62357 12.7988 4.69374 12.907 4.7864 13.0013C4.78875 13.0037 4.79112 13.0061 4.79351 13.0085M11.7929 20.0079L4.79351 13.0085L11.7929 20.0079Z" fill="#0A1B33"/>
</svg>
