<svg width="56" height="56" viewBox="0 0 56 56" fill="none" xmlns="http://www.w3.org/2000/svg">
<path d="M18.2233 51.333L37.7766 51.333C46.27 51.333 51.3333 46.2697 51.3333 37.7763L51.3333 18.2463C51.3333 9.72968 46.27 4.66634 37.7767 4.66634L18.2467 4.66634C9.75332 4.66634 4.68999 9.72967 4.68999 18.223L4.68998 37.7763C4.66665 46.2697 9.72998 51.333 18.2233 51.333ZM23.8233 20.9997C23.1466 20.323 23.1466 19.203 23.8233 18.5263C24.1733 18.1763 24.6166 18.013 25.06 18.013C25.5033 18.013 25.9467 18.1763 26.2967 18.5263L34.5333 26.763C35.21 27.4397 35.21 28.5597 34.5333 29.2363L26.2966 37.473C25.62 38.1497 24.5 38.1497 23.8233 37.473C23.1466 36.7963 23.1466 35.6763 23.8233 34.9997L30.8233 27.9997L23.8233 20.9997Z" fill="white" fill-opacity="0.7"/>
</svg>
