<svg width="56" height="56" viewBox="0 0 56 56" fill="none" xmlns="http://www.w3.org/2000/svg">
<path d="M37.7766 4.66699H18.2233C9.72996 4.66699 4.66663 9.73032 4.66663 18.2237V37.7537C4.66663 46.2703 9.72996 51.3337 18.2233 51.3337H37.7533C46.2466 51.3337 51.31 46.2703 51.31 37.777V18.2237C51.3333 9.73032 46.27 4.66699 37.7766 4.66699ZM32.1766 35.0003C32.8533 35.677 32.8533 36.797 32.1766 37.4737C31.8266 37.8237 31.3833 37.987 30.94 37.987C30.4966 37.987 30.0533 37.8237 29.7033 37.4737L21.4666 29.237C20.79 28.5603 20.79 27.4403 21.4666 26.7637L29.7033 18.527C30.38 17.8503 31.5 17.8503 32.1766 18.527C32.8533 19.2037 32.8533 20.3237 32.1766 21.0003L25.1766 28.0003L32.1766 35.0003Z" fill="white" fill-opacity="0.7"/>
</svg>
