<svg width="12" height="14" viewBox="0 0 12 14" fill="none" xmlns="http://www.w3.org/2000/svg">
<path d="M11.7001 9.63008C11.7001 9.83008 11.6001 10.0051 11.4751 10.1051C11.3501 10.4801 11.3501 11.5801 11.4751 11.9801C11.6001 12.0801 11.7001 12.2551 11.7001 12.4301V12.8301C11.7001 13.1801 11.4251 13.4301 11.1001 13.4301H2.9001C1.5751 13.4301 0.500098 12.3551 0.500098 11.0301V3.03008C0.500098 1.70508 1.5751 0.630078 2.9001 0.630078H11.1001C11.4251 0.630078 11.7001 0.905078 11.7001 1.23008V9.63008ZM3.7001 3.98008V4.48008C3.7001 4.58008 3.7501 4.63008 3.8501 4.63008H9.1501C9.2251 4.63008 9.3001 4.58008 9.3001 4.48008V3.98008C9.3001 3.90508 9.2251 3.83008 9.1501 3.83008H3.8501C3.7501 3.83008 3.7001 3.90508 3.7001 3.98008ZM3.7001 5.58008V6.08008C3.7001 6.18008 3.7501 6.23008 3.8501 6.23008H9.1501C9.2251 6.23008 9.3001 6.18008 9.3001 6.08008V5.58008C9.3001 5.50508 9.2251 5.43008 9.1501 5.43008H3.8501C3.7501 5.43008 3.7001 5.50508 3.7001 5.58008ZM10.0251 11.8301C9.9751 11.4051 9.9751 10.6801 10.0251 10.2301H2.9001C2.4501 10.2301 2.1001 10.6051 2.1001 11.0301C2.1001 11.4801 2.4501 11.8301 2.9001 11.8301H10.0251Z" fill="#FF0090"/>
</svg>
