<svg width="56" height="57" viewBox="0 0 56 57" fill="none" xmlns="http://www.w3.org/2000/svg">
<rect x="0.5" y="1.03125" width="55" height="55" rx="27.5" fill="white"/>
<rect x="0.5" y="1.03125" width="55" height="55" rx="27.5" stroke="#E1E1E1"/>
<path d="M29.5 31.5312C29.5 32.3597 28.8284 33.0312 28 33.0312C27.1716 33.0312 26.5 32.3597 26.5 31.5312C26.5 30.7028 27.1716 30.0312 28 30.0312C28.8284 30.0312 29.5 30.7028 29.5 31.5312Z" fill="#0A1B33"/>
<path fill-rule="evenodd" clip-rule="evenodd" d="M33.2514 22.5332V25.5152H35.4627V34.5312C35.4627 37.4307 33.1121 39.7812 30.2127 39.7812H25.7861C22.8866 39.7812 20.5361 37.4307 20.5361 34.5312V25.5152H22.7474V22.5332C22.7474 19.6326 25.0988 17.2812 27.9994 17.2812C30.9 17.2812 33.2514 19.6326 33.2514 22.5332ZM24.2474 25.5152V22.5332C24.2474 20.4611 25.9272 18.7812 27.9994 18.7812C30.0716 18.7812 31.7514 20.4611 31.7514 22.5332V25.5152H24.2474ZM33.9627 27.0153V34.5312C33.9627 36.6024 32.2837 38.2812 30.2127 38.2812H25.7861C23.7151 38.2812 22.0361 36.6024 22.0361 34.5312V27.0153H33.9627Z" fill="#0A1B33"/>
</svg>
