<svg width="25" height="25" viewBox="0 0 25 25" fill="none" xmlns="http://www.w3.org/2000/svg">
<g id="SVG">
<path id="Vector" d="M13.6074 15.5508C13.6074 16.3792 12.9358 17.0508 12.1074 17.0508C11.279 17.0508 10.6074 16.3792 10.6074 15.5508C10.6074 14.7224 11.279 14.0508 12.1074 14.0508C12.9358 14.0508 13.6074 14.7224 13.6074 15.5508Z" fill="#0A1B33"/>
<path id="Vector_2" fill-rule="evenodd" clip-rule="evenodd" d="M17.3598 6.55278V9.53476H19.5711V18.5508C19.5711 21.4503 17.2205 23.8008 14.3211 23.8008H9.89453C6.99504 23.8008 4.64453 21.4503 4.64453 18.5508V9.53476H6.8558V6.55278C6.8558 3.65218 9.2072 1.30078 12.1078 1.30078C15.0084 1.30078 17.3598 3.65218 17.3598 6.55278ZM8.3558 9.53476V6.55278C8.3558 4.48061 10.0356 2.80078 12.1078 2.80078C14.18 2.80078 15.8598 4.48061 15.8598 6.55278V9.53476H8.3558ZM18.0711 11.0348V18.5508C18.0711 20.6219 16.3921 22.3008 14.3211 22.3008H9.89453C7.82346 22.3008 6.14453 20.6219 6.14453 18.5508V11.0348H18.0711Z" fill="#0A1B33"/>
</g>
</svg>
