<svg width="65" height="92" viewBox="0 0 65 92" fill="none" xmlns="http://www.w3.org/2000/svg">
<g clip-path="url(#clip0_1582_12869)">
<path d="M58.0802 49.02H61.9283C63.2642 49.02 64.3507 47.9336 64.3507 46.5977C64.3507 45.2622 63.2642 44.1758 61.9283 44.1758H41.5577C41.0401 44.1758 40.6202 44.5957 40.6202 45.1133C40.6202 45.6309 41.0401 46.0508 41.5577 46.0508H61.9283C62.2301 46.0508 62.4757 46.2959 62.4757 46.5977C62.4757 46.8994 62.2301 47.145 61.9283 47.145H28.651C27.6334 47.145 26.7061 46.5855 26.2315 45.6846C25.7574 44.7842 25.8199 43.7036 26.3946 42.8643L27.754 40.8794L29.1988 40.707L27.2969 43.4829C26.9468 43.9946 26.9107 44.627 27.1993 45.1748C27.4888 45.7232 28.0318 46.0508 28.651 46.0508H37.8077C38.3258 46.0508 38.7452 45.6309 38.7452 45.1133C38.7452 44.5957 38.3258 44.1758 37.8077 44.1758H29.0953L31.2779 40.9907C31.3995 40.8135 31.4947 40.6231 31.5645 40.4248L52.8038 37.8887L56.8399 37.4077C59.8809 37.0435 62.1739 34.46 62.1739 31.3984V27.9453C62.1739 27.4277 61.754 27.0078 61.2364 27.0078C60.7188 27.0078 60.2989 27.4277 60.2989 27.9453V28.3989L48.899 29.1528L48.4293 23.6299L60.2989 23.5586V24.1807C60.2989 24.6982 60.7188 25.1182 61.2364 25.1182C61.754 25.1182 62.1739 24.6982 62.1739 24.1807V22.6211C62.1739 22.6172 62.1744 22.6138 62.1744 22.6099C62.1744 22.6069 62.1739 22.604 62.1739 22.6011V17.4605C62.1739 16.1167 61.1231 15.0088 59.7818 14.938L32.4927 13.4927C32.4815 13.4922 32.4703 13.4912 32.4591 13.4912L18.8897 12.7725L18.6788 11.8232C18.3414 10.3027 17.1334 9.13867 15.6016 8.85791L12.5826 8.30469L12.7222 7.5127C12.7735 7.22071 12.7086 6.92627 12.5386 6.68408C12.3687 6.44141 12.1143 6.27979 11.8228 6.22803L3.68952 4.79395C2.94148 4.66211 2.18659 4.8291 1.56403 5.26514C0.941476 5.70117 0.525948 6.35303 0.394112 7.10156C0.121652 8.64649 1.15681 10.1245 2.70173 10.397L10.835 11.8311C10.9 11.8423 10.9644 11.8481 11.0279 11.8481C11.5552 11.8481 12.024 11.4692 12.1192 10.9321L12.2569 10.1509L15.2637 10.7017C16.0528 10.8462 16.6749 11.4458 16.8487 12.229L22.0694 35.7603C22.0694 35.7607 22.0699 35.7617 22.0699 35.7622L22.8726 39.3804C23.109 40.4453 24.0435 41.1787 25.108 41.1787C25.1656 41.1787 25.2232 41.1758 25.2813 41.1714L24.8477 41.8047C23.8785 43.2197 23.773 45.0415 24.5728 46.5586C25.3731 48.0767 26.9356 49.0195 28.651 49.0195H29.7042V49.5093C27.107 49.9561 25.1241 52.2232 25.1241 54.9458C25.1241 57.9883 27.5992 60.4634 30.6417 60.4634C33.6837 60.4634 36.1593 57.9883 36.1593 54.9458C36.1593 53.5864 35.6602 52.2803 34.7545 51.2681C34.4093 50.8823 33.817 50.8491 33.4307 51.1943C33.045 51.5396 33.0118 52.1323 33.3575 52.5181C33.9552 53.186 34.2843 54.0484 34.2843 54.9458C34.2843 56.9546 32.65 58.5884 30.6417 58.5884C28.6334 58.5884 26.9991 56.9546 26.9991 54.9458C26.9991 53.2612 28.1485 51.8408 29.7042 51.4263V52.4819C28.711 52.8609 28.0025 53.8213 28.0025 54.9458C28.0025 56.4014 29.1861 57.5855 30.6417 57.5855C32.0972 57.5855 33.2808 56.4014 33.2808 54.9458C33.2808 53.8213 32.5723 52.8613 31.5792 52.4819V49.02H56.2052V49.5098C53.608 49.9561 51.6251 52.2232 51.6251 54.9458C51.6251 57.9883 54.1002 60.4639 57.1427 60.4639C60.1851 60.4639 62.6602 57.9883 62.6602 54.9458C62.6602 53.5864 62.1617 52.2803 61.2559 51.2681C60.9107 50.8823 60.3179 50.8496 59.9322 51.1948C59.5465 51.54 59.5133 52.1323 59.8585 52.5186C60.4561 53.1865 60.7857 54.0484 60.7857 54.9458C60.7857 56.9546 59.1514 58.5889 57.1431 58.5889C55.1344 58.5889 53.5001 56.9546 53.5001 54.9458C53.5001 53.2617 54.65 51.8408 56.2056 51.4263V52.4819C55.212 52.8609 54.5035 53.8213 54.5035 54.9458C54.5035 56.4014 55.6876 57.5855 57.1431 57.5855C58.5982 57.5855 59.7823 56.4014 59.7823 54.9458C59.7823 53.8213 59.0738 52.8613 58.0806 52.4819V49.02H58.0802ZM3.02741 8.5503C2.50056 8.45752 2.14802 7.95362 2.24079 7.42725C2.28571 7.17188 2.42732 6.94971 2.63923 6.80078C2.80427 6.68555 2.99616 6.62549 3.19343 6.62549C3.25007 6.62549 3.3072 6.63037 3.36384 6.64063L10.7423 7.94141L10.4053 9.85156L3.02741 8.5503ZM37.0675 37.8794L36.1231 31.876L47.1866 31.1445L47.6519 36.6157L37.0675 37.8794ZM60.2989 30.2783V31.398C60.2989 33.5112 58.7159 35.2944 56.6178 35.5454L49.5147 36.3936L49.0577 31.021L60.2989 30.2783ZM47.0274 29.2764L35.8306 30.0161L34.8385 23.7109L46.5484 23.6411L47.0274 29.2764ZM21.3345 23.792L32.9425 23.7222L33.9522 30.1406L22.9049 30.8706L21.3345 23.792ZM45.9053 16.0806L46.3892 21.7666L34.544 21.8374L33.5352 15.4253L45.9053 16.0806ZM60.2989 17.46V21.6836L48.2701 21.7554L47.796 16.1807L59.6827 16.8101C60.0284 16.8286 60.2989 17.1138 60.2989 17.46ZM31.6212 15.3242L32.648 21.8491L20.919 21.9194L19.3116 14.6724L31.6212 15.3242ZM24.7027 38.9741L23.316 32.7227L34.2447 32L35.2047 38.1016L30.6612 38.6441C30.6583 38.6445 30.6553 38.6445 30.6529 38.6445L27.1094 39.0679C27.1075 39.0679 27.1055 39.0684 27.1036 39.0689L25.1632 39.3003C24.9478 39.3257 24.7501 39.186 24.7027 38.9741ZM30.6412 55.7105C30.2198 55.7105 29.877 55.3672 29.877 54.9458C29.877 54.5244 30.2198 54.1817 30.6412 54.1817C31.0631 54.1817 31.4058 54.5244 31.4058 54.9458C31.4058 55.3672 31.0626 55.7105 30.6412 55.7105ZM57.1427 55.7105C56.7213 55.7105 56.378 55.3672 56.378 54.9458C56.378 54.5244 56.7213 54.1817 57.1427 54.1817C57.564 54.1817 57.9068 54.5244 57.9068 54.9458C57.9068 55.3672 57.564 55.7105 57.1427 55.7105Z" fill="#FF0090"/>
</g>
<path d="M16.9735 79.6477H15.2007C15.1325 79.2689 15.0057 78.9356 14.82 78.6477C14.6344 78.3598 14.4072 78.1155 14.1382 77.9148C13.8693 77.714 13.5682 77.5625 13.2348 77.4602C12.9053 77.358 12.5549 77.3068 12.1837 77.3068C11.5132 77.3068 10.9128 77.4754 10.3825 77.8125C9.85603 78.1496 9.43936 78.6439 9.13255 79.2955C8.82952 79.947 8.678 80.7424 8.678 81.6818C8.678 82.6288 8.82952 83.428 9.13255 84.0795C9.43936 84.7311 9.85792 85.2235 10.3882 85.5568C10.9185 85.8902 11.5151 86.0568 12.178 86.0568C12.5454 86.0568 12.8939 86.0076 13.2235 85.9091C13.5568 85.8068 13.8579 85.6572 14.1269 85.4602C14.3958 85.2633 14.6231 85.0227 14.8087 84.7386C14.9981 84.4508 15.1288 84.1212 15.2007 83.75L16.9735 83.7557C16.8788 84.3277 16.695 84.8542 16.4223 85.3352C16.1534 85.8125 15.8068 86.2254 15.3825 86.5739C14.9621 86.9186 14.481 87.1856 13.9394 87.375C13.3977 87.5644 12.8068 87.6591 12.1666 87.6591C11.1591 87.6591 10.2613 87.4205 9.47346 86.9432C8.68558 86.4621 8.06436 85.7746 7.60982 84.8807C7.15906 83.9867 6.93368 82.9205 6.93368 81.6818C6.93368 80.4394 7.16096 79.3731 7.6155 78.483C8.07005 77.589 8.69126 76.9034 9.47914 76.4261C10.267 75.9451 11.1628 75.7045 12.1666 75.7045C12.7841 75.7045 13.3598 75.7936 13.8939 75.9716C14.4318 76.1458 14.9147 76.4034 15.3428 76.7443C15.7708 77.0814 16.125 77.4943 16.4053 77.983C16.6856 78.4678 16.875 79.0227 16.9735 79.6477ZM21.4777 87.6932C20.9247 87.6932 20.4247 87.5909 19.9777 87.3864C19.5307 87.178 19.1766 86.8769 18.9152 86.483C18.6576 86.089 18.5289 85.6061 18.5289 85.0341C18.5289 84.5417 18.6235 84.1364 18.8129 83.8182C19.0023 83.5 19.258 83.2481 19.58 83.0625C19.902 82.8769 20.2618 82.7367 20.6595 82.642C21.0573 82.5473 21.4626 82.4754 21.8754 82.4261C22.3982 82.3655 22.8224 82.3163 23.1482 82.2784C23.4739 82.2367 23.7107 82.1705 23.8584 82.0795C24.0061 81.9886 24.08 81.8409 24.08 81.6364V81.5966C24.08 81.1004 23.9398 80.7159 23.6595 80.4432C23.383 80.1705 22.9701 80.0341 22.4209 80.0341C21.8489 80.0341 21.3982 80.161 21.0686 80.4148C20.7429 80.6648 20.5175 80.9432 20.3925 81.25L18.7959 80.8864C18.9853 80.3561 19.2618 79.928 19.6254 79.6023C19.9929 79.2727 20.4152 79.0341 20.8925 78.8864C21.3698 78.7348 21.8717 78.6591 22.3982 78.6591C22.7467 78.6591 23.116 78.7008 23.5061 78.7841C23.9001 78.8636 24.2675 79.0114 24.6084 79.2273C24.9531 79.4432 25.2353 79.7519 25.455 80.1534C25.6747 80.5511 25.7845 81.0682 25.7845 81.7045V87.5H24.1254V86.3068H24.0573C23.9474 86.5265 23.7826 86.7424 23.5629 86.9545C23.3432 87.1667 23.061 87.3428 22.7164 87.483C22.3717 87.6231 21.9588 87.6932 21.4777 87.6932ZM21.847 86.3295C22.3167 86.3295 22.7182 86.2367 23.0516 86.0511C23.3887 85.8655 23.6444 85.6231 23.8186 85.3239C23.9967 85.0208 24.0857 84.697 24.0857 84.3523V83.2273C24.0251 83.2879 23.9076 83.3447 23.7334 83.3977C23.5629 83.447 23.3679 83.4905 23.1482 83.5284C22.9285 83.5625 22.7145 83.5947 22.5061 83.625C22.2978 83.6515 22.1236 83.6742 21.9834 83.6932C21.6539 83.7348 21.3527 83.8049 21.08 83.9034C20.8111 84.0019 20.5951 84.1439 20.4323 84.3295C20.2732 84.5114 20.1936 84.7538 20.1936 85.0568C20.1936 85.4773 20.3489 85.7955 20.6595 86.0114C20.9701 86.2235 21.366 86.3295 21.847 86.3295ZM28.0473 87.5V78.7727H29.6894V80.1591H29.7803C29.9394 79.6894 30.2197 79.3201 30.6212 79.0511C31.0265 78.7784 31.4848 78.642 31.9962 78.642C32.1022 78.642 32.2272 78.6458 32.3712 78.6534C32.5189 78.661 32.6344 78.6705 32.7178 78.6818V80.3068C32.6496 80.2879 32.5284 80.267 32.3541 80.2443C32.1799 80.2178 32.0057 80.2045 31.8314 80.2045C31.4299 80.2045 31.0719 80.2898 30.7575 80.4602C30.4469 80.6269 30.2007 80.8598 30.0189 81.1591C29.8371 81.4545 29.7462 81.7917 29.7462 82.1705V87.5H28.0473ZM34.1879 87.5V78.7727H35.83V80.1591H35.9209C36.08 79.6894 36.3603 79.3201 36.7618 79.0511C37.1671 78.7784 37.6254 78.642 38.1368 78.642C38.2429 78.642 38.3679 78.6458 38.5118 78.6534C38.6595 78.661 38.7751 78.6705 38.8584 78.6818V80.3068C38.7902 80.2879 38.669 80.267 38.4948 80.2443C38.3205 80.2178 38.1463 80.2045 37.972 80.2045C37.5705 80.2045 37.2126 80.2898 36.8982 80.4602C36.5876 80.6269 36.3414 80.8598 36.1595 81.1591C35.9777 81.4545 35.8868 81.7917 35.8868 82.1705V87.5H34.1879ZM40.3286 87.5V78.7727H42.0274V87.5H40.3286ZM41.1865 77.4261C40.8911 77.4261 40.6373 77.3277 40.4252 77.1307C40.2168 76.9299 40.1127 76.6913 40.1127 76.4148C40.1127 76.1345 40.2168 75.8958 40.4252 75.6989C40.6373 75.4981 40.8911 75.3977 41.1865 75.3977C41.482 75.3977 41.7339 75.4981 41.9422 75.6989C42.1543 75.8958 42.2604 76.1345 42.2604 76.4148C42.2604 76.6913 42.1543 76.9299 41.9422 77.1307C41.7339 77.3277 41.482 77.4261 41.1865 77.4261ZM48.3868 78.7727V80.1364H43.6198V78.7727H48.3868ZM44.8982 76.6818H46.597V84.9375C46.597 85.267 46.6463 85.5152 46.7448 85.6818C46.8432 85.8447 46.9701 85.9564 47.1254 86.017C47.2845 86.0739 47.4569 86.1023 47.6425 86.1023C47.7789 86.1023 47.8982 86.0928 48.0004 86.0739C48.1027 86.0549 48.1823 86.0398 48.2391 86.0284L48.5459 87.4318C48.4474 87.4697 48.3073 87.5076 48.1254 87.5455C47.9436 87.5871 47.7164 87.6098 47.4436 87.6136C46.9967 87.6212 46.58 87.5417 46.1936 87.375C45.8073 87.2083 45.4948 86.9508 45.2561 86.6023C45.0175 86.2538 44.8982 85.8163 44.8982 85.2898V76.6818ZM53.8485 87.6761C53.0303 87.6761 52.3163 87.4886 51.7064 87.1136C51.0966 86.7386 50.6231 86.214 50.286 85.5398C49.9488 84.8655 49.7803 84.0777 49.7803 83.1761C49.7803 82.2708 49.9488 81.4792 50.286 80.8011C50.6231 80.1231 51.0966 79.5966 51.7064 79.2216C52.3163 78.8466 53.0303 78.6591 53.8485 78.6591C54.6666 78.6591 55.3807 78.8466 55.9905 79.2216C56.6003 79.5966 57.0738 80.1231 57.411 80.8011C57.7481 81.4792 57.9166 82.2708 57.9166 83.1761C57.9166 84.0777 57.7481 84.8655 57.411 85.5398C57.0738 86.214 56.6003 86.7386 55.9905 87.1136C55.3807 87.4886 54.6666 87.6761 53.8485 87.6761ZM53.8541 86.25C54.3844 86.25 54.8238 86.1098 55.1723 85.8295C55.5208 85.5492 55.7784 85.1761 55.945 84.7102C56.1155 84.2443 56.2007 83.7311 56.2007 83.1705C56.2007 82.6136 56.1155 82.1023 55.945 81.6364C55.7784 81.1667 55.5208 80.7898 55.1723 80.5057C54.8238 80.2216 54.3844 80.0795 53.8541 80.0795C53.32 80.0795 52.8769 80.2216 52.5246 80.5057C52.1761 80.7898 51.9166 81.1667 51.7462 81.6364C51.5795 82.1023 51.4962 82.6136 51.4962 83.1705C51.4962 83.7311 51.5795 84.2443 51.7462 84.7102C51.9166 85.1761 52.1761 85.5492 52.5246 85.8295C52.8769 86.1098 53.32 86.25 53.8541 86.25Z" fill="#FF0090"/>
<defs>
<clipPath id="clip0_1582_12869">
<rect width="64" height="64" fill="white" transform="translate(0.350586 0.5)"/>
</clipPath>
</defs>
</svg>
