<svg width="40" height="40" viewBox="0 0 40 40" fill="none" xmlns="http://www.w3.org/2000/svg">
<g clip-path="url(#clip0_4113_34525)">
<path d="M36.081 30.325H38.4861C39.321 30.325 40 29.646 40 28.811C40 27.9764 39.321 27.2974 38.4861 27.2974H25.7544C25.431 27.2974 25.1685 27.5598 25.1685 27.8833C25.1685 28.2068 25.431 28.4692 25.7544 28.4692H38.4861C38.6747 28.4692 38.8282 28.6224 38.8282 28.811C38.8282 28.9996 38.6747 29.1531 38.4861 29.1531H17.6877C17.0517 29.1531 16.4722 28.8034 16.1756 28.2404C15.8793 27.6776 15.9183 27.0023 16.2775 26.4777L17.1271 25.2371L18.0301 25.1294L16.8415 26.8643C16.6227 27.1841 16.6001 27.5794 16.7804 27.9218C16.9614 28.2645 17.3008 28.4692 17.6877 28.4692H23.4107C23.7345 28.4692 23.9966 28.2068 23.9966 27.8833C23.9966 27.5598 23.7345 27.2974 23.4107 27.2974H17.9654L19.3296 25.3067C19.4056 25.1959 19.4651 25.0769 19.5087 24.953L32.7833 23.3679L35.3058 23.0673C37.2065 22.8397 38.6396 21.225 38.6396 19.3115V17.1533C38.6396 16.8298 38.3771 16.5674 38.0536 16.5674C37.7302 16.5674 37.4677 16.8298 37.4677 17.1533V17.4368L30.3428 17.908L30.0492 14.4562L37.4677 14.4116V14.8004C37.4677 15.1239 37.7302 15.3864 38.0536 15.3864C38.3771 15.3864 38.6396 15.1239 38.6396 14.8004V13.8257C38.6396 13.8232 38.6399 13.8211 38.6399 13.8187C38.6399 13.8168 38.6396 13.815 38.6396 13.8132V10.6003C38.6396 9.76044 37.9828 9.06799 37.1445 9.02374L20.0889 8.12042C20.0818 8.12012 20.0748 8.11951 20.0678 8.11951L11.587 7.67029L11.4551 7.07703C11.2442 6.12671 10.4892 5.39917 9.53191 5.2237L7.645 4.87793L7.73228 4.38294C7.76433 4.20044 7.72374 4.01642 7.61754 3.86505C7.51134 3.71338 7.35234 3.61237 7.17015 3.58002L2.08684 2.68372C1.61931 2.60132 1.1475 2.70569 0.758405 2.97821C0.369306 3.25073 0.109602 3.65814 0.0272041 4.12598C-0.143084 5.09155 0.503889 6.01532 1.46947 6.18561L6.55278 7.08191C6.59337 7.08893 6.63365 7.09259 6.67332 7.09259C7.00291 7.09259 7.29588 6.85578 7.35539 6.52008L7.44145 6.0318L9.32072 6.37604C9.81389 6.46637 10.2027 6.84113 10.3113 7.33063L13.5743 22.0377C13.5743 22.038 13.5746 22.0386 13.5746 22.0389L14.0763 24.3002C14.224 24.9658 14.8081 25.4242 15.4734 25.4242C15.5094 25.4242 15.5454 25.4224 15.5817 25.4196L15.3107 25.8154C14.7049 26.6998 14.639 27.8384 15.1389 28.7866C15.6391 29.7354 16.6156 30.3247 17.6877 30.3247H18.346V30.6308C16.7228 30.91 15.4834 32.327 15.4834 34.0286C15.4834 35.9302 17.0304 37.4771 18.9319 37.4771C20.8332 37.4771 22.3804 35.9302 22.3804 34.0286C22.3804 33.179 22.0685 32.3627 21.5024 31.73C21.2867 31.489 20.9165 31.4682 20.6751 31.684C20.434 31.8997 20.4133 32.2702 20.6293 32.5113C21.0029 32.9288 21.2085 33.4677 21.2085 34.0286C21.2085 35.2841 20.1871 36.3052 18.9319 36.3052C17.6767 36.3052 16.6553 35.2841 16.6553 34.0286C16.6553 32.9758 17.3737 32.088 18.346 31.8289V32.4887C17.7253 32.7255 17.2825 33.3258 17.2825 34.0286C17.2825 34.9384 18.0222 35.6784 18.9319 35.6784C19.8417 35.6784 20.5814 34.9384 20.5814 34.0286C20.5814 33.3258 20.1386 32.7258 19.5179 32.4887V30.325H34.9091V30.6311C33.2859 30.91 32.0466 32.327 32.0466 34.0286C32.0466 35.9302 33.5935 37.4774 35.495 37.4774C37.3966 37.4774 38.9435 35.9302 38.9435 34.0286C38.9435 33.179 38.6319 32.3627 38.0658 31.73C37.8501 31.489 37.4796 31.4685 37.2385 31.6843C36.9974 31.9 36.9767 32.2702 37.1924 32.5116C37.566 32.9291 37.772 33.4677 37.772 34.0286C37.772 35.2841 36.7505 36.3055 35.4953 36.3055C34.2399 36.3055 33.2184 35.2841 33.2184 34.0286C33.2184 32.9761 33.9371 32.088 34.9094 31.8289V32.4887C34.2884 32.7255 33.8456 33.3258 33.8456 34.0286C33.8456 34.9384 34.5856 35.6784 35.4953 35.6784C36.4048 35.6784 37.1448 34.9384 37.1448 34.0286C37.1448 33.3258 36.702 32.7258 36.0813 32.4887L36.081 30.325ZM1.67302 5.03143C1.34373 4.97345 1.1234 4.65851 1.18138 4.32953C1.20946 4.16992 1.29796 4.03107 1.4304 3.93799C1.53355 3.86597 1.65349 3.82843 1.77678 3.82843C1.81218 3.82843 1.84788 3.83148 1.88328 3.83789L6.4948 4.65088L6.28422 5.84473L1.67302 5.03143ZM22.948 23.3621L22.3578 19.61L29.2725 19.1528L29.5633 22.5723L22.948 23.3621ZM37.4677 18.6115V19.3112C37.4677 20.632 36.4783 21.7465 35.167 21.9034L30.7276 22.4335L30.4419 19.0756L37.4677 18.6115ZM29.173 17.9852L22.175 18.4476L21.5549 14.5068L28.8736 14.4632L29.173 17.9852ZM13.115 14.5575L20.3699 14.5139L21.001 18.5254L14.0964 18.9816L13.115 14.5575ZM28.4717 9.73786L28.7742 13.2916L21.3709 13.3359L20.7404 9.32831L28.4717 9.73786ZM37.4677 10.6V13.2397L29.9497 13.2846L29.6534 9.80042L37.0826 10.1938C37.2986 10.2054 37.4677 10.3836 37.4677 10.6ZM19.5441 9.26514L20.1859 13.3432L12.8553 13.3871L11.8506 8.85773L19.5441 9.26514ZM15.2201 24.0463L14.3534 20.1392L21.1838 19.6875L21.7838 23.501L18.9441 23.84C18.9423 23.8403 18.9405 23.8403 18.9389 23.8403L16.7243 24.1049C16.7231 24.1049 16.7218 24.1052 16.7206 24.1055L15.5079 24.2502C15.3733 24.2661 15.2497 24.1788 15.2201 24.0463ZM18.9316 34.5065C18.6683 34.5065 18.454 34.292 18.454 34.0286C18.454 33.7653 18.6683 33.551 18.9316 33.551C19.1953 33.551 19.4095 33.7653 19.4095 34.0286C19.4095 34.292 19.195 34.5065 18.9316 34.5065ZM35.495 34.5065C35.2317 34.5065 35.0171 34.292 35.0171 34.0286C35.0171 33.7653 35.2317 33.551 35.495 33.551C35.7584 33.551 35.9726 33.7653 35.9726 34.0286C35.9726 34.292 35.7584 34.5065 35.495 34.5065Z" fill="#999999"/>
</g>
<defs>
<clipPath id="clip0_4113_34525">
<rect width="40" height="40" fill="white"/>
</clipPath>
</defs>
</svg>
