<svg width="65" height="65" viewBox="0 0 65 65" fill="none" xmlns="http://www.w3.org/2000/svg">
<g clip-path="url(#clip0_1582_12907)">
<path d="M58.0802 49.02H61.9283C63.2642 49.02 64.3507 47.9336 64.3507 46.5977C64.3507 45.2622 63.2642 44.1758 61.9283 44.1758H41.5577C41.0401 44.1758 40.6202 44.5957 40.6202 45.1133C40.6202 45.6309 41.0401 46.0508 41.5577 46.0508H61.9283C62.2301 46.0508 62.4757 46.2959 62.4757 46.5977C62.4757 46.8994 62.2301 47.145 61.9283 47.145H28.651C27.6334 47.145 26.7061 46.5855 26.2315 45.6846C25.7574 44.7842 25.8199 43.7036 26.3946 42.8643L27.754 40.8794L29.1988 40.707L27.2969 43.4829C26.9468 43.9946 26.9107 44.627 27.1993 45.1748C27.4888 45.7231 28.0318 46.0508 28.651 46.0508H37.8077C38.3258 46.0508 38.7452 45.6309 38.7452 45.1133C38.7452 44.5957 38.3258 44.1758 37.8077 44.1758H29.0953L31.2779 40.9907C31.3995 40.8135 31.4947 40.6231 31.5645 40.4248L52.8038 37.8887L56.8399 37.4077C59.8809 37.0435 62.1739 34.46 62.1739 31.3984V27.9453C62.1739 27.4277 61.754 27.0078 61.2364 27.0078C60.7188 27.0078 60.2989 27.4277 60.2989 27.9453V28.3989L48.899 29.1528L48.4293 23.6299L60.2989 23.5586V24.1807C60.2989 24.6982 60.7188 25.1182 61.2364 25.1182C61.754 25.1182 62.1739 24.6982 62.1739 24.1807V22.6211C62.1739 22.6172 62.1744 22.6138 62.1744 22.6099C62.1744 22.6069 62.1739 22.604 62.1739 22.6011V17.4605C62.1739 16.1167 61.1231 15.0088 59.7818 14.938L32.4927 13.4927C32.4815 13.4922 32.4703 13.4912 32.4591 13.4912L18.8897 12.7725L18.6788 11.8232C18.3414 10.3027 17.1334 9.13867 15.6016 8.85791L12.5826 8.30469L12.7222 7.5127C12.7735 7.22071 12.7086 6.92627 12.5386 6.68408C12.3687 6.44141 12.1143 6.27979 11.8228 6.22803L3.68952 4.79395C2.94148 4.66211 2.18659 4.8291 1.56403 5.26514C0.941476 5.70117 0.525948 6.35303 0.394112 7.10156C0.121652 8.64649 1.15681 10.1245 2.70173 10.397L10.835 11.8311C10.9 11.8423 10.9644 11.8481 11.0279 11.8481C11.5552 11.8481 12.024 11.4692 12.1192 10.9321L12.2569 10.1509L15.2637 10.7017C16.0528 10.8462 16.6749 11.4458 16.8487 12.229L22.0694 35.7603C22.0694 35.7607 22.0699 35.7617 22.0699 35.7622L22.8726 39.3804C23.109 40.4453 24.0435 41.1787 25.108 41.1787C25.1656 41.1787 25.2232 41.1758 25.2813 41.1714L24.8477 41.8047C23.8785 43.2197 23.773 45.0415 24.5728 46.5586C25.3731 48.0767 26.9356 49.0195 28.651 49.0195H29.7042V49.5093C27.107 49.9561 25.1241 52.2232 25.1241 54.9458C25.1241 57.9883 27.5992 60.4634 30.6417 60.4634C33.6837 60.4634 36.1593 57.9883 36.1593 54.9458C36.1593 53.5864 35.6602 52.2803 34.7545 51.2681C34.4093 50.8823 33.817 50.8491 33.4307 51.1943C33.045 51.5396 33.0118 52.1323 33.3575 52.5181C33.9552 53.186 34.2843 54.0483 34.2843 54.9458C34.2843 56.9546 32.65 58.5884 30.6417 58.5884C28.6334 58.5884 26.9991 56.9546 26.9991 54.9458C26.9991 53.2612 28.1485 51.8408 29.7042 51.4263V52.4819C28.711 52.8608 28.0025 53.8213 28.0025 54.9458C28.0025 56.4014 29.1861 57.5855 30.6417 57.5855C32.0972 57.5855 33.2808 56.4014 33.2808 54.9458C33.2808 53.8213 32.5723 52.8613 31.5792 52.4819V49.02H56.2052V49.5098C53.608 49.9561 51.6251 52.2232 51.6251 54.9458C51.6251 57.9883 54.1002 60.4639 57.1427 60.4639C60.1851 60.4639 62.6602 57.9883 62.6602 54.9458C62.6602 53.5864 62.1617 52.2803 61.2559 51.2681C60.9107 50.8823 60.3179 50.8496 59.9322 51.1948C59.5465 51.54 59.5133 52.1323 59.8585 52.5186C60.4561 53.1865 60.7857 54.0483 60.7857 54.9458C60.7857 56.9546 59.1514 58.5889 57.1431 58.5889C55.1344 58.5889 53.5001 56.9546 53.5001 54.9458C53.5001 53.2617 54.65 51.8408 56.2056 51.4263V52.4819C55.212 52.8608 54.5035 53.8213 54.5035 54.9458C54.5035 56.4014 55.6876 57.5855 57.1431 57.5855C58.5982 57.5855 59.7823 56.4014 59.7823 54.9458C59.7823 53.8213 59.0738 52.8613 58.0806 52.4819L58.0802 49.02ZM3.02741 8.5503C2.50056 8.45752 2.14802 7.95362 2.24079 7.42725C2.28571 7.17188 2.42732 6.94971 2.63923 6.80078C2.80427 6.68555 2.99616 6.62549 3.19343 6.62549C3.25007 6.62549 3.3072 6.63037 3.36384 6.64063L10.7423 7.94141L10.4053 9.85156L3.02741 8.5503ZM37.0675 37.8794L36.1231 31.876L47.1866 31.1445L47.6519 36.6157L37.0675 37.8794ZM60.2989 30.2783V31.398C60.2989 33.5112 58.7159 35.2944 56.6178 35.5454L49.5147 36.3936L49.0577 31.021L60.2989 30.2783ZM47.0274 29.2764L35.8306 30.0161L34.8385 23.7109L46.5484 23.6411L47.0274 29.2764ZM21.3345 23.792L32.9425 23.7222L33.9522 30.1406L22.9049 30.8706L21.3345 23.792ZM45.9053 16.0806L46.3892 21.7666L34.544 21.8374L33.5352 15.4253L45.9053 16.0806ZM60.2989 17.46V21.6836L48.2701 21.7554L47.796 16.1807L59.6827 16.8101C60.0284 16.8286 60.2989 17.1138 60.2989 17.46ZM31.6212 15.3242L32.648 21.8491L20.919 21.9194L19.3116 14.6724L31.6212 15.3242ZM24.7027 38.9741L23.316 32.7227L34.2447 32L35.2047 38.1016L30.6612 38.644C30.6583 38.6445 30.6553 38.6445 30.6529 38.6445L27.1094 39.0679C27.1075 39.0679 27.1055 39.0684 27.1036 39.0689L25.1632 39.3003C24.9478 39.3257 24.7501 39.186 24.7027 38.9741ZM30.6412 55.7105C30.2198 55.7105 29.877 55.3672 29.877 54.9458C29.877 54.5244 30.2198 54.1816 30.6412 54.1816C31.0631 54.1816 31.4058 54.5244 31.4058 54.9458C31.4058 55.3672 31.0626 55.7105 30.6412 55.7105ZM57.1427 55.7105C56.7213 55.7105 56.378 55.3672 56.378 54.9458C56.378 54.5244 56.7213 54.1816 57.1427 54.1816C57.564 54.1816 57.9068 54.5244 57.9068 54.9458C57.9068 55.3672 57.564 55.7105 57.1427 55.7105Z" fill="#FF0090"/>
</g>
<defs>
<clipPath id="clip0_1582_12907">
<rect width="64" height="64" fill="white" transform="translate(0.350586 0.5)"/>
</clipPath>
</defs>
</svg>