<svg width="104" height="93" viewBox="0 0 104 93" fill="none" xmlns="http://www.w3.org/2000/svg">
<g clip-path="url(#clip0_1582_12859)">
<path d="M52.0195 65.1175C43.4722 65.1175 35.4363 61.7506 29.3922 55.6371C23.3482 49.5235 20.0195 41.3953 20.0195 32.7497C20.0195 28.2766 20.9049 23.9466 22.6509 19.8799C22.8573 19.3997 23.4094 19.1796 23.8843 19.3878C24.3592 19.5964 24.577 20.155 24.3708 20.6354C22.7277 24.4622 21.8945 28.538 21.8945 32.7497C21.8945 40.8886 25.0282 48.5406 30.718 54.296C36.4079 60.0514 43.973 63.2209 52.0195 63.2209C60.066 63.2209 67.631 60.0513 73.321 54.296C79.011 48.5407 82.1445 40.8886 82.1445 32.7497C82.1445 24.6107 79.0109 16.9587 73.321 11.2033C67.6312 5.4479 60.066 2.27839 52.0195 2.27839C46.7745 2.27839 41.6103 3.66236 37.085 6.28074C32.6947 8.82111 28.9747 12.4701 26.3273 16.8329C26.0564 17.2792 25.4793 17.4189 25.0379 17.1451C24.5967 16.8711 24.4585 16.2872 24.7293 15.8409C27.5408 11.2076 31.4914 7.33257 36.154 4.63454C40.9623 1.85242 46.4484 0.381836 52.0195 0.381836C60.5669 0.381836 68.6028 3.74872 74.6469 9.86219C80.6909 15.9758 84.0195 24.104 84.0195 32.7497C84.0195 41.3953 80.6909 49.5235 74.6469 55.6371C68.6028 61.7506 60.5669 65.1175 52.0195 65.1175Z" fill="#999999"/>
<path d="M52.0195 60.0601C37.1317 60.0601 25.0195 47.8088 25.0195 32.7498C25.0195 17.6908 37.1317 5.43945 52.0195 5.43945C66.9074 5.43945 79.0195 17.6908 79.0195 32.7498C79.0195 34.9344 78.762 37.111 78.254 39.2191C78.1314 39.7278 77.6242 40.0399 77.1213 39.9159C76.6183 39.792 76.3098 39.2789 76.4324 38.7701C76.9049 36.8088 77.1445 34.7833 77.1445 32.7498C77.1445 18.7366 65.8735 7.336 52.0195 7.336C38.1655 7.336 26.8945 18.7366 26.8945 32.7498C26.8945 46.763 38.1655 58.1636 52.0195 58.1636C62.0462 58.1636 71.1029 52.1357 75.0929 42.8068C75.2984 42.3262 75.8503 42.1051 76.3255 42.3131C76.8007 42.5211 77.0193 43.0793 76.8137 43.5599C72.5268 53.5834 62.7944 60.0601 52.0195 60.0601Z" fill="#999999"/>
<path d="M50.3746 49.2421C48.7433 49.2421 47.219 48.5071 46.1925 47.2256L41.3925 41.2338C41.0665 40.8269 41.1283 40.2298 41.5306 39.9C41.9327 39.5704 42.5231 39.633 42.8492 40.0397L47.6492 46.0316C48.3181 46.8666 49.3115 47.3455 50.3746 47.3455C50.4913 47.3455 50.6098 47.3394 50.7267 47.3276C51.9071 47.2073 52.939 46.5005 53.4871 45.4368L64.8696 23.3433C65.7628 21.608 65.0941 19.4603 63.3788 18.556C62.548 18.1179 61.5981 18.0337 60.7042 18.3183C59.8103 18.6031 59.0793 19.2231 58.6461 20.0639L50.3948 36.0795C50.249 36.3628 49.9716 36.5529 49.6573 36.5849C49.3426 36.6173 49.034 36.4866 48.8351 36.2383L43.6513 29.7673C43.0612 29.0309 42.2228 28.5709 41.2906 28.472C40.3592 28.3735 39.4442 28.6475 38.7163 29.2443C37.9881 29.841 37.5335 30.6885 37.4357 31.6312C37.338 32.5739 37.6092 33.4987 38.1992 34.2349L40.1006 36.6082C40.4265 37.0151 40.3647 37.6123 39.9625 37.942C39.5601 38.2716 38.9698 38.2091 38.6438 37.8023L36.7426 35.4291C35.8372 34.2993 35.4211 32.8803 35.571 31.4336C35.7208 29.987 36.4187 28.6862 37.536 27.7708C38.6528 26.855 40.0556 26.4343 41.4861 26.5857C42.9162 26.7373 44.2025 27.4431 45.1081 28.5731L49.3925 33.9213L56.9835 19.1873C57.6482 17.8972 58.7696 16.9462 60.141 16.5092C61.5126 16.072 62.9703 16.2016 64.2456 16.874C66.8772 18.2615 67.9032 21.5566 66.5326 24.2192L55.1498 46.3131C54.3087 47.9454 52.7256 49.03 50.9148 49.2144C50.7357 49.2328 50.554 49.2421 50.3746 49.2421Z" fill="#999999"/>
</g>
<path d="M11.7049 80.2649H9.93217C9.86399 79.8861 9.7371 79.5528 9.55149 79.2649C9.36589 78.977 9.13861 78.7327 8.86967 78.532C8.60073 78.3312 8.2996 78.1797 7.96626 78.0774C7.63672 77.9751 7.28634 77.924 6.91513 77.924C6.24467 77.924 5.64429 78.0926 5.11399 78.4297C4.58748 78.7668 4.17081 79.2611 3.86399 79.9126C3.56096 80.5642 3.40945 81.3596 3.40945 82.299C3.40945 83.246 3.56096 84.0452 3.86399 84.6967C4.17081 85.3482 4.58937 85.8407 5.11967 86.174C5.64998 86.5073 6.24657 86.674 6.90945 86.674C7.27687 86.674 7.62536 86.6248 7.9549 86.5263C8.28823 86.424 8.58937 86.2744 8.85831 86.0774C9.12725 85.8804 9.35452 85.6399 9.54013 85.3558C9.72952 85.0679 9.8602 84.7384 9.93217 84.3672L11.7049 84.3729C11.6102 84.9448 11.4265 85.4714 11.1538 85.9524C10.8848 86.4297 10.5382 86.8426 10.114 87.1911C9.69354 87.5357 9.21248 87.8028 8.67081 87.9922C8.12914 88.1816 7.53823 88.2763 6.89808 88.2763C5.89051 88.2763 4.99278 88.0376 4.2049 87.5604C3.41702 87.0793 2.79581 86.3918 2.34126 85.4979C1.89051 84.6039 1.66513 83.5376 1.66513 82.299C1.66513 81.0566 1.8924 79.9903 2.34695 79.1001C2.80149 78.2062 3.4227 77.5206 4.21058 77.0433C4.99846 76.5623 5.89429 76.3217 6.89808 76.3217C7.51551 76.3217 8.09126 76.4107 8.62536 76.5888C9.16323 76.763 9.64619 77.0206 10.0742 77.3615C10.5022 77.6986 10.8564 78.1115 11.1367 78.6001C11.417 79.085 11.6064 79.6399 11.7049 80.2649ZM17.3455 88.2933C16.5273 88.2933 15.8133 88.1058 15.2035 87.7308C14.5936 87.3558 14.1201 86.8312 13.783 86.157C13.4459 85.4827 13.2773 84.6948 13.2773 83.7933C13.2773 82.888 13.4459 82.0964 13.783 81.4183C14.1201 80.7403 14.5936 80.2138 15.2035 79.8388C15.8133 79.4638 16.5273 79.2763 17.3455 79.2763C18.1637 79.2763 18.8777 79.4638 19.4876 79.8388C20.0974 80.2138 20.5709 80.7403 20.908 81.4183C21.2451 82.0964 21.4137 82.888 21.4137 83.7933C21.4137 84.6948 21.2451 85.4827 20.908 86.157C20.5709 86.8312 20.0974 87.3558 19.4876 87.7308C18.8777 88.1058 18.1637 88.2933 17.3455 88.2933ZM17.3512 86.8672C17.8815 86.8672 18.3209 86.727 18.6694 86.4467C19.0179 86.1664 19.2755 85.7933 19.4421 85.3274C19.6126 84.8615 19.6978 84.3482 19.6978 83.7876C19.6978 83.2308 19.6126 82.7195 19.4421 82.2536C19.2755 81.7839 19.0179 81.407 18.6694 81.1229C18.3209 80.8388 17.8815 80.6967 17.3512 80.6967C16.8171 80.6967 16.3739 80.8388 16.0217 81.1229C15.6732 81.407 15.4137 81.7839 15.2433 82.2536C15.0766 82.7195 14.9933 83.2308 14.9933 83.7876C14.9933 84.3482 15.0766 84.8615 15.2433 85.3274C15.4137 85.7933 15.6732 86.1664 16.0217 86.4467C16.3739 86.727 16.8171 86.8672 17.3512 86.8672ZM25.0089 82.9354V88.1172H23.31V79.3899H24.9407V80.8104H25.0487C25.2494 80.3482 25.5638 79.977 25.9918 79.6967C26.4237 79.4164 26.9672 79.2763 27.6225 79.2763C28.2172 79.2763 28.738 79.4013 29.185 79.6513C29.632 79.8975 29.9786 80.2649 30.2248 80.7536C30.471 81.2422 30.5941 81.8464 30.5941 82.5661V88.1172H28.8952V82.7706C28.8952 82.138 28.7305 81.6437 28.4009 81.2876C28.0714 80.9278 27.6187 80.7479 27.043 80.7479C26.649 80.7479 26.2987 80.8331 25.9918 81.0036C25.6888 81.174 25.4483 81.424 25.2702 81.7536C25.096 82.0793 25.0089 82.4732 25.0089 82.9354ZM37.0259 79.3899V80.7536H32.0941V79.3899H37.0259ZM33.4464 88.1172V78.3786C33.4464 77.8331 33.5657 77.3804 33.8043 77.0206C34.043 76.657 34.3593 76.3861 34.7532 76.2081C35.1471 76.0263 35.5752 75.9354 36.0373 75.9354C36.3782 75.9354 36.6699 75.9638 36.9123 76.0206C37.1547 76.0736 37.3346 76.1229 37.4521 76.1683L37.0543 77.5433C36.9748 77.5206 36.8725 77.4941 36.7475 77.4638C36.6225 77.4297 36.471 77.4126 36.293 77.4126C35.8801 77.4126 35.5846 77.5149 35.4066 77.7195C35.2324 77.924 35.1452 78.2195 35.1452 78.6058V88.1172H33.4464ZM38.7788 88.1172V79.3899H40.4776V88.1172H38.7788ZM39.6367 78.0433C39.3413 78.0433 39.0875 77.9448 38.8754 77.7479C38.667 77.5471 38.5629 77.3085 38.5629 77.032C38.5629 76.7517 38.667 76.513 38.8754 76.3161C39.0875 76.1153 39.3413 76.0149 39.6367 76.0149C39.9322 76.0149 40.1841 76.1153 40.3924 76.3161C40.6045 76.513 40.7106 76.7517 40.7106 77.032C40.7106 77.3085 40.6045 77.5471 40.3924 77.7479C40.1841 77.9448 39.9322 78.0433 39.6367 78.0433ZM42.7631 88.1172V79.3899H44.4052V80.7763H44.4961C44.6552 80.3066 44.9355 79.9373 45.337 79.6683C45.7423 79.3956 46.2006 79.2592 46.712 79.2592C46.8181 79.2592 46.9431 79.263 47.087 79.2706C47.2347 79.2782 47.3503 79.2876 47.4336 79.299V80.924C47.3654 80.9051 47.2442 80.8842 47.07 80.8615C46.8957 80.835 46.7215 80.8217 46.5472 80.8217C46.1457 80.8217 45.7878 80.907 45.4734 81.0774C45.1628 81.2441 44.9165 81.477 44.7347 81.7763C44.5529 82.0717 44.462 82.4089 44.462 82.7876V88.1172H42.7631ZM48.9038 88.1172V79.3899H50.5344V80.8104H50.6424C50.8242 80.3293 51.1216 79.9543 51.5344 79.6854C51.9473 79.4126 52.4416 79.2763 53.0174 79.2763C53.6007 79.2763 54.0894 79.4126 54.4833 79.6854C54.881 79.9581 55.1746 80.3331 55.364 80.8104H55.4549C55.6632 80.3445 55.9947 79.9732 56.4492 79.6967C56.9038 79.4164 57.4454 79.2763 58.0742 79.2763C58.8659 79.2763 59.5117 79.5244 60.0117 80.0206C60.5155 80.5168 60.7674 81.2649 60.7674 82.2649V88.1172H59.0685V82.424C59.0685 81.8331 58.9076 81.4051 58.5856 81.1399C58.2636 80.8748 57.8791 80.7422 57.4322 80.7422C56.8791 80.7422 56.4492 80.9126 56.1424 81.2536C55.8356 81.5907 55.6822 82.0244 55.6822 82.5547V88.1172H53.989V82.3161C53.989 81.8426 53.8413 81.4619 53.5458 81.174C53.2504 80.8861 52.8659 80.7422 52.3924 80.7422C52.0704 80.7422 51.7731 80.8274 51.5004 80.9979C51.2314 81.1645 51.0136 81.3975 50.8469 81.6967C50.6841 81.996 50.6026 82.3426 50.6026 82.7365V88.1172H48.9038ZM65.5842 88.3104C65.0311 88.3104 64.5311 88.2081 64.0842 88.0036C63.6372 87.7952 63.283 87.4941 63.0217 87.1001C62.7641 86.7062 62.6353 86.2232 62.6353 85.6513C62.6353 85.1589 62.73 84.7536 62.9194 84.4354C63.1088 84.1172 63.3645 83.8653 63.6864 83.6797C64.0084 83.4941 64.3683 83.3539 64.766 83.2592C65.1637 83.1645 65.569 83.0926 65.9819 83.0433C66.5046 82.9827 66.9289 82.9335 67.2546 82.8956C67.5804 82.8539 67.8171 82.7876 67.9648 82.6967C68.1126 82.6058 68.1864 82.4581 68.1864 82.2536V82.2138C68.1864 81.7176 68.0463 81.3331 67.766 81.0604C67.4895 80.7876 67.0766 80.6513 66.5273 80.6513C65.9554 80.6513 65.5046 80.7782 65.1751 81.032C64.8493 81.282 64.6239 81.5604 64.4989 81.8672L62.9023 81.5036C63.0917 80.9732 63.3683 80.5452 63.7319 80.2195C64.0993 79.8899 64.5217 79.6513 64.9989 79.5036C65.4762 79.352 65.9781 79.2763 66.5046 79.2763C66.8531 79.2763 67.2224 79.3179 67.6126 79.4013C68.0065 79.4808 68.3739 79.6286 68.7148 79.8445C69.0595 80.0604 69.3417 80.3691 69.5614 80.7706C69.7811 81.1683 69.891 81.6854 69.891 82.3217V88.1172H68.2319V86.924H68.1637C68.0539 87.1437 67.8891 87.3596 67.6694 87.5717C67.4497 87.7839 67.1675 87.96 66.8228 88.1001C66.4781 88.2403 66.0652 88.3104 65.5842 88.3104ZM65.9535 86.9467C66.4232 86.9467 66.8247 86.8539 67.158 86.6683C67.4951 86.4827 67.7508 86.2403 67.9251 85.9411C68.1031 85.638 68.1921 85.3142 68.1921 84.9695V83.8445C68.1315 83.9051 68.0141 83.9619 67.8398 84.0149C67.6694 84.0642 67.4743 84.1077 67.2546 84.1456C67.0349 84.1797 66.8209 84.2119 66.6126 84.2422C66.4042 84.2687 66.23 84.2914 66.0898 84.3104C65.7603 84.352 65.4592 84.4221 65.1864 84.5206C64.9175 84.6191 64.7016 84.7611 64.5387 84.9467C64.3796 85.1286 64.3001 85.371 64.3001 85.674C64.3001 86.0945 64.4554 86.4126 64.766 86.6286C65.0766 86.8407 65.4724 86.9467 65.9535 86.9467ZM75.8299 88.2933C74.9852 88.2933 74.2579 88.102 73.6481 87.7195C73.042 87.3331 72.5761 86.8009 72.2504 86.1229C71.9246 85.4448 71.7617 84.6683 71.7617 83.7933C71.7617 82.907 71.9284 82.1248 72.2617 81.4467C72.5951 80.7649 73.0647 80.2327 73.6708 79.8501C74.2769 79.4676 74.9909 79.2763 75.8129 79.2763C76.4757 79.2763 77.0666 79.3994 77.5856 79.6456C78.1045 79.888 78.5231 80.2289 78.8413 80.6683C79.1632 81.1077 79.3545 81.621 79.4151 82.2081H77.7617C77.6708 81.799 77.4625 81.4467 77.1367 81.1513C76.8147 80.8558 76.3829 80.7081 75.8413 80.7081C75.3678 80.7081 74.953 80.8331 74.5969 81.0831C74.2447 81.3293 73.9701 81.6816 73.7731 82.1399C73.5761 82.5945 73.4776 83.1323 73.4776 83.7536C73.4776 84.3899 73.5742 84.9392 73.7674 85.4013C73.9606 85.8634 74.2333 86.2214 74.5856 86.4751C74.9416 86.7289 75.3602 86.8558 75.8413 86.8558C76.1632 86.8558 76.4549 86.7971 76.7163 86.6797C76.9814 86.5585 77.203 86.3861 77.381 86.1626C77.5629 85.9392 77.6897 85.6702 77.7617 85.3558H79.4151C79.3545 85.9202 79.1708 86.424 78.864 86.8672C78.5572 87.3104 78.1462 87.6589 77.631 87.9126C77.1197 88.1664 76.5193 88.2933 75.8299 88.2933ZM81.2319 88.1172V79.3899H82.9308V88.1172H81.2319ZM82.0898 78.0433C81.7944 78.0433 81.5406 77.9448 81.3285 77.7479C81.1201 77.5471 81.016 77.3085 81.016 77.032C81.016 76.7517 81.1201 76.513 81.3285 76.3161C81.5406 76.1153 81.7944 76.0149 82.0898 76.0149C82.3853 76.0149 82.6372 76.1153 82.8455 76.3161C83.0576 76.513 83.1637 76.7517 83.1637 77.032C83.1637 77.3085 83.0576 77.5471 82.8455 77.7479C82.6372 77.9448 82.3853 78.0433 82.0898 78.0433ZM88.8924 88.2933C88.0742 88.2933 87.3602 88.1058 86.7504 87.7308C86.1405 87.3558 85.667 86.8312 85.3299 86.157C84.9928 85.4827 84.8242 84.6948 84.8242 83.7933C84.8242 82.888 84.9928 82.0964 85.3299 81.4183C85.667 80.7403 86.1405 80.2138 86.7504 79.8388C87.3602 79.4638 88.0742 79.2763 88.8924 79.2763C89.7106 79.2763 90.4246 79.4638 91.0344 79.8388C91.6443 80.2138 92.1178 80.7403 92.4549 81.4183C92.792 82.0964 92.9606 82.888 92.9606 83.7933C92.9606 84.6948 92.792 85.4827 92.4549 86.157C92.1178 86.8312 91.6443 87.3558 91.0344 87.7308C90.4246 88.1058 89.7106 88.2933 88.8924 88.2933ZM88.8981 86.8672C89.4284 86.8672 89.8678 86.727 90.2163 86.4467C90.5647 86.1664 90.8223 85.7933 90.989 85.3274C91.1594 84.8615 91.2447 84.3482 91.2447 83.7876C91.2447 83.2308 91.1594 82.7195 90.989 82.2536C90.8223 81.7839 90.5647 81.407 90.2163 81.1229C89.8678 80.8388 89.4284 80.6967 88.8981 80.6967C88.364 80.6967 87.9208 80.8388 87.5685 81.1229C87.2201 81.407 86.9606 81.7839 86.7901 82.2536C86.6235 82.7195 86.5401 83.2308 86.5401 83.7876C86.5401 84.3482 86.6235 84.8615 86.7901 85.3274C86.9606 85.7933 87.2201 86.1664 87.5685 86.4467C87.9208 86.727 88.364 86.8672 88.8981 86.8672ZM88.1935 78.2251L89.5231 75.6058H91.3129L89.5515 78.2251H88.1935ZM96.5558 82.9354V88.1172H94.8569V79.3899H96.4876V80.8104H96.5955C96.7963 80.3482 97.1107 79.977 97.5387 79.6967C97.9705 79.4164 98.5141 79.2763 99.1694 79.2763C99.7641 79.2763 100.285 79.4013 100.732 79.6513C101.179 79.8975 101.525 80.2649 101.772 80.7536C102.018 81.2422 102.141 81.8464 102.141 82.5661V88.1172H100.442V82.7706C100.442 82.138 100.277 81.6437 99.9478 81.2876C99.6183 80.9278 99.1656 80.7479 98.5898 80.7479C98.1959 80.7479 97.8455 80.8331 97.5387 81.0036C97.2357 81.174 96.9951 81.424 96.8171 81.7536C96.6429 82.0793 96.5558 82.4732 96.5558 82.9354Z" fill="#999999"/>
<defs>
<clipPath id="clip0_1582_12859">
<rect width="64" height="64.7356" fill="white" transform="translate(20.0195 0.381836)"/>
</clipPath>
</defs>
</svg>
