<svg width="65" height="65" viewBox="0 0 65 65" fill="none" xmlns="http://www.w3.org/2000/svg">
<g clip-path="url(#clip0_1582_12843)">
<path d="M32.0195 65.1175C23.4722 65.1175 15.4363 61.7506 9.39216 55.6371C3.34816 49.5235 0.0195312 41.3953 0.0195312 32.7497C0.0195312 28.2766 0.904906 23.9466 2.65091 19.8799C2.85728 19.3997 3.40941 19.1796 3.88428 19.3878C4.35916 19.5964 4.57703 20.155 4.37078 20.6354C2.72766 24.4622 1.89453 28.538 1.89453 32.7497C1.89453 40.8886 5.02816 48.5406 10.718 54.296C16.4079 60.0514 23.973 63.2209 32.0195 63.2209C40.066 63.2209 47.631 60.0513 53.321 54.296C59.011 48.5407 62.1445 40.8886 62.1445 32.7497C62.1445 24.6107 59.0109 16.9587 53.321 11.2033C47.6312 5.4479 40.066 2.27839 32.0195 2.27839C26.7745 2.27839 21.6103 3.66236 17.085 6.28074C12.6947 8.82111 8.97466 12.4701 6.32728 16.8329C6.05641 17.2792 5.47928 17.4189 5.03791 17.1451C4.59666 16.8711 4.45853 16.2872 4.72928 15.8409C7.54078 11.2076 11.4914 7.33257 16.154 4.63454C20.9623 1.85242 26.4484 0.381836 32.0195 0.381836C40.5669 0.381836 48.6028 3.74872 54.6469 9.86219C60.6909 15.9758 64.0195 24.104 64.0195 32.7497C64.0195 41.3953 60.6909 49.5235 54.6469 55.6371C48.6028 61.7506 40.5669 65.1175 32.0195 65.1175Z" fill="#999999"/>
<path d="M32.0195 60.0601C17.1317 60.0601 5.01953 47.8088 5.01953 32.7498C5.01953 17.6908 17.1317 5.43945 32.0195 5.43945C46.9074 5.43945 59.0195 17.6908 59.0195 32.7498C59.0195 34.9344 58.762 37.111 58.254 39.2191C58.1314 39.7278 57.6242 40.0399 57.1213 39.9159C56.6183 39.792 56.3098 39.2789 56.4324 38.7701C56.9049 36.8088 57.1445 34.7833 57.1445 32.7498C57.1445 18.7366 45.8735 7.336 32.0195 7.336C18.1655 7.336 6.89453 18.7366 6.89453 32.7498C6.89453 46.763 18.1655 58.1636 32.0195 58.1636C42.0462 58.1636 51.1029 52.1357 55.0929 42.8068C55.2984 42.3262 55.8503 42.1051 56.3255 42.3131C56.8007 42.5211 57.0193 43.0793 56.8137 43.5599C52.5268 53.5834 42.7944 60.0601 32.0195 60.0601Z" fill="#999999"/>
<path d="M30.3746 49.2421C28.7433 49.2421 27.219 48.5071 26.1925 47.2256L21.3925 41.2338C21.0665 40.8269 21.1283 40.2298 21.5306 39.9C21.9327 39.5704 22.5231 39.633 22.8492 40.0397L27.6492 46.0316C28.3181 46.8666 29.3115 47.3455 30.3746 47.3455C30.4913 47.3455 30.6098 47.3394 30.7267 47.3276C31.9071 47.2073 32.939 46.5005 33.4871 45.4368L44.8696 23.3433C45.7628 21.608 45.0941 19.4603 43.3788 18.556C42.548 18.1179 41.5981 18.0337 40.7042 18.3183C39.8103 18.6031 39.0793 19.2231 38.6461 20.0639L30.3948 36.0795C30.249 36.3628 29.9716 36.5529 29.6573 36.5849C29.3426 36.6173 29.034 36.4866 28.8351 36.2383L23.6513 29.7673C23.0612 29.0309 22.2228 28.5709 21.2906 28.472C20.3592 28.3735 19.4442 28.6475 18.7163 29.2443C17.9881 29.841 17.5335 30.6885 17.4357 31.6312C17.338 32.5739 17.6092 33.4987 18.1992 34.2349L20.1006 36.6082C20.4265 37.0151 20.3647 37.6123 19.9625 37.942C19.5601 38.2716 18.9698 38.2091 18.6438 37.8023L16.7426 35.4291C15.8372 34.2993 15.4211 32.8803 15.571 31.4336C15.7208 29.987 16.4187 28.6862 17.536 27.7708C18.6528 26.855 20.0556 26.4343 21.4861 26.5857C22.9162 26.7373 24.2025 27.4431 25.1081 28.5731L29.3925 33.9213L36.9835 19.1873C37.6482 17.8972 38.7696 16.9462 40.141 16.5092C41.5126 16.072 42.9703 16.2016 44.2456 16.874C46.8772 18.2615 47.9032 21.5566 46.5326 24.2192L35.1498 46.3131C34.3087 47.9454 32.7256 49.03 30.9148 49.2144C30.7357 49.2328 30.554 49.2421 30.3746 49.2421Z" fill="#999999"/>
</g>
<defs>
<clipPath id="clip0_1582_12843">
<rect width="64" height="64" fill="white" transform="translate(0.0195312 0.381836)"/>
</clipPath>
</defs>
</svg> 