<svg width="40" height="41" viewBox="0 0 40 41" fill="none" xmlns="http://www.w3.org/2000/svg">
<g clip-path="url(#clip0_4112_34571)">
<path d="M20 40.4598C14.6579 40.4598 9.63547 38.3555 5.85789 34.5346C2.08039 30.7136 0 25.6334 0 20.2299C0 17.4342 0.553359 14.728 1.64461 12.1863C1.77359 11.8862 2.11867 11.7486 2.41547 11.8787C2.71227 12.0091 2.84844 12.3582 2.71953 12.6585C1.69258 15.0502 1.17188 17.5976 1.17188 20.2299C1.17188 25.3168 3.13039 30.0992 6.68656 33.6964C10.2427 37.2935 14.9709 39.2744 20 39.2744C25.0291 39.2744 29.7572 37.2934 33.3134 33.6964C36.8697 30.0993 38.8281 25.3168 38.8281 20.2299C38.8281 15.143 36.8696 10.3605 33.3134 6.76342C29.7573 3.16629 25.0291 1.18535 20 1.18535C16.7219 1.18535 13.4942 2.05033 10.6659 3.68682C7.92195 5.27455 5.59695 7.55515 3.94234 10.2819C3.77305 10.5609 3.41234 10.6482 3.13648 10.477C2.8607 10.3058 2.77438 9.94086 2.94359 9.66191C4.70078 6.76611 7.16992 4.34421 10.0841 2.65794C13.0892 0.919116 16.518 0 20 0C25.3421 0 30.3645 2.1043 34.1421 5.92522C37.9196 9.74622 40 14.8264 40 20.2299C40 25.6334 37.9196 30.7136 34.1421 34.5346C30.3645 38.3555 25.3421 40.4598 20 40.4598Z" fill="#999999"/>
<path d="M20 37.2991C10.6951 37.2991 3.125 29.642 3.125 20.2301C3.125 10.8182 10.6951 3.16113 20 3.16113C29.3049 3.16113 36.875 10.8182 36.875 20.2301C36.875 21.5955 36.7141 22.9558 36.3966 24.2734C36.3199 24.5914 36.0029 24.7864 35.6886 24.7089C35.3742 24.6314 35.1814 24.3108 35.258 23.9928C35.5534 22.767 35.7031 21.501 35.7031 20.2301C35.7031 11.4718 28.6588 4.34648 20 4.34648C11.3412 4.34648 4.29688 11.4718 4.29688 20.2301C4.29688 28.9884 11.3412 36.1137 20 36.1137C26.2666 36.1137 31.9271 32.3463 34.4209 26.5157C34.5493 26.2154 34.8942 26.0772 35.1912 26.2072C35.4882 26.3372 35.6248 26.686 35.4963 26.9864C32.817 33.2511 26.7343 37.2991 20 37.2991Z" fill="#999999"/>
<path d="M18.9719 30.5379C17.9524 30.5379 16.9996 30.0785 16.3581 29.2776L13.3581 25.5327C13.1543 25.2784 13.193 24.9052 13.4444 24.6991C13.6957 24.4931 14.0647 24.5322 14.2685 24.7864L17.2685 28.5313C17.6866 29.0532 18.3075 29.3525 18.9719 29.3525C19.0449 29.3525 19.1189 29.3488 19.192 29.3413C19.9297 29.2662 20.5746 28.8244 20.9172 28.1596L28.0313 14.3511C28.5896 13.2666 28.1716 11.9243 27.0996 11.3591C26.5803 11.0853 25.9866 11.0326 25.4279 11.2105C24.8693 11.3886 24.4124 11.776 24.1416 12.3015L18.9846 22.3113C18.8934 22.4884 18.72 22.6071 18.5236 22.6271C18.3269 22.6474 18.134 22.5657 18.0097 22.4105L14.7699 18.3661C14.401 17.9059 13.8771 17.6184 13.2944 17.5566C12.7123 17.4951 12.1404 17.6663 11.6855 18.0393C11.2303 18.4122 10.9462 18.9419 10.8851 19.5311C10.824 20.1203 10.9935 20.6983 11.3623 21.1584L12.5507 22.6418C12.7543 22.896 12.7157 23.2693 12.4643 23.4754C12.2128 23.6814 11.8439 23.6423 11.6402 23.388L10.4519 21.9048C9.88605 21.1986 9.62597 20.3118 9.71964 19.4076C9.81332 18.5035 10.2495 17.6905 10.9478 17.1184C11.6458 16.546 12.5225 16.283 13.4166 16.3777C14.3104 16.4724 15.1143 16.9135 15.6803 17.6198L18.3581 20.9624L23.1025 11.7536C23.5179 10.9474 24.2188 10.353 25.0759 10.0799C25.9332 9.8066 26.8443 9.88759 27.6413 10.3078C29.286 11.175 29.9273 13.2345 29.0707 14.8986L21.9564 28.7073C21.4307 29.7275 20.4413 30.4054 19.3096 30.5206C19.1976 30.5321 19.084 30.5379 18.9719 30.5379Z" fill="#999999"/>
</g>
<defs>
<clipPath id="clip0_4112_34571">
<rect width="40" height="40.4598" fill="white"/>
</clipPath>
</defs>
</svg>
