<svg width="24" height="24" viewBox="0 0 24 24" fill="none" xmlns="http://www.w3.org/2000/svg">
<path fill-rule="evenodd" clip-rule="evenodd" d="M19.8335 2.10927H19.875C20.4975 2.10927 21 1.63469 21 1.05464C21 0.474586 20.4938 0 19.875 0H4.125C3.50625 0 3 0.474586 3 1.05464C3 1.63469 3.50625 2.10927 4.125 2.10927H4.16766L4.34266 3.51545H4.125C3.50625 3.51545 3 3.99004 3 4.57009C3 5.15014 3.50625 5.62472 4.125 5.62472H4.16725L4.34225 7.03091H4.125C3.50625 7.03091 3 7.50549 3 8.08554C3 8.66559 3.50625 9.14018 4.125 9.14018H4.16724L5.625 20.8572V22.9454C5.625 23.5254 6.13125 24 6.75 24H17.25C17.8725 24 18.375 23.5254 18.3825 22.9454V20.8572L19.8403 9.14018H19.875C20.4975 9.14018 21 8.66559 21 8.08554C21 7.50549 20.4938 7.03091 19.875 7.03091H19.6585L19.8335 5.62472H19.875C20.4975 5.62472 21 5.15014 21 4.57009C21 3.99004 20.4938 3.51545 19.875 3.51545H19.6585L19.8335 2.10927ZM19.4614 1.40618H4.125C3.91875 1.40618 3.75 1.24799 3.75 1.05464C3.75 0.861286 3.91875 0.703091 4.125 0.703091H19.875C20.0813 0.703091 20.25 0.861286 20.25 1.05464C20.25 1.24799 20.0813 1.40618 19.875 1.40618H19.5398C19.5132 1.40363 19.487 1.40371 19.4614 1.40618ZM19.0771 2.10927L18.9021 3.51545H5.09897L4.92397 2.10927H19.0771ZM19.2386 4.2188C19.2323 4.2188 19.2261 4.2188 19.2198 4.21854H4.81389L4.80799 4.21919H4.76299C4.75532 4.21919 4.74769 4.21897 4.74011 4.21854H4.125C3.91875 4.21854 3.75 4.37674 3.75 4.57009C3.75 4.76344 3.91875 4.92163 4.125 4.92163H19.4632C19.4876 4.91938 19.5126 4.91932 19.5379 4.92163H19.875C20.0813 4.92163 20.25 4.76344 20.25 4.57009C20.25 4.37674 20.0813 4.21854 19.875 4.21854H19.253L19.2386 4.2188ZM4.92356 5.62472H19.0772L18.9022 7.03091H5.09856L4.92356 5.62472ZM19.2386 7.73443C19.2312 7.73443 19.2237 7.73443 19.2163 7.734H4.125C3.91875 7.734 3.75 7.89219 3.75 8.08554C3.75 8.27889 3.91875 8.43709 4.125 8.43709H19.875C20.0813 8.43709 20.25 8.27889 20.25 8.08554C20.25 7.89219 20.0813 7.734 19.875 7.734H19.2572C19.251 7.73428 19.2448 7.73443 19.2386 7.73443ZM4.92358 9.14018H19.0839L17.6715 20.4844H9C8.79375 20.4844 8.625 20.6426 8.625 20.8359C8.625 21.0293 8.79375 21.1875 9 21.1875H17.6287V22.9489C17.6287 23.1422 17.46 23.3004 17.2537 23.3004H6.75375C6.5475 23.3004 6.37875 23.1422 6.37875 22.9489V21.1875H7.5C7.71 21.1875 7.875 21.0293 7.875 20.8359C7.875 20.6426 7.70625 20.4844 7.5 20.4844H6.33602L4.92358 9.14018Z" fill="#0A1B33"/>
</svg>
