<svg width="48" height="48" viewBox="0 0 48 48" fill="none" xmlns="http://www.w3.org/2000/svg">
<path fill-rule="evenodd" clip-rule="evenodd" d="M10 24C8.89543 24 8 24.8954 8 26V40C8 41.1046 8.89543 42 10 42H38C39.1046 42 40 41.1046 40 40V26C40 24.8954 39.1046 24 38 24H10ZM4 26C4 22.6863 6.68629 20 10 20H38C41.3137 20 44 22.6863 44 26V40C44 43.3137 41.3137 46 38 46H10C6.68629 46 4 43.3137 4 40V26Z" fill="#FF0090"/>
<path fill-rule="evenodd" clip-rule="evenodd" d="M24 6C21.8783 6 19.8434 6.84285 18.3431 8.34315C16.8429 9.84344 16 11.8783 16 14V22C16 23.1046 15.1046 24 14 24C12.8954 24 12 23.1046 12 22V14C12 10.8174 13.2643 7.76516 15.5147 5.51472C17.7652 3.26428 20.8174 2 24 2C27.1826 2 30.2348 3.26428 32.4853 5.51472C34.7357 7.76516 36 10.8174 36 14V22C36 23.1046 35.1046 24 34 24C32.8954 24 32 23.1046 32 22V14C32 11.8783 31.1571 9.84344 29.6569 8.34315C28.1566 6.84285 26.1217 6 24 6Z" fill="#FF0090"/>
</svg>
