<svg width="41" height="41" viewBox="0 0 41 41" fill="none" xmlns="http://www.w3.org/2000/svg">
<path d="M40.5996 20.9502C40.5996 9.90332 31.6465 0.950195 20.5996 0.950195C9.55273 0.950195 0.599609 9.90332 0.599609 20.9502C0.599609 31.9971 9.55273 40.9502 20.5996 40.9502C20.7168 40.9502 20.834 40.9502 20.9512 40.9424V25.3799H16.6543V20.3721H20.9512V16.6846C20.9512 12.4111 23.5605 10.083 27.373 10.083C29.2012 10.083 30.7715 10.2158 31.2246 10.2783V14.7471H28.5996C26.5293 14.7471 26.123 15.7314 26.123 17.1768V20.3643H31.084L30.4355 25.3721H26.123V40.1768C34.4824 37.7783 40.5996 30.083 40.5996 20.9502Z" fill="#6FDDEF"/>
</svg>
