<svg width="35" height="35" viewBox="0 0 35 35" fill="none" xmlns="http://www.w3.org/2000/svg">
<path d="M34.375 17.0898C34.375 7.7 26.7648 0.0898438 17.375 0.0898438C7.98516 0.0898438 0.375 7.7 0.375 17.0898C0.375 26.4797 7.98516 34.0898 17.375 34.0898C17.4746 34.0898 17.5742 34.0898 17.6738 34.0832V20.8551H14.0215V16.5984H17.6738V13.4641C17.6738 9.83164 19.8918 7.85273 23.1324 7.85273C24.6863 7.85273 26.0211 7.96563 26.4062 8.01875V11.8172H24.175C22.4152 11.8172 22.0699 12.6539 22.0699 13.8824V16.5918H26.2867L25.7355 20.8484H22.0699V33.4324C29.1754 31.3938 34.375 24.8527 34.375 17.0898Z" fill="#6FDDEF"/>
</svg>
