<svg width="32" height="33" viewBox="0 0 32 33" fill="none" xmlns="http://www.w3.org/2000/svg">
<path d="M32 16.0898C32 7.25234 24.8375 0.0898438 16 0.0898438C7.1625 0.0898438 0 7.25234 0 16.0898C0 24.9273 7.1625 32.0898 16 32.0898C16.0938 32.0898 16.1875 32.0898 16.2812 32.0836V19.6336H12.8438V15.6273H16.2812V12.6773C16.2812 9.25859 18.3688 7.39609 21.4188 7.39609C22.8813 7.39609 24.1375 7.50234 24.5 7.55234V11.1273H22.4C20.7437 11.1273 20.4188 11.9148 20.4188 13.0711V15.6211H24.3875L23.8687 19.6273H20.4188V31.4711C27.1063 29.5523 32 23.3961 32 16.0898Z" fill="#6FDDEF"/>
</svg>