<svg width="24" height="28" viewBox="0 0 24 28" fill="none" xmlns="http://www.w3.org/2000/svg">
<path d="M12.4495 5.26298C12.2325 5.26298 12.0549 5.08542 12.0549 4.86842V0.926784C12.0549 0.709778 12.2325 0.532227 12.4495 0.532227C12.6665 0.532227 12.844 0.709778 12.844 0.926784V4.86842C12.844 5.08937 12.6665 5.26298 12.4495 5.26298Z" fill="#0A1B33"/>
<path d="M22.4224 27.469C22.2054 27.469 22.0278 27.2914 22.0278 27.0744V24.7071C22.0278 24.4901 22.2054 24.3125 22.4224 24.3125C22.6394 24.3125 22.8169 24.4901 22.8169 24.7071V27.0744C22.8169 27.2914 22.6394 27.469 22.4224 27.469Z" fill="#0A1B33"/>
<path d="M23.6054 26.2852H21.2381C21.0211 26.2852 20.8435 26.1077 20.8435 25.8907C20.8435 25.6736 21.0211 25.4961 21.2381 25.4961H23.6054C23.8224 25.4961 24 25.6736 24 25.8907C24 26.1077 23.8224 26.2852 23.6054 26.2852Z" fill="#0A1B33"/>
<path d="M1.57888 9.17697C1.36188 9.17697 1.18433 8.99942 1.18433 8.78241V6.41507C1.18433 6.19806 1.36188 6.02051 1.57888 6.02051C1.79589 6.02051 1.97344 6.19806 1.97344 6.41507V8.78241C1.97344 8.99942 1.79589 9.17697 1.57888 9.17697Z" fill="#0A1B33"/>
<path d="M2.76191 7.99419H0.394558C0.177551 7.99419 0 7.81664 0 7.59964C0 7.38263 0.177551 7.20508 0.394558 7.20508H2.76191C2.97891 7.20508 3.15646 7.38263 3.15646 7.59964C3.15646 7.81664 2.97891 7.99419 2.76191 7.99419Z" fill="#0A1B33"/>
<path d="M22.3267 6.42209C22.1097 6.42209 21.9321 6.24454 21.9321 6.02753V3.66018C21.9321 3.44318 22.1097 3.26562 22.3267 3.26562C22.5437 3.26562 22.7212 3.44318 22.7212 3.66018V6.02753C22.7212 6.24454 22.5437 6.42209 22.3267 6.42209Z" fill="#0A1B33"/>
<path d="M23.5058 5.23833H21.1385C20.9214 5.23833 20.7439 5.06078 20.7439 4.84378C20.7439 4.62677 20.9214 4.44922 21.1385 4.44922H23.5058C23.7228 4.44922 23.9004 4.62677 23.9004 4.84378C23.9004 5.06078 23.7268 5.23833 23.5058 5.23833Z" fill="#0A1B33"/>
<path d="M12.4481 26.0255C9.82821 26.0255 7.36617 25.0076 5.51569 23.1532C3.66522 21.3027 2.64331 18.8406 2.64331 16.2208C2.64331 13.6009 3.66127 11.1389 5.51569 9.2884C7.37011 7.43792 9.82821 6.41602 12.4481 6.41602C15.0679 6.41602 17.53 7.43792 19.3805 9.2884C21.2309 11.1389 22.2528 13.6009 22.2528 16.2208C22.2528 18.8406 21.2349 21.3027 19.3805 23.1532C17.53 25.0076 15.0679 26.0255 12.4481 26.0255ZM12.4481 7.20908C7.47665 7.20908 3.43243 11.2533 3.43243 16.2247C3.43243 21.1962 7.47665 25.2404 12.4481 25.2404C17.4195 25.2404 21.4637 21.1962 21.4637 16.2247C21.4637 11.2533 17.4195 7.20908 12.4481 7.20908Z" fill="#0A1B33"/>
<path d="M14.3814 7.4052C14.1644 7.4052 13.9868 7.22765 13.9868 7.01064V6.04792C13.9868 5.61785 13.6357 5.26275 13.2017 5.26275H11.6905C11.2604 5.26275 10.9053 5.6139 10.9053 6.04792V7.01064C10.9053 7.22765 10.7278 7.4052 10.5108 7.4052C10.2938 7.4052 10.1162 7.22765 10.1162 7.01064V6.04792C10.1162 5.17989 10.8225 4.47363 11.6905 4.47363H13.2017C14.0697 4.47363 14.7759 5.17989 14.7759 6.04792V7.01064C14.7759 7.23159 14.6023 7.4052 14.3814 7.4052Z" fill="#0A1B33"/>
<path d="M12.4485 26.029C11.0479 26.029 9.7537 24.9716 8.80282 23.0541C7.89534 21.2233 7.39819 18.7968 7.39819 16.2243C7.39819 15.5851 7.42976 14.9499 7.48894 14.3304C7.50867 14.1134 7.702 13.9556 7.91901 13.9753C8.13602 13.995 8.29384 14.1884 8.27411 14.4054C8.21493 15.0011 8.18731 15.6127 8.18731 16.2243C8.18731 18.6784 8.65683 20.9787 9.50908 22.7029C10.3179 24.3403 11.3635 25.2399 12.4485 25.2399C13.502 25.2399 14.3148 24.3956 14.8119 23.6854C15.5498 22.628 16.11 21.1563 16.4257 19.4281C16.4651 19.215 16.6703 19.073 16.8834 19.1124C17.0964 19.1519 17.2385 19.3571 17.199 19.5701C16.8597 21.4088 16.26 22.9831 15.4551 24.1352C14.591 25.3741 13.5533 26.029 12.4485 26.029Z" fill="#0A1B33"/>
<path d="M17.0278 18.306C17.016 18.306 17.0041 18.306 16.9923 18.306C16.7753 18.2863 16.6135 18.0929 16.6332 17.8759C16.6806 17.3354 16.7082 16.7791 16.7082 16.2227C16.7082 13.7686 16.2387 11.4683 15.3864 9.74409C14.5776 8.10668 13.532 7.20708 12.447 7.20708C10.7385 7.20708 9.15242 9.48368 8.49745 12.8769C8.458 13.0899 8.24888 13.232 8.03582 13.1886C7.82276 13.1491 7.68072 12.94 7.72412 12.7269C8.46589 8.89579 10.3203 6.41797 12.4509 6.41797C13.8516 6.41797 15.1458 7.47538 16.0966 9.39294C17.0041 11.2237 17.5013 13.6502 17.5013 16.2227C17.5013 16.8027 17.4736 17.3827 17.4263 17.947C17.4026 18.1521 17.233 18.306 17.0278 18.306Z" fill="#0A1B33"/>
<path d="M21.8571 16.6192H3.03665C2.81964 16.6192 2.64209 16.4416 2.64209 16.2246C2.64209 16.0076 2.81964 15.8301 3.03665 15.8301H21.8571C22.0741 15.8301 22.2516 16.0076 22.2516 16.2246C22.2516 16.4416 22.0741 16.6192 21.8571 16.6192Z" fill="#0A1B33"/>
<path d="M20.4264 11.6251H4.47049C4.25348 11.6251 4.07593 11.4475 4.07593 11.2305C4.07593 11.0135 4.25348 10.8359 4.47049 10.8359H20.4264C20.6434 10.8359 20.821 11.0135 20.821 11.2305C20.821 11.4475 20.6434 11.6251 20.4264 11.6251Z" fill="#0A1B33"/>
<path d="M20.4264 21.6094H4.47049C4.25348 21.6094 4.07593 21.4319 4.07593 21.2149C4.07593 20.9979 4.25348 20.8203 4.47049 20.8203H20.4264C20.6434 20.8203 20.821 20.9979 20.821 21.2149C20.821 21.4319 20.6434 21.6094 20.4264 21.6094Z" fill="#0A1B33"/>
<path d="M12.4495 26.0275C12.2325 26.0275 12.0549 25.8499 12.0549 25.6329V6.81253C12.0549 6.59552 12.2325 6.41797 12.4495 6.41797C12.6665 6.41797 12.844 6.59552 12.844 6.81253V25.6329C12.844 25.8499 12.6665 26.0275 12.4495 26.0275Z" fill="#0A1B33"/>
</svg>
