<svg width="24" height="25" viewBox="0 0 24 25" fill="none" xmlns="http://www.w3.org/2000/svg">
<g id="heart">
<path id="Vector" d="M20.8401 4.64112C20.3294 4.13013 19.7229 3.72477 19.0555 3.44821C18.388 3.17164 17.6726 3.0293 16.9501 3.0293C16.2276 3.0293 15.5122 3.17164 14.8448 3.44821C14.1773 3.72477 13.5709 4.13013 13.0601 4.64112L12.0001 5.70112L10.9401 4.64112C9.90843 3.60943 8.50915 3.02983 7.05012 3.02983C5.59109 3.02983 4.19181 3.60943 3.16012 4.64112C2.12843 5.67281 1.54883 7.07209 1.54883 8.53112C1.54883 9.99016 2.12843 11.3894 3.16012 12.4211L4.22012 13.4811L12.0001 21.2611L19.7801 13.4811L20.8401 12.4211C21.3511 11.9104 21.7565 11.3039 22.033 10.6365C22.3096 9.96902 22.4519 9.25361 22.4519 8.53112C22.4519 7.80863 22.3096 7.09323 22.033 6.42577C21.7565 5.75831 21.3511 5.15188 20.8401 4.64112Z" stroke="#0A1B33" stroke-linecap="round" stroke-linejoin="round"/>
</g>
</svg>
