<svg width="30" height="26" viewBox="0 0 30 26" fill="none" xmlns="http://www.w3.org/2000/svg">
<path d="M18.8185 1.6551L15.59 4.12971L15.2958 4.96832L13.7441 3.12308L12.3602 1.94883L10.0955 0.775391H7.24383L5.73508 1.6551L4.05729 2.57789L2.883 4.12971L1.91797 6.14257V9.83305L2.883 12.7267L4.05729 15.0333L5.73508 17.2979L7.57912 18.8915L10.0955 21.24L13.4081 23.3788L14.9604 24.5531L17.4347 23.3788L23.0124 18.8915L26.4093 15.0333L27.961 11.9299L28.7159 9.12012V7.06519L28.2126 5.38769L27.1642 3.79407L25.319 1.40364L22.4672 0.775391L18.8185 1.6551Z" fill="white"/>
<path d="M15.2373 25.5039C15.1689 25.5039 15.1055 25.4966 15.0469 25.4819C14.9883 25.4673 14.9297 25.4453 14.8711 25.416C14.832 25.3965 14.6123 25.2671 14.2119 25.0278C13.8115 24.7886 13.2915 24.4541 12.6519 24.0244C12.0122 23.5947 11.2871 23.0723 10.4766 22.457C9.66602 21.8418 8.83594 21.1533 7.98633 20.3916C7.47852 19.9326 7 19.4736 6.55078 19.0146C6.10156 18.5557 5.67676 18.0967 5.27637 17.6377C4.87598 17.1787 4.50244 16.7173 4.15576 16.2534C3.80908 15.7896 3.49414 15.3281 3.21094 14.8691C2.83984 14.2832 2.51514 13.6948 2.23682 13.104C1.9585 12.5132 1.72656 11.9272 1.54102 11.3462C1.35547 10.7651 1.21631 10.1841 1.12354 9.60303C1.03076 9.02197 0.984375 8.44824 0.984375 7.88184C0.984375 6.79785 1.19189 5.77734 1.60693 4.82031C2.02197 3.86328 2.58594 3.02832 3.29883 2.31543C4.01172 1.60254 4.84424 1.03857 5.79639 0.623535C6.74854 0.208496 7.77148 0.000976562 8.86523 0.000976562C9.22656 0.000976562 9.59521 0.0351562 9.97119 0.103516C10.3472 0.171875 10.7207 0.271973 11.0918 0.403809C11.4629 0.535645 11.8315 0.696777 12.1978 0.887207C12.564 1.07764 12.918 1.2998 13.2598 1.55371C13.6602 1.84668 14.0264 2.1665 14.3584 2.51318C14.6904 2.85986 14.9834 3.21875 15.2373 3.58984C15.4814 3.21875 15.772 2.85986 16.1089 2.51318C16.4458 2.1665 16.8145 1.84668 17.2148 1.55371C17.5566 1.2998 17.9082 1.07764 18.2695 0.887207C18.6309 0.696777 18.9971 0.535645 19.3682 0.403809C19.7393 0.271973 20.1128 0.171875 20.4888 0.103516C20.8647 0.0351562 21.2383 0.000976562 21.6094 0.000976562C22.6934 0.000976562 23.7139 0.208496 24.6709 0.623535C25.6279 1.03857 26.4629 1.60254 27.1758 2.31543C27.8887 3.02832 28.4526 3.86328 28.8677 4.82031C29.2827 5.77734 29.4902 6.79785 29.4902 7.88184C29.4902 8.44824 29.4414 9.02197 29.3438 9.60303C29.2461 10.1841 29.1045 10.7651 28.9189 11.3462C28.7334 11.9272 28.5039 12.5132 28.2305 13.104C27.957 13.6948 27.6348 14.2832 27.2637 14.8691C26.9707 15.3281 26.6533 15.7896 26.3115 16.2534C25.9697 16.7173 25.5986 17.1787 25.1982 17.6377C24.7979 18.0967 24.3706 18.5557 23.9165 19.0146C23.4624 19.4736 22.9863 19.9326 22.4883 20.3916C21.6387 21.1533 20.8086 21.8418 19.998 22.457C19.1875 23.0723 18.4624 23.5947 17.8228 24.0244C17.1831 24.4541 16.6606 24.7886 16.2554 25.0278C15.8501 25.2671 15.6328 25.3965 15.6035 25.416C15.5449 25.4453 15.4839 25.4673 15.4204 25.4819C15.3569 25.4966 15.2959 25.5039 15.2373 25.5039ZM8.86523 1.50977C7.98633 1.50977 7.15869 1.67578 6.38232 2.00781C5.60596 2.33984 4.92969 2.79395 4.35352 3.37012C3.77734 3.94629 3.3208 4.62256 2.98389 5.39893C2.64697 6.17529 2.47852 7.00293 2.47852 7.88184C2.47852 9.02441 2.67871 10.1328 3.0791 11.207C3.47949 12.2812 3.99219 13.3042 4.61719 14.2759C5.24219 15.2476 5.93799 16.1533 6.70459 16.9932C7.47119 17.833 8.22559 18.585 8.96777 19.249C9.62207 19.8545 10.2739 20.4087 10.9233 20.9116C11.5728 21.4146 12.1758 21.8613 12.7324 22.252C13.2891 22.6426 13.7847 22.9771 14.2192 23.2554C14.6538 23.5337 14.9932 23.7461 15.2373 23.8926C15.4717 23.7461 15.8062 23.5337 16.2407 23.2554C16.6753 22.9771 17.1733 22.6426 17.7349 22.252C18.2964 21.8613 18.8994 21.4146 19.5439 20.9116C20.1885 20.4087 20.8428 19.8545 21.5068 19.249C22.2393 18.585 22.9912 17.833 23.7627 16.9932C24.5342 16.1533 25.2324 15.2476 25.8574 14.2759C26.4824 13.3042 26.9927 12.2812 27.3882 11.207C27.7837 10.1328 27.9814 9.02441 27.9814 7.88184C27.9814 7.00293 27.8154 6.17529 27.4834 5.39893C27.1514 4.62256 26.6948 3.94629 26.1138 3.37012C25.5327 2.79395 24.8564 2.33984 24.085 2.00781C23.3135 1.67578 22.4883 1.50977 21.6094 1.50977C20.9746 1.50977 20.3521 1.62695 19.7417 1.86133C19.1313 2.0957 18.5698 2.40332 18.0571 2.78418C17.5444 3.16504 17.1025 3.59473 16.7314 4.07324C16.3604 4.55176 16.0967 5.02539 15.9404 5.49414C15.8916 5.64062 15.8013 5.7627 15.6694 5.86035C15.5376 5.95801 15.3936 6.00684 15.2373 6.00684C15.0713 6.00684 14.9224 5.95801 14.7905 5.86035C14.6587 5.7627 14.5684 5.64062 14.5195 5.49414C14.3633 5.02539 14.0996 4.55176 13.7285 4.07324C13.3574 3.59473 12.918 3.16504 12.4102 2.78418C11.9023 2.40332 11.3433 2.0957 10.7329 1.86133C10.1226 1.62695 9.5 1.50977 8.86523 1.50977Z" fill="#FF0090"/>
</svg>
