<svg width="30" height="26" viewBox="0 0 30 26" fill="none" xmlns="http://www.w3.org/2000/svg">
<path d="M15.2378 25.7515C15.1694 25.7515 15.106 25.7441 15.0474 25.7295C14.9888 25.7148 14.9302 25.6929 14.8716 25.6636C14.8325 25.644 14.6128 25.5146 14.2124 25.2754C13.812 25.0361 13.292 24.7017 12.6523 24.272C12.0127 23.8423 11.2876 23.3198 10.4771 22.7046C9.6665 22.0894 8.83643 21.4009 7.98682 20.6392C7.479 20.1802 7.00049 19.7212 6.55127 19.2622C6.10205 18.8032 5.67725 18.3442 5.27686 17.8853C4.87646 17.4263 4.50293 16.9648 4.15625 16.501C3.80957 16.0371 3.49463 15.5757 3.21143 15.1167C2.84033 14.5308 2.51562 13.9424 2.2373 13.3516C1.95898 12.7607 1.72705 12.1748 1.5415 11.5938C1.35596 11.0127 1.2168 10.4316 1.12402 9.85059C1.03125 9.26953 0.984863 8.6958 0.984863 8.12939C0.984863 7.04541 1.19238 6.0249 1.60742 5.06787C2.02246 4.11084 2.58643 3.27588 3.29932 2.56299C4.01221 1.8501 4.84473 1.28613 5.79688 0.871094C6.74902 0.456055 7.77197 0.248535 8.86572 0.248535C9.22705 0.248535 9.5957 0.282715 9.97168 0.351074C10.3477 0.419434 10.7212 0.519531 11.0923 0.651367C11.4634 0.783203 11.832 0.944336 12.1982 1.13477C12.5645 1.3252 12.9185 1.54736 13.2603 1.80127C13.6606 2.09424 14.0269 2.41406 14.3589 2.76074C14.6909 3.10742 14.9839 3.46631 15.2378 3.8374C15.4819 3.46631 15.7725 3.10742 16.1094 2.76074C16.4463 2.41406 16.8149 2.09424 17.2153 1.80127C17.5571 1.54736 17.9087 1.3252 18.27 1.13477C18.6313 0.944336 18.9976 0.783203 19.3687 0.651367C19.7397 0.519531 20.1133 0.419434 20.4893 0.351074C20.8652 0.282715 21.2388 0.248535 21.6099 0.248535C22.6938 0.248535 23.7144 0.456055 24.6714 0.871094C25.6284 1.28613 26.4634 1.8501 27.1763 2.56299C27.8892 3.27588 28.4531 4.11084 28.8682 5.06787C29.2832 6.0249 29.4907 7.04541 29.4907 8.12939C29.4907 8.6958 29.4419 9.26953 29.3442 9.85059C29.2466 10.4316 29.105 11.0127 28.9194 11.5938C28.7339 12.1748 28.5044 12.7607 28.231 13.3516C27.9575 13.9424 27.6353 14.5308 27.2642 15.1167C26.9712 15.5757 26.6538 16.0371 26.312 16.501C25.9702 16.9648 25.5991 17.4263 25.1987 17.8853C24.7983 18.3442 24.3711 18.8032 23.917 19.2622C23.4629 19.7212 22.9868 20.1802 22.4888 20.6392C21.6392 21.4009 20.8091 22.0894 19.9985 22.7046C19.188 23.3198 18.4629 23.8423 17.8232 24.272C17.1836 24.7017 16.6611 25.0361 16.2559 25.2754C15.8506 25.5146 15.6333 25.644 15.604 25.6636C15.5454 25.6929 15.4844 25.7148 15.4209 25.7295C15.3574 25.7441 15.2964 25.7515 15.2378 25.7515ZM8.86572 1.75732C7.98682 1.75732 7.15918 1.92334 6.38281 2.25537C5.60645 2.5874 4.93018 3.0415 4.354 3.61768C3.77783 4.19385 3.32129 4.87012 2.98438 5.64648C2.64746 6.42285 2.479 7.25049 2.479 8.12939C2.479 9.27197 2.6792 10.3804 3.07959 11.4546C3.47998 12.5288 3.99268 13.5518 4.61768 14.5234C5.24268 15.4951 5.93848 16.4009 6.70508 17.2407C7.47168 18.0806 8.22607 18.8325 8.96826 19.4966C9.62256 20.1021 10.2744 20.6562 10.9238 21.1592C11.5732 21.6621 12.1763 22.1089 12.7329 22.4995C13.2896 22.8901 13.7852 23.2246 14.2197 23.5029C14.6543 23.7812 14.9937 23.9937 15.2378 24.1401C15.4722 23.9937 15.8066 23.7812 16.2412 23.5029C16.6758 23.2246 17.1738 22.8901 17.7354 22.4995C18.2969 22.1089 18.8999 21.6621 19.5444 21.1592C20.189 20.6562 20.8433 20.1021 21.5073 19.4966C22.2397 18.8325 22.9917 18.0806 23.7632 17.2407C24.5347 16.4009 25.2329 15.4951 25.8579 14.5234C26.4829 13.5518 26.9932 12.5288 27.3887 11.4546C27.7842 10.3804 27.9819 9.27197 27.9819 8.12939C27.9819 7.25049 27.8159 6.42285 27.4839 5.64648C27.1519 4.87012 26.6953 4.19385 26.1143 3.61768C25.5332 3.0415 24.8569 2.5874 24.0854 2.25537C23.314 1.92334 22.4888 1.75732 21.6099 1.75732C20.9751 1.75732 20.3525 1.87451 19.7422 2.10889C19.1318 2.34326 18.5703 2.65088 18.0576 3.03174C17.5449 3.4126 17.103 3.84229 16.7319 4.3208C16.3608 4.79932 16.0972 5.27295 15.9409 5.7417C15.8921 5.88818 15.8018 6.01025 15.6699 6.10791C15.5381 6.20557 15.394 6.25439 15.2378 6.25439C15.0718 6.25439 14.9229 6.20557 14.791 6.10791C14.6592 6.01025 14.5688 5.88818 14.52 5.7417C14.3638 5.27295 14.1001 4.79932 13.729 4.3208C13.3579 3.84229 12.9185 3.4126 12.4106 3.03174C11.9028 2.65088 11.3438 2.34326 10.7334 2.10889C10.123 1.87451 9.50049 1.75732 8.86572 1.75732Z" fill="#FF0090"/>
</svg>
