<svg width="24" height="24" viewBox="0 0 24 24" fill="none" xmlns="http://www.w3.org/2000/svg">
<path d="M23.173 16.2339C19.174 16.5973 15.2396 16.3934 11.479 15.6276C7.72511 14.8632 4.03731 13.5172 0.517903 11.6269C0.346835 11.535 0.133774 11.5993 0.0419127 11.7702C-0.0499484 11.9413 0.0142138 12.1544 0.185282 12.2462C0.450507 12.3887 0.716811 12.5277 0.983911 12.6641L1.49435 19.5214C1.51024 19.7349 1.644 19.9157 1.84347 19.9935C1.90927 20.0191 1.97742 20.0316 2.04486 20.0316C2.18167 20.0316 2.31534 19.98 2.4199 19.8818L7.32767 15.2744C7.57082 15.3514 7.81444 15.426 8.05848 15.4981L8.61565 17.7179C8.47954 17.9 8.30815 18.0552 8.11041 18.172L8.00669 18.2332C7.88746 18.3036 7.81346 18.4334 7.81346 18.5719C7.81346 18.7103 7.88746 18.8401 8.00669 18.9106L8.11032 18.9718C8.45269 19.174 8.7167 19.4908 8.85383 19.864L8.85397 19.8643C8.91017 20.0169 9.05649 20.1196 9.21889 20.1214L9.69863 22.0325C9.7507 22.2401 9.91337 22.3955 10.1232 22.4379C10.1605 22.4454 10.1978 22.4491 10.2346 22.4491C10.4052 22.4491 10.5662 22.3701 10.6721 22.2295L14.7214 16.8511C15.0426 16.8877 15.3648 16.9203 15.6879 16.9491L18.5898 22.8984C18.683 23.0894 18.8722 23.2075 19.0843 23.2075C19.0859 23.2075 19.0875 23.2075 19.0892 23.2075C19.3032 23.2057 19.4925 23.0841 19.5831 22.8902L20.9175 20.0367C20.9998 19.8608 20.9239 19.6516 20.748 19.5693C20.5722 19.4871 20.363 19.563 20.2807 19.7389L19.0816 22.3029L16.5015 17.0133C17.4438 17.0784 18.3931 17.1117 19.3483 17.1117C20.0743 17.1117 20.804 17.0922 21.5361 17.0545L20.9176 18.3769C20.8354 18.5527 20.9113 18.762 21.0872 18.8442C21.1353 18.8667 21.1859 18.8774 21.2358 18.8774C21.368 18.8774 21.4947 18.8024 21.5545 18.6747L22.3347 17.0063C22.635 16.9852 22.9357 16.9614 23.2368 16.934C23.4301 16.9164 23.5726 16.7455 23.555 16.5522C23.5374 16.3588 23.3662 16.2164 23.173 16.2339ZM2.17168 19.1505L1.71603 13.0291C3.30537 13.8027 4.92503 14.469 6.56626 15.0248L2.17168 19.1505ZM8.763 18.5719C8.93862 18.4292 9.09356 18.2626 9.22306 18.0778C9.35255 18.2627 9.50745 18.4292 9.68307 18.5719C9.50741 18.7146 9.35251 18.8811 9.22301 19.0659C9.09351 18.8811 8.93866 18.7145 8.763 18.5719ZM10.3027 21.5513L9.78932 19.5062C9.78796 19.5008 9.78613 19.4957 9.78454 19.4905C9.92715 19.2804 10.1151 19.1021 10.3359 18.9717L10.4395 18.9105C10.5587 18.8401 10.6327 18.7103 10.6327 18.5719C10.6327 18.4334 10.5587 18.3036 10.4393 18.2331L10.3358 18.1719C9.99347 17.9698 9.72947 17.6529 9.59228 17.2796C9.53557 17.1256 9.38724 17.0221 9.2231 17.0221C9.20408 17.0221 9.18538 17.0238 9.16691 17.0265L8.83912 15.7205C9.6683 15.9472 10.5018 16.146 11.3387 16.3164C12.1898 16.4897 13.0496 16.6342 13.9167 16.7509L10.3027 21.5513Z" fill="#0A1B33"/>
<path d="M23.9589 0.979826C23.8679 0.808336 23.6551 0.742908 23.4836 0.834207C19.937 2.71694 16.2301 4.05146 12.4661 4.80064C8.70902 5.54851 4.78767 5.73448 0.810834 5.35359C0.617738 5.33479 0.445968 5.47676 0.427408 5.66999C0.408895 5.86323 0.55053 6.03491 0.743813 6.05342C1.04353 6.08215 1.34283 6.10713 1.6418 6.12949L4.76635 12.2551C4.86135 12.4414 5.04802 12.5554 5.25607 12.5554C5.26099 12.5554 5.26596 12.5554 5.27088 12.5552C5.48483 12.5496 5.67197 12.4248 5.7592 12.2293L8.50172 6.08107C8.75565 6.05796 9.00921 6.03303 9.26206 6.0051L10.4814 7.6316C10.5505 7.7237 10.656 7.77225 10.7629 7.77225C10.8363 7.77225 10.9103 7.74938 10.9735 7.702C11.1288 7.58558 11.1603 7.36521 11.0439 7.20989L10.0675 5.90738C10.9199 5.79555 11.7657 5.65687 12.6034 5.49011C13.4551 5.32059 14.3038 5.12145 15.1485 4.89353L13.6739 10.718L11.9426 8.40858C11.8261 8.2533 11.6059 8.22181 11.4505 8.33818C11.2952 8.4546 11.2636 8.67498 11.3801 8.8303L13.3031 11.3954C13.4089 11.5366 13.5703 11.616 13.7413 11.616C13.7777 11.616 13.8146 11.6124 13.8516 11.605C14.0615 11.563 14.2245 11.408 14.277 11.2004L15.9293 4.67405C16.2398 4.58341 16.5497 4.48915 16.8589 4.39069L21.8367 8.75306C21.9396 8.84328 22.0676 8.89019 22.198 8.89019C22.2714 8.89019 22.3456 8.87534 22.4165 8.84487C22.6132 8.76042 22.7408 8.5751 22.7494 8.3612L22.8696 5.35968C22.8774 5.16565 22.7265 5.00212 22.5325 4.99434C22.3392 4.98722 22.175 5.13753 22.1672 5.33147L22.0597 8.01367L17.634 4.13511C19.2077 3.59885 20.7628 2.96093 22.2917 2.22464L22.2272 3.83343C22.2194 4.02746 22.3704 4.19098 22.5643 4.19876C22.5692 4.19895 22.5739 4.19904 22.5787 4.19904C22.7663 4.19904 22.9221 4.0508 22.9297 3.86164L23.0095 1.87074C23.2782 1.7351 23.5462 1.59679 23.8132 1.45507C23.9847 1.3641 24.0499 1.15127 23.9589 0.979826ZM5.24745 11.6509L2.45815 6.18259C3.24234 6.22627 4.02386 6.24876 4.80211 6.24876C5.77499 6.24876 6.74244 6.21432 7.70295 6.14617L5.24745 11.6509Z" fill="#0A1B33"/>
<path d="M6.2622 2.93099L6.38668 3.00453C6.81229 3.25588 7.1406 3.64985 7.3112 4.11384C7.36903 4.27122 7.52065 4.37701 7.68834 4.37701C7.85604 4.37701 8.00761 4.27122 8.06554 4.1138C8.23604 3.64985 8.56435 3.25588 8.98991 3.00453L9.11439 2.93104C9.23625 2.85909 9.31194 2.7265 9.31194 2.58496C9.31194 2.44347 9.23625 2.31088 9.11444 2.23898L8.98996 2.16545C8.56435 1.9141 8.23604 1.52012 8.06549 1.05613C8.00765 0.89875 7.85604 0.792969 7.68834 0.792969C7.52065 0.792969 7.36908 0.89875 7.3112 1.05613C7.1406 1.52012 6.81229 1.9141 6.38673 2.16545L6.26225 2.23894C6.14039 2.31088 6.0647 2.44347 6.0647 2.58496C6.0647 2.7265 6.14039 2.85909 6.2622 2.93099ZM7.68834 1.86385C7.86738 2.14028 8.09352 2.38479 8.3563 2.58496C8.09352 2.78514 7.86738 3.02969 7.68834 3.30612C7.50931 3.02974 7.28312 2.78518 7.02033 2.58501C7.28312 2.38484 7.50921 2.14028 7.68834 1.86385Z" fill="#0A1B33"/>
<path d="M15.8767 12.6725C16.5094 13.0461 16.9974 13.6318 17.251 14.3215C17.3127 14.4897 17.4685 14.5984 17.6477 14.5985H17.6478C17.827 14.5985 17.9828 14.4898 18.0448 14.3215C18.2983 13.6317 18.7863 13.0461 19.419 12.6724L19.5957 12.5681C19.7238 12.4923 19.8035 12.3528 19.8035 12.2039C19.8034 12.055 19.7237 11.9155 19.5956 11.84L19.419 11.7356C18.7863 11.3619 18.2982 10.7763 18.0448 10.0865C17.9829 9.91826 17.8271 9.80957 17.6478 9.80957C17.6478 9.80957 17.6477 9.80957 17.6477 9.80957C17.4684 9.80966 17.3127 9.9184 17.251 10.0866C16.9974 10.7763 16.5094 11.3619 15.8767 11.7356L15.7002 11.8399C15.572 11.9155 15.4923 12.055 15.4922 12.2039C15.4921 12.3528 15.5718 12.4923 15.7001 12.5682L15.8767 12.6725ZM17.6478 10.8977C17.9411 11.4174 18.3516 11.8661 18.8462 12.2041C18.3516 12.5421 17.9411 12.9907 17.6478 13.5104C17.3545 12.9907 16.944 12.542 16.4495 12.2041C16.9441 11.8661 17.3545 11.4174 17.6478 10.8977Z" fill="#0A1B33"/>
</svg>
