<svg width="24" height="24" viewBox="0 0 24 24" fill="none" xmlns="http://www.w3.org/2000/svg">
<path d="M8.26807 4.59949C8.09234 4.59949 7.94121 4.46945 7.92012 4.29371C7.82874 3.56617 7.69869 2.9265 7.53351 2.39227C7.47727 2.206 7.5792 2.00917 7.76547 1.95294C7.95175 1.8967 8.14857 1.99863 8.20481 2.18491C8.38054 2.7578 8.52113 3.43613 8.61954 4.20585C8.64414 4.39915 8.50707 4.57489 8.31376 4.59949C8.29619 4.59949 8.28213 4.59949 8.26807 4.59949Z" fill="#0A1B33"/>
<path d="M4.24629 8.61857C4.23223 8.61857 4.21817 8.61857 4.2006 8.61505C2.09179 8.34794 0.759731 7.79965 0.243074 6.98424C-0.0205262 6.57303 -0.0697318 6.10557 0.0954579 5.60298C0.264162 5.08632 0.56291 4.72782 0.984671 4.54154C1.40643 4.35527 1.93715 4.34824 2.55924 4.52748C2.38 3.82104 2.47841 3.23409 2.85448 2.8545C3.23406 2.47492 3.82101 2.37651 4.52746 2.55927C4.34821 1.93366 4.35524 1.40645 4.54152 0.984694C4.7278 0.562933 5.0863 0.264186 5.60295 0.0954816C6.1407 -0.0767374 6.91744 -0.0943108 7.57117 0.81599C7.68364 0.97415 7.64849 1.19206 7.49033 1.30453C7.33217 1.417 7.11426 1.38185 7.00179 1.22369C6.56246 0.608624 6.11961 0.664859 5.82438 0.76327C5.50103 0.86871 5.29366 1.0339 5.18822 1.26938C5.016 1.65248 5.10738 2.25701 5.44831 3.00915C5.50806 3.1427 5.47994 3.30086 5.3745 3.4063C5.26906 3.50823 5.1109 3.53635 4.97734 3.47308C4.25332 3.12864 3.63122 3.08295 3.35708 3.3571C3.08293 3.63124 3.12862 4.24983 3.47306 4.97736C3.53632 5.11092 3.51172 5.26908 3.40628 5.37452C3.30436 5.47996 3.14619 5.50808 3.00912 5.44833C2.25698 5.10741 1.65246 5.01954 1.26936 5.18824C1.03388 5.29368 0.868686 5.50105 0.763246 5.8244C0.664835 6.12315 0.689438 6.38323 0.837054 6.6152C1.22367 7.22676 2.45029 7.69069 4.29198 7.92618C4.48529 7.95078 4.62236 8.12651 4.59775 8.31982C4.57315 8.49204 4.42202 8.61857 4.24629 8.61857Z" fill="#0A1B33"/>
<path d="M17.8276 23.9974C17.5359 23.9974 17.2617 23.9166 17.0087 23.7549C16.1933 23.2382 15.645 21.9062 15.3779 19.7974C15.3533 19.6041 15.4903 19.4283 15.6836 19.4037C15.8769 19.3791 16.0527 19.5162 16.0773 19.7095C16.3092 21.5477 16.7767 22.7743 17.3883 23.1644C17.6202 23.312 17.8768 23.3366 18.1791 23.2382C18.5024 23.1328 18.7098 22.9676 18.8152 22.7321C18.9839 22.349 18.896 21.7445 18.5551 20.9924C18.4954 20.8588 18.5235 20.7006 18.6289 20.5952C18.7344 20.4933 18.8925 20.4652 19.0261 20.5284C19.7501 20.8729 20.3722 20.9185 20.6464 20.6444C20.9205 20.3703 20.8748 19.7517 20.5304 19.0241C20.4671 18.8906 20.4917 18.7324 20.5971 18.627C20.6991 18.5215 20.8572 18.4934 20.9943 18.5532C21.7464 18.8941 22.351 18.982 22.7341 18.8133C22.9696 18.7078 23.1347 18.5004 23.2402 18.1771C23.3386 17.8784 23.314 17.6183 23.1664 17.3863C22.7798 16.7747 21.5531 16.3108 19.7114 16.0753C19.5181 16.0507 19.3811 15.875 19.4057 15.6817C19.4303 15.4884 19.606 15.3513 19.7993 15.3759C21.9081 15.643 23.2402 16.1913 23.7568 17.0067C24.0204 17.4179 24.0696 17.8854 23.9045 18.388C23.7358 18.9046 23.437 19.2631 23.0152 19.4494C22.5935 19.6357 22.0628 19.6427 21.4407 19.4635C21.6199 20.1699 21.5215 20.7569 21.1454 21.1365C20.7659 21.516 20.1789 21.6144 19.4725 21.4317C19.6517 22.0573 19.6447 22.5845 19.4584 23.0063C19.2721 23.428 18.9136 23.7268 18.397 23.8955C18.1966 23.9658 18.0103 23.9974 17.8276 23.9974Z" fill="#0A1B33"/>
<path d="M13.217 20.9077C13.1502 20.9077 13.0835 20.9077 13.0132 20.9042C12.8199 20.8971 12.6687 20.7319 12.6758 20.5386C12.6828 20.3453 12.848 20.1942 13.0413 20.2012C14.0887 20.2469 15.0903 19.8849 15.8636 19.189C17.0234 18.1451 18.1376 17.031 19.1814 15.8712C20.5521 14.3458 20.5416 12.0507 19.1568 10.5324C17.3573 8.55712 15.4383 6.64162 13.463 4.83508C11.9447 3.45029 9.65314 3.43975 8.12778 4.81047C6.96793 5.85433 5.85378 6.96848 4.80992 8.12832C3.4392 9.65369 3.44974 11.9488 4.83453 13.4671C6.63755 15.4424 8.55657 17.3579 10.5318 19.1644C10.9079 19.5053 11.3367 19.7689 11.8076 19.9482C11.9904 20.0185 12.0818 20.2188 12.0115 20.4016C11.9447 20.5843 11.7409 20.6757 11.5581 20.6054C11.0028 20.3945 10.4967 20.0852 10.0573 19.6811C8.06451 17.864 6.13495 15.9309 4.31435 13.9381C3.53058 13.0805 3.09476 11.9663 3.08773 10.803C3.0807 9.63963 3.50598 8.52197 4.28272 7.65736C5.34064 6.47994 6.47588 5.34822 7.65329 4.28679C8.51087 3.51356 9.618 3.0918 10.7743 3.0918C10.7814 3.0918 10.7884 3.0918 10.7989 3.0918C11.9623 3.09883 13.0764 3.53113 13.934 4.31842C15.9304 6.1355 17.8599 8.06858 19.6805 10.0579C20.4643 10.9155 20.9001 12.0296 20.9071 13.193C20.9142 14.3563 20.4889 15.474 19.7121 16.3386C18.6542 17.516 17.519 18.6477 16.3416 19.7092C15.477 20.4859 14.3734 20.9077 13.217 20.9077Z" fill="#0A1B33"/>
<path d="M7.55143 17.1593C7.44599 17.1593 7.34406 17.1136 7.27729 17.0258C7.15779 16.8746 7.18239 16.6532 7.33352 16.5337C9.60048 14.7377 12.1521 13.1737 14.9076 11.8838C17.1149 10.8505 18.8195 10.2987 19.4486 10.1089C19.6349 10.0526 19.8317 10.1581 19.8879 10.3444C19.9442 10.5306 19.8387 10.7275 19.6525 10.7837C18.5981 11.1 13.066 12.8925 7.76934 17.0855C7.70608 17.1347 7.62875 17.1593 7.55143 17.1593Z" fill="#0A1B33"/>
<path d="M10.1772 19.6628C10.0718 19.6628 9.96987 19.6172 9.89958 19.5293C9.78008 19.3782 9.80468 19.1567 9.95932 19.0372C14.0609 15.8073 18.275 13.9972 20.419 13.2064C20.6018 13.1396 20.8021 13.231 20.8689 13.4138C20.9357 13.5965 20.8443 13.7969 20.6615 13.8636C18.5527 14.6404 14.4159 16.4188 10.3916 19.589C10.3284 19.6382 10.2546 19.6628 10.1772 19.6628Z" fill="#0A1B33"/>
<path d="M5.04442 14.5634C4.93898 14.5634 4.83706 14.5177 4.76676 14.4299C4.64726 14.2787 4.67187 14.0573 4.82651 13.9378C10.3024 9.61475 15.9329 7.83281 17.0084 7.51649C17.1946 7.46377 17.3915 7.56921 17.4442 7.75549C17.4969 7.94177 17.3915 8.13859 17.2052 8.19131C16.1543 8.5006 10.6363 10.2474 5.26233 14.4861C5.19555 14.5388 5.11823 14.5634 5.04442 14.5634Z" fill="#0A1B33"/>
<path d="M3.4449 11.2721C3.33595 11.2721 3.23051 11.2229 3.16022 11.128C3.04423 10.9699 3.07938 10.752 3.23402 10.636C8.3549 6.87527 13.4301 5.25852 14.3931 4.97383C14.5794 4.91759 14.7762 5.02655 14.8289 5.20931C14.8852 5.39559 14.7762 5.59241 14.5935 5.64513C13.648 5.9263 8.67825 7.50791 3.64876 11.2018C3.58901 11.251 3.51871 11.2721 3.4449 11.2721Z" fill="#0A1B33"/>
<path d="M20.2885 4.87852C20.0073 4.87852 19.7296 4.77308 19.5152 4.55868L19.4379 4.48136C19.0337 4.07717 19.0126 3.42344 19.3887 2.99465L20.176 2.0949C20.3728 1.86644 20.661 1.73288 20.9598 1.72234C21.262 1.7118 21.5573 1.82778 21.7681 2.04218L21.9614 2.23548C22.1758 2.44988 22.2918 2.7416 22.2813 3.04386C22.2707 3.34612 22.1337 3.63081 21.9087 3.82763L21.009 4.61492C20.7981 4.78714 20.5415 4.87852 20.2885 4.87852ZM20.9949 2.41825C20.9914 2.41825 20.9844 2.41825 20.9809 2.41825C20.8719 2.42176 20.7735 2.46745 20.7032 2.5518L19.9159 3.45156C19.7823 3.60621 19.7894 3.83818 19.9335 3.98228L20.0108 4.0596C20.1549 4.2037 20.3869 4.21073 20.5415 4.07717L21.4413 3.28989C21.5221 3.21959 21.5713 3.11767 21.5748 3.01223C21.5783 2.90327 21.5397 2.80135 21.4624 2.72402L21.2691 2.53072C21.1952 2.46042 21.0968 2.41825 20.9949 2.41825Z" fill="#0A1B33"/>
<path d="M17.3519 3.38701C17.2606 3.38701 17.1657 3.37646 17.0708 3.34835L16.9653 3.32023C16.4135 3.17261 16.0691 2.6173 16.178 2.05846L16.4065 0.88456C16.4627 0.589328 16.6455 0.329242 16.8986 0.167567C17.1516 0.00589194 17.4679 -0.039799 17.7596 0.0410385L18.0232 0.111332C18.315 0.188655 18.561 0.385477 18.7051 0.652593C18.8457 0.919708 18.8703 1.23603 18.7754 1.52072L18.3888 2.65244C18.2306 3.09881 17.8053 3.38701 17.3519 3.38701ZM17.25 2.67002C17.4468 2.72274 17.6507 2.61378 17.7175 2.42047L18.1041 1.28875C18.1392 1.18682 18.1322 1.07787 18.0795 0.979457C18.0268 0.881046 17.9424 0.814267 17.837 0.78615L17.5734 0.715856C17.4679 0.687739 17.359 0.705312 17.2676 0.761547C17.1762 0.817781 17.1129 0.909163 17.0919 1.0146L16.8634 2.1885C16.8247 2.38884 16.9478 2.58566 17.1446 2.63838L17.25 2.67002Z" fill="#0A1B33"/>
<path d="M21.7297 7.84314C21.2446 7.84314 20.8053 7.51627 20.6753 7.03476L20.6472 6.92932C20.4995 6.37752 20.8053 5.80111 21.3466 5.61483L22.4783 5.22822C22.763 5.12981 23.0793 5.15441 23.3464 5.29851C23.6135 5.4391 23.8104 5.68864 23.8877 5.98036L23.958 6.24396C24.0353 6.53568 23.9896 6.84848 23.8314 7.10505C23.6733 7.36163 23.4097 7.54087 23.1145 7.59711L21.9406 7.82556C21.8703 7.83611 21.8 7.84314 21.7297 7.84314ZM21.3536 6.852C21.4063 7.04882 21.6031 7.17183 21.8035 7.13317L22.9774 6.90472C23.0828 6.88363 23.1742 6.82037 23.2304 6.72898C23.2867 6.6376 23.3042 6.52865 23.2761 6.42321L23.2058 6.15961C23.1777 6.05417 23.1109 5.96981 23.0125 5.91709C22.9176 5.86437 22.8087 5.85735 22.7032 5.89249L21.5715 6.27911C21.3782 6.34588 21.2693 6.54974 21.322 6.74656L21.3536 6.852Z" fill="#0A1B33"/>
<path d="M3.00163 22.2791C2.71343 22.2791 2.43577 22.1631 2.2284 21.9592L2.0351 21.7659C1.8207 21.5515 1.70472 21.2598 1.71526 20.9575C1.7258 20.6553 1.86288 20.3706 2.08782 20.1738L2.98757 19.3865C3.41988 19.0104 4.07361 19.035 4.47428 19.4357L4.5516 19.513C4.95579 19.9172 4.97688 20.5709 4.60081 20.9997L3.81352 21.8995C3.6167 22.1279 3.3285 22.2615 3.02975 22.272C3.02623 22.2791 3.01218 22.2791 3.00163 22.2791ZM3.70808 19.8223C3.6167 19.8223 3.52532 19.8539 3.45502 19.9172L2.55175 20.701C2.47092 20.7713 2.42171 20.8732 2.4182 20.9786C2.41468 21.0841 2.45334 21.1895 2.53067 21.2668L2.72397 21.4601C2.80129 21.5375 2.90322 21.5761 3.01218 21.5726C3.12113 21.5691 3.21954 21.5234 3.28983 21.439L4.07712 20.5393C4.21068 20.3846 4.20365 20.1527 4.05955 20.0086L3.98223 19.9312C3.90842 19.861 3.80649 19.8223 3.70808 19.8223Z" fill="#0A1B33"/>
<path d="M6.51796 23.9959C6.42307 23.9959 6.32817 23.9854 6.23679 23.9572L5.97319 23.887C5.68147 23.8096 5.43544 23.6128 5.29134 23.3457C5.15075 23.0786 5.12615 22.7623 5.22105 22.4776L5.60766 21.3458C5.79394 20.8046 6.37035 20.4988 6.92215 20.6464L7.02759 20.6745C7.57939 20.8222 7.92383 21.3775 7.81488 21.9363L7.58642 23.1102C7.53019 23.4054 7.34743 23.6655 7.09437 23.8272C6.92215 23.9397 6.72181 23.9959 6.51796 23.9959ZM6.64449 21.3142C6.48282 21.3142 6.33168 21.4161 6.27545 21.5778L5.88884 22.7095C5.85369 22.8115 5.86072 22.9204 5.91344 23.0188C5.96616 23.1137 6.05051 23.184 6.15595 23.2121L6.41955 23.2824C6.52499 23.3105 6.63395 23.293 6.72533 23.2367C6.81671 23.1805 6.87997 23.0891 6.90106 22.9837L7.12952 21.8098C7.16818 21.6094 7.04516 21.4126 6.84834 21.3599L6.7429 21.3318C6.71127 21.3177 6.67612 21.3142 6.64449 21.3142Z" fill="#0A1B33"/>
<path d="M1.16319 18.8299C0.983943 18.8299 0.808209 18.7877 0.650049 18.7034C0.382933 18.5628 0.186112 18.3133 0.108789 18.0215L0.0384953 17.7579C-0.0388275 17.4662 0.0068632 17.1534 0.165024 16.8968C0.323184 16.6403 0.586784 16.461 0.882017 16.4048L2.05592 16.1763C2.61475 16.0674 3.17007 16.4118 3.31769 16.9636L3.3458 17.0691C3.49342 17.6209 3.18764 18.1973 2.64638 18.3836L1.51466 18.7702C1.40219 18.8123 1.28269 18.8299 1.16319 18.8299ZM2.2668 16.8582C2.2422 16.8582 2.21759 16.8617 2.19299 16.8652L1.01909 17.0937C0.913649 17.1148 0.822268 17.178 0.766033 17.2694C0.709798 17.3608 0.692225 17.4697 0.720342 17.5752L0.790636 17.8388C0.818753 17.9442 0.885532 18.0286 0.983943 18.0813C1.07884 18.134 1.18779 18.141 1.29323 18.1059L2.42496 17.7193C2.61827 17.6525 2.72722 17.4486 2.6745 17.2518L2.64638 17.1464C2.59366 16.9742 2.43902 16.8582 2.2668 16.8582Z" fill="#0A1B33"/>
</svg>
