<svg width="24" height="25" viewBox="0 0 24 25" fill="none" xmlns="http://www.w3.org/2000/svg">
<path d="M18.9519 13.4819C18.8535 13.4819 18.7598 13.4397 18.6895 13.3647L16.5251 10.9145C16.3986 10.7693 16.408 10.5491 16.5579 10.4179C16.7031 10.2914 16.9233 10.3008 17.0545 10.4507L19.2189 12.9009C19.3454 13.0462 19.3361 13.2664 19.1861 13.3975C19.1159 13.4491 19.0362 13.4819 18.9519 13.4819Z" fill="#0A1B33"/>
<path d="M18.4131 24.1919C18.2538 24.1919 18.1086 24.0841 18.0711 23.9201L16.3049 16.5133C16.1878 16.0261 16.3283 15.5201 16.6797 15.164C17.3684 14.4707 18.6755 13.0652 19.7249 11.4489C20.957 9.54685 21.8003 7.30747 22.1048 6.4314L22.1142 6.40797C22.1235 6.37518 22.1423 6.34238 22.161 6.31896C22.489 5.86921 22.8122 5.41009 23.1214 4.95565C23.351 4.61834 23.3369 4.17327 23.0886 3.85002L22.5874 3.19881C22.4468 3.0161 22.3672 2.78654 22.3672 2.55698V2.36022C22.3672 2.23372 22.3016 2.1166 22.2032 2.0557C22.1235 2.00885 22.0345 1.99948 21.9549 2.02759C21.8706 2.0557 21.805 2.11192 21.7675 2.19625L21.0694 3.7001C20.957 3.93903 20.7368 4.11705 20.4791 4.17796L20.2027 4.23886C20.0341 4.27634 19.917 4.44031 19.9451 4.61365C20.0107 5.04935 20.0997 5.4991 20.2121 5.93948C20.2308 6.01912 20.2262 6.09877 20.1934 6.17373C19.9123 6.79213 19.5937 7.39648 19.2564 7.97273C19.158 8.14138 18.9425 8.19292 18.7738 8.09453C18.6052 7.99615 18.5537 7.78065 18.652 7.61199C18.9612 7.09665 19.247 6.5532 19.5047 5.99101C19.4016 5.56469 19.3173 5.13368 19.2564 4.71204C19.1814 4.17796 19.5328 3.67199 20.0575 3.55018L20.3386 3.48928C20.3854 3.47991 20.4229 3.44711 20.4464 3.40495L21.135 1.89173C21.2522 1.63406 21.477 1.43729 21.7488 1.35296C22.0205 1.26395 22.3109 1.29675 22.5639 1.44198C22.8825 1.62469 23.084 1.97606 23.084 2.35553V2.5523C23.084 2.63194 23.1121 2.7069 23.1589 2.7678L23.6602 3.419C24.0912 3.98588 24.1146 4.75889 23.7164 5.3445C23.4119 5.79425 23.0933 6.24868 22.7701 6.68906C22.4515 7.60731 21.5895 9.88417 20.3245 11.8331C19.2423 13.5009 17.8978 14.9439 17.1903 15.6606C17.0076 15.8434 16.9374 16.101 16.9983 16.354L18.7645 23.7608C18.8113 23.9482 18.6942 24.1403 18.5021 24.1825C18.4693 24.1872 18.4412 24.1919 18.4131 24.1919Z" fill="#0A1B33"/>
<path d="M12.9693 13.9884C12.8428 13.9884 12.721 13.9228 12.6601 13.8056C12.5664 13.637 12.632 13.4215 12.8006 13.3278C14.7308 12.2877 16.4033 10.812 17.7666 8.94741C17.8791 8.79281 18.0992 8.75533 18.2585 8.87245C18.4131 8.98489 18.4506 9.20508 18.3335 9.36436C16.9046 11.318 15.1571 12.8593 13.1333 13.9509C13.0817 13.9743 13.0255 13.9884 12.9693 13.9884Z" fill="#0A1B33"/>
<path d="M9.51193 14.2224C9.47913 14.2224 9.44634 14.2177 9.41823 14.2083C7.83473 13.7586 5.50165 12.5077 4.10555 11.5566C3.94626 11.4489 3.9041 11.2287 4.01185 11.0694C4.11961 10.9101 4.3398 10.868 4.49908 10.9757C5.86707 11.908 8.1533 13.1167 9.60562 13.5337C9.79302 13.5852 9.90077 13.782 9.84924 13.9694C9.80707 14.124 9.66184 14.2224 9.51193 14.2224Z" fill="#0A1B33"/>
<path d="M8.32174 24.1924C8.28426 24.1924 8.2421 24.1878 8.20462 24.1737C8.02191 24.1081 7.92821 23.9067 7.9938 23.7239L8.38733 22.6277C8.53256 22.2201 8.51851 21.7844 8.34048 21.3909L6.76635 17.8959C6.70077 17.746 6.59301 17.6195 6.46184 17.5258C4.09128 15.8721 1.82847 13.7076 0.408946 11.74C0.296508 11.5807 0.329302 11.3652 0.488589 11.2481C0.647875 11.1356 0.863381 11.1684 0.980503 11.3277C2.33444 13.2063 4.59256 15.3567 6.86474 16.9449C7.10367 17.1089 7.29106 17.3384 7.40819 17.6008L8.98231 21.0957C9.2353 21.6532 9.25872 22.281 9.0479 22.8619L8.65437 23.9582C8.60283 24.1034 8.46697 24.1924 8.32174 24.1924Z" fill="#0A1B33"/>
<path d="M7.90964 11.2943C7.86279 11.2943 7.81126 11.2849 7.76909 11.2662C5.9982 10.4791 5.53439 9.13456 5.45944 8.14136C5.44538 7.94928 5.59061 7.78062 5.78269 7.76656C5.97478 7.75251 6.14343 7.89774 6.15749 8.08982C6.2465 9.25168 6.88365 10.1043 8.05019 10.6244C8.22821 10.704 8.30786 10.9101 8.22821 11.0882C8.17668 11.2147 8.0455 11.2943 7.90964 11.2943Z" fill="#0A1B33"/>
<path d="M14.1451 9.52329C14.0327 9.52329 13.925 9.47176 13.8594 9.37338C13.7469 9.21409 13.7844 8.9939 13.9437 8.88146C14.5481 8.45514 15.0025 7.83673 15.2274 7.14336C15.4288 6.50153 15.4288 5.79411 15.2367 5.14291C15.1056 5.28814 14.9463 5.42401 14.7776 5.54113C14.6417 5.63483 14.4684 5.65357 14.3138 5.58798C14.1592 5.52239 14.0515 5.38653 14.0187 5.22256C13.9343 4.74001 13.7329 4.29495 13.4565 3.95295C13.4003 4.11692 13.3066 4.24341 13.1754 4.34179C12.6366 4.73064 11.7184 4.37459 10.6596 3.96232C10.5659 3.92484 10.4769 3.89204 10.3832 3.85457C10.2005 3.78429 10.1115 3.58284 10.1817 3.40013C10.252 3.21742 10.4534 3.12841 10.6362 3.19868C10.7299 3.23616 10.8236 3.26895 10.9126 3.30643C11.367 3.48446 11.798 3.64843 12.1588 3.74213C12.6179 3.85457 12.7397 3.78898 12.7631 3.77492C12.8006 3.74681 12.8193 3.64843 12.81 3.51725C12.8006 3.32049 12.9037 3.14246 13.077 3.05345C13.2503 2.96443 13.4612 2.98786 13.6111 3.11435C14.0889 3.50788 14.4497 4.09818 14.6324 4.75875C14.7354 4.66037 14.8245 4.55262 14.8854 4.44955C14.9791 4.29495 15.1524 4.20593 15.3351 4.2153C15.5178 4.22936 15.6771 4.34179 15.7521 4.51045C16.1362 5.40058 16.1878 6.44063 15.8973 7.35887C15.6303 8.19747 15.0821 8.94705 14.3513 9.46239C14.2857 9.50455 14.2154 9.52329 14.1451 9.52329Z" fill="#0A1B33"/>
<path d="M11.3857 15.9277C11.2311 15.9277 11.0718 15.8715 10.95 15.7637L9.47896 14.4473C9.2822 14.2739 9.16039 14.0303 9.13228 13.7726L8.93552 12.0064C8.01259 11.7253 7.62374 11.2241 7.45977 10.854C7.26301 10.4042 7.27706 9.87013 7.50662 9.39227C7.75492 8.87224 8.1344 8.76449 8.33585 8.75044C8.67316 8.72233 9.01516 8.8863 9.29157 9.1955C9.45554 8.83476 9.66636 8.296 9.75069 7.78066C9.7788 7.59327 9.89124 7.42929 10.0505 7.33091C10.2098 7.23253 10.4066 7.2091 10.5846 7.26532L10.6315 7.27938C11.4091 7.52768 12.7162 7.94463 13.597 7.73381C13.7984 7.68696 14.0046 7.72913 14.1685 7.85094C14.3325 7.97274 14.4309 8.15545 14.445 8.35691L14.6136 11.0554C14.6558 11.716 14.2201 12.3203 13.5829 12.4937L13.255 12.5827L13.3206 13.6743C13.3393 13.9647 13.2363 14.2505 13.0348 14.466L11.8636 15.7309C11.7371 15.8574 11.5591 15.9277 11.3857 15.9277ZM8.40612 9.44849C8.40144 9.44849 8.39675 9.44849 8.39207 9.44849C8.27495 9.45786 8.19062 9.58903 8.13908 9.6921C7.99854 9.98725 7.98448 10.3011 8.1016 10.5682C8.25152 10.9102 8.60757 11.1725 9.13697 11.3365C9.40401 11.4208 9.59609 11.6504 9.62888 11.9268L9.82565 13.693C9.83502 13.782 9.87718 13.8663 9.94745 13.9273L11.381 15.2109L12.5195 13.9835C12.5851 13.9085 12.6225 13.8101 12.6178 13.7117L12.5429 12.4796C12.5288 12.2313 12.6928 12.0018 12.9317 11.9362L13.3955 11.8097C13.7141 11.7253 13.9296 11.4208 13.9109 11.0929L13.7422 8.41781C12.6788 8.66611 11.3295 8.23978 10.43 7.94932C10.3129 8.6052 10.0365 9.26109 9.82565 9.69679C9.73663 9.8795 9.56329 9.99662 9.36184 10.0107C9.16039 10.0247 8.96363 9.93103 8.85119 9.76706C8.69659 9.54218 8.51856 9.44849 8.40612 9.44849Z" fill="#0A1B33"/>
<path d="M20.7509 17.9759C20.0294 17.9759 19.4485 17.3903 19.4485 16.6735C19.4485 15.952 20.0341 15.3711 20.7509 15.3711C21.4724 15.3711 22.0533 15.9567 22.0533 16.6735C22.058 17.3903 21.4724 17.9759 20.7509 17.9759ZM20.7509 16.0691C20.4183 16.0691 20.1512 16.3409 20.1512 16.6688C20.1512 16.9968 20.4229 17.2685 20.7509 17.2685C21.0788 17.2685 21.3506 16.9968 21.3506 16.6688C21.3506 16.3409 21.0835 16.0691 20.7509 16.0691Z" fill="#0A1B33"/>
<path d="M21.6785 16.8136C21.5192 16.8136 21.374 16.7012 21.3365 16.5419L20.7603 14.0074C20.6994 13.745 20.7931 13.478 20.9992 13.3093C21.2053 13.1407 21.4864 13.1032 21.73 13.2156L22.5405 13.5857C22.7186 13.6654 22.7935 13.8762 22.7139 14.0496C22.6342 14.2276 22.4234 14.3025 22.2501 14.2229L21.4443 13.8528L22.0205 16.3826C22.0627 16.57 21.9456 16.7621 21.7535 16.8043C21.73 16.809 21.7066 16.8136 21.6785 16.8136Z" fill="#0A1B33"/>
<path d="M2.21735 23.1378C1.59894 23.1378 1.09766 22.6365 1.09766 22.0181C1.09766 21.3997 1.59894 20.8984 2.21735 20.8984C2.83575 20.8984 3.33704 21.3997 3.33704 22.0181C3.33704 22.6365 2.83575 23.1378 2.21735 23.1378ZM2.21735 21.6059C1.98779 21.6059 1.80039 21.7933 1.80039 22.0228C1.80039 22.2524 1.98779 22.4398 2.21735 22.4398C2.44691 22.4398 2.6343 22.2524 2.6343 22.0228C2.6343 21.7933 2.44691 21.6059 2.21735 21.6059Z" fill="#0A1B33"/>
<path d="M4.99567 22.7579C4.37726 22.7579 3.87598 22.2567 3.87598 21.6382C3.87598 21.0198 4.37726 20.5186 4.99567 20.5186C5.61407 20.5186 6.11536 21.0198 6.11536 21.6382C6.11536 22.2567 5.60939 22.7579 4.99567 22.7579ZM4.99567 21.2213C4.76611 21.2213 4.57871 21.4087 4.57871 21.6382C4.57871 21.8678 4.76611 22.0552 4.99567 22.0552C5.22523 22.0552 5.41262 21.8678 5.41262 21.6382C5.41262 21.4087 5.22523 21.2213 4.99567 21.2213Z" fill="#0A1B33"/>
<path d="M2.98564 22.3739C2.79356 22.3739 2.63428 22.2147 2.63428 22.0226V19.5349C2.63428 19.2632 2.83573 19.0289 3.10745 18.9961L5.50612 18.6635C5.65604 18.6448 5.81064 18.6869 5.92776 18.79C6.04488 18.8931 6.11047 19.0383 6.11047 19.1929V21.6431C6.11047 21.8352 5.95119 21.9945 5.75911 21.9945C5.56702 21.9945 5.40774 21.8352 5.40774 21.6431V19.385L3.33701 19.6708V22.0226C3.33701 22.2147 3.18241 22.3739 2.98564 22.3739Z" fill="#0A1B33"/>
<path d="M4.12887 15.5905C4.04454 15.5905 3.96021 15.5577 3.89462 15.5015C2.48915 14.26 1.28513 12.9623 0.40437 11.7442C-0.181242 10.9337 -0.125024 9.8468 0.535547 9.09721C1.64118 7.85572 2.54537 6.98901 3.61821 5.98176C3.75876 5.85058 3.98363 5.85526 4.11481 5.99581C4.24599 6.13636 4.2413 6.36123 4.10076 6.49241C3.04197 7.48561 2.14715 8.34295 1.06494 9.56102C0.619875 10.0576 0.587081 10.7885 0.975928 11.3272C1.76299 12.4188 2.82646 13.5807 4.06796 14.705L5.59992 12.4797C5.04711 12.1658 4.53177 11.8473 4.10076 11.5521C3.86183 11.3881 3.70254 11.1445 3.65101 10.8587C3.59947 10.573 3.66506 10.2872 3.83372 10.0529C4.86908 8.60062 6.19959 7.09676 7.88615 5.19938C8.22347 4.8199 8.70601 4.59034 9.21667 4.5716L10.0272 4.54349C10.1162 4.53881 10.1677 4.48727 10.1911 4.45448C10.2146 4.42168 10.2473 4.3561 10.2239 4.27177L10.1443 3.99067C10.0599 3.69552 10.1255 3.37695 10.327 3.14271L10.8985 2.47277C10.9641 2.39781 10.9876 2.29942 10.9594 2.20573C10.936 2.11203 10.8704 2.03239 10.7767 1.99959L9.71795 1.58264C9.24946 1.39992 8.72007 1.55921 8.43429 1.97148L7.90958 2.72107C7.75498 2.94126 7.57227 3.1146 7.39893 3.28325C7.32865 3.35353 7.26306 3.41443 7.19747 3.4847C6.58844 4.1078 5.99346 4.70278 5.30946 5.35398C5.16891 5.48984 4.94872 5.48516 4.81286 5.34461C4.677 5.20406 4.68168 4.98387 4.82223 4.84801C5.49686 4.20618 6.08715 3.61588 6.69151 2.99747C6.76646 2.92252 6.83674 2.85224 6.9117 2.78197C7.07098 2.62737 7.2209 2.48214 7.33334 2.32285L7.85805 1.57327C8.33122 0.893955 9.20261 0.631601 9.97562 0.931434L11.0438 1.34839C11.3436 1.46551 11.5732 1.72318 11.6528 2.03707C11.7325 2.35096 11.6528 2.68827 11.442 2.93189L10.8704 3.60183C10.8236 3.65805 10.8095 3.72832 10.8283 3.79859L10.9079 4.07969C10.9876 4.35141 10.936 4.64187 10.7674 4.87143C10.5987 5.10099 10.341 5.23686 10.0599 5.25091L9.24946 5.27902C8.93089 5.28839 8.63105 5.43362 8.42023 5.66787C6.74772 7.55588 5.42658 9.04568 4.41464 10.4652C4.35843 10.5448 4.335 10.6432 4.35374 10.7416C4.37248 10.84 4.42401 10.9243 4.50834 10.9805C5.00963 11.3225 5.62803 11.6973 6.2886 12.0628C6.37762 12.1096 6.43852 12.1939 6.46195 12.2876C6.48537 12.3813 6.46663 12.4844 6.41041 12.5687L4.4287 15.4406C4.37248 15.5249 4.28347 15.5764 4.1804 15.5905C4.15697 15.5858 4.14292 15.5905 4.12887 15.5905Z" fill="#0A1B33"/>
<path d="M14.9041 24.1923C14.787 24.1923 14.6745 24.1361 14.6089 24.0283C14.5059 23.8643 14.5527 23.6488 14.7167 23.5411C14.8338 23.4661 14.9228 23.3115 14.8666 23.1288C14.8104 22.9555 14.6698 22.9086 14.6089 22.8946C14.5527 22.8805 14.4028 22.8618 14.2763 22.9883L14.2201 23.0445C14.0467 23.2178 13.7797 23.2412 13.5829 23.096C13.3862 22.9508 13.3206 22.6884 13.433 22.4729L13.4705 22.4026C13.5548 22.2434 13.4892 22.1075 13.4564 22.056C13.4237 22.0044 13.3346 21.8873 13.1519 21.8873C12.9692 21.8873 12.8802 22.0044 12.8474 22.056C12.8146 22.1075 12.7537 22.2434 12.8334 22.4026L12.8708 22.4729C12.9833 22.6884 12.9224 22.9508 12.7209 23.096C12.5242 23.2412 12.2524 23.2178 12.0838 23.0445L12.0276 22.9883C11.9011 22.8618 11.7511 22.8805 11.6949 22.8946C11.6387 22.9086 11.4935 22.9601 11.4373 23.1288C11.3764 23.3115 11.47 23.4661 11.5872 23.5411C11.7511 23.6441 11.798 23.8643 11.6949 24.0283C11.5919 24.1923 11.3717 24.2391 11.2077 24.1361C10.8001 23.8737 10.6174 23.3724 10.7673 22.9133C10.8844 22.5572 11.1655 22.2949 11.531 22.2106C11.7183 22.1637 11.9104 22.1731 12.0885 22.2293C12.0885 22.0419 12.1447 21.8592 12.2431 21.6905C12.4351 21.372 12.7725 21.1846 13.1472 21.1846C13.522 21.1846 13.8593 21.372 14.0514 21.6905C14.1545 21.8545 14.206 22.0419 14.206 22.2293C14.3841 22.1731 14.5761 22.1684 14.7635 22.2106C15.1243 22.2949 15.41 22.5572 15.5272 22.9133C15.6771 23.3724 15.4944 23.8737 15.0868 24.1361C15.0353 24.1735 14.9697 24.1923 14.9041 24.1923Z" fill="#0A1B33"/>
<path d="M17.0638 21.1656C16.8811 21.1656 16.6984 21.1234 16.5298 21.0344C16.3283 20.9267 16.169 20.7674 16.066 20.58C15.9301 20.7487 15.7427 20.8751 15.5272 20.9454C15.1477 21.0625 14.7401 20.9782 14.4403 20.7159C14.1405 20.4535 13.9999 20.06 14.0702 19.6664C14.1077 19.4416 14.2107 19.2401 14.3606 19.0855C14.1592 19.0059 13.9812 18.87 13.85 18.6826C13.6204 18.3594 13.5736 17.9424 13.7329 17.577C13.8922 17.2116 14.2201 16.9586 14.6136 16.9024C14.8385 16.8696 15.0587 16.907 15.2555 16.9961C15.2695 16.7805 15.3445 16.565 15.4803 16.3823C15.7193 16.0638 16.0987 15.8904 16.497 15.9279C16.5766 15.9373 16.6516 15.9513 16.7265 15.9747C16.9139 16.031 17.017 16.2277 16.9608 16.4151C16.9045 16.6025 16.7078 16.7056 16.5204 16.6494C16.4923 16.64 16.4595 16.6353 16.4314 16.6306C16.2768 16.6166 16.1362 16.6775 16.0425 16.804C15.9488 16.9258 15.9301 17.0804 15.9863 17.2256L16.0191 17.3053C16.1128 17.5395 16.0238 17.8019 15.8083 17.933C15.5928 18.0595 15.3164 18.0127 15.1571 17.8206L15.1009 17.755C15.0025 17.6379 14.8572 17.5817 14.7073 17.6004C14.5527 17.6238 14.4309 17.7175 14.37 17.8581C14.3091 17.9986 14.3232 18.1532 14.4169 18.2797C14.5059 18.4062 14.6464 18.4718 14.801 18.4624L14.8854 18.4577C15.1383 18.439 15.3585 18.6077 15.4148 18.8513C15.471 19.0949 15.3398 19.3432 15.1055 19.4369L15.0259 19.4697C14.8807 19.5259 14.7823 19.6477 14.7589 19.7976C14.7308 19.9475 14.7823 20.0975 14.8994 20.1958C15.0165 20.2989 15.1665 20.3317 15.3117 20.2849C15.4569 20.238 15.5647 20.1256 15.6021 19.9756L15.6209 19.8913C15.6818 19.6477 15.9067 19.4884 16.1596 19.5072C16.4126 19.5306 16.6047 19.732 16.6188 19.9803L16.6235 20.0647C16.6328 20.2193 16.7172 20.3504 16.853 20.4207C16.9889 20.491 17.1435 20.491 17.2747 20.4113C17.3121 20.3926 17.3402 20.3645 17.3684 20.3364C17.5042 20.1958 17.7244 20.1912 17.865 20.3223C18.0055 20.4582 18.0102 20.6784 17.879 20.8189C17.8087 20.8939 17.7244 20.9595 17.6354 21.0157C17.4667 21.1094 17.2653 21.1656 17.0638 21.1656Z" fill="#0A1B33"/>
<path d="M8.44356 19.7179C8.40608 19.7179 8.3686 19.7179 8.32643 19.7133C7.89542 19.6758 7.52532 19.4181 7.33792 19.0293L7.31918 18.9918C7.188 18.9028 7.1271 18.7341 7.18332 18.5795C7.24891 18.3968 7.45036 18.3031 7.63307 18.3687C7.75956 18.4155 7.86263 18.5092 7.92353 18.631L7.9657 18.7154C8.05002 18.884 8.19994 18.9918 8.38734 19.0058C8.57473 19.0246 8.74339 18.9449 8.85583 18.795C8.96827 18.6451 8.99169 18.4577 8.92142 18.2844C8.85114 18.111 8.70591 17.9939 8.51851 17.9611L8.42482 17.947C8.16715 17.9049 7.98444 17.6847 7.98444 17.4223C7.98912 17.16 8.17652 16.9445 8.43419 16.907L8.52788 16.8929C8.71528 16.8648 8.86051 16.7524 8.93547 16.5791C9.01043 16.4057 8.99169 16.223 8.87925 16.0684C8.7715 15.9138 8.60284 15.8342 8.41545 15.8482C8.22805 15.8623 8.07345 15.9653 7.98444 16.1293L7.94227 16.2136C7.82046 16.4479 7.55343 16.5509 7.30981 16.4713C7.06151 16.387 6.91628 16.1387 6.95844 15.881L6.97718 15.7873C7.00998 15.6046 6.94907 15.4266 6.80853 15.3048C6.66798 15.183 6.48527 15.1408 6.30724 15.197C6.12922 15.2532 5.99804 15.3891 5.95587 15.5718C5.90903 15.7545 5.96056 15.9325 6.09174 16.0684L6.15733 16.1387C6.26976 16.2511 6.32598 16.4057 6.30724 16.565C6.2885 16.7243 6.19949 16.8695 6.06363 16.9538C5.89966 17.0569 5.68415 17.0101 5.5764 16.8461C5.51081 16.7477 5.50612 16.6259 5.54829 16.5228C5.27656 16.2183 5.1735 15.806 5.27188 15.4078C5.37495 14.9909 5.68415 14.6629 6.09642 14.5318C6.50869 14.4053 6.94907 14.4943 7.27233 14.7801C7.47378 14.9581 7.60964 15.1876 7.66118 15.4359C7.85794 15.272 8.10156 15.1689 8.3686 15.1502C8.79961 15.1221 9.2072 15.3141 9.45549 15.6655C9.70379 16.0169 9.75064 16.4619 9.58199 16.8601C9.47423 17.1038 9.30089 17.3052 9.07602 17.4364C9.29621 17.5723 9.46955 17.7737 9.56793 18.022C9.72722 18.4202 9.671 18.8653 9.41333 19.212C9.18846 19.5352 8.82772 19.7179 8.44356 19.7179Z" fill="#0A1B33"/>
</svg>
