<svg width="24" height="24" viewBox="0 0 24 24" fill="none" xmlns="http://www.w3.org/2000/svg">
<path d="M23.6478 19.9963C23.8423 19.9963 24 19.8386 24 19.644V12.6099C24 12.4153 23.8423 12.2577 23.6478 12.2577H8.86665L9.32602 10.5913C9.44645 10.1545 9.18901 9.70104 8.75209 9.58062L7.18285 9.14805C6.97121 9.08979 6.74954 9.11726 6.55861 9.22568C6.36769 9.3341 6.23044 9.5103 6.17208 9.72194L5.7923 11.0995C5.52469 11.0064 5.13788 10.8866 4.71052 10.8018C3.58879 10.5793 2.76782 10.7079 2.27053 11.1841C1.78692 11.6472 1.77768 12.4435 2.24296 13.5508C2.47354 14.0995 2.76136 14.5837 2.90456 14.812L2.44523 16.4819C2.20514 16.6046 1.70985 16.8726 1.2307 17.2253C0.263382 17.9374 -0.136885 18.6257 0.041147 19.2712C0.224147 19.935 0.863242 20.4661 1.94057 20.8498C2.35101 20.996 2.74457 21.0913 3.02212 21.1484L2.64234 22.526C2.52192 22.9629 2.77936 23.4163 3.21623 23.5367L4.78547 23.9693C5.20748 24.0957 5.68819 23.8237 5.79624 23.3954L6.32377 21.4818C6.37547 21.2943 6.26532 21.1004 6.07782 21.0487C5.89041 20.997 5.69635 21.1071 5.64464 21.2946L5.11706 23.2083C5.10581 23.2491 5.07769 23.2702 5.06189 23.2792C5.04609 23.2882 5.01347 23.3016 4.97269 23.2903L3.40345 22.8577C3.32854 22.8246 3.31153 22.7947 3.32151 22.7133L4.72059 17.6382L6.51614 18.1332L6.01974 19.9338C5.96803 20.1214 6.07819 20.3153 6.26569 20.367C6.4531 20.4186 6.64716 20.3086 6.69886 20.121L8.06049 15.1818V22.9425C8.06049 23.5251 8.53454 23.9992 9.1172 23.9992H22.9433C23.5259 23.9992 24 23.5251 24 22.9425V21.053C24 20.8584 23.8423 20.7007 23.6478 20.7007C23.4532 20.7007 23.2956 20.8584 23.2956 21.053V22.9424C23.2956 23.1366 23.1375 23.2946 22.9433 23.2946H17.4067V12.9621H23.2956V19.644C23.2956 19.8386 23.4532 19.9963 23.6478 19.9963ZM6.8513 9.90912C6.8685 9.84668 6.93319 9.80983 6.99568 9.82718L8.56487 10.2597C8.60565 10.271 8.62679 10.2991 8.63579 10.315C8.64474 10.3308 8.65815 10.3633 8.64685 10.4041L7.24772 15.4792L5.45213 14.9842L6.8513 9.90912ZM3.53212 15.1869L4.58456 15.477L4.22855 16.7713L3.17615 16.4812L3.53212 15.1869ZM2.75784 11.6929C3.15665 11.3109 3.95953 11.3721 4.56286 11.4906C4.97775 11.5722 5.35805 11.6931 5.60452 11.7804L4.77169 14.7979L3.50929 14.4499C3.38198 14.2472 3.10373 13.7825 2.889 13.2695C2.56584 12.4972 2.51803 11.9225 2.75784 11.6929ZM0.720226 19.0841C0.632007 18.7641 0.967633 18.2953 1.64113 17.798C2.0886 17.4676 2.56589 17.2113 2.77917 17.1026L4.04151 17.4506L3.20943 20.4689C2.40792 20.3087 0.935055 19.8631 0.720226 19.0841ZM4.90781 16.959L5.26495 15.6634L7.0605 16.1584L6.70332 17.454L4.90781 16.959ZM16.7023 23.2946H15.3583V16.2628C15.3583 16.0682 15.2006 15.9105 15.0061 15.9105C14.8116 15.9105 14.6539 16.0682 14.6539 16.2628V23.2946H9.11724C8.92304 23.2946 8.76502 23.1366 8.76502 22.9424V12.9621H14.6538V14.8539C14.6538 15.0485 14.8115 15.2061 15.0061 15.2061C15.2006 15.2061 15.3583 15.0484 15.3583 14.8539V12.9621H16.7022V23.2946H16.7023Z" fill="#0A1B33"/>
<path d="M16.0303 7.9248C15.2953 7.9248 14.6973 8.52279 14.6973 9.25774C14.6973 9.99275 15.2953 10.5907 16.0303 10.5907C16.7653 10.5907 17.3632 9.99275 17.3632 9.25774C17.3632 8.52279 16.7653 7.9248 16.0303 7.9248ZM16.0303 9.88625C15.6837 9.88625 15.4018 9.60429 15.4018 9.25774C15.4018 8.9112 15.6837 8.62929 16.0303 8.62929C16.3768 8.62929 16.6588 8.9112 16.6588 9.25774C16.6588 9.60429 16.3768 9.88625 16.0303 9.88625Z" fill="#0A1B33"/>
<path d="M18.9333 7.01456C19.6683 7.01456 20.2663 6.41657 20.2663 5.68162C20.2663 4.94662 19.6683 4.34863 18.9333 4.34863C18.1983 4.34863 17.6003 4.94662 17.6003 5.68162C17.6004 6.41657 18.1984 7.01456 18.9333 7.01456ZM18.9333 5.05312C19.2799 5.05312 19.5618 5.33507 19.5618 5.68162C19.5618 6.02817 19.2799 6.31007 18.9333 6.31007C18.5868 6.31007 18.3048 6.02817 18.3048 5.68162C18.3049 5.33507 18.5868 5.05312 18.9333 5.05312Z" fill="#0A1B33"/>
<path d="M13.1274 7.01456C13.8624 7.01456 14.4604 6.41657 14.4604 5.68162C14.4604 4.94662 13.8624 4.34863 13.1274 4.34863C12.3924 4.34863 11.7944 4.94662 11.7944 5.68162C11.7945 6.41657 12.3924 7.01456 13.1274 7.01456ZM13.1274 5.05312C13.474 5.05312 13.7559 5.33507 13.7559 5.68162C13.7559 6.02817 13.474 6.31007 13.1274 6.31007C12.7809 6.31007 12.4989 6.02817 12.4989 5.68162C12.4989 5.33507 12.7809 5.05312 13.1274 5.05312Z" fill="#0A1B33"/>
<path d="M20.551 10.4192C20.7335 10.4711 20.9331 10.3624 20.9842 10.1733C21.6828 7.63858 22.9645 5.76648 23.9165 4.64237C24.0423 4.49392 24.0238 4.27164 23.8754 4.14592C23.7269 4.0202 23.5046 4.03871 23.3789 4.18707C22.3811 5.36523 21.0378 7.3277 20.305 9.98608C20.2533 10.1735 20.3635 10.3675 20.551 10.4192Z" fill="#0A1B33"/>
<path d="M11.0765 10.1724C11.1275 10.3615 11.3271 10.4702 11.5096 10.4183C11.6972 10.3666 11.8073 10.1727 11.7556 9.98513C11.0228 7.32666 9.67943 5.36428 8.6816 4.18612C8.55584 4.03772 8.3336 4.0192 8.18515 4.14501C8.0367 4.27073 8.01828 4.49297 8.14399 4.64142C9.09612 5.76553 10.3777 7.63758 11.0765 10.1724Z" fill="#0A1B33"/>
<path d="M9.99445 1.69744C10.5179 2.1593 10.9685 2.97634 10.977 2.99185C11.0409 3.10918 11.1618 3.1756 11.2866 3.1756C11.3435 3.1756 11.4013 3.16177 11.4548 3.13262C11.6257 3.03957 11.6887 2.82568 11.5956 2.65482C11.5749 2.61676 11.0806 1.71629 10.4605 1.16916C10.3147 1.04049 10.0921 1.05436 9.96337 1.20024C9.83465 1.34611 9.84857 1.56877 9.99445 1.69744Z" fill="#0A1B33"/>
<path d="M20.6058 3.13245C20.7732 3.2247 20.99 3.16428 21.0836 2.99201C21.0881 2.98376 21.5405 2.16134 22.0663 1.69741C22.2121 1.56874 22.2261 1.34609 22.0973 1.20026C21.9687 1.05438 21.7461 1.04046 21.6002 1.16918C20.9801 1.71626 20.4858 2.61678 20.4651 2.65484C20.3721 2.82556 20.4351 3.03935 20.6058 3.13245Z" fill="#0A1B33"/>
<path d="M3.72852 6.53968C4.0663 6.81728 4.27058 7.14765 4.38252 7.37584C4.47819 7.57094 4.6723 7.69211 4.88914 7.69211C5.10599 7.69211 5.3001 7.57094 5.39577 7.37584C5.50771 7.14761 5.71204 6.81728 6.04972 6.53968C6.18013 6.43253 6.2549 6.27385 6.2549 6.10435C6.2549 5.93485 6.18013 5.77614 6.04977 5.66903C5.71194 5.39134 5.50766 5.06101 5.39577 4.83282V4.83277C5.3001 4.63773 5.10599 4.5166 4.88914 4.5166C4.6723 4.5166 4.47819 4.63773 4.38252 4.83282C4.27067 5.06106 4.06639 5.39134 3.72856 5.66903C3.59816 5.77618 3.52344 5.93485 3.52344 6.10435C3.52339 6.27385 3.59811 6.43257 3.72852 6.53968ZM4.8891 5.37578C5.05096 5.64859 5.25036 5.89571 5.47724 6.10435C5.25041 6.31295 5.051 6.56012 4.8891 6.83293C4.72724 6.56007 4.52778 6.31295 4.30095 6.10435C4.52783 5.89571 4.72728 5.64859 4.8891 5.37578Z" fill="#0A1B33"/>
<path d="M14.8697 2.02313C15.2075 2.30077 15.4118 2.6311 15.5237 2.85924C15.6193 3.05433 15.8134 3.17555 16.0303 3.17555H16.0303C16.2471 3.17555 16.4413 3.05438 16.5369 2.85929C16.6488 2.63105 16.8531 2.30077 17.1909 2.02313C17.3213 1.91597 17.3961 1.7573 17.3961 1.5878C17.3961 1.41825 17.3213 1.25958 17.1909 1.15242C16.8531 0.874783 16.6488 0.544454 16.5369 0.316266C16.4413 0.121172 16.2471 -4.68615e-05 16.0303 1.359e-08C15.8134 1.359e-08 15.6193 0.121219 15.5237 0.316266C15.4118 0.544454 15.2075 0.874783 14.8696 1.15242C14.7393 1.25958 14.6646 1.41825 14.6646 1.5878C14.6646 1.7573 14.7393 1.91597 14.8697 2.02313ZM16.0303 0.85922C16.1922 1.13203 16.3916 1.37916 16.6184 1.5878C16.3916 1.79639 16.1922 2.04352 16.0303 2.31633C15.8684 2.04352 15.669 1.79635 15.4422 1.58775C15.669 1.37916 15.8684 1.13203 16.0303 0.85922Z" fill="#0A1B33"/>
</svg>
