<svg width="17" height="24" viewBox="0 0 17 24" fill="none" xmlns="http://www.w3.org/2000/svg">
<path d="M15.2236 4.2188C15.2095 4.2188 15.1954 4.2188 15.1814 4.21528C14.988 4.19419 14.8509 4.01842 14.872 3.82507L15.1181 1.7158C15.1392 1.52245 15.315 1.38534 15.5083 1.40644C15.7017 1.42753 15.8388 1.6033 15.8177 1.79665L15.5716 3.90593C15.5505 4.08873 15.3993 4.2188 15.2236 4.2188Z" fill="#0A1B33"/>
<path d="M1.65216 4.21821C1.47639 4.21821 1.32522 4.08814 1.30413 3.90885L1.05805 1.79958C1.03696 1.60623 1.17406 1.43046 1.36741 1.40937C1.56076 1.38827 1.73653 1.52538 1.75762 1.71873L2.00371 3.828C2.0248 4.02135 1.8877 4.19712 1.69435 4.21821C1.68028 4.21821 1.66622 4.21821 1.65216 4.21821Z" fill="#0A1B33"/>
<path d="M15.2236 7.73443C15.2095 7.73443 15.1954 7.73442 15.1814 7.73091C14.988 7.70982 14.8509 7.53404 14.872 7.34069L15.1181 5.23142C15.1392 5.03807 15.315 4.90097 15.5083 4.92206C15.7017 4.94316 15.8388 5.11893 15.8177 5.31228L15.5716 7.42155C15.5505 7.60435 15.3993 7.73443 15.2236 7.73443Z" fill="#0A1B33"/>
<path d="M14.0618 21.1875H5.62474C5.43139 21.1875 5.27319 21.0293 5.27319 20.8359C5.27319 20.6426 5.43139 20.4844 5.62474 20.4844H14.0618C14.2552 20.4844 14.4134 20.6426 14.4134 20.8359C14.4134 21.0293 14.2587 21.1875 14.0618 21.1875Z" fill="#0A1B33"/>
<path d="M4.21866 21.1875H2.81248C2.61913 21.1875 2.46094 21.0293 2.46094 20.8359C2.46094 20.6426 2.61913 20.4844 2.81248 20.4844H4.21866C4.41201 20.4844 4.57021 20.6426 4.57021 20.8359C4.57021 21.0293 4.41553 21.1875 4.21866 21.1875Z" fill="#0A1B33"/>
<path d="M13.3586 24H3.51535C2.9353 24 2.46071 23.5254 2.46071 22.9454V20.8572L1.05805 8.83083C1.03696 8.63748 1.17406 8.46171 1.36741 8.44062C1.56076 8.41952 1.73653 8.55663 1.75762 8.74998L3.16381 20.7974C3.16381 20.8115 3.16732 20.8256 3.16732 20.8396V22.9489C3.16732 23.1422 3.32552 23.3004 3.51887 23.3004H13.3621C13.5555 23.3004 13.7137 23.1422 13.7137 22.9489V20.8396C13.7137 20.8256 13.7137 20.8115 13.7172 20.7974L15.1234 8.74998C15.1445 8.55663 15.3202 8.41952 15.5136 8.44062C15.7069 8.46171 15.844 8.63748 15.823 8.83083L14.4203 20.8572V22.9454C14.4133 23.5254 13.9422 24 13.3586 24Z" fill="#0A1B33"/>
<path d="M15.8195 9.14052H1.05464C0.474586 9.14052 0 8.66594 0 8.08589C0 7.50584 0.474586 7.03125 1.05464 7.03125H15.8195C16.3996 7.03125 16.8742 7.50584 16.8742 8.08589C16.8742 8.66594 16.4031 9.14052 15.8195 9.14052ZM1.05464 7.73434C0.861286 7.73434 0.703091 7.89254 0.703091 8.08589C0.703091 8.27924 0.861286 8.43743 1.05464 8.43743H15.8195C16.0129 8.43743 16.1711 8.27924 16.1711 8.08589C16.1711 7.89254 16.0129 7.73434 15.8195 7.73434H1.05464Z" fill="#0A1B33"/>
<path d="M1.65216 7.73384C1.47639 7.73384 1.32522 7.60377 1.30413 7.42448L1.05805 5.31521C1.03696 5.12186 1.17406 4.94608 1.36741 4.92499C1.56076 4.9039 1.73653 5.041 1.75762 5.23435L2.00371 7.34362C2.0248 7.53697 1.8877 7.71275 1.69435 7.73384C1.68028 7.73384 1.66622 7.73384 1.65216 7.73384Z" fill="#0A1B33"/>
<path d="M15.8195 5.6249H1.05464C0.474586 5.6249 0 5.15031 0 4.57026C0 3.99021 0.474586 3.51562 1.05464 3.51562H15.8195C16.3996 3.51562 16.8742 3.99021 16.8742 4.57026C16.8742 5.15031 16.4031 5.6249 15.8195 5.6249ZM1.05464 4.21872C0.861286 4.21872 0.703091 4.37691 0.703091 4.57026C0.703091 4.76361 0.861286 4.92181 1.05464 4.92181H15.8195C16.0129 4.92181 16.1711 4.76361 16.1711 4.57026C16.1711 4.37691 16.0129 4.21872 15.8195 4.21872H1.05464Z" fill="#0A1B33"/>
<path d="M15.8195 2.10927H1.05464C0.474586 2.10927 0 1.63469 0 1.05464C0 0.474586 0.474586 0 1.05464 0H15.8195C16.3996 0 16.8742 0.474586 16.8742 1.05464C16.8742 1.63469 16.4031 2.10927 15.8195 2.10927ZM1.05464 0.703091C0.861286 0.703091 0.703091 0.861286 0.703091 1.05464C0.703091 1.24799 0.861286 1.40618 1.05464 1.40618H15.8195C16.0129 1.40618 16.1711 1.24799 16.1711 1.05464C16.1711 0.861286 16.0129 0.703091 15.8195 0.703091H1.05464Z" fill="#0A1B33"/>
</svg>
