<svg width="16" height="24" viewBox="0 0 16 24" fill="none" xmlns="http://www.w3.org/2000/svg">
<path d="M14.9063 9.91406L14.2547 5.92031C14.2219 5.72813 14.0438 5.59687 13.8516 5.62969C13.6594 5.6625 13.5281 5.84062 13.5609 6.03281L14.1422 9.59531C11.1703 9.00937 8.05313 8.85938 4.87969 9.15C4.6875 9.16875 4.54219 9.3375 4.56094 9.52969C4.57969 9.72188 4.74844 9.86719 4.94063 9.84844C8.07656 9.5625 11.1469 9.7125 14.0766 10.2984C14.5734 10.3969 14.9297 10.8375 14.9297 11.3484V12.4547C14.9297 13.0453 14.4516 13.5234 13.8609 13.5234H1.77188C1.18125 13.5234 0.703125 13.0453 0.703125 12.4547V11.3672C0.703125 10.8516 1.06875 10.4109 1.575 10.3172C2.19844 10.2 2.83594 10.1016 3.46406 10.0172C3.65625 9.99375 3.79219 9.81563 3.76406 9.62344C3.73594 9.43125 3.5625 9.29531 3.37031 9.32344C2.72813 9.40781 2.08125 9.51094 1.44844 9.62812L2.4375 3.55781C2.70469 1.90313 4.11563 0.703125 5.78906 0.703125H9.80625C11.4797 0.703125 12.8906 1.90313 13.1578 3.55313L13.3219 4.54688C13.3547 4.73906 13.5328 4.87031 13.725 4.8375C13.9172 4.80469 14.0484 4.62656 14.0156 4.43437L13.8516 3.44063C13.6969 2.47969 13.2 1.60781 12.4594 0.979687C11.7188 0.346875 10.7766 0 9.80625 0H5.78906C4.81875 0 3.87188 0.346875 3.13594 0.975C2.4 1.60312 1.90313 2.47969 1.74375 3.44063L0.679688 9.97031C0.2625 10.2984 0 10.8047 0 11.3672V12.4547C0 13.4297 0.796875 14.2266 1.77188 14.2266H2.03906L0.670313 23.25C0.642188 23.4375 0.698438 23.6297 0.820313 23.7703C0.942188 23.9156 1.125 23.9953 1.3125 23.9953H1.65938C1.95 23.9953 2.19844 23.8078 2.28281 23.5312L4.4625 16.2703L5.26406 15.7734H10.3734L11.175 16.2703L11.5313 17.4469C11.5781 17.5969 11.7141 17.6953 11.8688 17.6953C11.9016 17.6953 11.9344 17.6906 11.9719 17.6813C12.1594 17.625 12.2625 17.4281 12.2063 17.2453L11.2969 14.2172H12.8953L14.2641 23.2969H14.0156L12.6281 18.6844C12.5719 18.4969 12.375 18.3938 12.1922 18.45C12.0047 18.5063 11.9016 18.7031 11.9578 18.8859L13.3547 23.5359C13.4391 23.8125 13.6875 24 13.9781 24H14.325C14.5125 24 14.6953 23.9156 14.8172 23.775C14.9391 23.6297 14.9953 23.4422 14.9672 23.2547L13.5984 14.2313H13.8656C14.8406 14.2313 15.6375 13.4344 15.6375 12.4594V11.3531C15.6375 10.7672 15.3516 10.2375 14.9063 9.91406ZM1.62188 23.2969H1.37344L2.75156 14.2266H4.35L1.62188 23.2969ZM10.8703 15.2625L10.7391 15.1781C10.6313 15.1125 10.5094 15.0797 10.3828 15.0797H5.25469C5.12813 15.0797 5.00625 15.1125 4.89844 15.1828L4.76719 15.2672L5.07656 14.2313H10.5563L10.8703 15.2625Z" fill="#0A1B33"/>
</svg>
