<svg width="20" height="21" viewBox="0 0 20 21" fill="none" xmlns="http://www.w3.org/2000/svg">
<path d="M19.8881 15.5021V18.5021C19.8892 18.7806 19.8322 19.0563 19.7206 19.3115C19.6091 19.5667 19.4454 19.7957 19.2402 19.984C19.035 20.1723 18.7927 20.3156 18.5289 20.4048C18.265 20.4941 17.9855 20.5272 17.7081 20.5021C14.631 20.1678 11.6751 19.1163 9.07812 17.4321C6.66194 15.8968 4.61345 13.8483 3.07812 11.4321C1.38809 8.82333 0.33636 5.85312 0.00811671 2.76213C-0.0168728 2.4856 0.0159916 2.20689 0.104617 1.94375C0.193243 1.68062 0.335688 1.43882 0.522883 1.23375C0.710078 1.02868 0.937922 0.864838 1.19191 0.75265C1.44589 0.640463 1.72046 0.58239 1.99812 0.582128H4.99812C5.48342 0.577352 5.95391 0.749207 6.32188 1.06566C6.68985 1.38211 6.93019 1.82157 6.99812 2.30213C7.12474 3.26219 7.35957 4.20486 7.69812 5.11213C7.83266 5.47005 7.86178 5.85904 7.78202 6.23301C7.70227 6.60697 7.51698 6.95024 7.24812 7.22213L5.97812 8.49213C7.40167 10.9957 9.47457 13.0686 11.9781 14.4921L13.2481 13.2221C13.52 12.9533 13.8633 12.768 14.2372 12.6882C14.6112 12.6085 15.0002 12.6376 15.3581 12.7721C16.2654 13.1107 17.2081 13.3455 18.1681 13.4721C18.6539 13.5407 19.0975 13.7853 19.4146 14.1596C19.7318 14.5339 19.9003 15.0117 19.8881 15.5021Z" fill="#FF0090"/>
</svg>
