<svg width="24" height="17" viewBox="0 0 24 17" fill="none" xmlns="http://www.w3.org/2000/svg">
<g id="Vista">
<path id="Vista / Lista" d="M22.1953 4.54883H7.80469C7.30469 4.54883 6.87891 4.37305 6.52734 4.02148C6.17578 3.66992 6 3.24805 6 2.75586C6 2.25586 6.17578 1.83008 6.52734 1.47852C6.87891 1.12695 7.30469 0.951172 7.80469 0.951172H22.1953C22.6953 0.951172 23.1211 1.12695 23.4727 1.47852C23.8242 1.83008 24 2.25586 24 2.75586C24 3.24805 23.8242 3.66992 23.4727 4.02148C23.1211 4.37305 22.6953 4.54883 22.1953 4.54883ZM7.80469 2.14648C7.63281 2.14648 7.48828 2.20508 7.37109 2.32227C7.25391 2.43945 7.19531 2.58398 7.19531 2.75586C7.19531 2.91992 7.25391 3.06055 7.37109 3.17773C7.48828 3.29492 7.63281 3.35352 7.80469 3.35352H22.1953C22.3672 3.35352 22.5117 3.29492 22.6289 3.17773C22.7461 3.06055 22.8047 2.91992 22.8047 2.75586C22.8047 2.58398 22.7461 2.43945 22.6289 2.32227C22.5117 2.20508 22.3672 2.14648 22.1953 2.14648H7.80469ZM22.1953 10.5488H7.80469C7.30469 10.5488 6.87891 10.373 6.52734 10.0215C6.17578 9.66992 6 9.24805 6 8.75586C6 8.25586 6.17578 7.83008 6.52734 7.47852C6.87891 7.12695 7.30469 6.95117 7.80469 6.95117H22.1953C22.6953 6.95117 23.1211 7.12695 23.4727 7.47852C23.8242 7.83008 24 8.25586 24 8.75586C24 9.24805 23.8242 9.66992 23.4727 10.0215C23.1211 10.373 22.6953 10.5488 22.1953 10.5488ZM7.80469 8.14648C7.63281 8.14648 7.48828 8.20508 7.37109 8.32227C7.25391 8.43945 7.19531 8.58398 7.19531 8.75586C7.19531 8.91992 7.25391 9.06055 7.37109 9.17773C7.48828 9.29492 7.63281 9.35352 7.80469 9.35352H22.1953C22.3672 9.35352 22.5117 9.29492 22.6289 9.17773C22.7461 9.06055 22.8047 8.91992 22.8047 8.75586C22.8047 8.58398 22.7461 8.43945 22.6289 8.32227C22.5117 8.20508 22.3672 8.14648 22.1953 8.14648H7.80469ZM22.1953 16.5488H7.80469C7.30469 16.5488 6.87891 16.373 6.52734 16.0215C6.17578 15.6699 6 15.248 6 14.7559C6 14.2559 6.17578 13.8301 6.52734 13.4785C6.87891 13.127 7.30469 12.9512 7.80469 12.9512H22.1953C22.6953 12.9512 23.1211 13.127 23.4727 13.4785C23.8242 13.8301 24 14.2559 24 14.7559C24 15.248 23.8242 15.6699 23.4727 16.0215C23.1211 16.373 22.6953 16.5488 22.1953 16.5488ZM7.80469 14.1465C7.63281 14.1465 7.48828 14.2051 7.37109 14.3223C7.25391 14.4395 7.19531 14.584 7.19531 14.7559C7.19531 14.9199 7.25391 15.0605 7.37109 15.1777C7.48828 15.2949 7.63281 15.3535 7.80469 15.3535H22.1953C22.3672 15.3535 22.5117 15.2949 22.6289 15.1777C22.7461 15.0605 22.8047 14.9199 22.8047 14.7559C22.8047 14.584 22.7461 14.4395 22.6289 14.3223C22.5117 14.2051 22.3672 14.1465 22.1953 14.1465H7.80469ZM1.80469 4.54883C1.30469 4.54883 0.878906 4.37305 0.527344 4.02148C0.175781 3.66992 0 3.24805 0 2.75586C0 2.25586 0.175781 1.83008 0.527344 1.47852C0.878906 1.12695 1.30469 0.951172 1.80469 0.951172C2.29688 0.951172 2.71875 1.12695 3.07031 1.47852C3.42188 1.83008 3.59766 2.25586 3.59766 2.75586C3.59766 3.24805 3.42188 3.66992 3.07031 4.02148C2.71875 4.37305 2.29688 4.54883 1.80469 4.54883ZM1.80469 2.14648C1.63281 2.14648 1.48828 2.20508 1.37109 2.32227C1.25391 2.43945 1.19531 2.58398 1.19531 2.75586C1.19531 2.91992 1.25391 3.06055 1.37109 3.17773C1.48828 3.29492 1.63281 3.35352 1.80469 3.35352C1.96875 3.35352 2.10938 3.29492 2.22656 3.17773C2.34375 3.06055 2.40234 2.91992 2.40234 2.75586C2.40234 2.58398 2.34375 2.43945 2.22656 2.32227C2.10938 2.20508 1.96875 2.14648 1.80469 2.14648ZM1.80469 10.5488C1.30469 10.5488 0.878906 10.373 0.527344 10.0215C0.175781 9.66992 0 9.24805 0 8.75586C0 8.25586 0.175781 7.83008 0.527344 7.47852C0.878906 7.12695 1.30469 6.95117 1.80469 6.95117C2.29688 6.95117 2.71875 7.12695 3.07031 7.47852C3.42188 7.83008 3.59766 8.25586 3.59766 8.75586C3.59766 9.24805 3.42188 9.66992 3.07031 10.0215C2.71875 10.373 2.29688 10.5488 1.80469 10.5488ZM1.80469 8.14648C1.63281 8.14648 1.48828 8.20508 1.37109 8.32227C1.25391 8.43945 1.19531 8.58398 1.19531 8.75586C1.19531 8.91992 1.25391 9.06055 1.37109 9.17773C1.48828 9.29492 1.63281 9.35352 1.80469 9.35352C1.96875 9.35352 2.10938 9.29492 2.22656 9.17773C2.34375 9.06055 2.40234 8.91992 2.40234 8.75586C2.40234 8.58398 2.34375 8.43945 2.22656 8.32227C2.10938 8.20508 1.96875 8.14648 1.80469 8.14648ZM1.80469 16.5488C1.30469 16.5488 0.878906 16.373 0.527344 16.0215C0.175781 15.6699 0 15.248 0 14.7559C0 14.2559 0.175781 13.8301 0.527344 13.4785C0.878906 13.127 1.30469 12.9512 1.80469 12.9512C2.29688 12.9512 2.71875 13.127 3.07031 13.4785C3.42188 13.8301 3.59766 14.2559 3.59766 14.7559C3.59766 15.248 3.42188 15.6699 3.07031 16.0215C2.71875 16.373 2.29688 16.5488 1.80469 16.5488ZM1.80469 14.1465C1.63281 14.1465 1.48828 14.2051 1.37109 14.3223C1.25391 14.4395 1.19531 14.584 1.19531 14.7559C1.19531 14.9199 1.25391 15.0605 1.37109 15.1777C1.48828 15.2949 1.63281 15.3535 1.80469 15.3535C1.96875 15.3535 2.10938 15.2949 2.22656 15.1777C2.34375 15.0605 2.40234 14.9199 2.40234 14.7559C2.40234 14.584 2.34375 14.4395 2.22656 14.3223C2.10938 14.2051 1.96875 14.1465 1.80469 14.1465Z" fill="#0A1B33"/>
</g>
</svg>
