<svg width="57" height="75" viewBox="0 0 57 75" fill="none" xmlns="http://www.w3.org/2000/svg">
<rect x="1.07251" y="0.600098" width="55" height="55" rx="27.5" fill="white"/>
<rect x="1.07251" y="0.600098" width="55" height="55" rx="27.5" stroke="#E1E1E1"/>
<g clip-path="url(#clip0_71_462)">
<g clip-path="url(#clip1_71_462)">
<path fill-rule="evenodd" clip-rule="evenodd" d="M28.3225 31.6897C32.051 31.6897 35.0735 28.5916 35.0735 24.7699C35.0735 20.9482 32.051 17.8501 28.3225 17.8501C24.5941 17.8501 21.5715 20.9482 21.5715 24.7699C21.5715 28.5916 24.5941 31.6897 28.3225 31.6897ZM28.3225 30.1522C25.4225 30.1522 23.0715 27.7424 23.0715 24.7699C23.0715 21.7973 25.4225 19.3876 28.3225 19.3876C31.2225 19.3876 33.5735 21.7973 33.5735 24.7699C33.5735 27.7424 31.2225 30.1522 28.3225 30.1522Z" fill="#0A1B33"/>
<path d="M22.303 34.7646C21.0711 34.7646 20.0725 35.7881 20.0725 37.0508V37.8195H18.5725V37.0508C18.5725 34.939 20.2427 33.2271 22.303 33.2271H34.3225C36.3936 33.2271 38.0725 34.948 38.0725 37.0708V37.8396H36.5725V37.0708C36.5725 35.7971 35.5651 34.7646 34.3225 34.7646H22.303Z" fill="#0A1B33"/>
</g>
</g>
<g clip-path="url(#clip2_71_462)">
<rect x="40.5725" y="40.1001" width="16" height="16" rx="8" fill="#FF0090"/>
<path d="M49.5422 43.979H47.6028L47.8452 49.3123H49.2998L49.5422 43.979Z" fill="white"/>
<path d="M48.5725 50.2817C49.1081 50.2817 49.5422 50.7159 49.5422 51.2514C49.5422 51.787 49.1081 52.2211 48.5725 52.2211C48.0369 52.2211 47.6028 51.787 47.6028 51.2514C47.6028 50.7159 48.0369 50.2817 48.5725 50.2817Z" fill="white"/>
</g>
<defs>
<clipPath id="clip0_71_462">
<rect width="20" height="21" fill="white" transform="translate(18.5725 17.6001)"/>
</clipPath>
<clipPath id="clip1_71_462">
<rect width="20" height="21" fill="white" transform="translate(18.5725 17.6001)"/>
</clipPath>
<clipPath id="clip2_71_462">
<rect x="40.5725" y="40.1001" width="16" height="16" rx="8" fill="white"/>
</clipPath>
</defs>
</svg>
