<svg width="57" height="57" viewBox="0 0 57 57" fill="none" xmlns="http://www.w3.org/2000/svg">
<rect x="1.07251" y="1" width="55" height="55" rx="27.5" fill="white"/>
<rect x="1.07251" y="1" width="55" height="55" rx="27.5" stroke="#E1E1E1"/>
<g clip-path="url(#clip0_71_525)">
<g clip-path="url(#clip1_71_525)">
<path d="M28.6168 16L29.094 16.4617C31.8043 19.0838 35.3865 20.5485 39.8732 20.8524L40.5725 20.8998V21.6007C40.5725 31.5996 36.6304 37.8719 28.7875 40.2192L28.569 40.2846L28.351 40.2172C20.3284 37.7378 16.5725 30.6719 16.5725 21.6007V20.9062L17.265 20.8529C17.3058 20.8498 17.3602 20.8446 17.4276 20.8372L17.9815 20.7635C18.5721 20.6743 19.2323 20.5445 19.9444 20.3666C21.9804 19.8581 24.0159 19.0682 25.9105 17.9401C26.68 17.4819 27.4119 16.9752 28.1007 16.4177L28.6168 16ZM31.991 34.2493H25.154C24.2517 34.2493 23.5017 34.9019 23.3504 35.7608C24.746 37.0127 26.4261 37.9931 28.4 38.657L28.575 38.7132L28.7443 38.6618C30.7179 38.0242 32.4075 37.1087 33.8142 35.9108C33.734 35.0368 33.04 34.3411 32.1674 34.2577L31.991 34.2493ZM28.53 17.9832L28.1282 18.2812C27.6597 18.6167 27.1758 18.9324 26.678 19.2289C24.6474 20.438 22.4774 21.28 20.3079 21.8219C19.5481 22.0117 18.8415 22.1506 18.2055 22.2466L18.08 22.2644L18.0861 22.5176C18.2329 27.4113 19.5686 31.5769 22.1816 34.5754C22.7019 33.5503 23.7354 32.8312 24.9433 32.7558L25.154 32.7493H31.991C33.3468 32.7493 34.5135 33.5592 35.0336 34.7217C37.5699 31.8991 38.9088 27.8739 39.0584 22.609L39.065 22.2894L38.6743 22.2509C34.7095 21.8083 31.3963 20.4526 28.7548 18.1817L28.53 17.9832ZM28.5725 22.1915C31.087 22.1915 33.1254 24.2299 33.1254 26.7444C33.1254 29.2589 31.087 31.2973 28.5725 31.2973C26.058 31.2973 24.0196 29.2589 24.0196 26.7444C24.0196 24.2299 26.058 22.1915 28.5725 22.1915ZM28.5725 23.6915C26.8864 23.6915 25.5196 25.0584 25.5196 26.7444C25.5196 28.4305 26.8864 29.7973 28.5725 29.7973C30.2586 29.7973 31.6254 28.4305 31.6254 26.7444C31.6254 25.0584 30.2586 23.6915 28.5725 23.6915Z" fill="#0A1B33"/>
</g>
</g>
<defs>
<clipPath id="clip0_71_525">
<rect width="24" height="25" fill="white" transform="translate(16.5725 16)"/>
</clipPath>
<clipPath id="clip1_71_525">
<rect width="24" height="25" fill="white" transform="translate(16.5725 16)"/>
</clipPath>
</defs>
</svg>
