<svg width="57" height="57" viewBox="0 0 57 57" fill="none" xmlns="http://www.w3.org/2000/svg">
<rect x="1.07251" y="1" width="55" height="55" rx="27.5" fill="white"/>
<rect x="1.07251" y="1" width="55" height="55" rx="27.5" stroke="#E1E1E1"/>
<g clip-path="url(#clip0_71_512)">
<path fill-rule="evenodd" clip-rule="evenodd" d="M28.5724 29.26C30.6463 29.26 32.3274 27.5788 32.3274 25.505C32.3274 23.4312 30.6463 21.75 28.5724 21.75C26.4986 21.75 24.8174 23.4312 24.8174 25.505C24.8174 27.5788 26.4986 29.26 28.5724 29.26ZM28.5724 27.76C27.327 27.76 26.3174 26.7504 26.3174 25.505C26.3174 24.2596 27.327 23.25 28.5724 23.25C29.8178 23.25 30.8274 24.2596 30.8274 25.505C30.8274 26.7504 29.8178 27.76 28.5724 27.76Z" fill="#0A1B33"/>
<path fill-rule="evenodd" clip-rule="evenodd" d="M29.1019 39.5302C34.2263 34.4031 36.8174 29.7352 36.8174 25.496C36.8174 20.9419 33.1256 17.25 28.5714 17.25C24.0173 17.25 20.3254 20.9419 20.3254 25.496C20.3254 29.7352 22.9166 34.4031 28.041 39.5302L28.5714 40.0609L29.1019 39.5302ZM21.8254 25.496C21.8254 21.7703 24.8457 18.75 28.5714 18.75C32.2971 18.75 35.3174 21.7703 35.3174 25.496C35.3174 29.1228 33.086 33.277 28.5714 37.9311C24.0569 33.277 21.8254 29.1228 21.8254 25.496Z" fill="#0A1B33"/>
</g>
<defs>
<clipPath id="clip0_71_512">
<rect width="24" height="24" fill="white" transform="translate(16.5725 16.5)"/>
</clipPath>
</defs>
</svg>
