<svg width="56" height="57" viewBox="0 0 56 57" fill="none" xmlns="http://www.w3.org/2000/svg">
<rect x="0.5" y="1.03125" width="55" height="55" rx="26.5" fill="white"/>
<rect x="0.5" y="1.03125" width="55" height="55" rx="26.5" stroke="#E1E1E1"/>
<g clip-path="url(#clip0_2442_29346)">
<g clip-path="url(#clip1_2442_29346)">
<g clip-path="url(#clip2_2442_29346)">
<mask id="mask0_2442_29346" style="mask-type:luminance" maskUnits="userSpaceOnUse" x="16" y="16" width="24" height="25">
<path d="M40 16.5312H16V40.5312H40V16.5312Z" fill="white"/>
</mask>
<g mask="url(#mask0_2442_29346)">
<path d="M40 16.5312H16V40.5312H40V16.5312Z" fill="white"/>
<path d="M21.9756 24.7812H33.9553V23.2812H21.9756V24.7812Z" fill="#0A1B33"/>
<path d="M21.9756 28.543H28.6531V27.043H21.9756V28.543Z" fill="#0A1B33"/>
<path fill-rule="evenodd" clip-rule="evenodd" d="M20.0008 35.2812C18.9238 35.2812 18.0508 34.4082 18.0508 33.3312V20.5262C18.0508 19.4492 18.9238 18.5762 20.0008 18.5762H35.8048C36.8817 18.5762 37.7548 19.4492 37.7548 20.5262V33.3312C37.7548 34.4082 36.8817 35.2812 35.8048 35.2812H34.7508V38.9329L29.2756 35.2812H20.0008ZM33.2508 33.7812H35.8048C36.0533 33.7812 36.2548 33.5797 36.2548 33.3312V20.5262C36.2548 20.2777 36.0533 20.0762 35.8048 20.0762H20.0008C19.7523 20.0762 19.5508 20.2777 19.5508 20.5262V33.3312C19.5508 33.5797 19.7523 33.7812 20.0008 33.7812H29.7299L33.2508 36.1295V33.7812Z" fill="#0A1B33"/>
</g>
</g>
</g>
</g>
<defs>
<clipPath id="clip0_2442_29346">
<rect width="24" height="24" fill="white" transform="translate(16 16.5312)"/>
</clipPath>
<clipPath id="clip1_2442_29346">
<rect width="24" height="24" fill="white" transform="translate(16 16.5312)"/>
</clipPath>
<clipPath id="clip2_2442_29346">
<rect width="24" height="24" fill="white" transform="translate(16 16.5312)"/>
</clipPath>
</defs>
</svg>
