<svg width="40" height="40" viewBox="0 0 40 40" fill="none" xmlns="http://www.w3.org/2000/svg">
<path d="M32.5 0C28.3667 0 25 3.36667 25 7.5V8.33333H3.33333V16.6667H5V10H10V16.6667H11.6667V10H25V10.8333C25 14.9667 28.3667 18.3333 32.5 18.3333C36.6333 18.3333 40 14.9667 40 10.8333V7.5C40 3.36667 36.6333 0 32.5 0ZM38.3333 10.8333C38.3333 14.05 35.7167 16.6667 32.5 16.6667C29.2833 16.6667 26.6667 14.05 26.6667 10.8333V7.5C26.6667 4.28333 29.2833 1.66667 32.5 1.66667C35.7167 1.66667 38.3333 4.28333 38.3333 7.5V10.8333ZM35 30H30V23.3333H28.3333V30H15V29.1667C15 25.0333 11.6333 21.6667 7.5 21.6667C3.36667 21.6667 0 25.0333 0 29.1667V32.5C0 36.6333 3.36667 40 7.5 40C11.6333 40 15 36.6333 15 32.5V31.6667H36.6667V23.3333H35V30ZM13.3333 32.5C13.3333 35.7167 10.7167 38.3333 7.5 38.3333C4.28333 38.3333 1.66667 35.7167 1.66667 32.5V29.1667C1.66667 25.95 4.28333 23.3333 7.5 23.3333C10.7167 23.3333 13.3333 25.95 13.3333 29.1667V32.5Z" fill="#FF0090"/>
</svg>
