<svg width="56" height="57" viewBox="0 0 56 57" fill="none" xmlns="http://www.w3.org/2000/svg">
<rect x="0.5" y="1.03125" width="55" height="55" rx="26.5" fill="white"/>
<rect x="0.5" y="1.03125" width="55" height="55" rx="26.5" stroke="#E1E1E1"/>
<g clip-path="url(#clip0_2442_29365)">
<g clip-path="url(#clip1_2442_29365)">
<g clip-path="url(#clip2_2442_29365)">
<mask id="mask0_2442_29365" style="mask-type:luminance" maskUnits="userSpaceOnUse" x="16" y="16" width="24" height="25">
<path d="M40 16.5312H16V40.5312H40V16.5312Z" fill="white"/>
</mask>
<g mask="url(#mask0_2442_29365)">
<path d="M40 16.5312H16V40.5312H40V16.5312Z" fill="white"/>
<path d="M26.8638 26.2216H24.5933L21.2794 20.4814C20.7364 19.5414 21.0585 18.3383 21.9994 17.7958C22.3089 17.617 22.6468 17.5322 22.9806 17.5322C23.6599 17.5322 24.3209 17.8847 24.6851 18.5158L27.999 24.255L26.8638 26.2216Z" fill="#0A1B33"/>
<path d="M33.9992 38.5791C33.0592 39.1222 31.8561 38.7996 31.3126 37.8591L27.9987 32.1199L24.6848 37.8591C24.1418 38.7992 22.9392 39.1222 21.9992 38.5791C21.3686 38.2149 21.0156 37.5539 21.0156 36.8747C21.0156 36.5409 21.1004 36.2029 21.2792 35.8925L24.5931 30.1533H31.4053L34.7192 35.8925C35.2622 36.8335 34.9392 38.0361 33.9992 38.5791Z" fill="#0A1B33"/>
<path d="M40 28.1871C40 29.2732 39.1195 30.1537 38.0334 30.1537H31.4061L30.2704 28.1871L29.1357 26.2209L28 24.2543L31.3139 18.5151C31.8569 17.5741 33.06 17.252 34.0005 17.7951C34.9405 18.3376 35.2635 19.5407 34.7205 20.4807L31.4061 26.2214H38.0334C39.1199 26.2214 40 27.1015 40 28.1871Z" fill="#0A1B33"/>
<path d="M26.8648 26.2217L25.7291 28.1878L24.5944 30.1544H17.9661C16.8806 30.1544 16 29.2739 16 28.1878C16 27.6452 16.2196 27.1537 16.5758 26.7974C16.932 26.4422 17.4226 26.2217 17.9661 26.2217H26.8648Z" fill="#0A1B33"/>
<path d="M31.4055 30.1532H24.5938L25.7285 28.1866L26.8642 26.221L27.9994 24.2539L29.1351 26.221L30.2698 28.1866L31.4055 30.1532Z" fill="#0A1B33"/>
</g>
</g>
</g>
</g>
<defs>
<clipPath id="clip0_2442_29365">
<rect width="24" height="24" fill="white" transform="translate(16 16.5312)"/>
</clipPath>
<clipPath id="clip1_2442_29365">
<rect width="24" height="24" fill="white" transform="translate(16 16.5312)"/>
</clipPath>
<clipPath id="clip2_2442_29365">
<rect width="24" height="24" fill="white" transform="translate(16 16.5312)"/>
</clipPath>
</defs>
</svg>
