<svg width="24" height="24" viewBox="0 0 24 24" fill="none" xmlns="http://www.w3.org/2000/svg">
<g id="perfil">
<g id="Group">
<path id="Vector" fill-rule="evenodd" clip-rule="evenodd" d="M19.9388 20.9999C19.4472 17.0403 16.0687 13.9751 11.9756 13.9751C7.88252 13.9751 4.50402 17.0403 4.01241 20.9999H19.9388ZM3.95081 21.9999C3.39853 21.9999 2.945 21.5505 3.00541 21.0015C3.50225 16.4871 7.3288 12.9751 11.9756 12.9751C16.6225 12.9751 20.449 16.4871 20.9458 21.0015C21.0063 21.5505 20.5527 21.9999 20.0004 21.9999H3.95081Z" fill="white"/>
<path id="Vector_2" fill-rule="evenodd" clip-rule="evenodd" d="M12 11C14.2091 11 16 9.20914 16 7C16 4.79086 14.2091 3 12 3C9.79086 3 8 4.79086 8 7C8 9.20914 9.79086 11 12 11ZM12 12C14.7614 12 17 9.76142 17 7C17 4.23858 14.7614 2 12 2C9.23858 2 7 4.23858 7 7C7 9.76142 9.23858 12 12 12Z" fill="white"/>
</g>
</g>
</svg>
