<svg width="57" height="75" viewBox="0 0 57 75" fill="none" xmlns="http://www.w3.org/2000/svg">
<rect x="1.07251" y="0.600098" width="55" height="55" rx="27.5" fill="white"/>
<rect x="1.07251" y="0.600098" width="55" height="55" rx="27.5" stroke="#E1E1E1"/>
<g clip-path="url(#clip0_71_481)">
<path d="M30.0724 31.1001C30.0724 31.9285 29.4008 32.6001 28.5724 32.6001C27.744 32.6001 27.0724 31.9285 27.0724 31.1001C27.0724 30.2717 27.744 29.6001 28.5724 29.6001C29.4008 29.6001 30.0724 30.2717 30.0724 31.1001Z" fill="#0A1B33"/>
<path fill-rule="evenodd" clip-rule="evenodd" d="M33.8244 22.1021V25.0841H36.0357V34.1001C36.0357 36.9996 33.6851 39.3501 30.7857 39.3501H26.3591C23.4596 39.3501 21.1091 36.9996 21.1091 34.1001V25.0841H23.3204V22.1021C23.3204 19.2015 25.6718 16.8501 28.5724 16.8501C31.473 16.8501 33.8244 19.2015 33.8244 22.1021ZM24.8204 25.0841V22.1021C24.8204 20.0299 26.5002 18.3501 28.5724 18.3501C30.6446 18.3501 32.3244 20.0299 32.3244 22.1021V25.0841H24.8204ZM34.5357 26.5841V34.1001C34.5357 36.1712 32.8567 37.8501 30.7857 37.8501H26.3591C24.2881 37.8501 22.6091 36.1712 22.6091 34.1001V26.5841H34.5357Z" fill="#0A1B33"/>
</g>
<g clip-path="url(#clip1_71_481)">
<rect x="40.5725" y="40.1001" width="16" height="16" rx="8" fill="#FF0090"/>
<path d="M49.5422 43.979H47.6028L47.8452 49.3123H49.2998L49.5422 43.979Z" fill="white"/>
<path d="M48.5725 50.2817C49.1081 50.2817 49.5422 50.7159 49.5422 51.2514C49.5422 51.787 49.1081 52.2211 48.5725 52.2211C48.0369 52.2211 47.6028 51.787 47.6028 51.2514C47.6028 50.7159 48.0369 50.2817 48.5725 50.2817Z" fill="white"/>
</g>
<defs>
<clipPath id="clip0_71_481">
<rect width="24" height="24" fill="white" transform="translate(16.5725 16.1001)"/>
</clipPath>
<clipPath id="clip1_71_481">
<rect x="40.5725" y="40.1001" width="16" height="16" rx="8" fill="white"/>
</clipPath>
</defs>
</svg>
