<svg width="21" height="18" viewBox="0 0 21 18" fill="none" xmlns="http://www.w3.org/2000/svg">
<path d="M0.65625 4.07019H11.3414C11.6361 5.26104 12.7133 6.14669 13.994 6.14669C15.2746 6.14669 16.3518 5.26104 16.6466 4.07019H20.3438C20.7062 4.07019 21 3.77636 21 3.41394C21 3.05153 20.7062 2.75769 20.3438 2.75769H16.6465C16.3518 1.56684 15.2746 0.681152 13.9939 0.681152C12.7132 0.681152 11.636 1.56684 11.3413 2.75769H0.65625C0.293836 2.75769 0 3.05153 0 3.41394C0 3.77636 0.293836 4.07019 0.65625 4.07019ZM13.994 1.99365C14.7771 1.99365 15.4142 2.63079 15.4142 3.4139C15.4142 4.19705 14.7771 4.83419 13.994 4.83419C13.2108 4.83419 12.5737 4.19705 12.5737 3.4139C12.5737 2.63079 13.2108 1.99365 13.994 1.99365ZM0.65625 9.74627H4.35348C4.64822 10.9371 5.72541 11.8228 7.00608 11.8228C8.28676 11.8228 9.36395 10.9371 9.65869 9.74627H20.3438C20.7062 9.74627 21 9.45243 21 9.09002C21 8.7276 20.7062 8.43377 20.3438 8.43377H9.65865C9.36391 7.24292 8.28671 6.35723 7.00604 6.35723C5.72537 6.35723 4.64818 7.24292 4.35344 8.43377H0.65625C0.293836 8.43377 0 8.7276 0 9.09002C0 9.45243 0.293795 9.74627 0.65625 9.74627ZM7.00604 7.66973C7.7892 7.66973 8.42633 8.30686 8.42633 9.09002C8.42633 9.87313 7.7892 10.5103 7.00604 10.5103C6.22289 10.5103 5.58575 9.87313 5.58575 9.09002C5.58575 8.30686 6.22289 7.66973 7.00604 7.66973ZM20.3438 14.1098H16.6465C16.3518 12.919 15.2746 12.0333 13.9939 12.0333C12.7132 12.0333 11.6361 12.919 11.3413 14.1098H0.65625C0.293836 14.1098 0 14.4037 0 14.7661C0 15.1285 0.293836 15.4223 0.65625 15.4223H11.3414C11.6361 16.6132 12.7133 17.4989 13.994 17.4989C15.2746 17.4989 16.3518 16.6132 16.6466 15.4223H20.3438C20.7062 15.4223 21 15.1285 21 14.7661C21 14.4037 20.7062 14.1098 20.3438 14.1098ZM13.994 16.1864C13.2108 16.1864 12.5737 15.5492 12.5737 14.7661C12.5737 13.9829 13.2108 13.3458 13.994 13.3458C14.7771 13.3458 15.4142 13.9829 15.4142 14.7661C15.4142 15.5492 14.7771 16.1864 13.994 16.1864Z" fill="#0A1B33"/>
</svg>
