<svg width="56" height="57" viewBox="0 0 56 57" fill="none" xmlns="http://www.w3.org/2000/svg">
<rect x="0.5" y="1.03125" width="55" height="55" rx="26.5" fill="white"/>
<rect x="0.5" y="1.03125" width="55" height="55" rx="26.5" stroke="#E1E1E1"/>
<g clip-path="url(#clip0_2442_29329)">
<g clip-path="url(#clip1_2442_29329)">
<g clip-path="url(#clip2_2442_29329)">
<mask id="mask0_2442_29329" style="mask-type:luminance" maskUnits="userSpaceOnUse" x="16" y="16" width="24" height="25">
<path d="M40 16.5312H16V40.5312H40V16.5312Z" fill="white"/>
</mask>
<g mask="url(#mask0_2442_29329)">
<path d="M40 16.5312H16V40.5312H40V16.5312Z" fill="white"/>
<path fill-rule="evenodd" clip-rule="evenodd" d="M38.7992 21.3311H17.1992V35.7311H38.7992V21.3311ZM37.358 25.4471V34.2899H18.638V25.4457L26.2117 29.7781L26.4364 29.8963C27.4994 30.4088 28.7531 30.3694 29.7867 29.7781L37.358 25.4471ZM37.358 23.7881V22.7699H18.638V23.7868L26.9267 28.5281C27.5308 28.8737 28.2601 28.9051 28.887 28.6224L29.0717 28.5281L37.358 23.7881Z" fill="#0A1B33"/>
</g>
</g>
</g>
</g>
<defs>
<clipPath id="clip0_2442_29329">
<rect width="24" height="24" fill="white" transform="translate(16 16.5312)"/>
</clipPath>
<clipPath id="clip1_2442_29329">
<rect width="24" height="24" fill="white" transform="translate(16 16.5312)"/>
</clipPath>
<clipPath id="clip2_2442_29329">
<rect width="24" height="24" fill="white" transform="translate(16 16.5312)"/>
</clipPath>
</defs>
</svg>
