<svg width="57" height="57" viewBox="0 0 57 57" fill="none" xmlns="http://www.w3.org/2000/svg">
<rect x="1.07251" y="1" width="55" height="55" rx="27.5" fill="white"/>
<rect x="1.07251" y="1" width="55" height="55" rx="27.5" stroke="#E1E1E1"/>
<path fill-rule="evenodd" clip-rule="evenodd" d="M20.5726 35.2499H21.8226V38.901L27.3015 35.2499H36.3765C37.4535 35.2499 38.3265 34.3769 38.3265 33.2999V20.4949C38.3265 19.418 37.4535 18.5449 36.3765 18.5449H20.5726C19.4956 18.5449 18.6226 19.418 18.6226 20.4949V33.2999C18.6226 34.3769 19.4956 35.2499 20.5726 35.2499ZM36.3765 33.7499H26.8476L23.3226 36.0989V33.7499H20.5726C20.324 33.7499 20.1226 33.5484 20.1226 33.2999V20.4949C20.1226 20.2464 20.324 20.0449 20.5726 20.0449H36.3765C36.6251 20.0449 36.8265 20.2464 36.8265 20.4949V33.2999C36.8265 33.5484 36.6251 33.7499 36.3765 33.7499Z" fill="#0A1B33"/>
</svg>
