<svg width="25" height="25" viewBox="0 0 25 25" fill="none" xmlns="http://www.w3.org/2000/svg">
<g id="icon-totp-ml.svg" clip-path="url(#clip0_2103_16431)">
<g id="Clip path group">
<mask id="mask0_2103_16431" style="mask-type:luminance" maskUnits="userSpaceOnUse" x="0" y="0" width="25" height="25">
<g id="clip0_3608_407267">
<path id="Vector" d="M24.1074 0.550781H0.107422V24.5508H24.1074V0.550781Z" fill="white"/>
</g>
</mask>
<g mask="url(#mask0_2103_16431)">
<g id="Group">
<path id="Vector_2" d="M24.1074 0.550781H0.107422V24.5508H24.1074V0.550781Z" fill="white"/>
<path id="Vector_3" d="M10.9712 10.2412H8.70075L5.38687 4.50097C4.84384 3.56097 5.16591 2.35787 6.10685 1.81531C6.41628 1.63649 6.75427 1.55176 7.08805 1.55176C7.7673 1.55176 8.4283 1.90426 8.7925 2.5353L12.1064 8.27456L10.9712 10.2412Z" fill="#0A1B33"/>
<path id="Vector_4" d="M18.1066 22.5987C17.1666 23.1418 15.9635 22.8192 15.42 21.8787L12.1061 16.1395L8.79225 21.8787C8.24922 22.8188 7.0466 23.1418 6.10659 22.5987C5.47602 22.2345 5.12305 21.5735 5.12305 20.8943C5.12305 20.5605 5.20779 20.2225 5.38661 19.9121L8.7005 14.1729H15.5127L18.8266 19.9121C19.3696 20.8531 19.0466 22.0557 18.1066 22.5987Z" fill="#0A1B33"/>
<path id="Vector_5" d="M24.1074 12.2066C24.1074 13.2927 23.2269 14.1732 22.1408 14.1732H15.5135L14.3778 12.2066L13.2431 10.2405L12.1074 8.27384L15.4213 2.53458C15.9643 1.59364 17.1674 1.27157 18.1079 1.8146C19.0479 2.35716 19.3709 3.56025 18.8279 4.50026L15.5135 10.2409H22.1408C23.2273 10.2409 24.1074 11.121 24.1074 12.2066Z" fill="#0A1B33"/>
<path id="Vector_6" d="M10.9722 10.2412L9.83654 12.2074L8.7018 14.174H2.07356C0.987972 14.174 0.107422 13.2935 0.107422 12.2074C0.107422 11.6648 0.326974 11.1733 0.68322 10.817C1.03947 10.4617 1.53006 10.2412 2.07356 10.2412H10.9722Z" fill="#0A1B33"/>
<path id="Vector_7" d="M15.5129 14.1728H8.70117L9.83591 12.2062L10.9716 10.2405L12.1068 8.27344L13.2425 10.2405L14.3772 12.2062L15.5129 14.1728Z" fill="#0A1B33"/>
</g>
</g>
</g>
</g>
<defs>
<clipPath id="clip0_2103_16431">
<rect width="24" height="24" fill="white" transform="translate(0.107422 0.550781)"/>
</clipPath>
</defs>
</svg>
