<svg width="57" height="57" viewBox="0 0 57 57" fill="none" xmlns="http://www.w3.org/2000/svg">
<rect x="1.07251" y="1" width="55" height="55" rx="27.5" fill="white"/>
<rect x="1.07251" y="1" width="55" height="55" rx="27.5" stroke="#E1E1E1"/>
<path d="M24.8205 33.75H20.3235V32.25H24.8205V33.75Z" fill="#0A1B33"/>
<path fill-rule="evenodd" clip-rule="evenodd" d="M37.5725 20.25H19.5725C18.3299 20.25 17.3225 21.2574 17.3225 22.5V34.5C17.3225 35.7426 18.3299 36.75 19.5725 36.75H37.5725C38.8151 36.75 39.8225 35.7426 39.8225 34.5V22.5C39.8225 21.2574 38.8151 20.25 37.5725 20.25ZM18.8225 27.75V26.25H38.3225V27.75H18.8225ZM18.8225 24.75H38.3225V22.5C38.3225 22.0858 37.9867 21.75 37.5725 21.75H19.5725C19.1583 21.75 18.8225 22.0858 18.8225 22.5V24.75ZM18.8225 29.25H38.3225V34.5C38.3225 34.9142 37.9867 35.25 37.5725 35.25H19.5725C19.1583 35.25 18.8225 34.9142 18.8225 34.5V29.25Z" fill="#0A1B33"/>
</svg>
