<svg width="40" height="40" viewBox="0 0 40 40" fill="none" xmlns="http://www.w3.org/2000/svg">
<path d="M20 0C8.97167 0 0 8.97167 0 20C0 31.0283 8.97167 40 20 40C31.0283 40 40 31.0283 40 20C40 8.97167 31.0283 0 20 0ZM11.6667 36.3283V35C11.6667 30.405 15.405 26.6667 20 26.6667C24.595 26.6667 28.3333 30.405 28.3333 35V36.3283C25.8317 37.61 22.9983 38.3333 20 38.3333C17.0017 38.3333 14.1683 37.61 11.6667 36.3283ZM30 35.3583V35C30 29.485 25.515 25 20 25C14.485 25 10 29.485 10 35V35.3583C4.98667 32.0833 1.66667 26.4217 1.66667 20C1.66667 9.89167 9.89167 1.66667 20 1.66667C30.1083 1.66667 38.3333 9.89167 38.3333 20C38.3333 26.4217 35.0133 32.0833 30 35.3583ZM20 8.33333C16.3233 8.33333 13.3333 11.3233 13.3333 15C13.3333 18.6767 16.3233 21.6667 20 21.6667C23.6767 21.6667 26.6667 18.6767 26.6667 15C26.6667 11.3233 23.6767 8.33333 20 8.33333ZM20 20C17.2433 20 15 17.7567 15 15C15 12.2433 17.2433 10 20 10C22.7567 10 25 12.2433 25 15C25 17.7567 22.7567 20 20 20Z" fill="#FF0090"/>
</svg>
