<svg width="41" height="41" viewBox="0 0 41 41" fill="none" xmlns="http://www.w3.org/2000/svg">
<path d="M24.4277 20.9502C24.4277 23.0645 22.7139 24.7783 20.5996 24.7783C18.4854 24.7783 16.7715 23.0645 16.7715 20.9502C16.7715 18.8359 18.4854 17.1221 20.5996 17.1221C22.7139 17.1221 24.4277 18.8359 24.4277 20.9502Z" fill="#6FDDEF"/>
<path d="M29.5522 14.1771C29.3682 13.6784 29.0746 13.2271 28.6932 12.8566C28.3227 12.4751 27.8716 12.1815 27.3727 11.9975C26.968 11.8403 26.3601 11.6533 25.2404 11.6023C24.0292 11.5471 23.666 11.5352 20.5996 11.5352C17.5329 11.5352 17.1697 11.5468 15.9588 11.602C14.8391 11.6533 14.2309 11.8403 13.8265 11.9975C13.3276 12.1815 12.8762 12.4751 12.506 12.8566C12.1246 13.2271 11.831 13.6781 11.6467 14.1771C11.4895 14.5817 11.3024 15.1899 11.2515 16.3096C11.1962 17.5206 11.1843 17.8837 11.1843 20.9504C11.1843 24.0168 11.1962 24.38 11.2515 25.5912C11.3024 26.7109 11.4895 27.3188 11.6467 27.7235C11.831 28.2225 12.1243 28.6735 12.5057 29.044C12.8762 29.4255 13.3273 29.7191 13.8262 29.9031C14.2309 30.0605 14.8391 30.2476 15.9588 30.2986C17.1697 30.3538 17.5326 30.3654 20.5993 30.3654C23.6663 30.3654 24.0295 30.3538 25.2401 30.2986C26.3598 30.2476 26.968 30.0605 27.3727 29.9031C28.3743 29.5167 29.1659 28.7251 29.5522 27.7235C29.7094 27.3188 29.8965 26.7109 29.9478 25.5912C30.003 24.38 30.0146 24.0168 30.0146 20.9504C30.0146 17.8837 30.003 17.5206 29.9478 16.3096C29.8968 15.1899 29.7097 14.5817 29.5522 14.1771ZM20.5996 26.8474C17.3425 26.8474 14.7021 24.2073 14.7021 20.9501C14.7021 17.693 17.3425 15.0529 20.5996 15.0529C23.8564 15.0529 26.4968 17.693 26.4968 20.9501C26.4968 24.2073 23.8564 26.8474 20.5996 26.8474ZM26.73 16.1979C25.9689 16.1979 25.3518 15.5809 25.3518 14.8198C25.3518 14.0587 25.9689 13.4416 26.73 13.4416C27.4911 13.4416 28.1082 14.0587 28.1082 14.8198C28.1079 15.5809 27.4911 16.1979 26.73 16.1979Z" fill="#6FDDEF"/>
<path d="M20.5996 0.950195C9.5556 0.950195 0.599609 9.90619 0.599609 20.9502C0.599609 31.9942 9.5556 40.9502 20.5996 40.9502C31.6436 40.9502 40.5996 31.9942 40.5996 20.9502C40.5996 9.90619 31.6436 0.950195 20.5996 0.950195ZM32.0147 25.685C31.9592 26.9075 31.7648 27.7422 31.481 28.4728C30.8843 30.0154 29.6649 31.2349 28.1222 31.8315C27.3919 32.1154 26.5569 32.3094 25.3347 32.3653C24.11 32.4211 23.7188 32.4346 20.5999 32.4346C17.4807 32.4346 17.0898 32.4211 15.8648 32.3653C14.6426 32.3094 13.8076 32.1154 13.0773 31.8315C12.3107 31.5432 11.6168 31.0912 11.043 30.5068C10.4589 29.9333 10.007 29.2391 9.71857 28.4728C9.43475 27.7425 9.24036 26.9075 9.18481 25.6853C9.12836 24.4603 9.11523 24.0691 9.11523 20.9502C9.11523 17.8313 9.12836 17.4401 9.18451 16.2154C9.24005 14.9929 9.43414 14.1582 9.71796 13.4276C10.0063 12.6613 10.4586 11.967 11.043 11.3936C11.6165 10.8092 12.3107 10.3572 13.077 10.0688C13.8076 9.78503 14.6423 9.59094 15.8648 9.5351C17.0895 9.47925 17.4807 9.46582 20.5996 9.46582C23.7185 9.46582 24.1097 9.47925 25.3344 9.5354C26.5569 9.59094 27.3916 9.78503 28.1222 10.0685C28.8885 10.3569 29.5828 10.8092 30.1565 11.3936C30.7406 11.9673 31.1929 12.6613 31.481 13.4276C31.7651 14.1582 31.9592 14.9929 32.015 16.2154C32.0709 17.4401 32.084 17.8313 32.084 20.9502C32.084 24.0691 32.0709 24.4603 32.0147 25.685Z" fill="#6FDDEF"/>
</svg>
