<svg width="35" height="35" viewBox="0 0 35 35" fill="none" xmlns="http://www.w3.org/2000/svg">
<path d="M17.375 0.0898438C7.98759 0.0898438 0.375 7.70244 0.375 17.0898C0.375 26.4772 7.98759 34.0898 17.375 34.0898C26.7624 34.0898 34.375 26.4772 34.375 17.0898C34.375 7.70244 26.7624 0.0898438 17.375 0.0898438ZM12.435 25.7891H8.29472V13.333H12.435V25.7891ZM10.365 11.6321H10.338C8.94867 11.6321 8.05011 10.6757 8.05011 9.48036C8.05011 8.25807 8.97617 7.32812 10.3925 7.32812C11.8088 7.32812 12.6804 8.25807 12.7074 9.48036C12.7074 10.6757 11.8088 11.6321 10.365 11.6321ZM27.364 25.7891H23.2242V19.1254C23.2242 17.4507 22.6247 16.3085 21.1267 16.3085C19.983 16.3085 19.3018 17.0789 19.0025 17.8226C18.893 18.0888 18.8663 18.4608 18.8663 18.833V25.7891H14.7263C14.7263 25.7891 14.7805 14.5016 14.7263 13.333H18.8663V15.0966C19.4165 14.2479 20.4009 13.0406 22.5975 13.0406C25.3214 13.0406 27.364 14.8209 27.364 18.6468V25.7891Z" fill="#6FDDEF"/>
</svg>
