<svg width="60" height="61" viewBox="0 0 60 61" fill="none" xmlns="http://www.w3.org/2000/svg">
<path d="M30.0062 10.9473C28.3658 10.9473 26.784 11.4394 25.4365 12.3768C25.0381 12.658 24.9327 13.2087 25.2139 13.607C25.4834 14.0054 26.0341 14.1109 26.4325 13.8297C27.487 13.1032 28.729 12.7165 30.0062 12.7165C33.4979 12.7165 36.3334 15.5755 36.3334 19.0907C36.3334 22.6058 33.4979 25.4648 30.0062 25.4648C26.5145 25.4648 23.679 22.6058 23.679 19.0907C23.679 18.0596 23.9133 17.0636 24.3937 16.1497C24.6163 15.7161 24.4523 15.1889 24.0187 14.9545C23.5852 14.7319 23.0579 14.8959 22.8353 15.3295C22.2378 16.4777 21.9331 17.7783 21.9331 19.0789C21.9331 23.5666 25.5537 27.2106 30.0062 27.2106C34.4587 27.2106 38.0793 23.5666 38.0793 19.0789C38.0793 14.5913 34.4587 10.9473 30.0062 10.9473Z" fill="#FF0090"/>
<path d="M59.9317 58.7887L51.2845 37.8502C51.1439 37.5221 50.8275 37.3112 50.476 37.3112H41.8639C43.5395 35.0264 44.9338 32.7532 46.0235 30.5153C47.9568 26.5549 48.9294 22.7117 48.9294 19.0911C48.9294 8.56912 40.4462 0.015625 30.0062 0.015625C19.5663 0.015625 11.0831 8.56912 11.0831 19.0794C11.0831 22.7 12.0673 26.5549 13.9889 30.5036C15.0786 32.7415 16.473 35.0146 18.1485 37.2995H9.53642C9.18491 37.2995 8.86855 37.5104 8.72794 37.8385L2.83423 52.1216C2.64676 52.5669 2.85767 53.0941 3.30292 53.2816C3.40837 53.3285 3.52554 53.3519 3.64271 53.3519C3.98251 53.3519 4.31059 53.1527 4.4512 52.8129L5.29483 50.7742H11.2588L8.16552 58.2614H2.20151L3.09201 56.0937C3.27948 55.6485 3.06858 55.1212 2.62333 54.9337C2.17807 54.7463 1.66252 54.9572 1.47505 55.4141L0.068995 58.8004C-0.0481762 59.0699 -0.0130248 59.3862 0.151015 59.6323C0.315054 59.8783 0.584548 60.0307 0.877476 60.0307H59.1115C59.4044 60.0307 59.6739 59.8783 59.838 59.6323C60.0137 59.3745 60.0489 59.0582 59.9317 58.7887ZM12.8289 19.0794C12.8289 9.54164 20.5271 1.77319 30.0062 1.77319C39.4854 1.77319 47.1835 9.52992 47.1835 19.0794C47.1835 23.0749 45.8009 29.4724 39.4268 37.6158C39.4151 37.6276 39.4151 37.6276 39.4033 37.6393C39.0753 38.0494 38.7355 38.4712 38.3839 38.9047C34.8805 43.1346 31.3302 46.2162 30.0062 47.3176C28.6939 46.2279 25.1553 43.158 21.6519 38.9399C21.2887 38.5063 20.9489 38.0728 20.6091 37.651C20.6091 37.6393 20.5974 37.6393 20.5974 37.6276C14.2115 29.4724 12.8289 23.0866 12.8289 19.0794ZM10.1223 39.0688H16.0863L13.9069 44.3297H7.94289L10.1223 39.0688ZM15.2427 58.238L20.7145 44.9859L36.2983 58.238H15.2427ZM39.0167 58.238L20.9372 42.8534C20.7263 42.6659 20.4333 42.6073 20.1638 42.6659C19.8943 42.7362 19.6717 42.9237 19.5663 43.1815L13.3445 58.2262H10.0637L13.3796 50.2C13.4968 49.9305 13.4617 49.6142 13.2976 49.3681C13.1336 49.122 12.8641 48.9697 12.5712 48.9697H6.02129L7.21643 46.0873H14.4928C14.8443 46.0873 15.1606 45.8764 15.3012 45.5483L17.9845 39.057H19.5077C19.7772 39.3851 20.035 39.7249 20.3162 40.053C24.839 45.4897 29.2915 48.9814 29.4789 49.1338C29.6313 49.2626 29.8305 49.3212 30.0179 49.3212C30.2054 49.3212 30.3929 49.2626 30.5569 49.1338C30.6624 49.0517 32.0567 47.962 34.0369 46.0873H43.9613C44.4417 46.0873 44.8401 45.6889 44.8401 45.2085C44.8401 44.7281 44.4534 44.3297 43.9613 44.3297H35.8413C37.0599 43.0994 38.3839 41.67 39.7197 40.053C40.0009 39.7249 40.2587 39.3851 40.5282 39.057H49.9136L52.093 44.318H47.4647C46.9843 44.318 46.5859 44.7164 46.5859 45.1968C46.5859 45.6772 46.9726 46.0756 47.4647 46.0756H52.8194L54.0146 48.958H35.9351C35.5718 48.958 35.2438 49.1923 35.1149 49.5321C34.986 49.8719 35.0797 50.2703 35.3609 50.5047L44.1605 58.2028L39.0167 58.238ZM46.8437 58.238L38.2902 50.7507H54.7293L57.8226 58.238H46.8437Z" fill="#FF0090"/>
</svg>
