<svg width="200" height="261" viewBox="0 0 200 261" fill="none" xmlns="http://www.w3.org/2000/svg">
<g clip-path="url(#clip0_1348_13465)">
<path d="M127.309 147.387C127.274 147.387 127.239 147.387 127.205 147.384C126.556 147.327 126.078 146.754 126.135 146.109C126.148 145.947 127.651 129.7 135.17 111.488C142.138 94.6143 155.841 72.5254 181.554 63.1296C182.164 62.9081 182.842 63.2214 183.066 63.8354C183.288 64.4461 182.974 65.1202 182.364 65.3417C171.376 69.3576 161.711 76.095 153.639 85.3705C147.157 92.8168 141.676 101.906 137.35 112.387C129.967 130.27 128.499 146.156 128.483 146.315C128.429 146.925 127.913 147.387 127.312 147.387" fill="#6FDDEF"/>
<path d="M101.103 140.427H101.078C100.166 140.414 99.4415 139.664 99.4542 138.756C99.739 118.518 96.4067 97.4232 90.0743 79.3502C83.4445 60.4353 73.9949 46.6249 63.4694 40.4635C54.2794 35.0836 44.3679 35.4032 34.0038 41.416C26.3866 45.8338 22.1808 52.8972 22.1587 61.2992C22.1365 70.4418 27.2569 80.0907 34.3361 84.2426C44.1084 89.9737 56.7542 86.8471 62.5296 77.2742C67.1087 69.6759 64.6562 59.7707 57.058 55.1884C54.1908 53.4573 50.8174 52.9478 47.5641 53.7548C44.3109 54.5586 41.5672 56.584 39.8393 59.4543C38.5007 61.6727 38.1051 64.2835 38.7286 66.7993C39.352 69.3152 40.9185 71.4386 43.1368 72.7773C44.8362 73.8026 46.8331 74.1032 48.7604 73.6254C50.6876 73.1475 52.3142 71.9481 53.3395 70.2487C54.1149 68.9639 54.3427 67.4544 53.982 65.9987C53.6212 64.543 52.713 63.3119 51.4313 62.5398C50.4787 61.9638 49.3585 61.7961 48.2793 62.0651C47.2002 62.3309 46.2888 63.005 45.716 63.9543C45.2476 64.736 44.2318 64.9892 43.4533 64.5145C42.6717 64.0461 42.4216 63.0334 42.8932 62.2518C43.9217 60.5461 45.5546 59.3403 47.4882 58.8625C49.4218 58.3846 51.4281 58.6853 53.1338 59.7138C55.175 60.9448 56.6117 62.8942 57.1845 65.2044C57.7573 67.5145 57.3934 69.9101 56.1655 71.9513C54.6845 74.407 52.3395 76.1381 49.5578 76.828C46.7761 77.5178 43.89 77.0811 41.4375 75.6001C38.4627 73.8058 36.3646 70.9608 35.5291 67.5905C34.6937 64.2202 35.2222 60.7233 37.0165 57.7517C39.2001 54.1282 42.6653 51.5712 46.773 50.5554C50.8806 49.5396 55.137 50.1788 58.7605 52.3655C63.1973 55.0365 66.3239 59.2802 67.5708 64.3056C68.8145 69.3342 68.0296 74.5463 65.3556 78.9799C62.077 84.4167 56.8744 88.2427 50.7066 89.7554C44.5704 91.2617 38.1653 90.3155 32.6715 87.0908C24.5163 82.3091 18.839 71.7013 18.8611 61.2961C18.8865 51.6693 23.6745 43.5996 32.3487 38.571C43.8141 31.919 54.8427 31.5994 65.134 37.6248C73.0582 42.2641 84.3559 53.0776 93.1851 78.2647C99.6441 96.6954 103.04 118.196 102.752 138.807C102.739 139.712 102.002 140.433 101.103 140.433" fill="#FFC549"/>
<path d="M93.3654 152.284C92.9381 152.284 92.5267 152.05 92.3179 151.645C92.2451 151.503 84.7165 137.11 69.789 125.17C61.061 118.189 51.5387 113.391 41.488 110.92C28.9276 107.828 15.4781 108.372 1.51581 112.531C0.892378 112.717 0.237304 112.363 0.0505926 111.739C-0.132955 111.116 0.221481 110.458 0.844909 110.274C15.2344 105.986 29.1143 105.439 42.1019 108.644C52.4945 111.211 62.3269 116.17 71.3302 123.385C86.6216 135.642 94.1027 149.962 94.4128 150.566C94.7103 151.145 94.4825 151.854 93.9065 152.151C93.7324 152.24 93.5489 152.284 93.3685 152.284" fill="#6FDDEF"/>
<path d="M117.056 167.251C117.018 167.251 116.977 167.251 116.939 167.244C116.29 167.181 115.818 166.605 115.882 165.956C115.91 165.669 118.676 136.804 116.543 102.272C114.581 70.5024 107.961 27.3024 87.5521 1.91591C87.1438 1.40641 87.2261 0.665888 87.7324 0.260819C88.2388 -0.147416 88.9793 -0.0683005 89.3875 0.441201C98.5902 11.8908 105.831 27.7549 110.904 47.5875C114.948 63.3916 117.635 81.7526 118.894 102.161C121.034 136.874 118.252 165.896 118.223 166.184C118.163 166.795 117.651 167.248 117.053 167.248" fill="#6FDDEF"/>
<path d="M131.961 154.687C131.407 154.5 131.1 153.902 131.28 153.342C138.831 129.743 156.879 102.575 175.446 98.6985C183.041 97.113 189.781 99.5941 195.478 106.072C199.788 110.971 201.07 116.946 199.092 122.889C196.952 129.313 191.253 134.683 185.231 135.946C176.87 137.699 168.575 132.417 166.743 124.174C165.234 117.379 169.531 110.629 176.322 109.116C179.012 108.518 181.769 109.002 184.095 110.483C186.417 111.961 188.028 114.256 188.623 116.946C189.636 121.5 186.753 126.031 182.199 127.044C180.379 127.449 178.509 127.12 176.933 126.117C175.36 125.117 174.269 123.563 173.863 121.74C173.528 120.227 173.8 118.674 174.632 117.367C175.465 116.056 176.756 115.154 178.269 114.816C180.883 114.234 183.484 115.885 184.063 118.503C184.193 119.079 183.826 119.651 183.25 119.784C182.671 119.911 182.098 119.547 181.968 118.968C181.645 117.509 180.193 116.585 178.734 116.911C177.781 117.123 176.968 117.692 176.443 118.515C175.917 119.338 175.746 120.319 175.958 121.272C176.237 122.534 176.993 123.61 178.085 124.303C179.177 124.996 180.471 125.227 181.731 124.943C185.133 124.189 187.281 120.806 186.525 117.408C186.05 115.278 184.778 113.461 182.94 112.29C181.101 111.12 178.914 110.737 176.788 111.208C174.056 111.816 171.724 113.449 170.224 115.81C168.724 118.17 168.23 120.974 168.835 123.705C170.417 130.81 177.569 135.357 184.788 133.845C190.016 132.747 195.174 127.854 197.054 122.212C198.782 117.025 197.649 111.794 193.864 107.49C188.715 101.635 182.664 99.3852 175.882 100.8C168.11 102.42 159.42 108.987 151.414 119.284C143.762 129.123 137.338 141.449 133.322 153.997C133.141 154.56 132.537 154.87 131.974 154.69L131.958 154.684L131.961 154.687Z" fill="#FFC549"/>
<path d="M116.163 152.305C116.122 152.305 116.081 152.305 116.037 152.298C115.391 152.229 114.92 151.65 114.989 151.004C115.011 150.811 117.11 131.314 123.065 106.396C128.569 83.3668 138.591 50.841 155.082 26.6824C155.449 26.1444 156.18 26.0052 156.718 26.3754C157.256 26.7425 157.392 27.4735 157.028 28.0115C125.841 73.7148 117.416 150.485 117.334 151.254C117.271 151.858 116.758 152.308 116.163 152.308" fill="#FFC549"/>
<path d="M51.7762 171.707L49.6116 170.453L47.292 169.7C47.292 169.7 51.561 159.697 54.4345 157.887C58.4441 155.361 66.6277 155.393 67.8524 155.317C69.9094 155.187 71.574 156.08 71.631 157.994C71.7038 160.374 69.8683 160.874 67.9252 160.998C66.8145 161.067 58.9346 161.653 57.1086 163.124C55.3807 164.52 51.7731 171.703 51.7731 171.703L51.7762 171.707Z" fill="#0A1B33"/>
<path d="M39.1527 174.104C37.6748 175.49 36.7539 177.424 36.2318 179.36C35.7761 181.054 35.6368 183.478 37.4058 184.497C37.6179 183.503 38.0419 182.573 38.7097 181.8C38.428 182.823 38.0356 183.845 37.852 184.889C37.7096 185.709 37.6906 186.74 38.39 187.326C40.1242 188.778 42.0578 186.509 43.1844 185.386C43.0642 185.541 43.0388 185.892 42.9945 186.076C42.8901 186.487 42.792 186.902 42.7066 187.316C42.5103 188.275 42.3838 189.456 43.273 190.12C44.2319 190.835 45.5769 190.509 46.5104 189.93C47.5611 189.278 48.349 188.281 49.0104 187.253C49.8206 185.997 50.3712 184.595 51.1814 183.342C51.0073 184.253 50.7415 185.145 50.3206 185.974C51.4757 185.804 52.6497 185.601 53.6877 185.038C54.6941 184.487 55.2542 183.648 55.4125 182.516C55.6909 180.535 54.8048 178.503 53.6561 176.933C52.8554 175.841 51.8428 174.778 50.7098 174.028C51.3649 174.189 51.982 174.528 52.5263 174.962L53.5896 174.044C51.4219 170.867 47.5073 169.253 43.7319 169.93L44.0357 171.525C44.5927 171.55 45.137 171.645 45.6623 171.832C43.3173 171.819 40.8996 172.471 39.1559 174.104H39.1527Z" fill="#59B1BF"/>
<path d="M37.045 180.335C36.8614 181.3 36.7317 182.923 37.6273 183.885C37.8931 183.063 38.1716 182.426 38.7127 181.803C38.7127 181.803 38.8457 181.578 39.064 181.699C39.814 182.116 37.7665 185.882 39.102 187.075C39.2349 187.192 39.3583 187.303 39.4976 187.373C40.3393 187.79 41.4058 187.037 41.8267 186.692C42.2318 186.36 42.8046 185.778 43.1907 185.385C43.1907 185.385 43.3331 185.142 43.4755 185.211C43.8521 185.398 43.466 185.971 43.3362 188.427C43.3141 188.86 43.5704 189.718 44.2698 190.066C44.3268 190.094 44.39 190.12 44.4533 190.142C45.1369 190.376 46.0483 190.173 46.8901 189.604C47.8806 188.933 48.6053 187.904 49.0642 187.192C49.4502 186.591 49.7889 185.933 50.1148 185.297C50.4566 184.632 50.7319 184.066 51.1496 183.417C51.1496 183.417 50.7446 184.908 50.5199 185.493C52.5009 185.445 54.887 184.398 55.3649 182.711C56.4725 178.79 51.7035 174.689 50.7129 174.031C50.7129 174.031 52.3269 175.002 52.5611 175.167L53.7731 173.914C51.3585 170.771 44.9913 170.353 44.7635 170.584C44.5578 170.793 44.8647 171.755 44.8647 171.755C45.3489 171.806 45.2318 171.679 45.6654 171.835C43.1812 171.819 41.4565 173.303 39.9723 174.692C38.545 176.034 37.4817 178.088 37.0513 180.335H37.045Z" fill="#6FDDEF"/>
<path d="M38.8266 173.754C37.7759 174.739 36.988 175.979 36.4626 177.286C35.9088 178.58 35.4658 179.96 35.4531 181.416C35.4531 182.138 35.5671 182.888 35.912 183.555C36.2316 184.163 36.6937 184.691 37.3424 185.017C37.3044 185.27 37.2886 185.527 37.2918 185.786C37.3013 186.125 37.3487 186.476 37.4721 186.808C37.5956 187.144 37.8076 187.457 38.0861 187.691C38.2253 187.808 38.3772 187.907 38.5355 187.986C38.6937 188.071 38.8677 188.112 39.0323 188.172C39.2032 188.229 39.3836 188.233 39.5576 188.258C39.7348 188.264 39.9152 188.245 40.0924 188.229C40.795 188.106 41.3931 187.729 41.8963 187.299C42.0608 187.16 42.2127 187.005 42.3551 186.84C42.2317 187.166 42.1431 187.505 42.0956 187.856C42.0323 188.375 42.0292 188.926 42.2159 189.457C42.3931 189.989 42.8077 190.451 43.3045 190.698C43.8077 190.957 44.3647 191.024 44.8995 190.986C45.1685 190.976 45.4311 190.903 45.6875 190.84C45.9375 190.745 46.1938 190.666 46.4185 190.533C47.3584 190.046 48.1052 189.299 48.7318 188.495C49.0609 188.1 49.3204 187.66 49.5989 187.239C49.7477 186.976 49.8964 186.717 50.042 186.448C50.4186 186.435 50.7983 186.4 51.1749 186.337C52.3047 186.141 53.4534 185.831 54.4408 185.131C54.6844 184.954 54.906 184.748 55.1085 184.517C55.2984 184.277 55.4693 184.014 55.5864 183.726C56.3395 181.761 55.6528 179.637 55.175 178.587C54.6908 177.533 54.0484 176.561 53.2635 175.704C53.1433 175.574 53.0199 175.448 52.8901 175.327L54.2287 174.16L54.1053 173.973C53.1085 172.435 51.6717 171.169 50.023 170.349C49.4913 170.084 48.9375 169.868 48.3679 169.704C46.7698 169.235 45.045 169.169 43.3836 169.517L43.14 169.568L43.5007 171.568C43.4501 171.568 42.8235 171.663 42.5703 171.732C41.1842 172.077 39.8678 172.767 38.8203 173.751L38.8266 173.754ZM44.1558 171.947C44.6495 171.894 45.1558 171.865 45.659 171.868C45.1811 171.697 44.6716 171.593 44.1463 171.565C44.1115 171.565 44.0767 171.565 44.0419 171.565L43.7412 169.976C45.2476 169.707 46.7951 169.783 48.2381 170.204C50.3774 170.827 52.3078 172.232 53.5642 174.077L52.504 174.992C51.9629 174.561 51.3489 174.226 50.697 174.061C51.5388 174.622 52.2224 175.327 52.8964 176.058C53.6433 176.875 54.2635 177.808 54.7193 178.808C55.1718 179.808 56.0579 182.508 54.7256 184.198C54.5547 184.391 54.3617 184.571 54.1465 184.729C53.2762 185.346 52.1844 185.657 51.0989 185.84C50.8363 185.884 50.5736 185.926 50.311 185.964L50.3363 185.91C50.5261 185.498 50.716 185.084 50.8458 184.65C50.9755 184.217 51.0831 183.78 51.1686 183.34C50.9249 183.717 50.7002 184.103 50.4945 184.498C50.2888 184.891 50.0641 185.277 49.8806 185.679C49.8204 185.808 49.754 185.935 49.6844 186.062C49.6147 186.195 49.5451 186.321 49.4755 186.448C49.3774 186.625 49.2761 186.802 49.178 186.976C48.9059 187.384 48.659 187.808 48.3457 188.185C47.7476 188.951 47.0419 189.647 46.2001 190.084C45.9976 190.207 45.7729 190.271 45.5514 190.356C45.3267 190.41 45.102 190.473 44.871 190.479C44.4153 190.514 43.9406 190.451 43.5545 190.248C43.1526 190.046 42.8583 189.707 42.7127 189.293C42.564 188.875 42.5577 188.397 42.6178 187.929C42.738 187.084 43.1779 185.41 43.2096 185.372C42.6621 185.916 42.1336 186.441 41.5798 186.916C41.1178 187.312 40.5861 187.628 40.0228 187.729C39.8804 187.739 39.738 187.755 39.5988 187.752C39.4595 187.726 39.3171 187.733 39.181 187.685C39.0513 187.631 38.9089 187.603 38.7823 187.536C38.6557 187.473 38.5418 187.394 38.4342 187.305C38.007 186.954 37.8266 186.375 37.8203 185.78C37.8108 185.182 37.9373 184.571 38.1209 183.976C38.3392 183.264 38.5481 182.546 38.7538 181.799C38.2475 182.384 37.8582 183.074 37.6272 183.824C37.5639 184.039 37.5038 184.261 37.4563 184.486C37.2791 184.384 37.1019 184.245 36.9531 184.096C36.719 183.878 36.5449 183.603 36.3867 183.321C36.0892 182.745 35.9848 182.081 35.9879 181.416C35.9974 180.077 36.4152 178.745 36.9531 177.489C37.4595 176.217 38.2095 175.055 39.1937 174.128C40.1779 173.204 41.4089 172.561 42.7191 172.232C43.2064 172.112 43.6811 171.995 44.1716 171.944L44.1558 171.947Z" fill="#0A1B33"/>
<path d="M44.6179 191.317C44.0767 191.317 43.5862 191.207 43.1558 190.985C42.583 190.7 42.1178 190.169 41.9153 189.564C41.7413 189.064 41.697 188.51 41.7824 187.824C41.7824 187.817 41.7824 187.808 41.7824 187.802C41.2413 188.204 40.7033 188.447 40.1463 188.545L40.0292 188.558C39.8741 188.571 39.7127 188.583 39.5482 188.58C39.5355 188.58 39.5229 188.58 39.5134 188.577C39.4627 188.571 39.4121 188.564 39.3615 188.558C39.2317 188.545 39.083 188.529 38.9343 188.479C38.8773 188.457 38.8267 188.441 38.7792 188.425C38.6589 188.387 38.5197 188.34 38.3868 188.267C38.2191 188.185 38.0482 188.071 37.8868 187.938C37.5671 187.669 37.3235 187.317 37.1779 186.919C37.0545 186.583 36.988 186.216 36.9785 185.795C36.9754 185.596 36.9849 185.393 37.0038 185.191C36.4405 184.859 35.9817 184.359 35.6367 183.7C35.3045 183.058 35.1431 182.308 35.1399 181.412C35.1557 179.726 35.738 178.175 36.1747 177.156C36.7412 175.741 37.583 174.479 38.6115 173.517C39.6779 172.513 41.0229 171.789 42.5008 171.422C42.6495 171.38 42.9185 171.333 43.1369 171.298L42.8331 169.621C42.8014 169.453 42.9122 169.292 43.0799 169.254L43.3236 169.203C45.0325 168.846 46.811 168.912 48.4629 169.396C49.0515 169.567 49.6275 169.792 50.1686 170.061C51.8712 170.906 53.3649 172.232 54.3775 173.795L54.501 173.982C54.5864 174.115 54.5611 174.289 54.444 174.393L53.3617 175.336C53.4092 175.387 53.4566 175.434 53.5041 175.485C54.3079 176.362 54.9693 177.362 55.4693 178.45C55.8744 179.346 56.7225 181.656 55.8871 183.836C55.7668 184.131 55.5959 184.415 55.3617 184.71C55.1276 184.976 54.8839 185.2 54.6307 185.384C53.5168 186.172 52.2288 186.472 51.2319 186.643C50.9091 186.697 50.5832 186.732 50.2382 186.751C50.156 186.903 50.0705 187.052 49.9882 187.2L49.8806 187.39C49.7984 187.514 49.7319 187.621 49.6623 187.726C49.4534 188.048 49.2382 188.384 48.9787 188.694C48.2192 189.672 47.4281 190.365 46.5673 190.811C46.3869 190.919 46.178 190.995 45.9755 191.071C45.9185 191.093 45.8616 191.112 45.8046 191.134C45.792 191.14 45.7793 191.143 45.7666 191.147L45.6844 191.166C45.4407 191.226 45.1875 191.289 44.9122 191.298C44.8141 191.305 44.716 191.308 44.6179 191.308V191.317ZM43.485 185.501C43.4248 185.681 43.0261 187.197 42.9185 187.972C42.8584 188.457 42.8837 188.865 42.9976 189.188C43.1179 189.533 43.3584 189.802 43.6843 189.969C43.9913 190.131 44.3995 190.2 44.8331 190.166C45.0166 190.159 45.197 190.115 45.3837 190.067L45.4407 190.055C45.4945 190.036 45.5483 190.014 45.6021 189.995C45.754 189.941 45.8964 189.887 46.0198 189.814C46.7508 189.435 47.4186 188.843 48.08 187.991C48.311 187.713 48.504 187.419 48.7034 187.105C48.7667 187.004 48.8331 186.903 48.8996 186.805L49.1844 186.295C49.2572 186.166 49.3237 186.042 49.3901 185.915C49.4597 185.792 49.523 185.669 49.58 185.545C49.7097 185.264 49.8616 184.985 50.004 184.719C50.0705 184.596 50.137 184.476 50.2003 184.352C50.4155 183.938 50.6496 183.542 50.8901 183.169C50.9724 183.042 51.1338 182.991 51.2731 183.045C51.4123 183.102 51.4946 183.251 51.4661 183.4C51.3807 183.846 51.2699 184.298 51.137 184.741C51.0515 185.02 50.9471 185.289 50.83 185.561C50.8996 185.548 50.9693 185.539 51.0357 185.526C52.3174 185.308 53.2446 184.972 53.9503 184.469C54.1339 184.336 54.3111 184.172 54.4756 183.985C55.8554 182.235 54.5706 179.27 54.4187 178.938C53.9756 177.966 53.3807 177.067 52.6497 176.27C52.0199 175.586 51.3332 174.871 50.5104 174.324C50.3838 174.238 50.3332 174.074 50.3965 173.931C50.4598 173.789 50.6117 173.713 50.7636 173.751C51.3522 173.896 51.9281 174.175 52.4819 174.58L53.1307 174.02C51.9155 172.352 50.1116 171.08 48.1401 170.504C46.8521 170.127 45.4628 170.036 44.1052 170.235L44.2983 171.26C44.7983 171.298 45.2888 171.406 45.7603 171.57C45.9059 171.621 45.9913 171.77 45.966 171.922C45.9407 172.074 45.8173 172.175 45.6527 172.184C45.1717 172.181 44.678 172.206 44.1875 172.263C44.1875 172.263 44.1875 172.263 44.1843 172.263C43.7096 172.311 43.235 172.428 42.7761 172.545C41.4881 172.868 40.3172 173.494 39.39 174.365C38.4691 175.229 37.7412 176.32 37.2254 177.612C36.5893 179.096 36.2886 180.305 36.2823 181.422C36.2823 182.118 36.4026 182.71 36.6462 183.181C36.7697 183.406 36.9311 183.669 37.1463 183.871C37.1779 183.903 37.2064 183.931 37.238 183.96C37.257 183.89 37.2792 183.817 37.3013 183.741C37.5418 182.963 37.9532 182.222 38.4912 181.599C38.5893 181.488 38.7507 181.457 38.8805 181.526C39.0102 181.596 39.0767 181.748 39.0355 181.89C38.8267 182.646 38.621 183.362 38.3994 184.077C38.2001 184.732 38.1051 185.289 38.1146 185.783C38.1146 186.115 38.1874 186.719 38.6115 187.067C38.7096 187.15 38.8045 187.21 38.8994 187.257C38.9564 187.286 39.0229 187.308 39.0925 187.33C39.1558 187.349 39.2191 187.371 39.2792 187.397C39.3108 187.406 39.3741 187.412 39.4469 187.419C39.5007 187.425 39.5545 187.428 39.6052 187.438C39.6938 187.438 39.7919 187.431 39.8868 187.422L39.9596 187.416C40.409 187.33 40.8773 187.08 41.352 186.675C41.8773 186.226 42.371 185.738 42.9628 185.147C43.0799 185.029 43.2729 185.023 43.3964 185.134C43.5008 185.229 43.5293 185.378 43.4723 185.501H43.485ZM42.4501 186.542C42.4755 186.548 42.4976 186.561 42.5198 186.574C42.5324 186.58 42.5419 186.586 42.5514 186.596C42.5672 186.533 42.5799 186.466 42.5957 186.403C42.5482 186.45 42.4976 186.498 42.4501 186.542ZM50.0167 186.09C50.0072 186.105 50.0009 186.121 49.9914 186.137C50.0041 186.137 50.0199 186.134 50.0325 186.134C50.0325 186.134 50.0389 186.134 50.042 186.134C50.0325 186.121 50.023 186.105 50.0167 186.09ZM37.5513 184.779C37.5513 184.779 37.5671 184.795 37.5766 184.805C37.5766 184.792 37.5798 184.779 37.583 184.767C37.5766 184.767 37.5735 184.773 37.5671 184.773C37.5608 184.773 37.5545 184.779 37.5482 184.779H37.5513Z" fill="#0A1B33"/>
<path d="M108.647 260.875C150.291 260.875 184.05 257.641 184.05 253.651C184.05 249.66 150.291 246.426 108.647 246.426C67.0033 246.426 33.2441 249.66 33.2441 253.651C33.2441 257.641 67.0033 260.875 108.647 260.875Z" fill="#0A1B33"/>
<path d="M185.24 124.823L183.354 125.358L183.066 124.345L185.228 123.731C185.304 123.709 185.373 123.772 185.364 123.848L185.24 124.823Z" fill="#0A1B33"/>
<path d="M184.089 125.153L183.354 125.362L183.066 124.349L184.095 124.055L184.089 125.153Z" fill="#0A1B33"/>
<path d="M183.51 125.912L184.718 125.567L184.896 124.922L183.354 125.362L183.51 125.912Z" fill="#0A1B33"/>
<path d="M184.896 124.922L183.354 125.362L183.399 125.523L183.519 125.488L183.655 125.969L183.775 125.935L183.636 125.457L183.864 125.39L184 125.871L184.12 125.836L183.981 125.359L184.209 125.292L184.345 125.773L184.465 125.738L184.326 125.26L184.845 125.112L184.896 124.922Z" fill="#0A1B33"/>
<path d="M174.534 139.939L182.674 168.569C183.234 170.534 185.281 171.677 187.247 171.117L187.319 171.098C189.285 170.537 190.427 168.49 189.867 166.525L181.728 137.895L174.534 139.939ZM186.661 168.92C185.63 169.215 184.557 168.617 184.266 167.585C183.974 166.553 184.569 165.48 185.601 165.189C186.633 164.898 187.706 165.493 187.997 166.525C188.288 167.556 187.693 168.629 186.661 168.92Z" fill="#0A1B33"/>
<path d="M176.167 118.35L178.012 117.824C182.494 119.482 183.073 124.008 183.073 124.008L178.174 125.4L176.171 118.35H176.167Z" fill="#0A1B33"/>
<path d="M182.933 123.347C183.041 123.755 183.073 124.005 183.073 124.005L178.174 125.398L177.981 124.72L182.933 123.344V123.347Z" fill="#0A1B33"/>
<path d="M170.614 127.548L168.408 119.785L166.376 120.364C163.142 124.51 165.221 129.083 165.221 129.083H165.231C165.231 129.083 167.053 133.491 170.927 134.497C170.927 134.497 173.516 134.808 174.943 139.823L181.209 138.042C179.781 133.026 181.823 131.399 181.823 131.399C184.588 128.507 183.816 123.795 183.816 123.795L170.62 127.548H170.614Z" fill="#0A1B33"/>
<path d="M178.188 127.817L172.228 129.512L173.089 132.544L179.05 130.849L178.188 127.817Z" fill="#0A1B33"/>
<path d="M178.008 128.043L172.526 129.602L173.297 132.314L178.779 130.755L178.008 128.043Z" fill="#0A1B33"/>
<path d="M172.965 129.421L172.633 129.516L173.44 132.353L173.771 132.258L172.965 129.421Z" fill="#0A1B33"/>
<path d="M173.512 129.265L173.181 129.359L173.987 132.196L174.319 132.102L173.512 129.265Z" fill="#0A1B33"/>
<path d="M174.057 129.113L173.725 129.207L174.532 132.044L174.863 131.95L174.057 129.113Z" fill="#0A1B33"/>
<path d="M174.604 128.956L174.272 129.051L175.079 131.888L175.411 131.793L174.604 128.956Z" fill="#0A1B33"/>
<path d="M175.149 128.8L174.817 128.895L175.623 131.732L175.955 131.637L175.149 128.8Z" fill="#0A1B33"/>
<path d="M175.693 128.644L175.361 128.738L176.168 131.575L176.5 131.481L175.693 128.644Z" fill="#0A1B33"/>
<path d="M176.241 128.492L175.909 128.586L176.715 131.423L177.047 131.329L176.241 128.492Z" fill="#0A1B33"/>
<path d="M176.785 128.335L176.453 128.43L177.26 131.267L177.592 131.172L176.785 128.335Z" fill="#0A1B33"/>
<path d="M177.333 128.179L177.001 128.273L177.807 131.11L178.139 131.016L177.333 128.179Z" fill="#0A1B33"/>
<path d="M177.877 128.027L177.545 128.121L178.352 130.958L178.684 130.864L177.877 128.027Z" fill="#0A1B33"/>
<path d="M180.908 141.615L177.176 142.676L181.035 156.249L184.767 155.188L180.908 141.615Z" fill="#0A1B33"/>
<path d="M181.003 137.262L174.699 139.053L174.939 139.825L181.205 138.043L181.003 137.262Z" fill="#0A1B33"/>
<path d="M185.243 163.945C183.788 164.36 182.943 165.876 183.357 167.331C183.772 168.787 185.288 169.632 186.744 169.218C188.199 168.803 189.044 167.287 188.63 165.831C188.215 164.376 186.699 163.531 185.243 163.945ZM186.658 168.923C185.626 169.218 184.554 168.619 184.262 167.588C183.968 166.556 184.566 165.483 185.598 165.192C186.63 164.901 187.702 165.496 187.994 166.528C188.285 167.559 187.69 168.632 186.658 168.923Z" fill="#0A1B33"/>
<path d="M182.671 155.046C182.781 155.704 183.253 156.15 183.921 156.41C184.829 156.771 186.107 156.799 187.342 156.597C187.424 156.584 187.506 156.568 187.585 156.556C188.715 156.344 189.687 155.964 190.348 155.47C191.066 154.932 191.38 154.318 191.269 153.638C191.247 153.505 191.212 153.385 191.161 153.268C190.953 152.777 190.5 152.416 189.81 152.195C189.225 152.005 188.49 151.929 187.687 151.973C187.332 152.173 186.949 152.359 186.535 152.533C185.389 153.018 184.329 153.28 183.414 153.325C182.861 153.78 182.557 154.353 182.671 155.049V155.046Z" fill="#59B1BF"/>
<path d="M183.031 154.662C182.845 154.219 182.993 153.425 183.506 153.286C183.8 153.206 184.136 153.206 184.44 153.143C184.772 153.074 185.101 152.985 185.424 152.881C186.104 152.662 186.772 152.387 187.405 152.058C187.924 151.789 188.778 151.963 189.329 152.124C189.873 152.286 190.433 152.593 190.528 153.203C190.573 153.498 190.484 153.773 190.313 154.013C189.566 155.067 187.924 155.428 186.731 155.583C186.035 155.675 185.316 155.697 184.62 155.58C184.031 155.479 183.285 155.26 183.028 154.662H183.031Z" fill="#6FDDEF"/>
<path d="M181.541 149.01C181.5 149.02 181.462 149.029 181.421 149.035C181.421 149.07 181.421 149.105 181.421 149.14C181.414 149.662 181.458 150.184 181.566 150.694C181.591 150.817 181.623 150.934 181.652 151.058L181.705 151.238L181.756 151.453C181.81 151.738 181.822 152.042 181.762 152.33C181.753 152.387 181.74 152.441 181.727 152.498C182.142 152.687 182.648 152.766 183.199 152.76C184.161 152.741 185.278 152.453 186.319 152.013C186.737 151.836 187.148 151.63 187.535 151.409C189.209 150.431 190.402 149.058 189.842 147.732C189.281 146.406 187.392 146.301 185.487 146.855C185.117 147.213 184.69 147.554 184.202 147.871C183.294 148.466 182.389 148.855 181.547 149.016L181.541 149.01Z" fill="#59B1BF"/>
<path d="M182.088 151.608C182.12 151.209 182.05 150.829 181.949 150.446C181.816 149.946 181.737 149.44 181.721 148.924C182.414 148.753 183.072 148.465 183.693 148.114C183.997 147.943 184.291 147.756 184.573 147.554C184.886 147.332 185.161 147.032 185.478 146.823C185.712 146.668 186.098 146.639 186.376 146.595C186.686 146.544 187.003 146.513 187.316 146.516C187.816 146.519 188.373 146.598 188.775 146.924C189.541 147.554 189.183 148.529 188.633 149.155C188.104 149.756 187.411 150.225 186.705 150.598C185.386 151.298 183.601 151.975 182.088 151.605V151.608Z" fill="#6FDDEF"/>
<path d="M180.139 143.765C180.411 143.987 180.658 144.25 180.86 144.534C181.509 145.449 181.737 146.617 181.554 147.705C181.522 147.898 181.493 148.092 181.474 148.285C181.465 148.342 181.459 148.392 181.455 148.449C182.215 148.294 183.057 147.93 183.886 147.389C184.379 147.066 184.819 146.712 185.186 146.338C185.598 145.933 185.917 145.512 186.13 145.091C186.417 144.522 186.649 143.671 186.114 142.851C185.576 142.028 184.705 141.902 184.066 141.94C183.167 141.993 182.104 142.395 181.063 143.072C180.841 143.215 180.503 143.455 180.139 143.762V143.765Z" fill="#59B1BF"/>
<path d="M181.854 147.193C182.069 145.797 181.677 144.31 180.712 143.266C181.8 142.459 184.883 140.826 185.607 142.933C185.93 143.867 185.205 144.813 184.588 145.433C183.826 146.202 182.87 146.823 181.854 147.193Z" fill="#6FDDEF"/>
<path d="M182.794 160.766C182.316 160.462 181.981 160.082 181.797 159.649C181.674 159.358 181.623 159.047 181.636 158.712C181.677 157.782 182.224 157.073 183.148 156.658C182.731 156.392 182.427 156.051 182.253 155.636C182.186 155.481 182.139 155.316 182.11 155.136C182 154.452 182.177 153.829 182.614 153.3C182.205 153.262 181.838 153.168 181.519 153.022C181.364 153.323 181.148 153.588 180.883 153.804C180.433 154.177 179.829 154.38 179.24 154.335C179.028 154.323 178.822 154.288 178.623 154.231C178.503 154.443 178.37 154.639 178.231 154.829C177.898 155.256 177.525 155.649 177.091 155.971C176.667 156.297 176.177 156.566 175.648 156.668C176.079 156.354 176.449 156.006 176.8 155.642C177.145 155.272 177.477 154.892 177.778 154.487C177.892 154.342 178 154.193 178.104 154.038C177.946 153.971 177.797 153.889 177.655 153.8C176.8 153.269 176.186 152.443 175.81 151.569C175.424 150.696 175.237 149.781 175.072 148.883C175.417 149.734 175.743 150.595 176.189 151.38C176.629 152.168 177.215 152.857 177.952 153.316C178.101 153.408 178.259 153.49 178.42 153.56C178.576 153.626 178.737 153.677 178.895 153.712C179.025 153.74 179.152 153.762 179.281 153.769C179.724 153.8 180.177 153.649 180.525 153.364C180.734 153.193 180.908 152.978 181.028 152.737C181.11 152.573 181.167 152.402 181.199 152.224C181.202 152.199 181.208 152.174 181.212 152.145C181.243 151.949 181.231 151.75 181.193 151.557L181.155 151.389L181.101 151.196C181.069 151.066 181.034 150.933 181.006 150.804C180.943 150.5 180.902 150.196 180.876 149.889C180.851 149.626 180.841 149.361 180.851 149.095C180.851 149.028 180.851 148.962 180.854 148.895C180.857 148.772 180.864 148.648 180.876 148.525C180.898 148.218 180.939 147.911 180.99 147.611C181.152 146.661 180.949 145.642 180.392 144.86C180.205 144.585 179.974 144.348 179.708 144.155C179.553 144.038 179.386 143.933 179.215 143.841C178.832 143.642 178.405 143.512 177.974 143.446C177.015 143.31 176.012 143.525 175.215 144.079C174.405 144.62 173.8 145.449 173.398 146.357C172.996 147.266 172.813 148.275 172.731 149.281C172.591 151.098 172.791 152.933 173.452 154.645C172.832 153.699 172.43 152.588 172.246 151.43L170.287 151.516C169.379 155.87 172.715 161.202 174.917 162.497L176.55 160.851C175.981 160.32 175.541 159.661 175.253 158.962C175.781 159.744 176.446 160.396 177.221 160.867C177.99 161.345 178.857 161.633 179.743 161.807C180.974 162.032 182.265 161.975 183.493 161.674C183.803 161.595 184.11 161.506 184.414 161.399C183.784 161.269 183.234 161.06 182.784 160.772L182.794 160.766Z" fill="#6FDDEF"/>
<path d="M172.291 151.25L169.936 151.465C169.655 153.405 169.958 155.31 170.519 156.636C171.455 158.848 173.538 161.757 173.538 161.757C171.288 156.665 171.133 153.301 171.386 153.003C171.591 152.76 172.493 152.367 172.493 152.367L172.291 151.25Z" fill="#59B1BF"/>
<path d="M182.475 160.752C181.563 160.22 180.918 159.344 180.918 158.261C180.918 157.372 181.342 156.559 182.054 156.027C181.348 155.252 181.171 154.081 181.582 153.122C181.569 153.119 181.557 153.116 181.547 153.112C180.883 154.014 179.335 154.166 179.335 154.166C178.899 155.23 177.487 156.533 175.69 156.66C175.69 156.66 177.25 155.23 177.819 154.476C176.012 153.325 175.114 148.872 175.114 148.872C175.114 148.872 177.006 153.575 179.908 152.483C180.661 152.201 180.554 151.359 180.38 150.676C180.12 149.654 180.082 148.584 180.206 147.54C180.269 146.995 180.38 146.479 180.297 145.929C180.221 145.416 180.022 144.922 179.706 144.511C179.092 143.707 178.012 143.328 177.025 143.384C174.917 143.508 173.674 145.479 173.275 147.362C172.819 149.505 172.971 151.856 173.766 153.9L175.512 158.113C177.047 160.378 179.864 161.17 182.481 160.752H182.475Z" fill="#6FDDEF"/>
<path d="M189.193 159.048C189.234 158.115 188.516 157.488 187.528 157.137C187.497 157.143 187.465 157.149 187.433 157.156C186.009 157.39 184.781 157.327 183.864 157.004C183.022 157.232 182.247 157.719 182.202 158.741C182.174 159.368 182.478 159.89 183.101 160.292C183.677 160.665 184.509 160.896 185.446 160.956C185.497 160.963 185.554 160.966 185.601 160.966C185.93 160.982 186.262 160.972 186.582 160.938C187.956 160.798 189.136 160.21 189.19 159.048H189.193Z" fill="#59B1BF"/>
<path d="M182.579 158.688C182.443 158.365 182.481 157.948 182.668 157.65C182.886 157.305 183.408 156.963 183.807 157.071C184.323 157.21 184.861 157.27 185.395 157.283C185.664 157.289 185.937 157.283 186.206 157.264C186.525 157.242 186.87 157.144 187.19 157.153C187.683 157.166 188.307 157.723 188.414 158.198C188.513 158.615 188.345 159.014 188.022 159.283C187.462 159.751 186.626 159.878 185.918 159.906C184.905 159.944 183.05 159.796 182.579 158.688Z" fill="#6FDDEF"/>
<path d="M185.579 161.536C188.009 161.641 189.687 160.653 189.756 159.077C189.769 158.748 189.715 158.441 189.595 158.156C189.389 157.669 188.997 157.254 188.449 156.938C189.345 156.701 190.104 156.359 190.687 155.925C191.579 155.258 191.975 154.438 191.826 153.542C191.68 152.65 191.044 151.995 189.984 151.65C189.569 151.514 189.098 151.432 188.588 151.4C190.228 150.223 190.908 148.802 190.357 147.504C189.807 146.207 188.231 145.675 186.168 146.093C186.348 145.849 186.506 145.602 186.633 145.352C187.145 144.343 187.13 143.371 186.585 142.545C186.044 141.716 185.158 141.314 184.031 141.378C183.443 141.409 182.813 141.571 182.161 141.846C181.696 142.042 181.224 142.295 180.753 142.605C180.341 142.874 179.978 143.15 179.652 143.438C179.642 143.435 179.636 143.428 179.626 143.425C179.142 143.147 178.607 142.969 178.063 142.893C176.971 142.732 175.813 142.982 174.902 143.615C173.981 144.232 173.322 145.15 172.889 146.134C172.449 147.124 172.262 148.191 172.174 149.242C172.129 149.783 172.136 150.327 172.186 150.868L169.841 150.969L169.791 151.175C169.515 152.318 169.534 153.568 169.765 154.824C169.946 155.808 170.256 156.792 170.651 157.723C171.094 158.767 171.645 159.745 172.24 160.587C173.076 161.77 174.006 162.679 174.854 163.103L175.038 163.191L176.996 161.216C177.769 161.811 178.702 162.182 179.655 162.365C180.981 162.603 182.348 162.539 183.642 162.22C184.304 162.058 184.949 161.834 185.566 161.536C185.573 161.536 185.576 161.536 185.585 161.536H185.579ZM186.535 152.53C186.946 152.356 187.332 152.169 187.687 151.97C188.494 151.925 189.225 152.001 189.81 152.191C190.503 152.416 190.956 152.776 191.161 153.264C191.212 153.381 191.247 153.501 191.269 153.634C191.383 154.314 191.069 154.932 190.348 155.466C189.687 155.96 188.715 156.34 187.585 156.552C187.503 156.568 187.424 156.583 187.342 156.593C186.107 156.796 184.829 156.767 183.921 156.406C183.253 156.147 182.781 155.701 182.671 155.042C182.557 154.346 182.864 153.77 183.414 153.318C184.329 153.273 185.389 153.011 186.535 152.526V152.53ZM189.835 147.726C190.399 149.055 189.202 150.425 187.528 151.403C187.145 151.628 186.734 151.83 186.313 152.007C185.272 152.447 184.155 152.735 183.193 152.754C182.639 152.761 182.136 152.682 181.721 152.492C181.737 152.435 181.747 152.381 181.756 152.324C181.816 152.036 181.804 151.735 181.75 151.447L181.699 151.232L181.645 151.052C181.617 150.932 181.585 150.811 181.56 150.688C181.455 150.178 181.408 149.656 181.414 149.134C181.414 149.099 181.414 149.064 181.414 149.03C181.455 149.023 181.493 149.017 181.535 149.004C182.373 148.843 183.281 148.45 184.19 147.859C184.677 147.542 185.104 147.2 185.474 146.843C187.38 146.286 189.253 146.362 189.829 147.719L189.835 147.726ZM184.063 141.941C184.702 141.903 185.573 142.033 186.111 142.852C186.649 143.672 186.414 144.523 186.126 145.093C185.914 145.514 185.592 145.935 185.183 146.34C184.816 146.716 184.376 147.068 183.883 147.39C183.054 147.931 182.212 148.295 181.452 148.45C181.455 148.397 181.462 148.343 181.471 148.286C181.487 148.093 181.516 147.897 181.55 147.707C181.737 146.618 181.509 145.45 180.857 144.536C180.655 144.248 180.408 143.988 180.136 143.767C180.5 143.457 180.838 143.219 181.06 143.077C182.098 142.397 183.164 141.995 184.063 141.944V141.941ZM183.503 161.669C182.278 161.97 180.987 162.027 179.753 161.802C178.867 161.631 178 161.34 177.231 160.862C176.455 160.394 175.791 159.739 175.262 158.957C175.55 159.656 175.99 160.315 176.56 160.846L174.927 162.492C172.724 161.197 169.389 155.865 170.297 151.511L172.256 151.425C172.439 152.583 172.841 153.694 173.462 154.64C172.797 152.928 172.598 151.093 172.74 149.276C172.822 148.267 173.003 147.261 173.408 146.352C173.807 145.447 174.414 144.615 175.224 144.074C176.022 143.52 177.025 143.305 177.984 143.441C178.414 143.507 178.838 143.637 179.224 143.836C179.395 143.928 179.563 144.033 179.718 144.15C179.984 144.346 180.212 144.583 180.402 144.855C180.959 145.64 181.161 146.656 181 147.606C180.949 147.909 180.908 148.213 180.886 148.52C180.873 148.644 180.87 148.767 180.864 148.89C180.864 148.957 180.857 149.023 180.86 149.09C180.851 149.356 180.86 149.621 180.886 149.884C180.908 150.191 180.949 150.495 181.016 150.799C181.044 150.932 181.079 151.061 181.11 151.191L181.164 151.384L181.202 151.552C181.237 151.745 181.25 151.944 181.221 152.14C181.218 152.169 181.212 152.194 181.209 152.22C181.177 152.397 181.12 152.568 181.038 152.732C180.917 152.973 180.743 153.188 180.535 153.359C180.186 153.644 179.734 153.795 179.291 153.764C179.161 153.758 179.034 153.735 178.905 153.707C178.747 153.672 178.585 153.621 178.43 153.555C178.269 153.485 178.11 153.403 177.962 153.311C177.224 152.852 176.639 152.159 176.199 151.375C175.753 150.59 175.427 149.729 175.082 148.878C175.246 149.776 175.433 150.691 175.819 151.564C176.196 152.435 176.81 153.264 177.664 153.795C177.81 153.887 177.959 153.966 178.114 154.033C178.009 154.188 177.898 154.337 177.788 154.482C177.487 154.887 177.155 155.267 176.81 155.637C176.459 156.001 176.088 156.349 175.658 156.663C176.186 156.561 176.674 156.289 177.101 155.966C177.534 155.644 177.908 155.248 178.24 154.824C178.379 154.631 178.512 154.435 178.633 154.226C178.832 154.283 179.041 154.314 179.25 154.33C179.838 154.375 180.44 154.172 180.892 153.799C181.155 153.583 181.373 153.318 181.528 153.017C181.848 153.163 182.215 153.258 182.623 153.295C182.186 153.827 182.009 154.447 182.12 155.131C182.148 155.308 182.196 155.476 182.262 155.631C182.44 156.046 182.743 156.39 183.158 156.653C182.231 157.068 181.683 157.78 181.645 158.707C181.629 159.039 181.683 159.353 181.807 159.644C181.99 160.08 182.326 160.457 182.804 160.761C183.253 161.046 183.804 161.258 184.433 161.387C184.13 161.498 183.823 161.587 183.512 161.663L183.503 161.669ZM186.585 160.938C186.266 160.97 185.933 160.982 185.604 160.966C185.554 160.966 185.5 160.96 185.449 160.957C184.512 160.897 183.68 160.666 183.104 160.292C182.478 159.891 182.177 159.368 182.205 158.742C182.25 157.72 183.022 157.232 183.867 157.004C184.781 157.327 186.009 157.39 187.437 157.156C187.468 157.15 187.5 157.144 187.531 157.137C188.519 157.489 189.237 158.115 189.196 159.049C189.145 160.21 187.965 160.799 186.588 160.938H186.585Z" fill="#0A1B33"/>
<path d="M175.034 163.505C174.987 163.505 174.939 163.496 174.895 163.473L174.712 163.385C173.829 162.942 172.86 162.011 171.981 160.768C171.354 159.882 170.794 158.872 170.36 157.847C169.939 156.85 169.636 155.853 169.455 154.882C169.202 153.502 169.212 152.23 169.484 151.1L169.531 150.894C169.563 150.755 169.683 150.657 169.825 150.65L171.845 150.562C171.816 150.103 171.822 149.65 171.857 149.211C171.965 147.919 172.199 146.9 172.598 146.002C173.104 144.862 173.838 143.945 174.724 143.35C175.683 142.682 176.917 142.4 178.107 142.578C178.642 142.653 179.145 142.812 179.607 143.052C179.898 142.809 180.224 142.568 180.576 142.34C181.057 142.024 181.547 141.761 182.035 141.555C182.728 141.261 183.392 141.096 184.009 141.062C185.259 140.992 186.24 141.445 186.848 142.375C187.456 143.299 187.478 144.381 186.914 145.498C186.886 145.555 186.854 145.616 186.823 145.672C188.718 145.464 190.092 146.071 190.649 147.385C191.18 148.638 190.718 149.995 189.38 151.179C189.63 151.223 189.864 151.28 190.082 151.353C191.259 151.736 191.971 152.476 192.139 153.495C192.307 154.511 191.87 155.442 190.876 156.182C190.405 156.53 189.829 156.825 189.158 157.056C189.484 157.34 189.734 157.67 189.886 158.033C190.025 158.359 190.085 158.714 190.073 159.09C189.994 160.844 188.212 161.948 185.626 161.856C185.044 162.135 184.395 162.363 183.712 162.53C182.351 162.866 180.927 162.92 179.591 162.679C178.626 162.492 177.747 162.135 177.022 161.635L175.256 163.416C175.196 163.477 175.114 163.511 175.031 163.511L175.034 163.505ZM170.563 151.818C169.879 155.831 172.829 160.682 174.883 162.09L176.114 160.85C175.636 160.347 175.243 159.742 174.971 159.081C174.908 158.932 174.971 158.758 175.114 158.682C175.256 158.606 175.433 158.651 175.525 158.783C176.041 159.546 176.671 160.154 177.395 160.594C178.066 161.008 178.876 161.312 179.816 161.492C180.936 161.695 182.145 161.66 183.313 161.388C183.063 161.287 182.835 161.166 182.623 161.033C182.092 160.698 181.715 160.274 181.506 159.774C181.367 159.445 181.304 159.081 181.319 158.701C181.357 157.828 181.797 157.1 182.569 156.613C182.304 156.369 182.098 156.081 181.962 155.761C181.886 155.584 181.832 155.391 181.797 155.192C181.702 154.606 181.797 154.043 182.073 153.54C181.927 153.508 181.788 153.467 181.655 153.419C181.5 153.657 181.307 153.872 181.085 154.052C180.566 154.483 179.886 154.704 179.221 154.654C179.069 154.644 178.924 154.625 178.778 154.597C178.696 154.73 178.601 154.869 178.49 155.021C178.098 155.524 177.705 155.916 177.284 156.233C176.759 156.635 176.231 156.888 175.712 156.989C175.566 157.018 175.421 156.942 175.36 156.806C175.3 156.67 175.345 156.511 175.465 156.423C175.829 156.157 176.18 155.84 176.576 155.432C176.971 155.008 177.275 154.65 177.528 154.309C177.566 154.261 177.601 154.214 177.636 154.163C177.588 154.135 177.538 154.106 177.49 154.075C176.427 153.413 175.832 152.419 175.522 151.701C175.12 150.786 174.927 149.837 174.762 148.945C174.734 148.786 174.829 148.628 174.984 148.584C175.139 148.54 175.303 148.619 175.367 148.767L175.503 149.103C175.791 149.821 176.088 150.562 176.465 151.223C176.917 152.033 177.474 152.647 178.12 153.049C178.259 153.135 178.402 153.211 178.544 153.271C178.674 153.328 178.813 153.372 178.965 153.407C179.101 153.435 179.205 153.451 179.297 153.457C179.661 153.483 180.031 153.362 180.322 153.125C180.5 152.98 180.645 152.799 180.74 152.603C180.81 152.467 180.857 152.324 180.883 152.173C180.886 152.15 180.889 152.131 180.892 152.112C180.917 151.961 180.911 151.796 180.876 151.619L180.791 151.287C180.753 151.141 180.721 151.008 180.693 150.875C180.626 150.565 180.582 150.242 180.557 149.916C180.531 149.631 180.522 149.353 180.531 149.087C180.531 149.033 180.531 148.961 180.535 148.888C180.541 148.758 180.544 148.628 180.557 148.498C180.576 148.22 180.617 147.913 180.674 147.562C180.826 146.663 180.626 145.748 180.129 145.046C179.959 144.799 179.753 144.587 179.516 144.41C179.373 144.302 179.221 144.207 179.063 144.122C178.724 143.948 178.329 143.821 177.924 143.761C177.028 143.634 176.107 143.843 175.392 144.34C174.686 144.812 174.098 145.552 173.686 146.486C173.348 147.248 173.139 148.173 173.044 149.309C172.898 151.195 173.136 152.954 173.746 154.53C173.807 154.682 173.74 154.853 173.598 154.926C173.455 154.999 173.278 154.954 173.189 154.818C172.61 153.935 172.196 152.885 171.984 151.758L170.553 151.818H170.563ZM184.664 161.182C184.709 161.233 184.74 161.299 184.743 161.369C184.75 161.439 184.731 161.508 184.693 161.562C184.933 161.47 185.164 161.372 185.389 161.265C185.139 161.249 184.899 161.217 184.664 161.179V161.182ZM183.857 157.334C182.987 157.59 182.55 158.056 182.522 158.752C182.5 159.268 182.747 159.682 183.275 160.024C183.804 160.366 184.582 160.584 185.471 160.638C185.525 160.644 185.573 160.647 185.617 160.647C185.927 160.663 186.243 160.654 186.557 160.622C187.237 160.552 188.826 160.258 188.88 159.033C188.918 158.185 188.171 157.714 187.503 157.464C186.079 157.698 184.826 157.654 183.857 157.334ZM187.687 156.856C187.857 156.92 188.016 156.986 188.161 157.062C188.139 157.011 188.13 156.954 188.139 156.894C188.145 156.837 188.168 156.787 188.202 156.742C188.035 156.783 187.864 156.821 187.69 156.853L187.687 156.856ZM183.446 156.537C183.465 156.581 183.474 156.632 183.468 156.682C183.465 156.726 183.452 156.771 183.43 156.809C183.541 156.768 183.658 156.733 183.781 156.698C183.781 156.698 183.785 156.698 183.788 156.698C183.667 156.651 183.554 156.597 183.446 156.54V156.537ZM183.541 153.628C183.085 154.033 182.902 154.48 182.984 154.992C183.069 155.495 183.424 155.872 184.038 156.113C184.835 156.429 186.022 156.489 187.291 156.283C187.373 156.271 187.452 156.258 187.528 156.242C188.607 156.04 189.544 155.673 190.161 155.214C190.791 154.745 191.051 154.245 190.959 153.685C190.943 153.581 190.914 153.483 190.873 153.388C190.702 152.986 190.313 152.685 189.715 152.492C189.18 152.321 188.512 152.249 187.778 152.28C187.443 152.467 187.066 152.647 186.661 152.818C185.538 153.293 184.49 153.565 183.541 153.628ZM178.389 153.888C178.398 153.907 178.408 153.929 178.414 153.951C178.417 153.964 178.421 153.976 178.424 153.992C178.452 153.967 178.484 153.951 178.519 153.938C178.474 153.923 178.433 153.907 178.392 153.891L178.389 153.888ZM182.826 153.062C182.861 153.094 182.889 153.131 182.908 153.179C182.93 153.23 182.936 153.287 182.93 153.34C183.016 153.249 183.111 153.16 183.215 153.075C183.215 153.075 183.218 153.075 183.221 153.071C183.196 153.071 183.167 153.071 183.142 153.071C183.035 153.071 182.927 153.068 182.826 153.062ZM181.43 152.606C181.414 152.65 181.398 152.695 181.379 152.739C181.414 152.72 181.452 152.711 181.493 152.704C181.465 152.676 181.446 152.641 181.43 152.603V152.606ZM182.088 152.293C182.398 152.394 182.769 152.442 183.193 152.438C184.069 152.423 185.136 152.166 186.193 151.717C186.604 151.543 187 151.343 187.373 151.128C188.044 150.736 190.18 149.343 189.547 147.847C188.918 146.362 186.493 146.894 185.645 147.131C185.269 147.489 184.842 147.824 184.37 148.128C183.468 148.717 182.585 149.109 181.737 149.293C181.74 149.752 181.788 150.201 181.876 150.628C181.892 150.707 181.911 150.783 181.93 150.859L182.063 151.378C182.126 151.714 182.133 152.018 182.088 152.293ZM188.294 151.293C188.12 151.413 187.937 151.53 187.74 151.647C187.962 151.638 188.18 151.635 188.392 151.644C188.345 151.603 188.307 151.549 188.288 151.486C188.269 151.423 188.272 151.353 188.294 151.293ZM172.36 151.125C172.376 151.131 172.392 151.138 172.408 151.144C172.408 151.125 172.408 151.109 172.408 151.09C172.395 151.103 172.379 151.112 172.364 151.125H172.36ZM181.193 148.619C181.186 148.692 181.183 148.761 181.18 148.831C181.218 148.786 181.266 148.752 181.323 148.733C181.297 148.72 181.272 148.704 181.253 148.685C181.231 148.666 181.209 148.641 181.193 148.616V148.619ZM180.629 143.774C180.813 143.954 180.981 144.147 181.123 144.353C181.8 145.309 182.073 146.549 181.867 147.758C181.851 147.856 181.835 147.945 181.826 148.03C182.433 147.85 183.079 147.54 183.718 147.125C184.202 146.809 184.62 146.47 184.965 146.119C185.361 145.729 185.658 145.337 185.854 144.951C186.218 144.229 186.218 143.581 185.854 143.027C185.399 142.331 184.642 142.223 184.092 142.258C183.247 142.309 182.234 142.691 181.243 143.34C181.117 143.422 180.895 143.571 180.633 143.777L180.629 143.774ZM185.854 146.078C185.731 146.229 185.592 146.381 185.443 146.53C185.645 146.473 185.845 146.423 186.041 146.378C185.984 146.353 185.937 146.312 185.902 146.258C185.867 146.204 185.851 146.141 185.851 146.078H185.854ZM179.686 143.745C179.737 143.78 179.788 143.812 179.838 143.85C179.832 143.824 179.826 143.796 179.826 143.767C179.826 143.742 179.826 143.717 179.835 143.691C179.791 143.723 179.74 143.739 179.686 143.745Z" fill="#0A1B33"/>
<path d="M170.946 157.889L170.123 155.437C170.123 155.437 160.29 159.389 157.996 159.288C155.572 159.18 147.727 152.664 146.819 151.959C145.23 150.724 143.464 149.857 141.891 151.75C140.626 153.275 141.306 155.104 142.986 156.411C143.99 157.19 151.73 163.975 156.48 165.18C161.851 166.541 172.224 160.06 172.224 160.06L170.943 157.889H170.946Z" fill="#0A1B33"/>
<path d="M42.3962 212.272C42.3962 212.272 89.4919 117.878 112.353 55.5547L170.474 209.953L42.3931 212.272H42.3962Z" fill="#FF0090"/>
<mask id="mask0_1348_13465" style="mask-type:luminance" maskUnits="userSpaceOnUse" x="42" y="55" width="129" height="158">
<path d="M42.3962 212.272C42.3962 212.272 89.4919 117.878 112.353 55.5547L170.474 209.953L42.3931 212.272H42.3962Z" fill="white"/>
</mask>
<g mask="url(#mask0_1348_13465)">
<path d="M64.5137 195.589C78.3507 195.589 89.5679 184.372 89.5679 170.535C89.5679 156.698 78.3507 145.48 64.5137 145.48C50.6766 145.48 39.4595 156.698 39.4595 170.535C39.4595 184.372 50.6766 195.589 64.5137 195.589Z" fill="#CC0073"/>
<path d="M147.901 183.627C164.713 183.627 178.341 169.998 178.341 153.186C178.341 136.375 164.713 122.746 147.901 122.746C131.089 122.746 117.461 136.375 117.461 153.186C117.461 169.998 131.089 183.627 147.901 183.627Z" fill="#CC0073"/>
<path d="M85.4474 117.111C102.259 117.111 115.888 103.483 115.888 86.6708C115.888 69.8591 102.259 56.2305 85.4474 56.2305C68.6357 56.2305 55.0071 69.8591 55.0071 86.6708C55.0071 103.483 68.6357 117.111 85.4474 117.111Z" fill="#CC0073"/>
<path d="M118.787 201.026C123.635 201.026 127.565 197.096 127.565 192.247C127.565 187.399 123.635 183.469 118.787 183.469C113.938 183.469 110.008 187.399 110.008 192.247C110.008 197.096 113.938 201.026 118.787 201.026Z" fill="#CC0073"/>
<path d="M120.923 111.508C123.219 111.508 125.081 109.646 125.081 107.35C125.081 105.053 123.219 103.191 120.923 103.191C118.626 103.191 116.764 105.053 116.764 107.35C116.764 109.646 118.626 111.508 120.923 111.508Z" fill="#CC0073"/>
</g>
<path d="M42.3964 213.062C42.1242 213.062 41.871 212.922 41.7286 212.691C41.5799 212.457 41.5672 212.163 41.6906 211.916C42.1622 210.973 89.0268 116.848 111.613 55.2807C111.727 54.9706 112.021 54.7649 112.353 54.7617H112.356C112.685 54.7617 112.98 54.9643 113.097 55.2744L171.218 209.672C171.31 209.913 171.278 210.182 171.133 210.394C170.987 210.606 170.75 210.736 170.493 210.742L42.4122 213.062C42.4122 213.062 42.4027 213.062 42.3964 213.062ZM112.363 57.8187C90.8781 115.715 49.099 200.53 43.6843 211.457L169.341 209.182L112.363 57.8187Z" fill="#0A1B33"/>
<path d="M61.0452 190.391C60.8363 190.391 60.6275 190.35 60.4249 190.265C59.6211 189.92 59.2477 188.993 59.5926 188.189L66.5295 171.976C66.8744 171.173 67.8016 170.799 68.6054 171.144C69.4093 171.489 69.7827 172.416 69.4377 173.22L62.5009 189.432C62.2446 190.034 61.6591 190.391 61.0452 190.391Z" fill="white"/>
<path d="M101.59 96.36C101.381 96.36 101.172 96.3189 100.97 96.2335C100.166 95.8885 99.7926 94.9613 100.138 94.1575L107.074 77.9452C107.419 77.1414 108.347 76.768 109.15 77.1129C109.954 77.4578 110.328 78.3851 109.983 79.1889L103.046 95.4012C102.79 96.0024 102.204 96.36 101.59 96.36Z" fill="white"/>
<path d="M58.023 197.602C57.8141 197.602 57.6053 197.561 57.4027 197.476C56.5989 197.131 56.2255 196.203 56.5704 195.4L57.6812 192.805C58.0261 192.001 58.9534 191.627 59.7572 191.972C60.561 192.317 60.9344 193.244 60.5895 194.048L59.4787 196.643C59.2224 197.245 58.6369 197.602 58.023 197.602Z" fill="white"/>
<path d="M107.631 183.919C107.03 183.833 106.505 183.669 106.062 183.485C104.6 182.878 103.764 181.931 103.73 181.89C103.546 181.678 103.568 181.359 103.78 181.175C103.992 180.992 104.312 181.014 104.492 181.226C104.609 181.359 107.394 184.444 111.733 182.099C111.98 181.966 112.287 182.058 112.42 182.305C112.552 182.552 112.461 182.859 112.214 182.992C110.435 183.95 108.872 184.096 107.628 183.916L107.631 183.919Z" fill="#0A1B33"/>
<path d="M136.116 164.079C135.939 164.054 135.784 163.937 135.714 163.76C134.711 161.13 132.281 159.067 129.521 158.503C129.246 158.446 129.072 158.181 129.125 157.905C129.182 157.63 129.442 157.456 129.724 157.51C132.812 158.143 135.534 160.453 136.66 163.399C136.758 163.662 136.629 163.953 136.369 164.054C136.287 164.086 136.198 164.095 136.116 164.083V164.079Z" fill="#0A1B33"/>
<path d="M134.081 168.868C133.752 171.16 132.293 173.036 130.271 174.131C130.088 174.22 129.904 174.315 129.72 174.403C129.711 174.403 129.711 174.403 129.708 174.41C128.113 175.191 126.562 175.846 125.053 176.4C122.477 177.334 120.03 177.957 117.704 178.321C114.394 178.843 111.34 178.843 108.556 178.492C105.66 178.125 103.062 177.378 100.767 176.438C94.4003 173.837 90.4065 169.774 89.109 168.318C87.2799 166.584 86.3463 164.134 86.8685 161.625C87.2039 160.014 88.1248 158.618 89.4065 157.59C91.0268 156.289 93.2294 155.577 95.5617 155.764C95.7705 155.783 95.9762 155.802 96.1788 155.833C97.4541 156.017 98.625 156.447 99.6408 157.064C100.41 157.533 101.087 158.099 101.654 158.751C102.002 159.153 102.369 159.533 102.761 159.89C103.4 160.479 104.109 160.995 104.891 161.425C106.499 162.308 108.454 163.052 110.742 163.346C112.926 163.625 115.416 163.489 118.182 162.653C118.584 162.536 118.973 162.391 119.353 162.226C119.904 161.989 120.423 161.71 120.926 161.403C121.667 160.957 122.489 160.618 123.369 160.409C124.461 160.144 125.635 160.08 126.837 160.254C129.398 160.625 131.537 161.989 132.831 163.834C133.857 165.296 134.344 167.055 134.081 168.868Z" fill="#0A1B33"/>
<path d="M107.967 179.026C105.429 178.659 102.935 177.982 100.54 177.004C94.166 174.4 90.128 170.374 88.6723 168.745C86.6311 166.802 85.7355 164.096 86.2735 161.504C86.6248 159.817 87.6026 158.26 89.0267 157.118C90.8115 155.684 93.2135 154.969 95.6091 155.159C95.8338 155.178 96.0521 155.2 96.2642 155.232C97.5933 155.425 98.8338 155.865 99.9541 156.545C100.777 157.045 101.505 157.653 102.109 158.352C102.457 158.757 102.802 159.112 103.166 159.438C103.786 160.007 104.464 160.495 105.182 160.893C106.961 161.868 108.862 162.498 110.815 162.741C113.132 163.036 115.549 162.811 118.002 162.071C118.366 161.963 118.736 161.827 119.106 161.665C119.581 161.463 120.071 161.207 120.606 160.881C121.416 160.393 122.296 160.036 123.227 159.814C124.423 159.523 125.667 159.469 126.923 159.65C129.549 160.029 131.885 161.425 133.328 163.482C134.474 165.118 134.958 167.061 134.682 168.954C134.338 171.349 132.834 173.431 130.562 174.666C130.445 174.723 130.356 174.767 130.271 174.811C130.176 174.859 130.081 174.906 129.983 174.954H129.977C128.426 175.716 126.841 176.394 125.265 176.973C122.755 177.884 120.242 178.539 117.802 178.922C114.644 179.419 111.508 179.479 108.483 179.096C108.312 179.074 108.141 179.052 107.97 179.026H107.967ZM96.0901 156.434C95.9002 156.406 95.7072 156.387 95.5078 156.371C93.4192 156.206 91.3337 156.824 89.7862 158.067C88.5615 159.048 87.7609 160.32 87.4634 161.751C87.0014 163.966 87.7545 166.2 89.5267 167.878L89.5615 167.916C90.9476 169.473 94.8338 173.362 100.995 175.878C103.454 176.881 106.024 177.558 108.631 177.89C111.543 178.257 114.562 178.204 117.609 177.723C119.973 177.352 122.407 176.716 124.844 175.83C126.35 175.28 127.863 174.634 129.344 173.912L129.489 173.764L129.616 173.78C129.651 173.761 129.686 173.745 129.72 173.726C129.815 173.678 129.91 173.631 130.008 173.583C131.913 172.549 133.186 170.795 133.477 168.783C133.705 167.197 133.296 165.564 132.331 164.181C131.081 162.4 129.046 161.188 126.749 160.855C125.648 160.697 124.559 160.745 123.508 160.998C122.698 161.191 121.935 161.501 121.236 161.922C120.651 162.276 120.113 162.558 119.59 162.783C119.179 162.963 118.761 163.115 118.35 163.235C115.736 164.023 113.147 164.264 110.663 163.947C108.546 163.675 106.508 163.007 104.597 161.957C103.79 161.51 103.036 160.966 102.35 160.336C101.954 159.979 101.574 159.589 101.191 159.146C100.669 158.545 100.04 158.017 99.3243 157.583C98.3465 156.988 97.2579 156.602 96.0901 156.434Z" fill="#0A1B33"/>
<path d="M99.6376 157.063L99.5364 156.93C99.5364 156.93 99.5712 156.977 99.6376 157.063Z" fill="#0A1B33"/>
<path d="M99.1535 157.434L99.0491 157.291L100.024 156.566L100.125 156.699L99.1535 157.434Z" fill="#0A1B33"/>
<path d="M132.831 163.835C128.993 166.259 125.404 167.908 122.056 168.952C117.486 170.379 113.378 170.677 109.742 170.259C105.014 169.715 101.087 167.971 97.9794 165.936C92.8432 162.572 89.9476 158.414 89.4033 157.598C91.0236 156.297 93.2293 155.585 95.5585 155.772C95.7673 155.787 95.973 155.81 96.1756 155.838C97.4478 156.022 98.6187 156.452 99.6345 157.069C100.403 157.537 101.084 158.107 101.647 158.756C101.995 159.158 102.362 159.538 102.758 159.895C103.4 160.481 104.106 160.996 104.888 161.427C106.495 162.313 108.454 163.057 110.739 163.348C112.926 163.626 115.413 163.49 118.179 162.658C118.581 162.538 118.973 162.392 119.35 162.227C119.897 161.99 120.42 161.712 120.92 161.408C121.663 160.962 122.486 160.623 123.366 160.411C124.455 160.148 125.632 160.085 126.834 160.259C129.394 160.629 131.537 161.99 132.828 163.838L132.831 163.835Z" fill="white"/>
<path d="M108.904 170.761C104.935 170.189 101.154 168.739 97.6472 166.442C92.4193 163.018 89.4414 158.749 88.8971 157.929L88.5901 157.467L89.0236 157.119C90.8116 155.682 93.2136 154.967 95.6092 155.16C97.1725 155.277 98.6472 155.755 99.9542 156.546C100.783 157.052 101.508 157.66 102.109 158.356C102.454 158.752 102.809 159.119 103.166 159.442C103.796 160.014 104.473 160.502 105.179 160.894C106.957 161.872 108.856 162.499 110.815 162.742C113.128 163.037 115.546 162.812 118.005 162.075C118.382 161.961 118.752 161.825 119.11 161.67C119.603 161.454 120.091 161.201 120.606 160.888C121.41 160.404 122.29 160.046 123.227 159.818C124.426 159.53 125.67 159.473 126.926 159.654C129.559 160.033 131.891 161.429 133.331 163.486L133.695 164.008L133.157 164.35C129.464 166.682 125.793 168.426 122.239 169.534C117.929 170.879 113.704 171.328 109.676 170.866C109.42 170.837 109.16 170.803 108.904 170.765V170.761ZM90.2388 157.733C91.223 159.109 93.9478 162.568 98.3118 165.426C101.881 167.765 105.749 169.185 109.812 169.654C113.67 170.097 117.727 169.666 121.872 168.369C125.144 167.35 128.527 165.771 131.939 163.673C130.679 162.17 128.822 161.157 126.749 160.856C125.648 160.698 124.556 160.745 123.508 160.999C122.695 161.195 121.929 161.508 121.233 161.926C120.673 162.268 120.135 162.546 119.591 162.783C119.192 162.958 118.774 163.109 118.353 163.236C115.73 164.024 113.144 164.264 110.66 163.948C108.552 163.679 106.508 163.011 104.59 161.957C103.799 161.521 103.043 160.976 102.347 160.34C101.954 159.986 101.565 159.587 101.188 159.15C100.669 158.549 100.04 158.024 99.3181 157.584C98.1788 156.891 96.9035 156.476 95.5111 156.372C93.6155 156.22 91.7262 156.714 90.2357 157.73L90.2388 157.733Z" fill="#0A1B33"/>
<path d="M110.146 163.271L107.961 178.418L109.163 178.592L111.349 163.444L110.146 163.271Z" fill="#0A1B33"/>
<path d="M119.921 161.984L118.794 162.438L124.496 176.616L125.624 176.162L119.921 161.984Z" fill="#0A1B33"/>
<path d="M102.323 159.464L92.8477 171.453L93.8011 172.207L103.277 160.217L102.323 159.464Z" fill="#0A1B33"/>
<path d="M117.707 178.326C114.397 178.848 111.343 178.848 108.559 178.497C105.663 178.13 103.065 177.383 100.771 176.443C100.824 176.364 100.875 176.291 100.926 176.212C101.846 174.877 103.138 173.782 104.631 173.133C107.698 171.794 111.435 172.291 114.176 174.203C115.679 175.25 116.878 176.693 117.707 178.326Z" fill="#DD2F51"/>
<path d="M107.967 179.029C105.429 178.662 102.935 177.985 100.54 177.007L99.8496 176.725L100.419 175.874C101.422 174.422 102.831 173.251 104.391 172.573C107.571 171.187 111.549 171.627 114.524 173.7C116.065 174.773 117.353 176.276 118.252 178.048L118.628 178.792L117.802 178.922C114.644 179.419 111.508 179.479 108.483 179.096C108.312 179.074 108.141 179.051 107.97 179.026L107.967 179.029ZM101.714 176.162C103.954 177.01 106.277 177.593 108.635 177.893C111.271 178.229 113.995 178.213 116.749 177.849C115.98 176.583 114.983 175.504 113.828 174.7C111.192 172.865 107.676 172.466 104.875 173.691C103.663 174.216 102.559 175.086 101.714 176.165V176.162Z" fill="#0A1B33"/>
<path d="M95.606 204.387L94.5617 216.703L94.3085 219.691L93.3465 231.017C93.1756 233.03 91.5237 234.564 89.5553 234.637C89.3939 234.64 89.2357 234.637 89.0711 234.625C86.8938 234.438 85.2799 232.526 85.4634 230.349L86.2957 220.545L86.628 216.618L87.6439 204.675C90.2325 204.558 92.8876 204.46 95.606 204.387Z" fill="#0A1B33"/>
<path d="M89.4414 235.429C89.2863 235.429 89.147 235.423 89.011 235.413C86.397 235.189 84.4571 232.888 84.6755 230.284L86.916 203.916L87.609 203.884C90.3021 203.764 92.9857 203.666 95.587 203.596L96.4699 203.574L94.1345 231.087C93.9319 233.477 91.9762 235.344 89.5838 235.432C89.5363 235.432 89.4857 235.432 89.4414 235.432V235.429ZM88.3717 205.435L86.2514 230.416C86.1059 232.154 87.4002 233.689 89.1376 233.837C89.261 233.847 89.3907 233.85 89.5395 233.847C91.1186 233.787 92.4224 232.543 92.5585 230.951L94.7421 205.204C92.6534 205.264 90.5173 205.343 88.3717 205.435Z" fill="#0A1B33"/>
<path d="M122.41 234.195C122.249 234.214 122.087 234.224 121.929 234.224C119.958 234.224 118.249 232.752 118.005 230.746L116.296 216.673V216.66L114.793 204.293C117.511 204.318 120.179 204.363 122.777 204.416L124.106 215.353L124.242 216.461L125.86 229.79C126.122 231.958 124.578 233.933 122.41 234.195Z" fill="#0A1B33"/>
<path d="M121.929 235.015C119.534 235.015 117.508 233.221 117.22 230.841L113.901 203.492L114.803 203.502C117.274 203.524 119.888 203.565 122.796 203.625L123.483 203.638L126.648 229.692C126.8 230.951 126.455 232.192 125.673 233.192C124.891 234.192 123.768 234.825 122.508 234.977C122.318 234.999 122.125 235.012 121.936 235.012L121.929 235.015ZM117.087 216.625L118.79 230.651C118.983 232.236 120.331 233.433 121.929 233.433C122.056 233.433 122.189 233.426 122.315 233.41C123.154 233.309 123.901 232.885 124.423 232.22C124.945 231.556 125.176 230.727 125.075 229.885L122.075 205.192C119.793 205.147 117.689 205.112 115.689 205.09L117.087 216.622V216.625Z" fill="#0A1B33"/>
<path d="M122.806 245.085L133.784 239.281L130.018 233.746L114.727 237.259L122.806 245.085Z" fill="#6FDDEF"/>
<path d="M118.315 240.733C118.388 240.568 118.432 240.48 118.432 240.48C118.432 240.48 123.939 241.268 128.727 239.144C130.676 238.277 131.929 237.897 132.74 237.742L130.018 233.742L114.727 237.258L118.315 240.733Z" fill="#59B1BF"/>
<path d="M124.983 245.083C124.375 245.083 124.499 244.406 124.869 244.181C125.132 244.02 125.394 243.862 125.657 243.7C126.638 243.102 127.616 242.507 128.594 241.912C130.113 240.988 131.632 240.064 133.151 239.143C132.461 238.131 131.774 237.115 131.084 236.102C130.714 235.558 130.344 235.01 129.971 234.466C129.834 234.267 129.866 234.235 129.648 234.286C127.088 234.874 124.527 235.463 121.967 236.051C119.6 236.596 117.236 237.14 114.869 237.684C114.242 237.83 114.065 236.953 114.679 236.811C114.954 236.748 115.23 236.684 115.505 236.621C116.768 236.33 118.03 236.039 119.296 235.751C122.353 235.048 125.41 234.346 128.464 233.643C128.869 233.551 130.078 233.045 130.395 233.51C131.107 234.558 131.815 235.602 132.528 236.646C132.942 237.257 133.357 237.868 133.771 238.476C133.98 238.782 134.518 239.352 134.012 239.662C133.825 239.827 133.556 239.941 133.344 240.07C132.787 240.409 132.233 240.745 131.676 241.083C130.246 241.953 128.815 242.824 127.385 243.694C126.85 244.02 126.315 244.346 125.781 244.672C125.569 244.802 125.243 245.086 124.977 245.086L124.983 245.083Z" fill="#0A1B33"/>
<path d="M124.983 245.4C124.622 245.4 124.353 245.219 124.268 244.919C124.17 244.564 124.36 244.121 124.701 243.912L132.702 239.048C132.075 238.127 131.448 237.203 130.822 236.282L129.708 234.646C129.708 234.646 129.689 234.618 129.679 234.605L114.939 237.994C114.648 238.061 114.372 237.985 114.185 237.786C113.999 237.586 113.935 237.298 114.015 237.032C114.097 236.763 114.312 236.57 114.606 236.504L128.391 233.333C128.464 233.317 128.562 233.285 128.679 233.251C129.312 233.058 130.268 232.763 130.654 233.33L134.034 238.298C134.059 238.336 134.091 238.38 134.126 238.425C134.328 238.697 134.604 239.07 134.528 239.46C134.502 239.589 134.423 239.773 134.202 239.919C134.053 240.045 133.872 240.14 133.714 240.225C133.641 240.263 133.572 240.301 133.509 240.339L125.945 244.941C125.898 244.969 125.847 245.007 125.79 245.045C125.562 245.203 125.281 245.4 124.98 245.4H124.983ZM129.781 233.953C129.955 233.953 130.069 234.032 130.183 234.213L130.233 234.289L131.347 235.925C132.037 236.937 132.727 237.953 133.414 238.966C133.461 239.039 133.48 239.127 133.461 239.21C133.442 239.295 133.391 239.368 133.316 239.412L125.034 244.45C124.904 244.529 124.857 244.707 124.879 244.748C124.882 244.748 124.913 244.764 124.983 244.764C125.084 244.764 125.303 244.612 125.432 244.523C125.502 244.476 125.565 244.431 125.622 244.396L133.186 239.795C133.259 239.751 133.338 239.706 133.42 239.662C133.562 239.586 133.711 239.507 133.809 239.418C133.822 239.406 133.838 239.396 133.854 239.387C133.866 239.381 133.907 239.352 133.91 239.333C133.933 239.219 133.714 238.925 133.622 238.798C133.585 238.744 133.547 238.697 133.518 238.653L130.138 233.684C130.081 233.602 129.815 233.564 128.872 233.852C128.74 233.893 128.622 233.928 128.54 233.947L114.755 237.118C114.648 237.143 114.632 237.197 114.625 237.216C114.613 237.26 114.625 237.317 114.654 237.352C114.682 237.384 114.733 237.39 114.803 237.374L129.581 233.979C129.657 233.96 129.724 233.953 129.784 233.953H129.781Z" fill="#0A1B33"/>
<path d="M114.727 237.258C114.727 237.258 110.122 244.552 112.211 250.359C114.299 256.166 118.328 256.562 122.901 256.932C126.11 257.192 140.138 259.473 145.585 253.935C151.028 248.4 145.86 236.91 134.148 237.78C125.594 238.416 123.078 244.53 123.078 244.53L114.727 237.258Z" fill="#6FDDEF"/>
<path d="M128.733 239.138C128.999 239.021 129.249 238.914 129.489 238.812C129.227 238.917 128.977 239.025 128.733 239.138Z" fill="#59B1BF"/>
<path d="M147.401 246.017C147.243 248.51 145.771 252.241 142.262 253.666C135.996 256.213 119.173 256.624 117.084 251.533C115.011 246.482 118.388 240.567 118.432 240.482L114.727 237.254C114.727 237.254 110.122 244.548 112.211 250.355C114.299 256.162 118.328 256.558 122.901 256.928C126.11 257.188 140.138 259.469 145.585 253.931C147.664 251.821 148.189 248.843 147.401 246.014V246.017Z" fill="#59B1BF"/>
<path d="M115.106 237.495C112.252 242.094 110.628 248.603 114.22 253.249C116.128 255.717 119.204 256.22 122.125 256.483C125.464 256.784 128.78 257.195 132.138 257.198C137.67 257.198 146.562 256.331 147.199 249.236C147.461 246.287 146.091 243.394 143.958 241.41C141.8 239.401 138.948 238.35 136.024 238.198C133.271 238.056 130.432 238.565 127.98 239.847C126.015 240.875 124.081 242.514 123.078 244.53C123.907 242.233 125.98 240.318 128.062 239.15C130.644 237.701 133.755 237.122 136.695 237.334C139.6 237.543 142.442 238.606 144.61 240.581C146.755 242.533 148.192 245.321 148.271 248.246C148.357 251.369 146.733 254.119 144.078 255.708C141.344 257.344 137.999 257.831 134.869 257.983C131.559 258.144 128.249 257.888 124.961 257.527C121.983 257.201 118.676 257.293 115.98 255.809C112.359 253.815 110.825 249.315 111.312 245.385C111.559 243.401 112.176 241.47 112.986 239.647C113.334 238.863 113.72 238.09 114.151 237.347C114.233 237.207 114.315 237.011 114.448 236.904C114.831 236.593 115.372 237.075 115.106 237.492V237.495Z" fill="#0A1B33"/>
<path d="M132.784 258.352C129.98 258.352 127.277 258.105 124.926 257.846C124.293 257.776 123.625 257.725 122.983 257.675C120.537 257.485 118.005 257.289 115.828 256.089C111.844 253.893 110.53 249.115 110.999 245.349C111.226 243.504 111.799 241.542 112.695 239.523C113.062 238.694 113.461 237.909 113.875 237.194C113.894 237.165 113.91 237.133 113.926 237.099C114.002 236.959 114.094 236.785 114.246 236.662C114.537 236.425 114.942 236.437 115.227 236.694C115.511 236.947 115.571 237.345 115.369 237.665C112.613 242.105 110.929 248.482 114.464 253.058C116.321 255.456 119.404 255.922 122.148 256.168C122.872 256.235 123.597 256.305 124.322 256.374C126.879 256.621 129.521 256.877 132.135 256.881H132.154C141.471 256.881 146.423 254.298 146.879 249.206C147.119 246.52 145.945 243.69 143.736 241.64C141.733 239.776 138.986 238.665 136.002 238.513C133.148 238.368 130.42 238.925 128.122 240.127C125.97 241.254 124.233 242.909 123.356 244.671C123.28 244.82 123.103 244.887 122.948 244.82C122.793 244.754 122.717 244.58 122.774 244.421C123.54 242.295 125.41 240.273 127.904 238.874C130.442 237.45 133.569 236.792 136.714 237.019C139.835 237.244 142.711 238.428 144.822 240.349C147.135 242.453 148.506 245.33 148.588 248.238C148.676 251.403 147.05 254.298 144.24 255.982C141.198 257.801 137.442 258.178 134.885 258.301C134.179 258.336 133.48 258.352 132.784 258.352ZM114.717 237.127C114.695 237.127 114.67 237.133 114.644 237.156C114.594 237.197 114.533 237.311 114.483 237.399C114.461 237.437 114.442 237.478 114.42 237.513C114.018 238.209 113.628 238.972 113.271 239.782C112.397 241.744 111.844 243.646 111.622 245.431C111.195 248.868 112.423 253.498 116.128 255.539C118.185 256.672 120.648 256.862 123.027 257.048C123.676 257.099 124.347 257.15 124.993 257.222C127.904 257.542 131.35 257.846 134.85 257.678C137.341 257.558 140.993 257.194 143.911 255.447C146.521 253.884 148.031 251.2 147.949 248.266C147.873 245.529 146.575 242.817 144.388 240.826C142.385 239.001 139.641 237.877 136.664 237.662C133.964 237.469 131.277 237.95 129.002 239.029C131.132 238.156 133.534 237.763 136.031 237.89C139.164 238.051 142.053 239.222 144.164 241.184C146.512 243.368 147.762 246.39 147.506 249.27C147.015 254.744 141.847 257.52 132.151 257.52H132.132C129.489 257.517 126.831 257.257 124.258 257.01C123.537 256.941 122.812 256.871 122.091 256.805C119.214 256.545 115.973 256.051 113.964 253.45C110.23 248.618 111.964 241.959 114.831 237.336C114.875 237.266 114.84 237.209 114.802 237.178C114.783 237.159 114.752 237.137 114.711 237.137L114.717 237.127Z" fill="#0A1B33"/>
<path d="M120.081 238.417C120.081 238.417 114.043 238.531 113.524 235.332C113.005 232.132 114.056 231.11 115.375 230.328C117.388 229.139 124.822 227.771 130.081 229.275C132.046 229.838 132.872 233.563 132.157 234.787C131.442 236.012 125.936 237.509 125.936 237.509L120.081 238.417Z" fill="#6FDDEF"/>
<path d="M123.375 236.348C119.065 236.88 115.201 235.934 113.397 234.133C113.413 234.497 113.451 234.893 113.524 235.332C114.043 238.532 120.081 238.418 120.081 238.418L125.936 237.51C125.936 237.51 131.445 236.013 132.157 234.788C132.474 234.247 132.486 233.212 132.233 232.184C130.749 234.187 127.41 235.851 123.372 236.348H123.375Z" fill="#59B1BF"/>
<path d="M120.081 238.416C117.92 238.789 114.391 238.482 113.296 236.232C112.679 234.967 112.79 233.134 113.296 231.859C113.689 230.868 114.746 230.071 115.739 229.72C118.138 228.758 120.914 228.527 123.471 228.391C125.075 228.302 126.774 228.245 128.366 228.508C129.094 228.622 129.936 228.682 130.616 229.008C131.835 229.59 132.48 231.008 132.755 232.258C132.955 233.16 133.056 234.403 132.42 235.166C131.537 236.119 130.015 236.517 128.803 236.859C127.86 237.125 126.904 237.356 125.936 237.508C126.948 237.096 127.971 236.695 128.967 236.245C129.879 235.834 131.233 235.391 131.803 234.508C131.714 234.647 131.857 234.299 131.863 234.264C131.936 234.001 131.933 233.701 131.917 233.429C131.888 232.818 131.762 232.204 131.553 231.631C131.246 230.796 130.765 230.036 129.926 229.685C129.936 229.685 129.945 229.685 129.955 229.694C127.914 229.144 125.869 228.843 123.752 228.884C121.043 228.938 118.103 229.362 115.676 230.622C114.986 231.033 114.388 231.558 114.097 232.327C113.888 232.881 113.888 233.448 113.891 234.03C113.891 234.631 113.955 235.388 114.249 235.926C114.872 237.058 116.334 237.552 117.499 237.884C118.341 238.125 119.214 238.299 120.081 238.416Z" fill="#0A1B33"/>
<path d="M118.461 238.867C116.375 238.867 113.929 238.257 113.011 236.374C112.312 234.937 112.518 232.968 113.002 231.744C113.477 230.548 114.717 229.747 115.635 229.424C118.097 228.437 120.964 228.212 123.455 228.076C125.069 227.987 126.784 227.924 128.42 228.196C128.553 228.218 128.695 228.237 128.841 228.256C129.461 228.342 130.16 228.437 130.755 228.722C132.259 229.44 132.847 231.203 133.066 232.19C133.281 233.162 133.385 234.503 132.664 235.37C131.743 236.364 130.24 236.785 129.031 237.124L128.888 237.165C127.784 237.475 126.86 237.684 125.983 237.823C125.825 237.848 125.673 237.75 125.629 237.595C125.584 237.44 125.667 237.279 125.815 237.219L126.36 237C127.176 236.671 128.021 236.329 128.838 235.962C128.99 235.893 129.154 235.823 129.328 235.75C130.091 235.427 131.031 235.032 131.48 234.427C131.496 234.367 131.515 234.307 131.534 234.256C131.543 234.231 131.553 234.209 131.556 234.193C131.556 234.193 131.556 234.187 131.556 234.184C131.616 233.969 131.613 233.706 131.6 233.45C131.572 232.877 131.455 232.288 131.255 231.744C130.923 230.836 130.458 230.263 129.828 229.991C127.708 229.421 125.717 229.165 123.755 229.203C120.537 229.269 117.866 229.839 115.818 230.902C115.075 231.345 114.616 231.839 114.388 232.44C114.198 232.946 114.198 233.472 114.201 234.029C114.204 234.807 114.312 235.396 114.521 235.772C115.059 236.747 116.309 237.219 117.581 237.579C118.382 237.807 119.236 237.984 120.119 238.101C120.274 238.124 120.391 238.253 120.394 238.408C120.394 238.564 120.287 238.7 120.132 238.725C119.635 238.81 119.062 238.861 118.458 238.861L118.461 238.867ZM118.103 229.336C117.331 229.506 116.575 229.728 115.856 230.016C114.989 230.32 113.961 231.041 113.587 231.978C113.151 233.076 112.961 234.832 113.578 236.098C114.204 237.386 115.758 237.978 117.315 238.165C115.945 237.766 114.603 237.231 113.967 236.079C113.704 235.601 113.575 234.931 113.568 234.032C113.568 233.44 113.562 232.829 113.796 232.215C114.078 231.472 114.622 230.88 115.508 230.348C116.293 229.94 117.157 229.605 118.1 229.336H118.103ZM132.066 234.687C131.572 235.446 130.591 235.899 129.752 236.257C130.66 235.972 131.6 235.592 132.189 234.956C132.765 234.266 132.597 233.013 132.445 232.329C132.252 231.456 131.74 229.899 130.48 229.294C129.977 229.054 129.353 228.968 128.752 228.883C128.603 228.864 128.461 228.842 128.319 228.82C127.505 228.684 126.667 228.636 125.828 228.633C127.179 228.744 128.553 228.991 129.986 229.374C130.028 229.383 130.078 229.399 130.11 229.418C130.113 229.418 130.116 229.421 130.119 229.424C130.895 229.775 131.461 230.462 131.85 231.525C132.072 232.13 132.205 232.782 132.233 233.418C132.249 233.722 132.252 234.044 132.17 234.342C132.164 234.374 132.151 234.408 132.126 234.472C132.126 234.478 132.119 234.488 132.116 234.494C132.119 234.557 132.103 234.624 132.066 234.684C132.066 234.684 132.066 234.684 132.066 234.687Z" fill="#0A1B33"/>
<path d="M96.0078 238.297C96.0078 238.297 101.815 247.009 98.9097 254.724C89.2893 254.091 88.5646 246.512 88.5646 246.512L86.4539 238.297H96.0078Z" fill="#59B1BF"/>
<path d="M100.033 247.812C99.7452 245.587 99.0679 243.419 98.1565 241.375C97.7325 240.422 97.2578 239.485 96.7135 238.59C96.4919 238.799 96.2546 238.985 95.9888 239.118C97.9508 242.416 99.3021 246.343 99.2736 250.188C99.261 251.562 99.0553 252.938 98.6091 254.242C98.6882 254.429 98.7768 254.6 98.8116 254.777C98.8369 254.91 98.8559 255.039 98.897 255.169C99.5015 255.169 99.6692 253.884 99.7768 253.454C99.9319 252.827 100.039 252.188 100.106 251.546C100.233 250.305 100.195 249.049 100.036 247.815L100.033 247.812Z" fill="#0A1B33"/>
<path d="M98.8939 255.482C98.7547 255.482 98.6313 255.39 98.5901 255.257C98.5585 255.15 98.5363 255.039 98.5174 254.928L98.5015 254.837C98.4825 254.732 98.4319 254.618 98.3749 254.488L98.3212 254.365C98.2895 254.292 98.2863 254.213 98.3117 254.137C98.7294 252.919 98.9477 251.587 98.9604 250.185C98.9889 246.713 97.837 242.84 95.7198 239.279C95.6755 239.203 95.6629 239.112 95.6882 239.029C95.7135 238.947 95.7705 238.874 95.8496 238.836C96.0585 238.732 96.2705 238.577 96.4983 238.362C96.568 238.295 96.6629 238.264 96.7578 238.276C96.8528 238.289 96.9382 238.343 96.9857 238.425C97.4984 239.27 97.9889 240.219 98.4477 241.245C99.4351 243.466 100.078 245.662 100.35 247.77C100.521 249.08 100.543 250.362 100.422 251.574C100.353 252.245 100.239 252.9 100.084 253.526C100.068 253.587 100.052 253.663 100.036 253.751C99.9003 254.4 99.6756 255.482 98.9003 255.482H98.8939ZM98.9477 254.226V254.232C99.0079 254.365 99.068 254.498 99.106 254.647C99.2072 254.447 99.3117 254.106 99.4129 253.621C99.4319 253.526 99.4509 253.441 99.4667 253.375C99.6155 252.776 99.7231 252.15 99.7895 251.511C99.9066 250.346 99.8845 249.115 99.7199 247.852C99.4541 245.805 98.8307 243.669 97.8686 241.504C97.4794 240.634 97.068 239.817 96.6376 239.08C96.5648 239.137 96.4952 239.188 96.4256 239.235C98.4984 242.817 99.6218 246.697 99.5933 250.194C99.5807 251.621 99.3655 252.976 98.9509 254.229L98.9477 254.226Z" fill="#0A1B33"/>
<path d="M82.3145 238.788C78.8334 238.023 78.5233 235.26 78.8682 233.396C79.4631 230.174 83.9854 229.785 85.6183 229.785C87.2512 229.785 91.419 230.456 92.8653 230.811C99.7261 232.491 97.647 238.25 96.2925 239.013C92.5488 241.124 86.8525 239.785 82.3145 238.792V238.788Z" fill="#6FDDEF"/>
<path d="M97.4476 234.265C97.1786 235.208 96.6818 235.942 96.2577 236.182C92.514 238.293 86.8177 236.955 82.2796 235.958C80.2511 235.515 79.3049 234.388 78.9315 233.16C78.9093 233.239 78.884 233.312 78.8682 233.394C78.5233 235.258 78.8334 238.024 82.3145 238.787C86.8525 239.781 92.5488 241.119 96.2925 239.008C97.0963 238.556 98.1565 236.341 97.4476 234.265Z" fill="#59B1BF"/>
<path d="M97.973 234.847C97.7009 233.303 96.6249 232.126 95.2926 231.382C94.0394 230.702 92.6059 230.401 91.2008 230.18C91.0552 230.157 90.9128 230.135 90.7704 230.113C89.1596 229.87 87.5615 229.657 85.9349 229.54C85.0773 229.477 84.0994 229.515 83.1342 229.689C81.0551 230.072 79.0487 231.097 78.4949 233.151C78.1848 234.297 78.2765 235.623 78.7924 236.711C78.8588 236.86 78.9379 237.003 79.0234 237.139C79.0708 237.221 79.1246 237.3 79.1816 237.379C79.2291 237.442 79.2765 237.506 79.3272 237.566C80.055 238.455 81.1183 238.885 82.2101 239.167C83.764 239.512 85.3399 239.863 86.9254 240.117C88.0235 240.294 89.128 240.423 90.2356 240.471H90.2387C90.3558 240.477 90.4698 240.48 90.59 240.484C90.6913 240.487 90.7957 240.49 90.9001 240.49C91.0394 240.493 91.1818 240.493 91.321 240.493C92.3052 240.487 93.3116 240.414 94.2705 240.177C94.8781 240.028 95.6154 239.841 96.2167 239.512C96.3496 239.439 96.4762 239.36 96.5933 239.272C96.6756 239.211 96.7515 239.148 96.8211 239.079C96.8591 239.041 96.8971 239.003 96.9319 238.961C97.9097 237.92 98.2136 236.205 97.973 234.847ZM96.8813 237.613C96.704 238.012 96.4604 238.313 96.1692 238.553C95.6439 238.987 94.9667 239.208 94.2515 239.404C92.9825 239.794 91.571 239.822 90.2356 239.734C90.0995 239.727 89.9634 239.718 89.8305 239.705C89.7419 239.699 89.6533 239.689 89.5678 239.683C89.4951 239.677 89.4223 239.67 89.3527 239.661C88.4666 239.579 87.59 239.449 86.7165 239.297C85.2735 239.044 83.8431 238.721 82.4127 238.401C81.6627 238.199 80.9791 237.923 80.4031 237.439C80.2544 237.313 80.112 237.173 79.9759 237.018C79.9696 237.009 79.9601 236.996 79.9506 236.987C79.8588 236.86 79.7734 236.727 79.7006 236.594C79.2449 235.772 79.1183 234.832 79.2354 233.889C79.2386 233.844 79.2449 233.8 79.2512 233.756C79.5519 231.658 81.4316 230.673 83.3367 230.281C83.5298 230.24 83.7197 230.205 83.9127 230.176C85.4507 229.945 86.9634 230.129 88.4982 230.325C89.4539 230.449 90.4223 230.588 91.378 230.784C92.0299 230.914 92.6755 231.072 93.3021 231.265C94.5869 231.664 95.8306 232.29 96.6186 233.427C96.9287 233.876 97.1281 234.379 97.223 234.901C97.3939 235.803 97.2578 236.768 96.8844 237.613H96.8813Z" fill="#0A1B33" stroke="#0A1B33" stroke-width="2" stroke-linecap="round" stroke-linejoin="round"/>
<path d="M93.4665 246.647C92.9222 244.106 91.0171 237.118 82.2132 236.938C73.4092 236.757 68.1465 242.292 68.1465 249.732C68.1465 255.85 71.7763 257.992 82.4853 257.992C93.1943 257.992 97.1881 258.808 98.9128 254.726L93.4665 246.65V246.647Z" fill="#6FDDEF"/>
<path d="M98.9128 254.726L93.4665 246.65C93.1817 245.315 92.5171 242.748 90.6722 240.59C91.0392 241.9 92.4823 246.236 92.7007 248.454C92.9538 251.03 92.1785 257.464 76.5517 255.549C66.7066 254.343 69.906 245.372 70.9282 241.504C69.1212 243.694 68.1496 246.539 68.1465 249.736C68.1465 255.853 71.7763 257.995 82.4853 257.995C93.1943 257.995 97.1881 258.812 98.9128 254.729V254.726Z" fill="#59B1BF"/>
<path d="M93.4665 246.649C92.8368 244.18 91.688 241.734 89.7608 240.013C87.5044 238 84.5613 237.307 81.5992 237.376C78.634 237.446 75.6245 238.209 73.2257 240.013C70.8839 241.775 69.3775 244.38 68.8585 247.253C68.3395 250.136 68.4819 253.668 71.0927 255.506C73.6751 257.326 77.3302 257.519 80.3777 257.627C83.6246 257.744 86.8905 257.744 90.1373 257.728C91.6089 257.722 93.1026 257.7 94.5583 257.45C95.821 257.234 97.0045 256.712 97.802 255.652C98.0837 255.279 98.3337 254.877 98.609 254.25C98.8717 253.649 99.6945 254.155 99.4255 254.722C98.9096 255.807 98.0236 256.975 96.9286 257.516C95.6279 258.158 94.1121 258.285 92.688 258.345C91.1342 258.412 89.5804 258.383 88.0266 258.364C84.7733 258.32 81.5011 258.412 78.2543 258.19C75.2795 257.988 71.6529 257.605 69.4883 255.294C67.4028 253.067 67.3775 249.522 67.9535 246.699C68.5547 243.756 70.1434 241.038 72.5643 239.231C75.0548 237.37 78.1213 236.56 81.1973 236.497C84.229 236.427 87.362 237.158 89.6848 239.199C91.8399 241.095 93.0235 243.848 93.4697 246.639L93.4665 246.649Z" fill="#0A1B33"/>
<path d="M90.4792 258.707C89.745 258.707 89.0172 258.698 88.2988 258.688H88.0172C87.033 258.669 86.0424 258.669 85.0551 258.669C82.8145 258.669 80.498 258.666 78.2259 258.511C75.0359 258.296 71.4504 257.865 69.251 255.517C66.8048 252.9 67.1877 248.837 67.6371 246.644C68.2763 243.504 69.9567 240.786 72.3682 238.985C74.7258 237.226 77.7733 236.257 81.1848 236.188C83.6468 236.134 87.1564 236.568 89.8874 238.97C92.4508 241.226 93.4191 244.362 93.7767 246.596C93.802 246.764 93.6945 246.922 93.5299 246.957C93.3653 246.992 93.2008 246.891 93.1596 246.726C92.4571 243.97 91.2071 241.729 89.5488 240.248C87.5614 238.476 84.8905 237.618 81.6057 237.691C79.3619 237.742 76.1214 238.232 73.4157 240.264C71.1941 241.938 69.6877 244.438 69.1719 247.308C68.7858 249.448 68.5485 253.324 71.2764 255.248C73.6751 256.941 76.9568 257.188 80.3904 257.312C83.7164 257.432 87.0298 257.426 90.1374 257.413C91.6375 257.407 93.1027 257.381 94.5046 257.141C95.8654 256.906 96.8875 256.343 97.5489 255.467C97.8591 255.052 98.0838 254.663 98.3179 254.128C98.435 253.862 98.6471 253.698 98.9066 253.672C99.1819 253.647 99.4699 253.783 99.6407 254.027C99.8148 254.274 99.8401 254.587 99.7072 254.862C99.0711 256.201 98.0806 257.302 97.0648 257.805C95.6818 258.489 94.0837 258.609 92.6976 258.666C91.9603 258.698 91.2197 258.707 90.4792 258.707ZM88.1754 258.052H88.3083C89.7387 258.074 91.2197 258.096 92.6691 258.033C93.9919 257.976 95.5109 257.862 96.7831 257.236C97.6787 256.793 98.5553 255.805 99.1344 254.59C99.1692 254.517 99.1661 254.451 99.1218 254.391C99.0775 254.331 99.011 254.296 98.9699 254.302C98.9382 254.305 98.9129 254.35 98.8971 254.384C98.6439 254.96 98.3939 255.397 98.0553 255.846C97.2958 256.859 96.1375 257.505 94.6122 257.764C93.1596 258.014 91.6691 258.039 90.1406 258.046C89.495 258.046 88.8399 258.052 88.1754 258.052ZM81.5867 236.814C81.4569 236.814 81.3272 236.814 81.2006 236.818C77.9221 236.884 75.0011 237.808 72.7479 239.489C70.4599 241.194 68.8649 243.78 68.2573 246.767C67.8333 248.84 67.463 252.672 69.7131 255.081C71.7542 257.264 75.2005 257.669 78.267 257.875C80.2291 258.008 82.2323 258.027 84.1911 258.033C82.9253 258.017 81.6436 257.989 80.362 257.945C76.8303 257.818 73.4473 257.558 70.9061 255.764C67.8902 253.637 68.1308 249.482 68.5422 247.194C69.0865 244.166 70.6814 241.527 73.0296 239.757C75.2764 238.068 78.2353 237.134 81.5867 237.058C84.2418 236.998 86.5867 237.555 88.4792 238.685C86.226 237.181 83.5994 236.814 81.5835 236.814H81.5867Z" fill="#0A1B33"/>
<path d="M52.2412 149.295C55.7053 149.295 58.5135 146.486 58.5135 143.022C58.5135 139.558 55.7053 136.75 52.2412 136.75C48.7772 136.75 45.969 139.558 45.969 143.022C45.969 146.486 48.7772 149.295 52.2412 149.295Z" fill="#FF0090"/>
<path d="M167.246 92.7311C169.174 92.7311 170.737 91.1683 170.737 89.2406C170.737 87.3128 169.174 85.75 167.246 85.75C165.319 85.75 163.756 87.3128 163.756 89.2406C163.756 91.1683 165.319 92.7311 167.246 92.7311Z" fill="#FFC549"/>
<path d="M53.9944 105.37C54.9627 105.37 55.7476 104.585 55.7476 103.616C55.7476 102.648 54.9627 101.863 53.9944 101.863C53.0261 101.863 52.2412 102.648 52.2412 103.616C52.2412 104.585 53.0261 105.37 53.9944 105.37Z" fill="#FFC549"/>
<path d="M134.907 31.2669C138.072 31.2669 140.638 28.701 140.638 25.5358C140.638 22.3706 138.072 19.8047 134.907 19.8047C131.742 19.8047 129.176 22.3706 129.176 25.5358C129.176 28.701 131.742 31.2669 134.907 31.2669Z" fill="#FFC549"/>
<path d="M86.5395 150.976C98.7738 150.976 108.692 140.766 108.692 128.171C108.692 115.577 98.7738 105.367 86.5395 105.367C74.3051 105.367 64.3872 115.577 64.3872 128.171C64.3872 140.766 74.3051 150.976 86.5395 150.976Z" fill="#F3FCFE"/>
<path d="M86.5393 151.765C73.8904 151.765 63.5959 141.179 63.5959 128.17C63.5959 115.16 73.8872 104.574 86.5393 104.574C99.1914 104.574 109.483 115.16 109.483 128.17C109.483 141.179 99.1914 151.765 86.5393 151.765ZM86.5393 106.16C74.7607 106.16 65.1783 116.033 65.1783 128.173C65.1783 140.312 74.7607 150.186 86.5393 150.186C98.318 150.186 107.9 140.312 107.9 128.173C107.9 116.033 98.318 106.16 86.5393 106.16Z" fill="#0A1B33"/>
<path d="M87.6533 147.952C87.2862 147.974 86.9128 147.987 86.5394 147.987C75.9095 147.987 67.2954 139.116 67.2954 128.173C67.2954 117.23 75.9095 108.359 86.5394 108.359C86.9128 108.359 87.2862 108.372 87.6533 108.394C77.5456 108.986 69.5233 117.616 69.5233 128.173C69.5233 138.73 77.5487 147.363 87.6533 147.952Z" fill="#E2F8FC"/>
<path d="M100.027 129.785C100.027 134.624 96.2166 138.545 91.5172 138.545C87.7988 138.545 84.6341 136.089 83.4822 132.665H86.9411C87.7038 132.665 88.4 132.352 88.9 131.852C89.4 131.352 89.7133 130.656 89.7133 129.893C89.7133 128.368 88.4665 127.121 86.9411 127.121H83.4158C84.5076 123.589 87.726 121.035 91.5172 121.035C96.2166 121.035 100.027 124.956 100.027 129.788V129.785Z" fill="#0A1B33"/>
<path d="M136.657 150.976C148.892 150.976 158.81 140.766 158.81 128.171C158.81 115.577 148.892 105.367 136.657 105.367C124.423 105.367 114.505 115.577 114.505 128.171C114.505 140.766 124.423 150.976 136.657 150.976Z" fill="#F3FCFE"/>
<path d="M136.657 151.765C124.005 151.765 113.714 141.179 113.714 128.17C113.714 115.16 124.005 104.574 136.657 104.574C149.309 104.574 159.601 115.16 159.601 128.17C159.601 141.179 149.309 151.765 136.657 151.765ZM136.657 106.16C124.879 106.16 115.296 116.033 115.296 128.173C115.296 140.312 124.879 150.186 136.657 150.186C148.436 150.186 158.018 140.312 158.018 128.173C158.018 116.033 148.436 106.16 136.657 106.16Z" fill="#0A1B33"/>
<path d="M135.543 147.952C135.91 147.974 136.284 147.987 136.657 147.987C147.287 147.987 155.901 139.116 155.901 128.173C155.901 117.23 147.287 108.359 136.657 108.359C136.284 108.359 135.91 108.372 135.543 108.394C145.651 108.986 153.673 117.616 153.673 128.173C153.673 138.73 145.648 147.363 135.543 147.952Z" fill="#E2F8FC"/>
<path d="M139.781 129.785C139.781 134.624 135.971 138.545 131.271 138.545C127.553 138.545 124.388 136.089 123.236 132.665H126.695C127.458 132.665 128.154 132.352 128.654 131.852C129.154 131.352 129.467 130.656 129.467 129.893C129.467 128.368 128.22 127.121 126.695 127.121H123.17C124.261 123.589 127.48 121.035 131.271 121.035C135.971 121.035 139.781 124.956 139.781 129.788V129.785Z" fill="#0A1B33"/>
<path d="M170.474 209.959C170.474 212.807 150.945 215.579 124.242 216.462C121.657 216.548 119.005 216.614 116.296 216.662C113.081 216.722 109.79 216.75 106.435 216.75C102.378 216.75 98.4098 216.738 94.5616 216.709C91.8527 216.687 89.2071 216.658 86.6279 216.624C60.9567 216.257 42.3962 215.054 42.3962 212.279C42.3962 209.503 61.4472 205.905 87.6438 204.68C90.2324 204.563 92.8875 204.465 95.6059 204.392C99.125 204.301 102.745 204.25 106.435 204.25C109.268 204.25 112.059 204.266 114.793 204.294C117.511 204.32 120.179 204.364 122.777 204.418C150.23 205 170.474 207.057 170.474 209.959Z" fill="#141D32"/>
<path d="M106.435 217.54C102.245 217.54 98.2483 217.527 94.5552 217.498C91.8431 217.476 89.1975 217.448 86.6184 217.413C72.8428 217.217 62.1433 216.786 54.8172 216.141C43.8519 215.172 41.605 213.897 41.605 212.277C41.605 211.501 41.605 209.438 55.0609 207.103C63.6686 205.609 75.2289 204.467 87.6057 203.887C90.2988 203.764 92.9855 203.669 95.5837 203.599C99.2167 203.505 102.869 203.457 106.435 203.457C109.169 203.457 111.983 203.473 114.802 203.501C117.274 203.523 119.888 203.565 122.796 203.625C136.663 203.919 148.496 204.577 157.012 205.53C169.541 206.932 171.268 208.486 171.268 209.957C171.268 211.093 170.025 211.973 167.237 212.808C164.958 213.492 161.68 214.138 157.487 214.729C148.983 215.929 137.189 216.824 124.274 217.252C121.701 217.337 119.024 217.403 116.315 217.451C113.169 217.511 109.85 217.54 106.441 217.54H106.435ZM43.2094 212.27C43.4658 212.6 45.1272 213.752 55.8299 214.641C63.0768 215.242 73.4409 215.644 86.6405 215.831C89.2165 215.865 91.8621 215.894 94.5678 215.916C98.2578 215.945 102.248 215.957 106.435 215.957C109.834 215.957 113.147 215.929 116.28 215.869C118.98 215.821 121.651 215.755 124.214 215.669C136.673 215.258 148.145 214.403 156.521 213.264C167.889 211.717 169.461 210.239 169.661 209.96C169.439 209.653 167.803 208.277 156.015 207.014C147.61 206.115 136.11 205.492 122.758 205.207C119.859 205.147 117.249 205.106 114.783 205.084C111.97 205.055 109.16 205.039 106.432 205.039C102.878 205.039 99.242 205.087 95.6217 205.182C93.033 205.251 90.3589 205.346 87.6753 205.47C75.7099 206.03 64.4534 207.122 55.985 208.549C45.0101 210.397 43.4088 211.986 43.2063 212.27H43.2094Z" fill="#0A1B33"/>
<path d="M175.582 169.703L175.297 174.994L180.243 176.903L175.12 178.267L174.835 183.561L171.955 179.111L166.832 180.475L170.174 176.358L167.294 171.909L172.24 173.817L175.582 169.703Z" fill="#FFC549"/>
<path d="M79.7829 74.8994L78.5772 77.4469L80.631 79.3805L77.8335 79.0229L76.6309 81.5736L76.1056 78.8014L73.3081 78.4438L75.7828 77.0893L75.2575 74.3203L77.3113 76.2539L79.7829 74.8994Z" fill="#FFC549"/>
<path d="M150.284 55.0721L154.885 57.9234L159.018 54.4297L157.727 59.6893L162.328 62.5406L156.93 62.9362L155.638 68.1957L153.594 63.183L148.192 63.5786L152.328 60.0848L150.284 55.0721Z" fill="#FFC549"/>
<path d="M81.6973 88.3775L80.8713 85.8679L81.5739 83.197L83.1435 81.2001L83.8809 77.1716L84.8619 70.5481L87.5676 63.5036L91.1405 57.7124L99.609 51.2155L102.894 49.3579L107.755 48.9085L113.027 48.418L114.818 49.9085L120.961 50.8294L125.23 54.6554L129.761 58.6934L134.072 64.6587L136.208 70.0734L138.049 76.2159L139.999 77.0893L140.929 80.2602L139.382 83.0356L133.894 82.9628L131.625 84.7761L129.34 86.5926L112.647 87.0515L98.7703 88.7224L92.4285 90.0104L91.1373 88.5262L89.7797 87.3996L88.2923 86.9344L85.5201 87.9439L81.6973 88.3775Z" fill="#FCC100"/>
<g opacity="0.64">
<path d="M85.6436 67.2911C85.6436 67.2911 88.3873 68.7943 89.0075 70.7152C89.6246 72.6361 90.0076 79.4748 90.0076 79.4748L91.4095 79.3451L91.7797 73.519L90.3968 67.4145L86.7258 64.3828L85.6436 67.2879V67.2911Z" fill="white"/>
</g>
<g opacity="0.64">
<path d="M109.438 48.9475C109.438 48.9475 112.267 49.6596 112.853 52.2735C113.441 54.8875 115.745 74.0144 115.745 74.0144C115.745 74.0144 116.011 76.2201 116.821 76.4891C117.631 76.7581 118.97 76.2898 118.97 76.2898L118.097 73.6378L116.375 62.1598L114.742 50.2767L112.565 48.457L110.027 48.514L109.438 48.9444V48.9475Z" fill="white"/>
</g>
<g opacity="0.64">
<path d="M129.891 62.0906C129.891 62.0906 134.306 67.9862 135.22 76.1351L137.594 76.325L136.992 72.8945L133.432 63.771L131.106 60.6602L129.891 62.0906Z" fill="white"/>
</g>
<g opacity="0.64">
<path d="M112.53 85.2529L117.91 76.5312L115.182 76.7844L109.761 85.5757C109.036 85.6675 108.315 85.7656 107.596 85.8668L113.078 76.9775L105.413 77.6863L99.397 87.4428C97.7071 87.8764 96.1501 88.3669 94.7925 88.9238L117.625 86.8099L129.752 86.0631L131.132 85.1833L131.793 84.1801C131.793 84.1801 122.448 84.2023 112.533 85.2529H112.53Z" fill="white"/>
</g>
<g opacity="0.64">
<path d="M137.888 77.095C137.888 77.095 139.86 81.2755 139.22 82.5508C138.581 83.823 140.461 82.0603 140.461 82.0603L141.122 78.6552L139.151 76.1836L137.888 77.095Z" fill="white"/>
</g>
<g opacity="0.44">
<path d="M101.036 51.0977L100.128 51.5818L98.7546 51.8762L91.8747 57.411L88.5107 61.7719C88.5107 61.7719 92.0298 58.1326 96.0425 56.2496C97.5837 55.5249 99.3622 56.6199 99.4065 58.3225L99.7578 71.8227C99.2229 76.9019 93.8241 78.462 93.8241 78.462L93.8969 79.2532C93.8906 79.1741 97.7989 78.3544 99.4033 78.0221C100.365 77.9114 101.619 77.7405 101.619 77.7405L102.052 72.3828L101.036 51.0977Z" fill="#D87200"/>
</g>
<g opacity="0.44">
<path d="M129.632 62.5281C129.578 62.0629 129.958 61.7243 130.271 61.4489C130.306 61.4173 130.341 61.3888 130.375 61.3603C130.404 61.3224 130.439 61.2844 130.467 61.2464C130.619 61.0375 130.781 60.8951 131.012 60.778C131.021 60.7749 131.027 60.7685 131.037 60.7654L130.689 60.5977C130.689 60.5977 126.217 62.1895 125.822 66.5566C125.426 70.9269 126.204 75.7783 126.204 75.7783L128.758 75.8922L128.195 65.8193L129.648 62.623C129.638 62.5945 129.635 62.5629 129.629 62.5312L129.632 62.5281Z" fill="#D87200"/>
</g>
<g opacity="0.44">
<path d="M101.954 49.8904L101.305 55.5455L102.267 74.7167L101.618 77.7389L104.514 77.4699C104.514 77.4699 104.147 58.2481 103.644 54.3398C103.141 50.4315 106.229 49.2037 106.229 49.2037L104.818 48.7227L101.954 49.8936V49.8904Z" fill="#D87200"/>
</g>
<g opacity="0.44">
<path d="M92.6248 86.3949C92.1881 84.2208 92.7925 79.5625 92.7925 79.5625L84.0803 81.5815C84.0803 81.5815 83.131 85.5784 83.1499 86.2841C83.1689 86.9898 83.3461 87.8791 83.9822 87.8854C84.6183 87.8918 87.8399 87.0753 87.8399 87.0753C87.8399 87.0753 89.9095 87.5436 90.1089 87.6671C90.3083 87.7905 91.4665 89.6133 92.9602 89.4741C94.4539 89.3348 96.0425 89.1892 96.0425 89.1892C96.0425 89.1892 93.0647 88.569 92.6279 86.3981L92.6248 86.3949Z" fill="#D87200"/>
</g>
<g opacity="0.44">
<path d="M124.318 75.7249C120.584 75.5857 118.486 71.0508 118.486 71.0508L118.014 71.7059C118.014 71.7059 118.483 74.2059 118.54 74.342C118.6 74.478 119.369 76.1838 119.369 76.1838C119.369 76.1838 128.053 75.8642 124.318 75.7249Z" fill="#D87200"/>
</g>
<g opacity="0.64">
<path d="M130.587 61.1937C130.717 61.0196 130.907 60.931 131.094 60.8361C131.1 60.8329 131.106 60.8297 131.113 60.8234C131.154 60.7949 131.195 60.7728 131.236 60.7569C130.531 59.931 127.151 56.086 123.176 53.3771C118.701 50.3296 114.818 49.9023 114.818 49.9023L114.783 51.5416C114.783 51.5416 125.141 54.1398 130.578 61.2C130.578 61.2 130.581 61.1937 130.584 61.1905L130.587 61.1937Z" fill="white"/>
</g>
<path d="M141.61 79.0063C141.591 78.9525 141.581 78.9208 140.771 77.1107C140.388 76.2594 139.572 75.6866 138.641 75.617C138.518 75.6075 138.391 75.6012 138.268 75.5917C137.214 68.4903 134.053 61.7465 129.572 57.0502C127.565 54.9489 125.312 53.1863 122.875 51.8097C120.185 50.2938 117.328 49.2811 114.388 48.7906C113.514 47.9014 112.264 47.4014 110.942 47.5216L104.375 48.1292C103.052 48.2526 101.916 48.9742 101.22 50.009C98.416 51.0312 95.7957 52.5533 93.4286 54.5344C91.2861 56.335 89.3937 58.4806 87.8082 60.9142C84.2639 66.3542 82.3936 73.5663 82.6626 80.7373C82.5423 80.769 82.4189 80.8006 82.3018 80.8323C81.3999 81.0696 80.7037 81.7817 80.4822 82.6899C80.017 84.6171 80.0138 84.6519 80.0043 84.7057C79.8081 86.1899 80.4568 87.595 81.6974 88.3735C82.3683 88.7944 83.1278 88.9621 83.8651 88.8862C83.9316 88.8894 83.998 88.8894 84.0677 88.8862L89.8462 88.3514C89.8462 88.3514 89.8589 88.3672 89.8684 88.3767L90.3051 88.9653C90.8589 89.7122 91.6469 90.2248 92.5267 90.4147L92.6406 90.44L93.802 90.3292C99.3084 89.3292 105.217 88.5349 111.369 87.9653H111.375C117.527 87.3957 123.483 87.0919 129.078 87.0634L130.239 86.9589L130.347 86.9146C131.176 86.5697 131.856 85.9178 132.265 85.0823L132.584 84.4241C132.584 84.4241 132.594 84.4051 132.6 84.3956L138.379 83.8608C138.448 83.8545 138.515 83.8418 138.578 83.826C139.319 83.769 140.034 83.4621 140.616 82.9241C141.692 81.9304 142.072 80.4304 141.607 79.0095L141.61 79.0063ZM131.67 62.1769C134.179 66.0377 135.948 70.6707 136.711 75.4936C134.499 75.3702 132.141 75.3037 129.676 75.2942L128.951 67.4586C128.92 67.2529 128.897 67.0314 128.888 66.7909C128.749 62.9016 130.901 60.9617 130.901 60.9617L131.667 62.1737L131.67 62.1769ZM122.125 53.1388C124.432 54.4394 126.565 56.1104 128.467 58.1041C129.258 58.9332 130.008 59.8319 130.708 60.7876L129.746 61.5092C127.989 62.8225 127.027 64.9966 127.227 67.1801L127.977 75.2974C125.347 75.3132 122.606 75.3891 119.799 75.5252C119.502 75.1012 119.185 74.3543 119.113 73.886L115.552 51.1198C115.521 50.9236 115.476 50.7337 115.423 50.5501C117.736 51.0691 119.983 51.9362 122.122 53.1388H122.125ZM102.02 52.4679C101.976 51.0217 103.074 49.7843 104.514 49.6514L111.081 49.0438C112.521 48.9109 113.824 49.9267 114.049 51.3571L117.609 74.1233C117.679 74.5663 117.866 75.1138 118.106 75.617C115.54 75.7626 112.923 75.9588 110.286 76.2024H110.28C108.616 76.3575 106.964 76.5316 105.327 76.7214L104.394 52.7179C104.394 52.7179 104.331 52.028 104.796 51.8255C105.381 51.5723 107.84 50.6546 107.916 50.6293L104.511 50.9457C103.717 51.0185 103.115 51.7021 103.144 52.4995L104.093 76.867C103.555 76.9335 103.02 76.9968 102.486 77.0664C102.628 76.5284 102.714 75.9524 102.701 75.5062L102.02 52.4742V52.4679ZM89.0867 61.7465C90.5899 59.4395 92.3811 57.4047 94.4096 55.7021C96.2894 54.1261 98.34 52.8603 100.517 51.9267C100.495 52.1166 100.489 52.3128 100.495 52.509L101.176 75.541C101.191 76.0157 101.014 76.8069 100.802 77.2784C98.0172 77.6582 95.3115 78.0886 92.7229 78.5537L91.9729 70.4365C91.7703 68.253 90.4222 66.2941 88.457 65.3225L87.3778 64.7909C87.8905 63.7244 88.4633 62.7022 89.0899 61.7434L89.0867 61.7465ZM86.6785 66.3415L87.2101 65.0092C87.2101 65.0092 89.5551 66.4396 90.2102 70.0694C90.2481 70.2435 90.2735 70.4207 90.2924 70.5979L91.0583 78.8702C88.6374 79.3322 86.3335 79.8291 84.1816 80.3576C84.0455 75.4809 84.9316 70.6074 86.6848 66.3542V66.3415H86.6785ZM139.588 81.7975C139.034 82.3101 138.296 82.4462 137.622 82.1614L136.863 81.8418C135.591 81.3069 134.198 81.3354 133.037 81.9114C132.223 82.3165 131.613 82.9336 131.217 83.7469L130.898 84.4051C130.67 84.8735 130.306 85.2406 129.863 85.4526L129.04 85.5285C123.41 85.557 117.419 85.864 111.239 86.4336H111.233C105.049 87.0064 99.1059 87.8071 93.5678 88.8102L92.745 88.8862C92.2703 88.7596 91.8431 88.4621 91.533 88.0444L91.0962 87.4558C90.5583 86.7311 89.8431 86.2342 88.9696 85.9874C87.7228 85.633 86.3462 85.864 85.1943 86.6203L84.5075 87.0729C83.8968 87.4748 83.1499 87.4748 82.5107 87.0729C81.9442 86.7184 81.3904 85.9684 81.517 84.9273C81.536 84.8355 81.6277 84.4557 81.9695 83.0412C82.0581 82.6772 82.3335 82.3956 82.6942 82.3006C90.3019 80.2911 100.15 78.6613 110.426 77.712H110.432C120.707 76.7594 130.685 76.5537 138.534 77.1328C138.904 77.1613 139.23 77.3892 139.382 77.7278C139.977 79.0538 140.135 79.4145 140.173 79.5C140.489 80.5 140.081 81.3386 139.591 81.7911L139.588 81.7975Z" fill="#0A1B33"/>
<path d="M86.8558 91.2394C86.5013 90.0179 84.8906 90.0147 83.8621 90.1287C80.9285 90.4515 78.3208 91.7426 75.7449 93.0971C73.2322 94.4199 70.7891 95.9072 68.6182 97.749C67.2099 98.9421 65.9124 100.271 64.8839 101.809C64.4567 102.448 64.0738 103.116 63.751 103.812C63.4662 104.42 62.9693 105.237 63.2004 105.907C63.3048 106.208 63.5453 106.49 63.9029 106.645C64.7763 107.031 65.7004 106.528 66.4029 106.069C69.5296 104.031 73.0043 102.303 76.7227 100.939C79.8873 99.7776 83.4032 98.8725 86.9381 99.0149C88.0678 99.0592 88.9033 98.2902 88.6533 97.4326C88.6533 97.4326 86.859 91.2363 86.859 91.2331L86.8558 91.2394Z" fill="#0A1B33"/>
<path d="M76.7859 95.8051C76.4948 95.8051 76.2163 95.6437 76.077 95.3684C75.8808 94.976 76.0422 94.5013 76.4315 94.3083C78.3303 93.3621 80.3461 92.6722 82.4252 92.2576C82.8556 92.1722 83.2702 92.4506 83.3556 92.8779C83.4411 93.3051 83.1626 93.7228 82.7354 93.8083C80.7923 94.1943 78.9094 94.8399 77.1372 95.7228C77.0233 95.7798 76.903 95.8051 76.7859 95.8051Z" fill="white"/>
<path d="M72.3935 98.1189C72.1372 98.1189 71.8872 97.9955 71.7353 97.7677C71.4916 97.4037 71.5897 96.9132 71.9536 96.6695L73.5011 95.6379C73.8651 95.3942 74.3556 95.4923 74.5992 95.8562C74.8429 96.2202 74.7448 96.7107 74.3809 96.9543L72.8334 97.986C72.6973 98.0746 72.5454 98.1189 72.3935 98.1189Z" fill="white"/>
<path d="M135.698 90.503C136.183 89.3289 137.784 89.4998 138.797 89.7245C141.676 90.3638 144.129 91.9302 146.54 93.5568C148.895 95.1455 151.164 96.8892 153.12 98.9557C154.389 100.294 155.534 101.756 156.389 103.399C156.743 104.079 157.05 104.785 157.297 105.513C157.512 106.146 157.92 107.013 157.617 107.655C157.48 107.943 157.208 108.196 156.838 108.313C155.93 108.601 155.063 108 154.417 107.468C151.531 105.101 148.265 103.006 144.714 101.247C141.695 99.75 138.3 98.4683 134.768 98.2246C133.641 98.1455 132.891 97.2911 133.236 96.4651C133.236 96.4651 135.695 90.503 135.695 90.4998L135.698 90.503Z" fill="#0A1B33"/>
<path d="M144.486 96.1679C144.328 96.1679 144.167 96.1204 144.028 96.0223C142.297 94.785 140.376 93.8799 138.319 93.3293C137.898 93.2153 137.645 92.7818 137.759 92.3609C137.872 91.94 138.306 91.6868 138.727 91.8008C140.967 92.3989 143.059 93.3862 144.945 94.7343C145.3 94.9875 145.382 95.4812 145.129 95.8388C144.974 96.054 144.73 96.1711 144.483 96.1711L144.486 96.1679Z" fill="white"/>
<path d="M148.566 98.8338C148.407 98.8338 148.246 98.7863 148.107 98.6851L146.778 97.7357C146.423 97.4825 146.341 96.9888 146.594 96.6312C146.847 96.2768 147.341 96.1945 147.699 96.4477L149.028 97.3971C149.382 97.6502 149.464 98.1439 149.211 98.5015C149.056 98.7167 148.813 98.8338 148.566 98.8338Z" fill="white"/>
</g>
<defs>
<clipPath id="clip0_1348_13465">
<rect width="200" height="260.874" fill="white"/>
</clipPath>
</defs>
</svg>
