<svg width="25" height="25" viewBox="0 0 25 25" fill="none" xmlns="http://www.w3.org/2000/svg">
<g id="more-vertical">
<path id="Vector" d="M12.1074 13.5508C12.6597 13.5508 13.1074 13.1031 13.1074 12.5508C13.1074 11.9985 12.6597 11.5508 12.1074 11.5508C11.5551 11.5508 11.1074 11.9985 11.1074 12.5508C11.1074 13.1031 11.5551 13.5508 12.1074 13.5508Z" stroke="#0A1B33" stroke-width="2" stroke-linecap="round" stroke-linejoin="round"/>
<path id="Vector_2" d="M12.1074 6.55078C12.6597 6.55078 13.1074 6.10307 13.1074 5.55078C13.1074 4.9985 12.6597 4.55078 12.1074 4.55078C11.5551 4.55078 11.1074 4.9985 11.1074 5.55078C11.1074 6.10307 11.5551 6.55078 12.1074 6.55078Z" stroke="#0A1B33" stroke-width="2" stroke-linecap="round" stroke-linejoin="round"/>
<path id="Vector_3" d="M12.1074 20.5508C12.6597 20.5508 13.1074 20.1031 13.1074 19.5508C13.1074 18.9985 12.6597 18.5508 12.1074 18.5508C11.5551 18.5508 11.1074 18.9985 11.1074 19.5508C11.1074 20.1031 11.5551 20.5508 12.1074 20.5508Z" stroke="#0A1B33" stroke-width="2" stroke-linecap="round" stroke-linejoin="round"/>
</g>
</svg>
