<svg width="40" height="41" viewBox="0 0 40 41" fill="none" xmlns="http://www.w3.org/2000/svg">
<path d="M29.1667 40.5H10.8333C6.69833 40.5 3.33333 37.135 3.33333 33V8C3.33333 3.865 6.69833 0.5 10.8333 0.5H29.1667C33.3017 0.5 36.6667 3.865 36.6667 8V33C36.6667 37.135 33.3017 40.5 29.1667 40.5ZM10.8333 2.16667C7.61666 2.16667 4.99999 4.78333 4.99999 8V33C4.99999 36.2167 7.61666 38.8333 10.8333 38.8333H29.1667C32.3833 38.8333 35 36.2167 35 33V8C35 4.78333 32.3833 2.16667 29.1667 2.16667H10.8333ZM30 9.66667C30 9.20667 29.6267 8.83333 29.1667 8.83333H19.1667C18.7067 8.83333 18.3333 9.20667 18.3333 9.66667C18.3333 10.1267 18.7067 10.5 19.1667 10.5H29.1667C29.6267 10.5 30 10.1267 30 9.66667ZM30 19.6667C30 19.2067 29.6267 18.8333 29.1667 18.8333H19.1667C18.7067 18.8333 18.3333 19.2067 18.3333 19.6667C18.3333 20.1267 18.7067 20.5 19.1667 20.5H29.1667C29.6267 20.5 30 20.1267 30 19.6667ZM30 29.6667C30 29.2067 29.6267 28.8333 29.1667 28.8333H19.1667C18.7067 28.8333 18.3333 29.2067 18.3333 29.6667C18.3333 30.1267 18.7067 30.5 19.1667 30.5H29.1667C29.6267 30.5 30 30.1267 30 29.6667ZM14.1667 12.1667H10.8333C10.3733 12.1667 10 11.7933 10 11.3333V8C10 7.54 10.3733 7.16667 10.8333 7.16667H14.1667C14.6267 7.16667 15 7.54 15 8V11.3333C15 11.7933 14.6267 12.1667 14.1667 12.1667ZM11.6667 10.5H13.3333V8.83333H11.6667V10.5ZM14.1667 22.1667H10.8333C10.3733 22.1667 10 21.7933 10 21.3333V18C10 17.54 10.3733 17.1667 10.8333 17.1667H14.1667C14.6267 17.1667 15 17.54 15 18V21.3333C15 21.7933 14.6267 22.1667 14.1667 22.1667ZM11.6667 20.5H13.3333V18.8333H11.6667V20.5ZM14.1667 32.1667H10.8333C10.3733 32.1667 10 31.7933 10 31.3333V28C10 27.54 10.3733 27.1667 10.8333 27.1667H14.1667C14.6267 27.1667 15 27.54 15 28V31.3333C15 31.7933 14.6267 32.1667 14.1667 32.1667ZM11.6667 30.5H13.3333V28.8333H11.6667V30.5Z" fill="#FF0090"/>
</svg>
