<svg width="65" height="66" viewBox="0 0 65 66" fill="none" xmlns="http://www.w3.org/2000/svg">
  <g clip-path="url(#clip0_1582_12849)">
    <path d="M41.7853 5.56411C41.5695 5.41144 41.2999 5.35727 41.0431 5.41538C40.7858 5.47349 40.5651 5.63799 40.4342 5.86847C40.4279 5.8798 40.4201 5.89014 40.4132 5.90048C40.1124 6.33387 39.5182 6.43927 39.0885 6.13639C38.6642 5.83695 38.0797 5.94037 37.7829 6.36835L36.4166 8.33683C36.1198 8.76481 36.2228 9.35432 36.6466 9.65375C36.8107 9.76948 36.9982 9.82514 37.1837 9.82514C37.4791 9.82514 37.7702 9.68428 37.9523 9.42179L38.8727 8.09551C39.737 8.33831 40.6759 8.15116 41.3839 7.58874L42.7667 8.56535C43.1911 8.86478 43.775 8.76087 44.0724 8.33338C44.3693 7.90541 44.2662 7.3159 43.8419 7.01647L41.7853 5.56411Z" fill="#999999"/>
    <path d="M52.1527 17.4756L51.2323 18.8014C50.9354 19.2294 51.0384 19.8189 51.4623 20.1184C51.6263 20.2341 51.8138 20.2892 51.9994 20.2892C52.2948 20.2892 52.5858 20.1489 52.7679 19.8859L54.1346 17.9179C54.4315 17.4899 54.3285 16.9004 53.9047 16.601C53.475 16.2976 53.37 15.6983 53.6713 15.2644C53.6786 15.254 53.6854 15.2437 53.6937 15.2343C53.8636 15.0309 53.9413 14.7655 53.9071 14.502C53.8734 14.2385 53.7313 14.0011 53.5155 13.849L51.4589 12.3966C51.0345 12.0972 50.4501 12.2011 50.1532 12.6291C49.8558 13.0565 49.9593 13.6465 50.3832 13.946L51.766 14.9221C51.4838 15.7859 51.6307 16.7394 52.1527 17.4756Z" fill="#999999"/>
    <path d="M47.1772 38.7193C47.6226 38.7193 48.0361 38.899 48.3418 39.2261C48.6973 39.6053 49.2905 39.6225 49.667 39.264C50.0439 38.9054 50.0605 38.3071 49.7051 37.9274C49.0513 37.229 48.1299 36.8281 47.1772 36.8281C45.2603 36.8281 43.7012 38.4011 43.7012 40.3347C43.7012 42.2677 45.2603 43.8407 47.1772 43.8407C48.106 43.8407 48.979 43.4762 49.6352 42.8138C50.0015 42.4445 50.0015 41.8456 49.6352 41.4767C49.2695 41.1074 48.6758 41.1074 48.3096 41.4767C48.0073 41.7816 47.605 41.9495 47.1772 41.9495C46.2944 41.9495 45.5762 41.2251 45.5762 40.3347C45.5762 39.4437 46.2944 38.7193 47.1772 38.7193Z" fill="#999999"/>
    <path d="M55.5248 33.6734V26.0999C55.5248 23.5286 53.4506 21.4365 50.9013 21.4365H45.9262C46.2172 18.9012 45.3964 16.6712 43.665 15.4483C42.1982 14.4126 40.2978 14.2269 38.3134 14.9253C36.438 15.5857 34.6933 16.9736 33.4023 18.8332C32.8305 19.6562 32.3755 20.5289 32.0454 21.4365H25.9419L39.061 2.53917L57.2656 15.3956L54.4921 19.3912C54.1953 19.8192 54.2983 20.4087 54.7221 20.7081C55.1464 21.0076 55.7309 20.9036 56.0278 20.4757L59.0512 16.1206C59.5068 15.4661 59.3491 14.5594 58.6992 14.0994L39.7797 0.738137C39.4653 0.515531 39.0835 0.429838 38.705 0.496817C38.3266 0.564288 37.997 0.775566 37.7758 1.09322L33.4365 7.3444V3.57488C33.4365 2.77458 32.791 2.12351 31.9975 2.12351H9.51123C8.71777 2.12351 8.07226 2.77458 8.07226 3.57488V8.75144C8.07226 9.27397 8.49218 9.69702 9.00976 9.69702C9.52783 9.69702 9.94726 9.27397 9.94726 8.75144V4.01517H12.6636V21.436H10.1685C10.0947 21.436 10.021 21.438 9.94726 21.4414V12.5338C9.94726 12.0117 9.52783 11.5882 9.00976 11.5882C8.49218 11.5882 8.07226 12.0117 8.07226 12.5338V21.9438C6.57373 22.716 5.54492 24.289 5.54492 26.0999V54.5683C5.54492 57.1396 7.61914 59.2317 10.1685 59.2317H17.1684C17.6865 59.2317 18.1059 58.8086 18.1059 58.2861C18.1059 57.7641 17.6865 57.3405 17.1684 57.3405H10.1685C8.65283 57.3405 7.41992 56.097 7.41992 54.5683V26.0999C7.41992 24.8884 8.19433 23.8561 9.26953 23.4799C9.29345 23.473 9.31738 23.4651 9.34033 23.4562C9.60205 23.3725 9.88037 23.3272 10.1689 23.3272H50.9013C52.4169 23.3272 53.6503 24.5712 53.6503 26.0999V33.5424H46.9384C43.2255 33.5424 40.2046 36.589 40.2046 40.3343C40.2046 44.0792 43.2255 47.1258 46.9384 47.1258H53.6503V54.5683C53.6503 56.097 52.4169 57.3405 50.9013 57.3405H43.7378C43.2197 57.3405 42.8003 57.7641 42.8003 58.2861C42.8003 58.8086 43.2197 59.2317 43.7378 59.2317H50.9013C53.4506 59.2317 55.5253 57.1396 55.5253 54.5683V46.9948C57.6464 46.487 59.2289 44.5604 59.2289 42.2683V38.4003C59.2285 36.1078 57.6459 34.1812 55.5248 33.6734ZM34.938 19.9187C37.0761 16.8386 40.5088 15.5286 42.5898 16.9977C43.7885 17.8443 44.3164 19.5055 44.0356 21.436H34.0717C34.3095 20.914 34.5986 20.4062 34.938 19.9187ZM31.5615 10.0452L23.6533 21.4365H19.0337V4.01467H31.5615V10.0452ZM14.5386 4.01467H17.1587V21.436H14.5386V4.01467ZM57.3535 42.2679C57.3535 43.9039 56.0341 45.2346 54.4121 45.2346H46.9384C44.2592 45.2346 42.0796 43.0361 42.0796 40.3338C42.0796 37.632 44.2592 35.4336 46.9384 35.4336H54.4121C56.0341 35.4336 57.3535 36.7643 57.3535 38.4003V42.2679Z" fill="#999999"/>
    <path d="M30.5351 42.1777C24.29 42.1777 19.209 47.3026 19.209 53.602C19.209 59.901 24.29 65.0258 30.5351 65.0258C36.7807 65.0258 41.8618 59.901 41.8618 53.602C41.8618 47.3026 36.7807 42.1777 30.5351 42.1777ZM30.5351 63.1347C25.3237 63.1347 21.084 58.8584 21.084 53.602C21.084 48.3452 25.3237 44.0689 30.5351 44.0689C35.7471 44.0689 39.9868 48.3452 39.9868 53.602C39.9868 58.8584 35.7471 63.1347 30.5351 63.1347Z" fill="#999999"/>
    <path d="M31.3345 52.6566H29.7353C29.2642 52.6566 28.8809 52.27 28.8809 51.7948C28.8809 51.3195 29.2642 50.9329 29.7353 50.9329H32.7954C33.313 50.9329 33.7329 50.5094 33.7329 49.9873C33.7329 49.4653 33.313 49.0418 32.7954 49.0418H31.6445V48.2425C31.6445 47.7204 31.2246 47.2969 30.707 47.2969C30.1894 47.2969 29.7695 47.7204 29.7695 48.2425V49.0418H29.7353C28.2305 49.0418 27.0059 50.2769 27.0059 51.7948C27.0059 53.3126 28.2305 54.5478 29.7353 54.5478H31.3345C31.8057 54.5478 32.1885 54.9339 32.1885 55.4092C32.1885 55.8844 31.8057 56.271 31.3345 56.271H28.2744C27.7563 56.271 27.3369 56.6946 27.3369 57.2166C27.3369 57.7386 27.7563 58.1622 28.2744 58.1622H29.7695V58.9615C29.7695 59.4835 30.1894 59.9071 30.707 59.9071C31.2251 59.9071 31.6445 59.4835 31.6445 58.9615V58.1445C33.0039 57.9883 34.064 56.8216 34.064 55.4092C34.0635 53.8913 32.8393 52.6566 31.3345 52.6566Z" fill="#999999"/>
  </g>
  <defs>
    <clipPath id="clip0_1582_12849">
      <rect width="64" height="64.5517" fill="white" transform="translate(0.419922 0.474609)"/>
    </clipPath>
  </defs>
</svg>