<svg width="40" height="41" viewBox="0 0 40 41" fill="none" xmlns="http://www.w3.org/2000/svg">
<path d="M39.1667 18.8333C38.7067 18.8333 38.3333 18.46 38.3333 18C38.3333 9.27 31.23 2.16667 22.5 2.16667C22.04 2.16667 21.6667 1.79333 21.6667 1.33333C21.6667 0.873333 22.04 0.5 22.5 0.5C32.15 0.5 40 8.35 40 18C40 18.46 39.6267 18.8333 39.1667 18.8333ZM33.3333 18C33.3333 12.0267 28.4733 7.16667 22.5 7.16667C22.04 7.16667 21.6667 7.54 21.6667 8C21.6667 8.46 22.04 8.83333 22.5 8.83333C27.555 8.83333 31.6667 12.945 31.6667 18C31.6667 18.46 32.04 18.8333 32.5 18.8333C32.96 18.8333 33.3333 18.46 33.3333 18ZM37.0567 37.6183L38.6867 35.7433C39.5333 34.8967 40 33.77 40 32.5733C40 31.3767 39.5333 30.2483 38.605 29.3317L34.5283 26.21C32.7817 24.4633 29.94 24.4617 28.19 26.205L25.6367 28.695C19.5033 26.1967 14.5067 21.195 11.8133 14.8567L14.2933 12.315C16.0417 10.5667 16.0417 7.72167 14.365 6.055L11.1 1.81667C9.405 0.121667 6.41167 0.161667 4.8 1.77833L2.84333 3.485C1.00833 5.31 0 7.78833 0 10.46C0 23.375 17.125 40.5 30.04 40.5C32.7117 40.5 35.1883 39.4917 37.0567 37.6183ZM9.84833 2.91L13.1133 7.14833C14.2117 8.24667 14.2117 10.035 13.1067 11.1417L10.2367 14.085C10.0067 14.3217 9.93667 14.6717 10.06 14.9783C12.9417 22.1533 18.5817 27.7917 25.5367 30.445C25.84 30.5617 26.1833 30.49 26.415 30.265L29.3583 27.395C29.3583 27.395 29.3633 27.39 29.365 27.3867C30.43 26.32 32.205 26.2517 33.4317 27.4583L37.5083 30.58C38.6067 31.6783 38.6067 33.465 37.47 34.6067L35.8383 36.4817C34.325 37.9983 32.265 38.8333 30.04 38.8333C18.1067 38.8333 1.66667 22.3933 1.66667 10.46C1.66667 8.235 2.50167 6.175 3.97833 4.7L5.93667 2.99167C6.49667 2.43167 7.235 2.15833 7.96167 2.15833C8.66 2.15833 9.34667 2.41167 9.85 2.91167L9.84833 2.91Z" fill="#FF0090"/>
</svg>
