<svg width="57" height="57" viewBox="0 0 57 57" fill="none" xmlns="http://www.w3.org/2000/svg">
<rect x="0.554688" y="0.847656" width="55" height="55" rx="27.5" fill="white"/>
<rect x="0.554688" y="0.847656" width="55" height="55" rx="27.5" stroke="#E1E1E1"/>
<path d="M37.4724 21.9025C37.4712 21.9025 37.47 21.9023 37.4688 21.9023H32.1562V21.3164C32.1562 20.3472 31.3677 19.5586 30.3984 19.5586H25.7109C24.7417 19.5586 23.9531 20.3472 23.9531 21.3164V21.9023H18.6406C18.3144 21.9023 18.0547 22.1697 18.0547 22.4883V35.3789C18.0547 36.3481 18.8433 37.1367 19.8125 37.1367H36.2969C37.2661 37.1367 38.0547 36.3481 38.0547 35.3789V22.5006C38.0547 22.4999 38.0547 22.4991 38.0547 22.4984C38.0323 22.1135 37.7956 21.9046 37.4724 21.9025ZM25.125 21.3164C25.125 20.9934 25.3879 20.7305 25.7109 20.7305H30.3984C30.7215 20.7305 30.9844 20.9934 30.9844 21.3164V21.9023H25.125V21.3164ZM36.6558 23.0742L34.8362 28.5329C34.7563 28.7726 34.533 28.9336 34.2804 28.9336H30.9844V28.3477C30.9844 28.024 30.7221 27.7617 30.3984 27.7617H25.7109C25.3873 27.7617 25.125 28.024 25.125 28.3477V28.9336H21.8289C21.5764 28.9336 21.353 28.7726 21.2732 28.5329L19.4536 23.0742H36.6558ZM29.8125 28.9336V30.1055H26.2969V28.9336H29.8125ZM36.8828 35.3789C36.8828 35.7019 36.6199 35.9648 36.2969 35.9648H19.8125C19.4895 35.9648 19.2266 35.7019 19.2266 35.3789V26.099L20.1615 28.9035C20.401 29.6225 21.0712 30.1055 21.8289 30.1055H25.125V30.6914C25.125 31.015 25.3873 31.2773 25.7109 31.2773H30.3984C30.7221 31.2773 30.9844 31.015 30.9844 30.6914V30.1055H34.2804C35.0382 30.1055 35.7083 29.6225 35.9479 28.9035L36.8828 26.099V35.3789Z" fill="#0A1B33"/>
</svg>
