<svg width="30" height="30" viewBox="0 0 30 30" fill="none" xmlns="http://www.w3.org/2000/svg">
<path d="M12.3491 7.76846L5.27095 7.9501L2.38087 7.76846L1.9592 11.6235L1.23635 19.0629L0.753906 25.7192V28.5202L26.1743 28.7009L29.2465 28.5202L28.4333 16.2919L27.4393 7.9501L26.1743 7.49805L19.9096 7.9501L12.3491 7.76846Z" fill="white"/>
<path d="M29.9993 28.5361L28.4906 7.57422C28.4808 7.37891 28.4051 7.21289 28.2635 7.07617C28.1219 6.93945 27.9486 6.87109 27.7435 6.87109H24.3158L18.5296 1.09961C18.3831 0.953125 18.2074 0.879883 18.0023 0.879883C17.7972 0.879883 17.6214 0.953125 17.4749 1.09961L16.7132 1.84668C16.5667 1.99316 16.4935 2.16895 16.4935 2.37402C16.4935 2.5791 16.5667 2.75488 16.7132 2.90137C16.8597 3.04785 17.0379 3.12109 17.2479 3.12109C17.4578 3.12109 17.6361 3.04785 17.7826 2.90137L18.0023 2.68164L22.1917 6.87109H19.804L13.2855 0.352539C13.139 0.206055 12.9608 0.132812 12.7508 0.132812C12.5409 0.132812 12.3626 0.206055 12.2161 0.352539L5.68294 6.87109H2.25521C2.05013 6.87109 1.87679 6.93945 1.73519 7.07617C1.59359 7.21289 1.5179 7.37891 1.50814 7.57422L-0.000651042 28.5801C-0.0104167 28.6777 0.00179037 28.7754 0.0359701 28.873C0.0701497 28.9707 0.126302 29.0586 0.204427 29.1367C0.272786 29.2148 0.355794 29.2734 0.453451 29.3125C0.551107 29.3516 0.648763 29.3711 0.746419 29.3711H29.2523C29.4574 29.3711 29.6331 29.2979 29.7796 29.1514C29.9261 29.0049 29.9993 28.8291 29.9993 28.624C29.9993 28.6143 29.9993 28.5996 29.9993 28.5801C29.9993 28.5605 29.9993 28.5459 29.9993 28.5361ZM12.7435 1.93457L17.6947 6.87109H7.80697L12.7435 1.93457ZM1.55208 27.877L2.94369 8.37988H6.00521H27.055L28.4466 27.877H1.55208ZM14.9993 20.377C14.5892 20.377 14.1864 20.3208 13.7909 20.2085C13.3953 20.0962 13.0145 19.9351 12.6483 19.7251C12.2821 19.5151 11.9329 19.2539 11.6009 18.9414C11.2689 18.6289 10.9613 18.2676 10.6781 17.8574C10.4046 17.4766 10.1629 17.064 9.95296 16.6196C9.743 16.1753 9.56722 15.7114 9.42562 15.228C9.28402 14.7446 9.17659 14.2417 9.10335 13.7192C9.03011 13.1968 8.99349 12.667 8.99349 12.1299C8.99349 11.9248 9.06673 11.749 9.21322 11.6025C9.3597 11.4561 9.54036 11.3828 9.75521 11.3828C9.96029 11.3828 10.1361 11.4561 10.2826 11.6025C10.429 11.749 10.5023 11.9248 10.5023 12.1299C10.5023 12.5889 10.5316 13.0405 10.5902 13.4849C10.6488 13.9292 10.7391 14.3589 10.8612 14.7739C10.9832 15.189 11.1297 15.582 11.3006 15.9531C11.4715 16.3242 11.6742 16.6709 11.9085 16.9932C12.3285 17.5986 12.8045 18.0649 13.3368 18.3921C13.869 18.7192 14.4232 18.8828 14.9993 18.8828C15.5755 18.8828 16.1297 18.7192 16.6619 18.3921C17.1942 18.0649 17.6702 17.5986 18.0902 16.9932C18.3245 16.6709 18.5272 16.3242 18.6981 15.9531C18.869 15.582 19.0155 15.189 19.1375 14.7739C19.2596 14.3589 19.3499 13.9292 19.4085 13.4849C19.4671 13.0405 19.4964 12.5889 19.4964 12.1299C19.4964 11.9248 19.5697 11.749 19.7161 11.6025C19.8626 11.4561 20.0384 11.3828 20.2435 11.3828C20.4583 11.3828 20.639 11.4561 20.7855 11.6025C20.932 11.749 21.0052 11.9248 21.0052 12.1299C21.0052 12.667 20.9686 13.1968 20.8953 13.7192C20.8221 14.2417 20.7147 14.7446 20.5731 15.228C20.4315 15.7114 20.2557 16.1753 20.0457 16.6196C19.8358 17.064 19.5941 17.4766 19.3206 17.8574C19.0374 18.2676 18.7298 18.6289 18.3978 18.9414C18.0658 19.2539 17.7166 19.5151 17.3504 19.7251C16.9842 19.9351 16.6034 20.0962 16.2078 20.2085C15.8123 20.3208 15.4095 20.377 14.9993 20.377Z" fill="#FF0090"/>
</svg>