<svg width="31" height="30" viewBox="0 0 31 30" fill="none" xmlns="http://www.w3.org/2000/svg">
<path d="M30.494 28.7842L28.9852 7.82227C28.9754 7.62695 28.8997 7.46094 28.7581 7.32422C28.6165 7.1875 28.4432 7.11914 28.2381 7.11914H24.8104L19.0243 1.34766C18.8778 1.20117 18.702 1.12793 18.4969 1.12793C18.2918 1.12793 18.116 1.20117 17.9696 1.34766L17.2078 2.09473C17.0614 2.24121 16.9881 2.41699 16.9881 2.62207C16.9881 2.82715 17.0614 3.00293 17.2078 3.14941C17.3543 3.2959 17.5326 3.36914 17.7425 3.36914C17.9525 3.36914 18.1307 3.2959 18.2772 3.14941L18.4969 2.92969L22.6864 7.11914H20.2987L13.7801 0.600586C13.6336 0.454102 13.4554 0.380859 13.2454 0.380859C13.0355 0.380859 12.8573 0.454102 12.7108 0.600586L6.17757 7.11914H2.74984C2.54476 7.11914 2.37142 7.1875 2.22982 7.32422C2.08822 7.46094 2.01253 7.62695 2.00277 7.82227L0.493978 28.8281C0.484212 28.9258 0.496419 29.0234 0.530599 29.1211C0.564779 29.2188 0.620931 29.3066 0.699056 29.3848C0.767415 29.4629 0.850423 29.5215 0.948079 29.5605C1.04574 29.5996 1.14339 29.6191 1.24105 29.6191H29.7469C29.952 29.6191 30.1278 29.5459 30.2743 29.3994C30.4207 29.2529 30.494 29.0771 30.494 28.8721C30.494 28.8623 30.494 28.8477 30.494 28.8281C30.494 28.8086 30.494 28.7939 30.494 28.7842ZM13.2381 2.18262L18.1893 7.11914H8.3016L13.2381 2.18262ZM2.04671 28.125L3.43831 8.62793H6.49984H27.5496L28.9412 28.125H2.04671ZM15.494 20.625C15.0838 20.625 14.681 20.5688 14.2855 20.4565C13.89 20.3442 13.5091 20.1831 13.1429 19.9731C12.7767 19.7632 12.4276 19.502 12.0955 19.1895C11.7635 18.877 11.4559 18.5156 11.1727 18.1055C10.8993 17.7246 10.6576 17.312 10.4476 16.8677C10.2376 16.4233 10.0618 15.9595 9.92025 15.4761C9.77865 14.9927 9.67122 14.4897 9.59798 13.9673C9.52474 13.4448 9.48812 12.915 9.48812 12.3779C9.48812 12.1729 9.56136 11.9971 9.70784 11.8506C9.85433 11.7041 10.035 11.6309 10.2498 11.6309C10.4549 11.6309 10.6307 11.7041 10.7772 11.8506C10.9237 11.9971 10.9969 12.1729 10.9969 12.3779C10.9969 12.8369 11.0262 13.2886 11.0848 13.7329C11.1434 14.1772 11.2337 14.6069 11.3558 15.022C11.4779 15.437 11.6243 15.8301 11.7952 16.2012C11.9661 16.5723 12.1688 16.9189 12.4032 17.2412C12.8231 17.8467 13.2992 18.313 13.8314 18.6401C14.3636 18.9673 14.9178 19.1309 15.494 19.1309C16.0701 19.1309 16.6243 18.9673 17.1566 18.6401C17.6888 18.313 18.1649 17.8467 18.5848 17.2412C18.8192 16.9189 19.0218 16.5723 19.1927 16.2012C19.3636 15.8301 19.5101 15.437 19.6322 15.022C19.7542 14.6069 19.8446 14.1772 19.9032 13.7329C19.9618 13.2886 19.991 12.8369 19.991 12.3779C19.991 12.1729 20.0643 11.9971 20.2108 11.8506C20.3573 11.7041 20.533 11.6309 20.7381 11.6309C20.953 11.6309 21.1336 11.7041 21.2801 11.8506C21.4266 11.9971 21.4998 12.1729 21.4998 12.3779C21.4998 12.915 21.4632 13.4448 21.39 13.9673C21.3167 14.4897 21.2093 14.9927 21.0677 15.4761C20.9261 15.9595 20.7503 16.4233 20.5404 16.8677C20.3304 17.312 20.0887 17.7246 19.8153 18.1055C19.5321 18.5156 19.2244 18.877 18.8924 19.1895C18.5604 19.502 18.2113 19.7632 17.8451 19.9731C17.4788 20.1831 17.098 20.3442 16.7025 20.4565C16.307 20.5688 15.9041 20.625 15.494 20.625Z" fill="#FF0090"/>
</svg>
