<svg width="60" height="61" viewBox="0 0 60 61" fill="none" xmlns="http://www.w3.org/2000/svg">
<path d="M37.3477 55.7812H0.878906C0.398438 55.7812 0 55.3828 0 54.9023V51.082C0 50.6016 0.398438 50.2031 0.878906 50.2031H35.0742C35.5547 50.2031 35.9531 50.6016 35.9531 51.082C35.9531 51.5625 35.5547 51.9609 35.0742 51.9609H1.75781V54.0234H37.3477C37.8281 54.0234 38.2266 54.4219 38.2266 54.9023C38.2266 55.3828 37.8281 55.7812 37.3477 55.7812Z" fill="#FF0090"/>
<path d="M4.93359 51.8438C4.45312 51.8438 4.05469 51.4453 4.05469 50.9648V47.7773C4.05469 47.2969 4.45312 46.8984 4.93359 46.8984C5.41406 46.8984 5.8125 47.2969 5.8125 47.7773V50.9648C5.8125 51.4453 5.41406 51.8438 4.93359 51.8438Z" fill="#FF0090"/>
<path d="M30.0586 51.8438C29.5781 51.8438 29.1797 51.4453 29.1797 50.9648V32.5781H5.8125V43.6641C5.8125 44.1445 5.41406 44.543 4.93359 44.543C4.45312 44.543 4.05469 44.1445 4.05469 43.6641V32.2852C4.05469 31.4766 4.71094 30.8203 5.51953 30.8203H30.0586C30.5391 30.8203 30.9375 31.2188 30.9375 31.6992V50.9531C30.9375 51.4453 30.5508 51.8438 30.0586 51.8438Z" fill="#FF0090"/>
<path d="M8.34375 32.3437C7.86328 32.3437 7.46484 31.9453 7.46484 31.4648V25.7695C7.46484 25.2891 7.86328 24.8906 8.34375 24.8906C8.82422 24.8906 9.22266 25.2891 9.22266 25.7695V31.4648C9.22266 31.957 8.83594 32.3437 8.34375 32.3437Z" fill="#FF0090"/>
<path d="M30.0586 32.5781C29.5781 32.5781 29.1797 32.1797 29.1797 31.6992V15.6094H9.22266V21.668C9.22266 22.1484 8.82422 22.5469 8.34375 22.5469C7.86328 22.5469 7.46484 22.1484 7.46484 21.668V15.3164C7.46484 14.5078 8.12109 13.8516 8.92969 13.8516H29.4727C30.2812 13.8516 30.9375 14.5078 30.9375 15.3164V31.6992C30.9375 32.1914 30.5508 32.5781 30.0586 32.5781Z" fill="#FF0090"/>
<path d="M24.0938 15.4922C23.6133 15.4922 23.2148 15.0938 23.2148 14.6133V10.9688C23.2148 10.4883 23.6133 10.0898 24.0938 10.0898C24.5742 10.0898 24.9727 10.4883 24.9727 10.9688V14.6133C24.9727 15.1055 24.5742 15.4922 24.0938 15.4922Z" fill="#FF0090"/>
<path d="M50.0859 23.9766C49.6055 23.9766 49.207 23.5781 49.207 23.0977V1.78125H24.9727V6.86719C24.9727 7.34766 24.5742 7.74609 24.0938 7.74609C23.6133 7.74609 23.2148 7.34766 23.2148 6.86719V0.902344C23.2148 0.421875 23.6133 0.0234375 24.0938 0.0234375H49.5C50.3086 0.0234375 50.9648 0.679688 50.9648 1.48828V23.0977C50.9648 23.5898 50.5664 23.9766 50.0859 23.9766Z" fill="#FF0090"/>
<path d="M33.082 24.1172H30.1758C29.6953 24.1172 29.2969 23.7188 29.2969 23.2383C29.2969 22.7578 29.6953 22.3594 30.1758 22.3594H33.082C33.5625 22.3594 33.9609 22.7578 33.9609 23.2383C33.9609 23.7188 33.5742 24.1172 33.082 24.1172Z" fill="#FF0090"/>
<path d="M55.0664 38.4141C54.5859 38.4141 54.1875 38.0156 54.1875 37.5352V24.1172H37.1836C36.7031 24.1172 36.3047 23.7188 36.3047 23.2383C36.3047 22.7578 36.7031 22.3594 37.1836 22.3594H55.0664C55.5469 22.3594 55.9453 22.7578 55.9453 23.2383V37.5469C55.9453 38.0273 55.5469 38.4141 55.0664 38.4141Z" fill="#FF0090"/>
<path d="M44.6484 29.1328H40.418C39.9375 29.1328 39.5391 28.7344 39.5391 28.2539V23.332C39.5391 22.8516 39.9375 22.4531 40.418 22.4531C40.8984 22.4531 41.2969 22.8516 41.2969 23.332V27.375H43.7695V23.332C43.7695 22.8516 44.168 22.4531 44.6484 22.4531C45.1289 22.4531 45.5273 22.8516 45.5273 23.332V28.2539C45.5273 28.7461 45.1406 29.1328 44.6484 29.1328Z" fill="#FF0090"/>
<path d="M39.7266 7.74609H34.7695C34.2891 7.74609 33.8906 7.34766 33.8906 6.86719V0.960938C33.8906 0.480469 34.2891 0.0820312 34.7695 0.0820312C35.25 0.0820312 35.6484 0.480469 35.6484 0.960938V5.98828H38.8477V0.960938C38.8477 0.480469 39.2461 0.0820312 39.7266 0.0820312C40.207 0.0820312 40.6055 0.480469 40.6055 0.960938V6.86719C40.6055 7.35938 40.2187 7.74609 39.7266 7.74609Z" fill="#FF0090"/>
<path d="M21.3164 20.6953H17.0859C16.6055 20.6953 16.207 20.2969 16.207 19.8164V14.8945C16.207 14.4141 16.6055 14.0156 17.0859 14.0156C17.5664 14.0156 17.9648 14.4141 17.9648 14.8945V18.9375H20.4375V14.8945C20.4375 14.4141 20.8359 14.0156 21.3164 14.0156C21.7969 14.0156 22.1953 14.4141 22.1953 14.8945V19.8164C22.1953 20.2969 21.8086 20.6953 21.3164 20.6953Z" fill="#FF0090"/>
<path d="M21.3164 37.6172H17.0859C16.6055 37.6172 16.207 37.2188 16.207 36.7383V31.8164C16.207 31.3359 16.6055 30.9375 17.0859 30.9375C17.5664 30.9375 17.9648 31.3359 17.9648 31.8164V35.8594H20.4375V31.8164C20.4375 31.3359 20.8359 30.9375 21.3164 30.9375C21.7969 30.9375 22.1953 31.3359 22.1953 31.8164V36.7383C22.1953 37.2305 21.8086 37.6172 21.3164 37.6172Z" fill="#FF0090"/>
<path d="M7.03125 60.0235C5.09766 60.0235 3.51562 58.4532 3.51562 56.5079C3.51562 55.793 3.72656 55.1133 4.125 54.5274C4.39453 54.1289 4.94531 54.0235 5.34375 54.293C5.74219 54.5625 5.84766 55.1133 5.57812 55.5118C5.37891 55.8047 5.27344 56.1446 5.27344 56.4961C5.27344 57.4688 6.05859 58.2539 7.03125 58.2539C8.00391 58.2539 8.78906 57.4688 8.78906 56.4961C8.78906 56.1329 8.68359 55.793 8.47266 55.5C8.19141 55.1016 8.29687 54.5508 8.69531 54.2813C9.09375 54 9.64453 54.1055 9.91406 54.5039C10.3242 55.0899 10.5352 55.7813 10.5352 56.5079C10.5469 58.4532 8.96484 60.0235 7.03125 60.0235Z" fill="#FF0090"/>
<path d="M46.7813 60.0234C39.4922 60.0234 33.5625 54.0938 33.5625 46.8047C33.5625 39.5156 39.4922 33.5859 46.7813 33.5859C54.0703 33.5859 60 39.5156 60 46.8047C60 54.0938 54.0703 60.0234 46.7813 60.0234ZM46.7813 35.3438C40.4648 35.3438 35.3203 40.4883 35.3203 46.8047C35.3203 53.1211 40.4648 58.2656 46.7813 58.2656C53.0977 58.2656 58.2422 53.1211 58.2422 46.8047C58.2422 40.4766 53.0977 35.3438 46.7813 35.3438Z" fill="#FF0090"/>
<path d="M41.1563 53.2969C40.9336 53.2969 40.7109 53.2148 40.5352 53.0391C40.1953 52.6992 40.1953 52.1367 40.5352 51.7969L51.7734 40.5586C52.1133 40.2188 52.6758 40.2188 53.0156 40.5586C53.3555 40.8984 53.3555 41.4609 53.0156 41.8008L41.7773 53.0391C41.6016 53.2148 41.3789 53.2969 41.1563 53.2969Z" fill="#FF0090"/>
<path d="M42.8555 45.7383C41.2734 45.7383 39.9844 44.4492 39.9844 42.8672C39.9844 41.2852 41.2734 39.9961 42.8555 39.9961C44.4375 39.9961 45.7266 41.2852 45.7266 42.8672C45.7266 44.4492 44.4375 45.7383 42.8555 45.7383ZM42.8555 41.7656C42.2461 41.7656 41.7422 42.2578 41.7422 42.8789C41.7422 43.5 42.2344 43.9922 42.8555 43.9922C43.4766 43.9922 43.9688 43.5 43.9688 42.8789C43.9688 42.2578 43.4648 41.7656 42.8555 41.7656Z" fill="#FF0090"/>
<path d="M50.707 53.6016C49.125 53.6016 47.8359 52.3125 47.8359 50.7305C47.8359 49.1484 49.125 47.8594 50.707 47.8594C52.2891 47.8594 53.5781 49.1484 53.5781 50.7305C53.5781 52.3125 52.2891 53.6016 50.707 53.6016ZM50.707 49.6172C50.0977 49.6172 49.5938 50.1094 49.5938 50.7305C49.5938 51.3398 50.0859 51.8438 50.707 51.8438C51.3164 51.8438 51.8203 51.3516 51.8203 50.7305C51.8203 50.1211 51.3164 49.6172 50.707 49.6172Z" fill="#FF0090"/>
</svg>
