<svg width="32" height="33" viewBox="0 0 32 33" fill="none" xmlns="http://www.w3.org/2000/svg">
<path fill-rule="evenodd" clip-rule="evenodd" d="M0 16.0898C0 7.25359 7.16375 0.0898438 16 0.0898438C24.8363 0.0898438 32 7.25359 32 16.0898C32 24.9261 24.8363 32.0898 16 32.0898C7.16375 32.0898 0 24.9261 0 16.0898ZM16.1456 25.8714H16.1512L16.1505 25.8706H16.1561C18.7508 25.853 20.5798 25.1872 22.086 23.712C24.058 21.7817 23.9981 19.3616 23.3485 17.8765C22.8821 16.8113 21.9937 15.9461 20.7784 15.3747C20.6925 15.3345 20.6058 15.2959 20.5171 15.2585C20.3628 12.4763 18.8121 10.8834 16.2075 10.8672H16.1722C14.6146 10.8672 13.319 11.5196 12.5215 12.7053L13.9537 13.6684C14.5498 12.7821 15.4847 12.5933 16.173 12.5933H16.197C17.0543 12.5989 17.7018 12.8427 18.1203 13.3197C18.4247 13.6663 18.6289 14.1461 18.7297 14.7513C17.9695 14.6244 17.1474 14.5857 16.2681 14.635C15.0754 14.7019 14.0658 15.0661 13.3479 15.6868C12.5969 16.3364 12.2122 17.2284 12.2651 18.1985C12.3193 19.196 12.8266 20.0542 13.6931 20.615C14.4258 21.0892 15.3699 21.3208 16.3499 21.268C17.6448 21.1983 18.6677 20.7072 19.3892 19.809C19.9302 19.1362 20.2804 18.2428 20.4361 17.1424C21.0553 17.5073 21.5147 17.9892 21.7676 18.5676C22.1974 19.549 22.222 21.1623 20.8792 22.4777C19.7027 23.6303 18.288 24.1284 16.1505 24.1439C13.7791 24.1269 11.9861 23.3816 10.8201 21.9289C9.7288 20.5691 9.16451 18.6042 9.14337 16.0891C9.1638 13.5747 9.72814 11.6098 10.8201 10.2494C11.9861 8.79664 13.7791 8.05125 16.1505 8.03434C19.7422 8.06041 22.0191 9.7104 22.9188 12.9378L24.5815 12.4742C24.0503 10.5685 23.0879 9.0693 21.7204 8.01743C20.2656 6.89861 18.3937 6.32305 16.1562 6.30825H16.1449C13.2268 6.32798 10.9822 7.29036 9.47527 9.16931C8.13317 10.8411 7.44134 13.1668 7.41808 16.0827V16.0969C7.44134 19.0121 8.13317 21.3384 9.47527 23.0103C10.9829 24.8892 13.2268 25.8516 16.1456 25.8714ZM16.3668 16.3589C16.5711 16.3469 16.7713 16.3413 16.9685 16.3413V16.3412C17.6167 16.3412 18.2225 16.4033 18.7735 16.5209C18.5558 19.1037 17.2566 19.4918 16.2584 19.5454C15.1741 19.6039 14.0455 19.1284 13.9898 18.1054C13.937 17.129 14.8698 16.4435 16.3668 16.3589Z" fill="#6FDDEF"/>
</svg>
