<svg width="60" height="61" viewBox="0 0 60 61" fill="none" xmlns="http://www.w3.org/2000/svg">
<path d="M14.7214 18.0527C6.60411 18.0527 0 24.6568 0 32.7741C0 37.8181 2.39296 43.2375 7.13196 48.8797C7.83578 49.7243 8.53959 50.4985 9.20821 51.2023C6.15836 52.0351 4.31672 53.5366 4.31672 55.2844C4.31672 58.3812 9.67742 60.0469 14.7214 60.0469C19.7654 60.0469 25.1261 58.3812 25.1261 55.2844C25.1261 53.5366 23.2962 52.0351 20.2463 51.2023C21.4663 49.912 22.7801 48.3988 24.0235 46.7096C24.3167 46.3225 24.2229 45.7712 23.8358 45.478C23.4487 45.1847 22.8974 45.2785 22.6041 45.6656C21.1026 47.7067 19.4721 49.5014 18.0528 50.9208C17.8886 51.0029 17.7595 51.1319 17.6657 51.2961C16.3988 52.5513 15.3196 53.478 14.7214 53.9824C14.1232 53.478 13.0674 52.563 11.8123 51.3313C11.7185 51.1319 11.566 50.9794 11.3666 50.8973C7.3783 46.8856 1.7478 39.953 1.7478 32.7624C1.7478 25.6187 7.56598 19.8005 14.7097 19.8005C21.8534 19.8005 27.6716 25.6187 27.6716 32.7624C27.6716 35.8826 26.6041 39.2609 24.5044 42.78C24.2581 43.2023 24.3988 43.7419 24.8094 43.9882C25.2199 44.2346 25.7713 44.0938 26.0176 43.6832C28.2815 39.8826 29.4311 36.2111 29.4311 32.7624C29.4428 24.6568 22.8387 18.0527 14.7214 18.0527ZM14.1818 55.8357C14.346 55.953 14.5337 56.0234 14.7214 56.0234C14.9091 56.0234 15.0968 55.9648 15.261 55.8357C15.3666 55.7536 16.8446 54.6041 18.8035 52.692C21.7713 53.302 23.3666 54.4633 23.3666 55.3079C23.3666 55.9296 22.5103 56.6803 21.1261 57.2434C19.4252 57.9354 17.1496 58.3108 14.7214 58.3108C9.44281 58.3108 6.07625 56.5278 6.07625 55.3079C6.07625 54.4633 7.67155 53.302 10.651 52.692C12.61 54.6158 14.088 55.7653 14.1818 55.8357Z" fill="#FF0090"/>
<path d="M14.7213 26.3809C13.3254 26.3809 11.9999 26.8149 10.8856 27.6477C10.4985 27.941 10.4164 28.4923 10.7096 28.8794C11.0029 29.2665 11.5542 29.3486 11.9413 29.0553C12.7507 28.4571 13.7125 28.1287 14.7213 28.1287C17.2785 28.1287 19.3665 30.2049 19.3665 32.7738C19.3665 35.331 17.2903 37.419 14.7213 37.419C12.1524 37.419 10.0762 35.331 10.0762 32.7738C10.0762 32.3398 10.1348 31.9058 10.2521 31.4952C10.3812 31.026 10.1114 30.5451 9.65389 30.4043C9.18469 30.2753 8.70375 30.5451 8.56299 31.0026C8.39876 31.5773 8.31665 32.1756 8.31665 32.7738C8.31665 36.3046 11.1906 39.1785 14.7213 39.1785C18.2521 39.1785 21.126 36.3046 21.126 32.7738C21.126 29.243 18.2521 26.3809 14.7213 26.3809Z" fill="#FF0090"/>
<path d="M53.1027 25.5836C53.5484 25.1026 54.0176 24.5865 54.4751 24.0352C58.1467 19.6598 60 15.4487 60 11.5191C60 5.16129 54.827 0 48.481 0C43.8358 0 39.6716 2.7566 37.8534 7.03812C37.6657 7.48387 37.8769 8 38.3226 8.18768C38.7684 8.37537 39.2845 8.16422 39.4722 7.71847C41.0088 4.10557 44.5396 1.75953 48.4693 1.75953C53.8534 1.75953 58.2288 6.1349 58.2288 11.5191C58.2288 18.7918 50.5924 25.7713 48.4693 27.566C48.0001 27.1672 47.2728 26.522 46.4047 25.6774C46.3226 25.5015 46.1819 25.3724 46.0176 25.2903C42.9795 22.2287 38.7097 16.9619 38.7097 11.5191C38.7097 11.0381 38.3109 10.6393 37.83 10.6393C37.349 10.6393 36.9502 11.0381 36.9502 11.5191C36.9502 15.4487 38.8036 19.6481 42.4751 24.0352C42.9326 24.5865 43.4018 25.1026 43.8476 25.5836C41.5719 26.2639 40.2698 27.4252 40.2698 28.8211C40.2698 30.0059 41.2317 31.0381 42.9678 31.7419C44.4575 32.3519 46.4165 32.6804 48.481 32.6804C50.5455 32.6804 52.5045 32.3519 53.9942 31.7419C55.7303 31.0381 56.6921 29.9941 56.6921 28.8211C56.6804 27.4369 55.3666 26.2639 53.1027 25.5836ZM48.4693 30.9326C44.305 30.9326 42.0294 29.5484 42.0294 28.8328C42.0294 28.3636 43.0616 27.5191 45.2786 27.0499C46.7684 28.4927 47.871 29.3607 47.9414 29.4076C48.1056 29.5249 48.2933 29.5953 48.481 29.5953C48.6687 29.5953 48.8564 29.5367 49.0206 29.4076C49.091 29.349 50.1936 28.4927 51.6833 27.0499C52.6687 27.261 53.525 27.566 54.1115 27.9296C54.6159 28.2346 54.9209 28.5748 54.9209 28.8328C54.9209 29.5367 52.6452 30.9326 48.4693 30.9326Z" fill="#FF0090"/>
<path d="M48.4691 6.39258C45.6421 6.39258 43.343 8.6917 43.343 11.5187C43.343 14.3457 45.6421 16.6448 48.4691 16.6448C51.2961 16.6448 53.5952 14.3457 53.5952 11.5187C53.5952 8.6917 51.2961 6.39258 48.4691 6.39258ZM48.4691 14.8852C46.6157 14.8852 45.1025 13.3721 45.1025 11.5187C45.1025 9.66531 46.6157 8.15211 48.4691 8.15211C50.3225 8.15211 51.8357 9.66531 51.8357 11.5187C51.8357 13.3721 50.3342 14.8852 48.4691 14.8852Z" fill="#FF0090"/>
<path d="M37.0557 27.9414H36.6569C36.3636 27.9414 36.0704 27.9649 35.7771 28.0001C35.2962 28.0587 34.956 28.5045 35.0146 28.9854C35.0733 29.4311 35.4487 29.7479 35.8827 29.7479C35.9179 29.7479 35.9648 29.7479 36 29.7361C36.2111 29.7127 36.4223 29.6892 36.6451 29.6892H37.044C37.5249 29.6892 37.9237 29.2904 37.9237 28.8094C37.9237 28.3285 37.5366 27.9414 37.0557 27.9414Z" fill="#FF0090"/>
<path d="M34.1348 54.3691H32.9618C32.4809 54.3691 32.082 54.768 32.082 55.2489C32.082 55.7298 32.4809 56.1287 32.9618 56.1287H34.1231C34.604 56.1287 35.0029 55.7298 35.0029 55.2489C35.0146 54.7562 34.6275 54.3691 34.1348 54.3691Z" fill="#FF0090"/>
<path d="M38.0996 39.3545H36.9384C36.4574 39.3545 36.0586 39.7533 36.0586 40.2343C36.0586 40.7152 36.4574 41.114 36.9384 41.114H38.0996C38.5806 41.114 38.9794 40.7152 38.9794 40.2343C38.9794 39.7533 38.5806 39.3545 38.0996 39.3545Z" fill="#FF0090"/>
<path d="M33.4312 29.7363C33.1027 29.3844 32.5397 29.3609 32.1878 29.6894C31.8593 29.9944 31.5661 30.3345 31.2963 30.6982C31.0148 31.097 31.1086 31.6483 31.4957 31.9299C31.6482 32.0472 31.8359 32.0941 32.0118 32.0941C32.2816 32.0941 32.5514 31.965 32.7274 31.7304C32.915 31.4606 33.1379 31.2143 33.3843 30.9914C33.7362 30.6513 33.7596 30.0999 33.4312 29.7363Z" fill="#FF0090"/>
<path d="M38.7918 54.3457H37.6188C37.1378 54.3457 36.739 54.7445 36.739 55.2255C36.739 55.7064 37.1378 56.1052 37.6188 56.1052H38.7801C39.261 56.1052 39.6598 55.7064 39.6598 55.2255C39.6716 54.7445 39.2727 54.3457 38.7918 54.3457Z" fill="#FF0090"/>
<path d="M29.4898 54.3926H28.3168C27.8358 54.3926 27.437 54.7914 27.437 55.2723C27.437 55.7533 27.8358 56.1521 28.3168 56.1521H29.4781C29.959 56.1521 30.3578 55.7533 30.3578 55.2723C30.3696 54.7797 29.9707 54.3926 29.4898 54.3926Z" fill="#FF0090"/>
<path d="M34.0764 38.6158C33.7948 38.4398 33.5368 38.2404 33.3022 38.0058C32.9503 37.6656 32.3989 37.6773 32.0588 38.0292C31.7186 38.3811 31.7303 38.9325 32.0822 39.2726C32.3989 39.5776 32.7626 39.8592 33.1379 40.0938C33.2787 40.1876 33.4429 40.2345 33.6071 40.2345C33.9004 40.2345 34.1819 40.0938 34.3579 39.824C34.6159 39.4134 34.4869 38.8738 34.0764 38.6158Z" fill="#FF0090"/>
<path d="M31.9178 35.4608C31.8592 35.1558 31.824 34.8508 31.824 34.5341V34.4872C31.824 34.0063 31.4369 33.6074 30.9559 33.5957H30.9442C30.4633 33.5957 30.0645 33.9828 30.0645 34.4637V34.5341C30.0645 34.9564 30.0996 35.3904 30.1818 35.801C30.2639 36.2233 30.6275 36.5165 31.0498 36.5165C31.1084 36.5165 31.1671 36.5165 31.214 36.5048C31.695 36.3992 32.0117 35.9417 31.9178 35.4608Z" fill="#FF0090"/>
<path d="M42.7449 39.3545H41.5836C41.1027 39.3545 40.7039 39.7533 40.7039 40.2343C40.7039 40.7152 41.1027 41.114 41.5836 41.114H42.7449C43.2259 41.114 43.6247 40.7152 43.6247 40.2343C43.6247 39.7533 43.2376 39.3545 42.7449 39.3545Z" fill="#FF0090"/>
<path d="M56.8914 41.1495C56.5513 40.8797 56.1876 40.6333 55.8123 40.4222C55.39 40.1876 54.8504 40.3283 54.6158 40.7624C54.3812 41.1846 54.5219 41.7242 54.956 41.9588C55.2492 42.1231 55.5425 42.3225 55.8123 42.5336C55.9765 42.6627 56.1642 42.7213 56.3519 42.7213C56.6099 42.7213 56.868 42.604 57.0439 42.3811C57.3372 42.0058 57.2668 41.4427 56.8914 41.1495Z" fill="#FF0090"/>
<path d="M53.6188 54.9797C53.5484 54.4988 53.1027 54.1586 52.6218 54.229C52.3285 54.2641 52.0352 54.2876 51.742 54.2876H51.5778C51.0968 54.2876 50.698 54.6864 50.698 55.1674C50.698 55.6483 51.0968 56.0471 51.5778 56.0471H51.742C52.1174 56.0471 52.4927 56.0237 52.8564 55.965C53.349 55.9064 53.6892 55.4606 53.6188 54.9797Z" fill="#FF0090"/>
<path d="M57.5014 52.5045C57.1613 52.1526 56.6099 52.1408 56.258 52.4693C56.0117 52.7039 55.7419 52.9268 55.4604 53.1144C55.0615 53.396 54.956 53.9356 55.2375 54.3344C55.4135 54.5807 55.6832 54.7098 55.9648 54.7098C56.1407 54.7098 56.3167 54.6628 56.4692 54.5573C56.8211 54.3109 57.1613 54.0294 57.478 53.7361C57.8299 53.4077 57.8416 52.8564 57.5014 52.5045Z" fill="#FF0090"/>
<path d="M59.2259 48.2225C58.7449 48.1287 58.2875 48.4454 58.1936 48.9263C58.135 49.2665 58.0411 49.595 57.9238 49.9117C57.7596 50.3692 57.9942 50.8736 58.4634 51.0378C58.5573 51.073 58.6628 51.0847 58.7567 51.0847C59.1203 51.0847 59.4605 50.8618 59.5895 50.4982C59.7303 50.0876 59.8476 49.6653 59.9297 49.2431C60.0118 48.7738 59.6951 48.3164 59.2259 48.2225Z" fill="#FF0090"/>
<path d="M59.742 45.3959C59.6247 44.9853 59.4722 44.5748 59.2845 44.1759C59.0734 43.7302 58.5572 43.5425 58.1115 43.7536C57.6657 43.9648 57.478 44.4809 57.6892 44.9267C57.83 45.2316 57.959 45.5601 58.0528 45.8885C58.1584 46.2756 58.5103 46.522 58.8974 46.522C58.9795 46.522 59.0616 46.5102 59.1437 46.4868C59.6129 46.346 59.8827 45.8651 59.742 45.3959Z" fill="#FF0090"/>
<path d="M47.4017 39.3545H46.2404C45.7594 39.3545 45.3606 39.7533 45.3606 40.2343C45.3606 40.7152 45.7594 41.114 46.2404 41.114H47.4017C47.8826 41.114 48.2814 40.7152 48.2814 40.2343C48.2814 39.7533 47.8826 39.3545 47.4017 39.3545Z" fill="#FF0090"/>
<path d="M43.4488 54.3223H42.2758C41.7948 54.3223 41.396 54.7211 41.396 55.202C41.396 55.683 41.7948 56.0818 42.2758 56.0818H43.4371C43.918 56.0818 44.3168 55.683 44.3168 55.202C44.3285 54.7211 43.9297 54.3223 43.4488 54.3223Z" fill="#FF0090"/>
<path d="M52.0938 39.3662C51.9648 39.3662 51.8475 39.3545 51.7185 39.3545H50.8856C50.4047 39.3545 50.0059 39.7533 50.0059 40.2343C50.0059 40.7152 50.4047 41.114 50.8856 41.114H51.7185C51.8123 41.114 51.9179 41.114 52.0117 41.1258C52.0235 41.1258 52.0352 41.1258 52.0469 41.1258C52.5161 41.1258 52.9032 40.7621 52.9267 40.2812C52.9501 39.7885 52.5748 39.378 52.0938 39.3662Z" fill="#FF0090"/>
<path d="M48.0938 54.3105H46.9208C46.4398 54.3105 46.041 54.7094 46.041 55.1903C46.041 55.6713 46.4398 56.0701 46.9208 56.0701H48.0821C48.563 56.0701 48.9618 55.6713 48.9618 55.1903C48.9736 54.6976 48.5865 54.3105 48.0938 54.3105Z" fill="#FF0090"/>
</svg>
