<svg width="10" height="17" viewBox="0 0 10 17" fill="none" xmlns="http://www.w3.org/2000/svg">
<path fill-rule="evenodd" clip-rule="evenodd" d="M5.33333 0.715495C5.33333 0.347305 5.03486 0.0488281 4.66667 0.0488281C4.29848 0.0488281 4 0.347305 4 0.715495V2.71545H3C2.20435 2.71545 1.44129 3.03152 0.87868 3.59413C0.316071 4.15674 0 4.9198 0 5.71545C0 6.5111 0.316071 7.27417 0.87868 7.83677C1.44129 8.39938 2.20435 8.71545 3 8.71545H4V12.0488H0.666667C0.298477 12.0488 0 12.3473 0 12.7155C0 13.0836 0.298477 13.3821 0.666667 13.3821H4V15.3822C4 15.7504 4.29848 16.0488 4.66667 16.0488C5.03486 16.0488 5.33333 15.7504 5.33333 15.3822V13.3821H6.33333C7.12898 13.3821 7.89204 13.0661 8.45465 12.5034C9.01726 11.9408 9.33333 11.1778 9.33333 10.3821C9.33333 9.58647 9.01726 8.82341 8.45465 8.2608C7.89204 7.69819 7.12898 7.38212 6.33333 7.38212H5.33333V4.04879H8C8.36819 4.04879 8.66667 3.75031 8.66667 3.38212C8.66667 3.01393 8.36819 2.71545 8 2.71545H5.33333V0.715495ZM4 4.04879H3C2.55797 4.04879 2.13405 4.22438 1.82149 4.53694C1.50893 4.8495 1.33333 5.27343 1.33333 5.71545C1.33333 6.15748 1.50893 6.5814 1.82149 6.89397C2.13405 7.20653 2.55797 7.38212 3 7.38212H4V4.04879ZM5.33333 8.71545V12.0488H6.33333C6.77536 12.0488 7.19928 11.8732 7.51184 11.5606C7.82441 11.2481 8 10.8241 8 10.3821C8 9.94009 7.82441 9.51617 7.51184 9.20361C7.19928 8.89105 6.77536 8.71545 6.33333 8.71545H5.33333Z" fill="#0A1B33"/>
</svg>
