<svg width="29" height="30" viewBox="0 0 29 30" fill="none" xmlns="http://www.w3.org/2000/svg">
<path d="M14.7468 16.5088C13.6042 16.5088 12.5325 16.2915 11.5315 15.8569C10.5305 15.4224 9.65649 14.8315 8.90942 14.0845C8.16235 13.3374 7.57397 12.4634 7.14429 11.4624C6.7146 10.4614 6.49976 9.39453 6.49976 8.26172C6.49976 7.11914 6.7146 6.04736 7.14429 5.04639C7.57397 4.04541 8.16235 3.17139 8.90942 2.42432C9.65649 1.67725 10.5305 1.08643 11.5315 0.651855C12.5325 0.217285 13.6042 0 14.7468 0C15.8796 0 16.9465 0.217285 17.9475 0.651855C18.9485 1.08643 19.8225 1.67725 20.5696 2.42432C21.3167 3.17139 21.9075 4.04541 22.342 5.04639C22.7766 6.04736 22.9939 7.11914 22.9939 8.26172C22.9939 9.39453 22.7766 10.4614 22.342 11.4624C21.9075 12.4634 21.3167 13.3374 20.5696 14.0845C19.8225 14.8315 18.9485 15.4224 17.9475 15.8569C16.9465 16.2915 15.8796 16.5088 14.7468 16.5088ZM14.7468 1.50879C13.8191 1.50879 12.9451 1.68457 12.1248 2.03613C11.3044 2.3877 10.5891 2.86865 9.97876 3.479C9.36841 4.08936 8.88501 4.80469 8.52856 5.625C8.17212 6.44531 7.9939 7.32422 7.9939 8.26172C7.9939 9.18945 8.17212 10.0635 8.52856 10.8838C8.88501 11.7041 9.36841 12.4194 9.97876 13.0298C10.5891 13.6401 11.3044 14.1211 12.1248 14.4727C12.9451 14.8242 13.8191 15 14.7468 15C15.6746 15 16.5486 14.8242 17.3689 14.4727C18.1892 14.1211 18.9045 13.6401 19.5149 13.0298C20.1252 12.4194 20.6086 11.7041 20.9651 10.8838C21.3215 10.0635 21.4998 9.18945 21.4998 8.26172C21.4998 7.32422 21.3215 6.44531 20.9651 5.625C20.6086 4.80469 20.1252 4.08936 19.5149 3.479C18.9045 2.86865 18.1892 2.3877 17.3689 2.03613C16.5486 1.68457 15.6746 1.50879 14.7468 1.50879ZM26.7439 30H2.74976C2.12476 30 1.59253 29.7803 1.15308 29.3408C0.713623 28.9014 0.493896 28.374 0.493896 27.7588C0.493896 27.7295 0.503662 27.5684 0.523193 27.2754C0.542725 26.9824 0.611084 26.6064 0.728271 26.1475C0.845459 25.6885 1.02856 25.1685 1.27759 24.5874C1.52661 24.0063 1.87573 23.4131 2.32495 22.8076C2.59839 22.4561 2.89136 22.1216 3.20386 21.8042C3.51636 21.4868 3.85083 21.189 4.20728 20.9106C4.56372 20.6323 4.94458 20.3735 5.34985 20.1343C5.75513 19.895 6.18237 19.6777 6.63159 19.4824C7.17847 19.2383 7.75952 19.0234 8.37476 18.8379C8.98999 18.6523 9.63696 18.4985 10.3157 18.3765C10.9944 18.2544 11.7024 18.1616 12.4397 18.0981C13.177 18.0347 13.946 18.0029 14.7468 18.0029C15.5378 18.0029 16.3044 18.0347 17.0466 18.0981C17.7888 18.1616 18.4968 18.2544 19.1707 18.3765C19.8445 18.4985 20.489 18.6523 21.1042 18.8379C21.7195 19.0234 22.3005 19.2383 22.8474 19.4824C23.2966 19.6777 23.7239 19.895 24.1292 20.1343C24.5344 20.3735 24.9177 20.6323 25.2791 20.9106C25.6404 21.189 25.9773 21.4868 26.2898 21.8042C26.6023 22.1216 26.8904 22.4561 27.1541 22.8076C27.613 23.4131 27.9646 24.0063 28.2087 24.5874C28.4529 25.1685 28.6335 25.6885 28.7507 26.1475C28.8679 26.6064 28.9387 26.9824 28.9631 27.2754C28.9875 27.5684 28.9998 27.7295 28.9998 27.7588C28.9998 28.374 28.78 28.9014 28.3406 29.3408C27.9011 29.7803 27.3689 30 26.7439 30ZM14.7468 19.5117C13.4382 19.5117 12.2175 19.5996 11.0847 19.7754C9.9519 19.9512 8.91675 20.2124 7.97925 20.5591C7.04175 20.9058 6.20435 21.3379 5.46704 21.8555C4.72974 22.373 4.10229 22.9688 3.58472 23.6426C3.19409 24.1504 2.89136 24.6484 2.67651 25.1367C2.46167 25.625 2.30298 26.062 2.20044 26.4478C2.0979 26.8335 2.03687 27.146 2.01733 27.3853C1.9978 27.6245 1.98804 27.749 1.98804 27.7588C1.98804 27.9639 2.06128 28.1396 2.20776 28.2861C2.35425 28.4326 2.53491 28.5059 2.74976 28.5059H26.7439C26.949 28.5059 27.1248 28.4326 27.2712 28.2861C27.4177 28.1396 27.491 27.9639 27.491 27.7588C27.491 27.749 27.4812 27.6245 27.4617 27.3853C27.4421 27.146 27.3811 26.8335 27.2786 26.4478C27.176 26.062 27.0198 25.625 26.8098 25.1367C26.5999 24.6484 26.2996 24.1504 25.9089 23.6426C25.3914 22.9688 24.7639 22.373 24.0266 21.8555C23.2893 21.3379 22.4495 20.9058 21.5071 20.5591C20.5647 20.2124 19.5295 19.9512 18.4016 19.7754C17.2737 19.5996 16.0554 19.5117 14.7468 19.5117Z" fill="#FF0090"/>
</svg>
