<svg width="34" height="35" viewBox="0 0 34 35" fill="none" xmlns="http://www.w3.org/2000/svg">
<g clip-path="url(#clip0_754_18541)">
<path d="M16 0.0898438C7.16479 0.0898438 0 7.25464 0 16.0898C0 24.925 7.16479 32.0898 16 32.0898C24.8352 32.0898 32 24.925 32 16.0898C32 7.25464 24.8352 0.0898438 16 0.0898438ZM16.3391 25.4055C16.3389 25.4055 16.3394 25.4055 16.3391 25.4055H16.3352C14.7324 25.4048 13.1575 25.0029 11.7588 24.2402L6.68237 25.5715L8.04102 20.6106C7.20288 19.1589 6.76196 17.512 6.7627 15.8247C6.76489 10.5464 11.0608 6.2522 16.3391 6.2522C18.9006 6.25317 21.3052 7.25024 23.113 9.05957C24.9211 10.8691 25.9163 13.2744 25.9153 15.8323C25.9131 21.1108 21.6167 25.4055 16.3391 25.4055Z" fill="#6FDDEF"/>
<path d="M16.3423 7.86914C11.9519 7.86914 8.38135 11.4382 8.37939 15.8254C8.37891 17.3289 8.79981 18.793 9.59644 20.0598L9.78565 20.3608L8.98145 23.2971L11.9939 22.5071L12.2847 22.6794C13.5066 23.4045 14.9075 23.7881 16.3357 23.7886H16.3389C20.7258 23.7886 24.2964 20.2192 24.2983 15.8318C24.2991 13.7056 23.4719 11.7065 21.9692 10.2026C20.4666 8.69873 18.468 7.86987 16.3423 7.86914ZM21.0239 19.2463C20.8245 19.8049 19.8687 20.3149 19.4089 20.3838C18.9966 20.4453 18.4751 20.4709 17.9019 20.2891C17.5542 20.1787 17.1086 20.0315 16.5376 19.7852C14.1375 18.749 12.5698 16.333 12.4502 16.1733C12.3306 16.0137 11.4731 14.8762 11.4731 13.6987C11.4731 12.5215 12.0913 11.9426 12.3105 11.7034C12.53 11.4639 12.7893 11.4041 12.9487 11.4041C13.1082 11.4041 13.2678 11.4055 13.4072 11.4124C13.5542 11.4197 13.7515 11.3564 13.9456 11.823C14.145 12.302 14.6235 13.4792 14.6834 13.5989C14.7432 13.7188 14.783 13.8584 14.7034 14.0181C14.6235 14.1777 14.3584 14.5222 14.1052 14.8362C13.999 14.9678 13.8606 15.085 14.0002 15.3245C14.1396 15.5637 14.6201 16.3472 15.3313 16.9814C16.2454 17.7964 17.0164 18.0488 17.2556 18.1687C17.4946 18.2883 17.6343 18.2683 17.7739 18.1089C17.9133 17.9492 18.3721 17.4104 18.5315 17.1709C18.6909 16.9314 18.8506 16.9714 19.0698 17.0513C19.2893 17.1309 20.4656 17.7097 20.7048 17.8293C20.9441 17.9492 21.1035 18.009 21.1633 18.1089C21.2234 18.2087 21.2234 18.6875 21.0239 19.2463Z" fill="#6FDDEF"/>
</g>
<defs>
<clipPath id="clip0_754_18541">
<rect width="32" height="32" fill="white" transform="translate(0 0.0898438)"/>
</clipPath>
</defs>
</svg>
