<svg width="191" height="55" viewBox="0 0 191 55" fill="none" xmlns="http://www.w3.org/2000/svg">
<path d="M171.548 26.6126H163.83L163.493 26.9497L163.214 27.229L162.316 28.127L162.037 28.4064L161.203 29.24L160.03 26.6126H152.312L152.143 26.7811L151.527 27.3975L151.248 27.6769L150.968 27.9563L150.352 28.5727L150.072 28.852L149.793 29.1314L149.609 29.3154C147.964 27.2401 145.026 26.0362 141.412 26.0362C137.21 26.0362 133.865 27.0073 133.865 27.0073L133.528 27.3443L133.248 27.6237L132.35 28.5217L132.071 28.801L131.173 29.699L129.477 31.3952V21.2026H117.47L117.133 21.5396L116.854 21.819L115.956 22.717L115.677 22.9964L114.779 23.8943L114.61 24.0628L113.386 28.6436L111.38 21.2026H99.3735L96.97 23.6039V21.2026L89.5379 22.0607L89.3694 22.2292L88.753 22.8456L88.4737 23.125L88.1943 23.4043L87.5779 24.0207L87.2985 24.3001L87.0192 24.5795L84.3408 27.2579V25.7435L76.8798 26.6016L76.7113 26.7701L76.0949 27.3864L75.8156 27.6658L75.5362 27.9452L74.9198 28.5616L74.891 28.5904V26.5993H70.7736V21.196H68.6872L68.6318 21.2514L68.5764 21.3068L68.5209 21.3623L68.4655 21.4177L68.4101 21.4731L68.3546 21.5286L68.2992 21.584L68.2438 21.6394L68.1883 21.6949L68.1329 21.7503L68.0775 21.8057L68.022 21.8611L67.9666 21.9166L67.9112 21.972L67.8558 22.0274L67.8003 22.0829L67.7449 22.1383L67.6895 22.1937L67.634 22.2492L67.5786 22.3046L67.5232 22.36L67.4677 22.4154L67.4123 22.4709L67.3569 22.5263L67.3015 22.5817L67.246 22.6372L67.1906 22.6926L67.1352 22.748L67.0797 22.8035L67.0243 22.8589L66.9689 22.9143L66.9134 22.9698L66.858 23.0252L66.8026 23.0806L66.7471 23.136L66.6917 23.1915L66.6363 23.2469L66.5809 23.3023L66.5254 23.3578L66.47 23.4132L66.4146 23.4686L66.3591 23.5241L66.3037 23.5795L66.2483 23.6349L66.1928 23.6903L66.1374 23.7458L66.082 23.8012L66.0266 23.8566L65.9711 23.9121L65.9157 23.9675L65.8603 24.0229L61.8471 28.0804V25.994C58.7297 25.994 56.7298 26.9896 55.4504 28.3199C55.4327 28.3376 55.4127 28.3576 55.395 28.3753C55.3773 28.3931 55.3573 28.413 55.3396 28.4308C55.3218 28.4485 55.3019 28.4685 55.2841 28.4862C55.2664 28.5039 55.2464 28.5239 55.2287 28.5416C55.211 28.5594 55.191 28.5793 55.1733 28.5971C55.1555 28.6148 55.1356 28.6347 55.1178 28.6525C55.1001 28.6702 55.0801 28.6902 55.0624 28.7079C55.0447 28.7256 55.0247 28.7456 55.007 28.7633C54.9892 28.7811 54.9693 28.801 54.9515 28.8188C54.9338 28.8365 54.9139 28.8565 54.8961 28.8742C54.8784 28.8919 54.8584 28.9119 54.8407 28.9296C54.8229 28.9474 54.803 28.9673 54.7853 28.9851C54.7675 29.0028 54.7476 29.0228 54.7298 29.0405C54.7121 29.0582 54.6921 29.0782 54.6744 29.0959C54.6567 29.1137 54.6367 29.1336 54.619 29.1514C54.6012 29.1691 54.5813 29.189 54.5635 29.2068C54.5458 29.2267 54.5258 29.2445 54.5081 29.2622C54.4904 29.28 54.4704 29.2999 54.4527 29.3176C54.4349 29.3354 54.415 29.3553 54.3972 29.3731C54.3795 29.3908 54.3595 29.4108 54.3418 29.4285C54.3241 29.4462 54.3041 29.4662 54.2864 29.4839C54.2686 29.5017 54.2487 29.5216 54.2309 29.5394C54.2132 29.5571 54.1933 29.5771 54.1755 29.5948C54.1644 29.6059 54.1533 29.6148 54.1445 29.6258V25.6947L46.7124 26.5528L46.3753 26.8898L46.096 27.1692L45.198 28.0671L44.9186 28.3465L44.0207 29.2445L43.8522 29.413V30.4484C42.4819 27.6481 39.1583 25.983 34.9012 25.983C30.6442 25.983 27.3538 26.9541 27.3538 26.9541L27.0168 27.2911L26.7374 27.5705L25.8395 28.4685L25.5601 28.7478L24.8572 29.4507C24.8794 29.1979 24.8927 28.9385 24.8927 28.6702C24.8927 23.4642 20.7776 21.1494 16.3453 21.1494H4.07969L3.91118 21.3179L3.63182 21.5973L3.2948 21.9343L3.01543 22.2137L2.90235 22.3268L2.73384 22.4953L2.45447 22.7746L2.11745 23.1117L2.00438 23.2247L1.83587 23.3932L1.72279 23.5063L1.55428 23.6748L1.27491 23.9542L1.21948 24.0096V41.5057C1.21948 42.9646 1.33921 44.275 1.57645 45.4501C2.79149 51.4876 7.0419 53.911 13.4563 53.911C16.8287 53.911 19.6867 52.8822 19.6867 52.8822L20.0237 52.5452L21.2011 51.3679L22.3784 50.1905L22.5469 50.022V43.734C20.5736 44.6763 18.7732 44.9912 17.2588 44.9912C13.6004 44.9912 11.7956 43.0178 11.7956 39.9891V39.018H13.4829C15.995 39.018 18.4029 38.273 20.0215 36.6855C20.0414 36.6677 20.0592 36.6478 20.0769 36.63C20.0969 36.6123 20.1146 36.5923 20.1324 36.5746C20.1523 36.5569 20.17 36.5369 20.1878 36.5192C20.2077 36.5014 20.2255 36.4815 20.2432 36.4637C20.2632 36.446 20.2809 36.426 20.2986 36.4083C20.3186 36.3906 20.3363 36.3706 20.3541 36.3529C20.374 36.3351 20.3918 36.3152 20.4095 36.2975C20.4295 36.2797 20.4472 36.2598 20.4649 36.242C20.4849 36.2243 20.5026 36.2043 20.5204 36.1866C20.5403 36.1689 20.5581 36.1489 20.5758 36.1312C20.5957 36.1134 20.6135 36.0935 20.6312 36.0757C20.6512 36.058 20.6689 36.038 20.6867 36.0203C20.7066 36.0026 20.7243 35.9826 20.7421 35.9649C20.762 35.9471 20.7798 35.9272 20.7975 35.9094C20.8175 35.8917 20.8352 35.8717 20.8529 35.854C20.8729 35.8363 20.8906 35.8163 20.9084 35.7986C20.9283 35.7808 20.9461 35.7609 20.9638 35.7431C20.9838 35.7254 21.0015 35.7055 21.0192 35.6877C21.0392 35.67 21.0569 35.65 21.0747 35.6323C21.0946 35.6145 21.1124 35.5946 21.1301 35.5769C21.1501 35.5591 21.1678 35.5392 21.1855 35.5214C21.2055 35.5037 21.2232 35.4837 21.241 35.466C21.2609 35.4483 21.2787 35.4283 21.2964 35.4106C21.3163 35.3928 21.3341 35.3729 21.3518 35.3551C21.3718 35.3374 21.3895 35.3174 21.4073 35.2997C21.4272 35.282 21.4449 35.262 21.4627 35.2443C21.4826 35.2265 21.5004 35.2066 21.5181 35.1888C21.5381 35.1711 21.5558 35.1511 21.5735 35.1334C21.5935 35.1157 21.6112 35.0957 21.629 35.078C21.6489 35.0602 21.6667 35.0403 21.6844 35.0225C21.7044 35.0048 21.7221 34.9849 21.7398 34.9671C21.7598 34.9494 21.7775 34.9294 21.7953 34.9117C21.8152 34.894 21.833 34.874 21.8507 34.8563C21.8706 34.8385 21.8884 34.8186 21.9061 34.8008C21.9261 34.7831 21.9438 34.7631 21.9616 34.7454C21.9815 34.7277 21.9992 34.7077 22.017 34.69C22.0369 34.6722 22.0547 34.6523 22.0724 34.6345C22.0924 34.6168 22.1101 34.5968 22.1278 34.5791C22.1478 34.5614 22.1655 34.5414 22.1833 34.5237C22.2032 34.5059 22.221 34.486 22.2387 34.4682C22.2587 34.4505 22.2764 34.4306 22.2941 34.4128C22.3141 34.3951 22.3318 34.3751 22.3496 34.3574C22.3695 34.3396 22.3873 34.3197 22.405 34.302C22.425 34.2842 22.4427 34.2643 22.4604 34.2465C22.4804 34.2288 22.4981 34.2088 22.5159 34.1911C22.5358 34.1734 22.5536 34.1534 22.5713 34.1357C22.5912 34.1179 22.609 34.098 22.6267 34.0802C22.6467 34.0625 22.6644 34.0425 22.6822 34.0248C22.7021 34.0071 22.7198 33.9871 22.7376 33.9694C22.7575 33.9516 22.7753 33.9317 22.793 33.9139C23.3384 33.3907 23.7974 32.7743 24.1433 32.0603C24.263 31.812 24.3695 31.5526 24.4604 31.2799V35.8474C24.4604 35.8474 24.8994 35.6722 25.6133 35.4527C25.6022 35.4638 25.5911 35.4771 25.5778 35.4904C25.5601 35.5081 25.5401 35.5281 25.5224 35.5458C25.5047 35.5636 25.4847 35.5835 25.467 35.6012C25.4492 35.619 25.4293 35.6389 25.4115 35.6567C25.3938 35.6744 25.3739 35.6944 25.3561 35.7121C25.3384 35.7298 25.3184 35.7498 25.3007 35.7675C25.2829 35.7853 25.263 35.8052 25.2453 35.823C25.2275 35.8407 25.2076 35.8607 25.1898 35.8784C25.1721 35.8961 25.1521 35.9161 25.1344 35.9338C25.1167 35.9516 25.0967 35.9715 25.079 35.9893C25.0612 36.007 25.0413 36.0269 25.0235 36.0447C25.0058 36.0624 24.9858 36.0824 24.9681 36.1001C24.9504 36.1179 24.9304 36.1378 24.9127 36.1555C24.8949 36.1733 24.875 36.1932 24.8572 36.211C24.8395 36.2287 24.8195 36.2487 24.8018 36.2664C24.7841 36.2841 24.7641 36.3041 24.7464 36.3218C24.7286 36.3396 24.7087 36.3595 24.691 36.3773C24.6732 36.395 24.6533 36.415 24.6355 36.4327C24.6178 36.4504 24.5978 36.4704 24.5801 36.4881C24.5624 36.5059 24.5424 36.5258 24.5247 36.5436C24.5069 36.5613 24.487 36.5813 24.4692 36.599C24.4515 36.6167 24.4315 36.6367 24.4138 36.6544C24.3961 36.6722 24.3761 36.6921 24.3584 36.7099C24.3406 36.7276 24.3207 36.7475 24.3029 36.7653C24.2852 36.783 24.2652 36.803 24.2475 36.8207C24.2298 36.8385 24.2098 36.8584 24.1921 36.8761C24.1743 36.8939 24.1544 36.9138 24.1366 36.9316C24.1189 36.9493 24.099 36.9693 24.0812 36.987C24.0635 37.0047 24.0435 37.0247 24.0258 37.0424C24.008 37.0602 23.9881 37.0801 23.9704 37.0979C23.9526 37.1156 23.9327 37.1356 23.9149 37.1533C23.8972 37.171 23.8772 37.191 23.8595 37.2087C23.8418 37.2265 23.8218 37.2464 23.8041 37.2642C23.7863 37.2819 23.7664 37.3018 23.7486 37.3196C23.7309 37.3373 23.7109 37.3573 23.6932 37.375C23.6755 37.3928 23.6555 37.4127 23.6378 37.4304C23.62 37.4482 23.6001 37.4681 23.5823 37.4859C23.5646 37.5036 23.5446 37.5236 23.5269 37.5413C23.5092 37.559 23.4892 37.579 23.4715 37.5967C23.4537 37.6145 23.4338 37.6344 23.416 37.6522C23.3983 37.6699 23.3784 37.6899 23.3606 37.7076C23.3429 37.7253 23.3229 37.7453 23.3052 37.763C23.2875 37.7808 23.2675 37.8007 23.2498 37.8185C23.232 37.8362 23.2121 37.8562 23.1943 37.8739C23.1766 37.8916 23.1566 37.9116 23.1389 37.9293C23.1212 37.9471 23.1012 37.967 23.0835 37.9848C23.0657 38.0025 23.0458 38.0224 23.028 38.0402C23.0103 38.0579 22.9903 38.0779 22.9726 38.0956C22.221 38.8473 21.833 39.8029 21.833 40.9359C21.833 43.9092 24.0058 46.0244 28.407 46.0244C31.6375 46.0244 33.582 44.4812 34.2383 43.8227V45.4523H41.6704L42.0074 45.1153L42.2868 44.836L42.5662 44.5566L43.1825 43.9402L43.4619 43.6608L43.7413 43.3815L43.8433 43.2795V45.4568H51.2754L51.6124 45.1198L51.8918 44.8404L52.1712 44.561L52.7875 43.9446L53.0669 43.6653L53.3463 43.3859L53.9627 42.7695L54.1312 42.601V35.6434C54.4571 35.5968 54.8074 35.5702 55.1866 35.5702C57.3306 35.5702 58.9891 36.3994 58.9891 36.3994L59.1576 36.2309L60.0556 35.333L60.3349 35.0536L60.5168 34.8718V39.0579C60.5168 43.4036 62.8027 45.7472 67.5786 45.7472C70.5231 45.7472 72.0663 45.3747 72.0663 45.3747L72.4033 45.0377L72.6826 44.7584L72.962 44.479L73.5784 43.8626L73.8578 43.5832L74.1371 43.3039L74.7535 42.6875L74.8356 42.6054C75.3233 43.8338 76.0462 44.7207 77.0062 45.2838L76.5805 45.7095L76.3011 45.9889L76.0218 46.2683L75.6848 46.6053V52.8933C75.6848 52.8933 78.5427 53.9221 81.9174 53.9221C85.782 53.9221 88.8595 53.0397 90.9614 51.0198C90.9813 51.002 90.9991 50.9821 91.0168 50.9643C91.0368 50.9466 91.0545 50.9267 91.0722 50.9089C91.0922 50.8912 91.1099 50.8712 91.1277 50.8535C91.1476 50.8357 91.1654 50.8158 91.1831 50.7981C91.2031 50.7803 91.2208 50.7604 91.2385 50.7426C91.2585 50.7249 91.2762 50.7049 91.294 50.6872C91.3139 50.6695 91.3317 50.6495 91.3494 50.6318C91.3693 50.614 91.3871 50.5941 91.4048 50.5763C91.4248 50.5586 91.4425 50.5386 91.4603 50.5209C91.4802 50.5032 91.4979 50.4832 91.5157 50.4655C91.5356 50.4477 91.5534 50.4278 91.5711 50.41C91.5911 50.3923 91.6088 50.3723 91.6265 50.3546C91.6465 50.3369 91.6642 50.3169 91.682 50.2992C91.7019 50.2814 91.7197 50.2615 91.7374 50.2438C91.7574 50.226 91.7751 50.2061 91.7928 50.1883C91.8128 50.1706 91.8305 50.1506 91.8483 50.1329C91.8682 50.1152 91.886 50.0952 91.9037 50.0775C91.9237 50.0597 91.9414 50.0398 91.9591 50.022C91.9791 50.0043 91.9968 49.9843 92.0146 49.9666C92.0345 49.9489 92.0523 49.9289 92.07 49.9112C92.0899 49.8934 92.1077 49.8735 92.1254 49.8557C92.1454 49.838 92.1631 49.818 92.1808 49.8003C92.2008 49.7826 92.2185 49.7626 92.2363 49.7449C92.2562 49.7271 92.274 49.7072 92.2917 49.6894C92.3117 49.6717 92.3294 49.6518 92.3471 49.634C92.3671 49.6163 92.3848 49.5963 92.4026 49.5786C92.4225 49.5608 92.4403 49.5409 92.458 49.5232C92.478 49.5054 92.4957 49.4855 92.5134 49.4677C92.5334 49.45 92.5511 49.43 92.5689 49.4123C92.5888 49.3946 92.6066 49.3746 92.6243 49.3569C92.6442 49.3391 92.662 49.3192 92.6797 49.3014C92.6997 49.2837 92.7174 49.2637 92.7352 49.246C92.7551 49.2283 92.7729 49.2083 92.7906 49.1906C92.8105 49.1728 92.8283 49.1529 92.846 49.1351C92.866 49.1174 92.8837 49.0974 92.9014 49.0797C92.9214 49.062 92.9391 49.042 92.9569 49.0243C92.9768 49.0065 92.9946 48.9866 93.0123 48.9689C93.0323 48.9511 93.05 48.9312 93.0677 48.9134C93.0877 48.8957 93.1054 48.8757 93.1232 48.858C93.1431 48.8403 93.1609 48.8203 93.1786 48.8026C93.1986 48.7848 93.2163 48.7649 93.234 48.7471C93.254 48.7294 93.2717 48.7094 93.2895 48.6917C93.3094 48.674 93.3271 48.654 93.3449 48.6363C93.3648 48.6185 93.3826 48.5986 93.4003 48.5808C93.4203 48.5631 93.438 48.5431 93.4557 48.5254C93.4757 48.5077 93.4934 48.4877 93.5112 48.47C93.5311 48.4522 93.5489 48.4323 93.5666 48.4145C93.5866 48.3968 93.6043 48.3769 93.622 48.3591C93.642 48.3414 93.6597 48.3214 93.6775 48.3037C93.6974 48.2859 93.7152 48.266 93.7329 48.2483C95.061 46.9955 96.0056 45.2949 96.5222 43.0866V45.4923H104.24L104.577 45.1552L104.857 44.8759L105.136 44.5965L105.752 43.9801L106.032 43.7007L106.311 43.4214L106.928 42.805L106.981 42.7496L107.721 45.4967H115.439L115.777 45.1597L116.056 44.8803L116.335 44.6009L116.952 43.9845L117.231 43.7052L117.51 43.4258L118.127 42.8094L118.295 42.6409L118.894 40.4037V45.5011H126.612L126.781 45.3326L127.679 44.4346L127.958 44.1553L128.574 43.5389L128.854 43.2595L128.86 43.2529C129.741 44.9756 131.747 46.0754 134.916 46.0754C138.084 46.0754 140.091 44.5322 140.747 43.8737V45.5033H156.766H157.168L157.505 45.1663L157.784 44.887L158.063 44.6076L158.68 43.9912L158.959 43.7118L159.238 43.4325L159.804 42.8671L160.966 45.5078H168.684L169.021 45.1708L169.3 44.8914L169.58 44.612L170.196 43.9956L170.475 43.7163L170.755 43.4369L171.371 42.8205L171.54 42.652L166.28 34.6478L171.54 26.6149L171.548 26.6126Z" fill="#6FDDEF"/>
<path d="M81.8709 54.3037C78.4785 54.3037 75.6449 53.2971 75.5274 53.255C75.3944 53.2084 75.3079 53.082 75.3079 52.9424V46.6543C75.3079 46.5656 75.3434 46.4814 75.4055 46.4193L76.4387 45.3861C75.7092 44.8673 75.1194 44.1467 74.6826 43.2309L72.2548 45.6588C72.2104 45.7031 72.1572 45.732 72.0974 45.7475C72.0331 45.763 70.481 46.1289 67.5321 46.1289C62.6964 46.1289 60.1399 43.701 60.1399 39.1069V35.7234L59.1799 36.6835C59.0801 36.7855 58.9249 36.8099 58.7963 36.7456C58.7808 36.7367 57.1755 35.9518 55.1423 35.9518C54.8962 35.9518 54.6567 35.9629 54.4195 35.9873V42.65C54.4195 42.7387 54.384 42.823 54.3219 42.8851L51.4617 45.7453C51.3996 45.8074 51.3154 45.8428 51.2267 45.8428H43.7946C43.6105 45.8428 43.462 45.6943 43.462 45.5102V44.1356L41.8523 45.7453C41.7902 45.8074 41.706 45.8428 41.6173 45.8428H34.1852C34.0011 45.8428 33.8526 45.6943 33.8526 45.5102V44.6145C32.9213 45.3417 31.0855 46.4149 28.3539 46.4149C25.8972 46.4149 24.0037 45.7608 22.8241 44.5746V50.0822C22.8241 50.1708 22.7887 50.2551 22.7266 50.3172L19.8664 53.1774C19.8309 53.2129 19.791 53.2395 19.7444 53.255C19.6247 53.2971 16.7933 54.3037 13.401 54.3037C6.37015 54.3037 2.37694 51.448 1.19516 45.5768C0.953486 44.3817 0.831543 43.0314 0.831543 41.5658V24.0697C0.831543 23.9811 0.867019 23.8968 0.929101 23.8347L3.78931 20.9745C3.85139 20.9124 3.93565 20.877 4.02434 20.877H16.29C20.3719 20.877 25.1367 22.9212 25.1699 28.6727L27.0634 26.7792C27.1034 26.7393 27.1521 26.7105 27.2053 26.6949C27.3428 26.655 30.6443 25.7105 34.8459 25.7105C38.6817 25.7105 41.8146 27.0519 43.4864 29.3534C43.5041 29.3112 43.5285 29.2713 43.5618 29.2403L46.422 26.3801C46.4752 26.3269 46.5439 26.2936 46.6193 26.2847L54.0514 25.4267C54.1468 25.4156 54.2399 25.4466 54.3108 25.5087C54.3818 25.5708 54.4217 25.6617 54.4217 25.7571V28.8878L55.1733 28.1361C56.7187 26.5286 58.9515 25.7127 61.8073 25.7127C61.9913 25.7127 62.1398 25.8613 62.1398 26.0453V27.3224L65.5854 23.8414C65.5854 23.8414 65.5943 23.8325 65.5987 23.8303L65.643 23.7859C65.643 23.7859 65.6519 23.7771 65.6563 23.7749L65.7007 23.7305C65.7007 23.7305 65.7096 23.7216 65.714 23.7172L65.7583 23.6729C65.7583 23.6729 65.7672 23.664 65.7716 23.6618L65.816 23.6174C65.816 23.6174 65.8249 23.6086 65.8293 23.6063L65.8736 23.562C65.8736 23.562 65.8825 23.5531 65.8869 23.5487L65.9313 23.5044C65.9313 23.5044 65.9402 23.4955 65.9446 23.4933L65.9889 23.4489C65.9889 23.4489 65.9978 23.4401 66.0022 23.4378L66.0466 23.3935C66.0466 23.3935 66.0554 23.3846 66.0599 23.3824L66.1042 23.3381C66.1042 23.3381 66.1131 23.3292 66.1175 23.327L66.1619 23.2826C66.1619 23.2826 66.1707 23.2738 66.1752 23.2715L66.2195 23.2272C66.2195 23.2272 66.2284 23.2183 66.2328 23.2161L66.2772 23.1718C66.2772 23.1718 66.286 23.1629 66.2905 23.1585L66.3326 23.1141C66.3326 23.1141 66.3415 23.1053 66.3459 23.103L66.3903 23.0587C66.3903 23.0587 66.3991 23.0498 66.4036 23.0476L66.4479 23.0033C66.4479 23.0033 66.4568 22.9944 66.4612 22.99L66.5055 22.9456C66.5055 22.9456 66.5144 22.9367 66.5188 22.9345L66.5632 22.8902C66.5632 22.8902 66.5721 22.8813 66.5765 22.8791L66.6208 22.8348C66.6208 22.8348 66.6297 22.8259 66.6341 22.8237L66.6785 22.7793C66.6785 22.7793 66.6874 22.7705 66.6918 22.7682L66.7361 22.7239C66.7361 22.7239 66.745 22.715 66.7494 22.7128L66.7938 22.6685C66.7938 22.6685 66.8026 22.6596 66.8071 22.6574L66.8514 22.613C66.8514 22.613 66.8603 22.6042 66.8647 22.6019L66.9091 22.5576C66.9091 22.5576 66.9179 22.5487 66.9224 22.5443L66.9667 22.5C66.9667 22.5 66.9756 22.4911 66.98 22.4889L67.0244 22.4445C67.0244 22.4445 67.0332 22.4357 67.0355 22.4334L67.0798 22.3891C67.0798 22.3891 67.0887 22.3802 67.0931 22.3758L67.1929 22.276C67.1929 22.276 67.1995 22.2694 67.204 22.2649L67.2483 22.2206C67.2483 22.2206 67.2572 22.2117 67.2616 22.2073L67.306 22.1629C67.306 22.1629 67.3148 22.1541 67.3193 22.1519L67.3636 22.1075C67.3636 22.1075 67.3725 22.0986 67.3769 22.0942L67.4767 21.9944C67.4767 21.9944 67.4855 21.9878 67.4878 21.9833L67.5321 21.939C67.5321 21.939 67.541 21.9301 67.5454 21.9257L67.5898 21.8814C67.5898 21.8814 67.5986 21.8725 67.6031 21.8703L67.6474 21.8259C67.6474 21.8259 67.6563 21.8171 67.6607 21.8126L67.7605 21.7128C67.7605 21.7128 67.7694 21.704 67.7716 21.7018L67.8714 21.602C67.8714 21.602 67.878 21.5953 67.8824 21.5909L67.9268 21.5466C67.9268 21.5466 67.9357 21.5377 67.9401 21.5332L68.0398 21.4335C68.0398 21.4335 68.0487 21.4268 68.0509 21.4224L68.1507 21.3226C68.1507 21.3226 68.1574 21.316 68.1618 21.3115L68.2061 21.2672C68.2061 21.2672 68.215 21.2583 68.2195 21.2539L68.4877 20.9856C68.5498 20.9235 68.6341 20.888 68.7228 20.888H70.8092C70.9932 20.888 71.1418 21.0366 71.1418 21.2206V26.2914H74.9265C75.1106 26.2914 75.2591 26.44 75.2591 26.624V27.8124L76.6826 26.389C76.7358 26.3357 76.8045 26.3025 76.8799 26.2936L84.3408 25.4356C84.434 25.4245 84.5293 25.4555 84.6003 25.5176C84.6712 25.5797 84.7111 25.6706 84.7111 25.7659V26.4776L89.3473 21.8437C89.4005 21.7904 89.4693 21.7572 89.5447 21.7483L96.9768 20.8903C97.0743 20.8792 97.1652 20.9102 97.2362 20.9723C97.3071 21.0344 97.3471 21.1253 97.3471 21.2206V22.8192L99.1807 20.9856C99.2428 20.9235 99.327 20.888 99.4157 20.888H111.422C111.573 20.888 111.704 20.9878 111.743 21.1341L113.426 27.3778L114.329 23.9944C114.344 23.9389 114.373 23.8857 114.415 23.8458L117.275 20.9856C117.338 20.9235 117.422 20.888 117.51 20.888H129.517C129.701 20.888 129.849 21.0366 129.849 21.2206V30.6083L133.67 26.7881C133.709 26.7481 133.758 26.7193 133.811 26.7038C133.949 26.6639 137.25 25.7194 141.452 25.7194C144.949 25.7194 147.917 26.8524 149.671 28.839L152.121 26.389C152.183 26.3269 152.268 26.2914 152.356 26.2914H160.074C160.205 26.2914 160.325 26.369 160.378 26.4887L161.356 28.6749L163.642 26.389C163.704 26.3269 163.788 26.2914 163.877 26.2914H171.595C171.717 26.2914 171.83 26.3579 171.888 26.4666C171.945 26.5752 171.941 26.7038 171.874 26.808L166.735 34.6592L171.874 42.4815C171.961 42.6123 171.943 42.7875 171.832 42.8984L168.972 45.7586C168.91 45.8207 168.826 45.8561 168.737 45.8561H161.019C160.888 45.8561 160.768 45.7785 160.715 45.6566L159.748 43.4615L157.451 45.7586C157.389 45.8207 157.305 45.8561 157.216 45.8561H156.815H140.796C140.612 45.8561 140.463 45.7076 140.463 45.5236V44.6278C139.532 45.355 137.696 46.4282 134.964 46.4282C132.073 46.4282 129.92 45.5036 128.838 43.8163L126.896 45.7586C126.834 45.8207 126.75 45.8561 126.661 45.8561H118.943C118.759 45.8561 118.61 45.7076 118.61 45.5236V42.8629C118.601 42.8762 118.59 42.8873 118.579 42.8984L115.719 45.7586C115.657 45.8207 115.573 45.8561 115.484 45.8561H107.766C107.615 45.8561 107.484 45.7564 107.444 45.61L106.852 43.4194L104.513 45.7586C104.451 45.8207 104.367 45.8561 104.278 45.8561H96.5599C96.3759 45.8561 96.2273 45.7076 96.2273 45.5236V45.2397C95.6819 46.539 94.9347 47.6388 93.999 48.5212L93.9835 48.5367C93.9702 48.5501 93.9569 48.5634 93.9436 48.5767L93.9281 48.5922C93.9148 48.6055 93.9015 48.6188 93.8882 48.6321L93.8172 48.703C93.8039 48.7163 93.7906 48.7296 93.7773 48.7429L93.7618 48.7585C93.7485 48.7718 93.7352 48.7851 93.7219 48.7984L93.7064 48.8139C93.6931 48.8272 93.6798 48.8405 93.6665 48.8538L93.6509 48.8693C93.6376 48.8826 93.6243 48.8959 93.611 48.9092L93.5401 48.9802C93.5268 48.9935 93.5135 49.0068 93.5002 49.0201L93.4846 49.0378C93.4713 49.0511 93.458 49.0644 93.4447 49.0778L93.4292 49.0933C93.4159 49.1066 93.4026 49.1199 93.3893 49.1332L93.3738 49.1487C93.3605 49.162 93.3472 49.1753 93.3339 49.1886L93.1476 49.3749C93.1343 49.3882 93.121 49.4015 93.1077 49.4125L93.0922 49.4281C93.0789 49.4414 93.0656 49.4547 93.0523 49.468L92.8106 49.7097C92.7973 49.723 92.784 49.7363 92.7707 49.7496L92.5312 49.989C92.5179 50.0023 92.5046 50.0156 92.4913 50.0289L92.2519 50.2684C92.2386 50.2817 92.2253 50.295 92.212 50.3083L91.9149 50.6054C91.9016 50.6187 91.8883 50.632 91.8749 50.6453L91.8594 50.6608C91.8461 50.6741 91.8328 50.6875 91.8195 50.7008L91.3539 51.1664C91.3406 51.1797 91.3273 51.193 91.314 51.2063L91.2408 51.2794C91.2275 51.2928 91.2142 51.3061 91.2009 51.3194C89.1056 53.3304 86.0725 54.3104 81.9307 54.3104L81.8709 54.3037ZM75.9708 52.7029C76.6959 52.9357 79.1237 53.6386 81.8709 53.6386C85.8352 53.6386 88.7176 52.7206 90.6843 50.8294L93.4891 48.0246C94.7906 46.7985 95.6974 45.1156 96.1852 43.027C96.2229 42.8629 96.3781 42.752 96.5466 42.772C96.7151 42.7919 96.8415 42.9338 96.8415 43.1023V45.1754H104.09L106.739 42.5259C106.823 42.4416 106.945 42.4084 107.061 42.4394C107.176 42.4704 107.265 42.5591 107.296 42.6744L107.97 45.1754H115.295L117.996 42.4749L118.572 40.3242C118.617 40.1623 118.772 40.0581 118.936 40.0803C119.102 40.1025 119.224 40.2421 119.224 40.4106V45.1754H126.472L128.619 43.0292C128.694 42.9538 128.803 42.9161 128.909 42.9316C129.013 42.9471 129.109 43.0114 129.157 43.1046C130.04 44.8318 132.031 45.7453 134.916 45.7453C138.157 45.7453 140.02 44.1356 140.512 43.6411C140.607 43.5458 140.751 43.517 140.873 43.5702C140.997 43.6212 141.079 43.7431 141.079 43.8784V45.1754H157.03L159.573 42.6323C159.651 42.5547 159.762 42.5192 159.87 42.5414C159.979 42.5613 160.07 42.6345 160.114 42.7343L161.187 45.1754H168.551L171.123 42.6035L166.012 34.8255C165.939 34.7146 165.939 34.5705 166.012 34.4596L170.934 26.941H163.968L161.438 29.4709C161.36 29.5485 161.249 29.5818 161.143 29.5618C161.034 29.5418 160.944 29.4709 160.899 29.3711L159.813 26.9388H152.447L149.837 29.5485C149.771 29.615 149.678 29.6505 149.582 29.6461C149.487 29.6416 149.401 29.5951 149.341 29.5197C147.753 27.5153 144.86 26.3668 141.405 26.3668C137.658 26.3668 134.563 27.1583 134.031 27.3025L129.705 31.6282C129.61 31.7236 129.466 31.7524 129.344 31.7014C129.22 31.6504 129.138 31.5285 129.138 31.3932V21.5332H117.601L114.901 24.2338L113.701 28.7281C113.664 28.8745 113.531 28.9742 113.38 28.9742C113.229 28.9742 113.098 28.8745 113.058 28.7281L111.118 21.5332H99.5044L97.1985 23.8369C97.1031 23.9323 96.959 23.9611 96.8371 23.9079C96.7129 23.8569 96.6309 23.7349 96.6309 23.5997V21.5709L89.6843 22.3714L84.5626 27.4931C84.4672 27.5885 84.3231 27.6173 84.2012 27.5663C84.077 27.5153 83.995 27.3934 83.995 27.2581V26.1162L77.0196 26.9189L75.1106 28.8279C75.0152 28.9232 74.8711 28.9498 74.7492 28.8988C74.625 28.8479 74.5452 28.7259 74.5452 28.5907V26.9322H70.7604C70.5764 26.9322 70.4278 26.7836 70.4278 26.5996V21.5288H68.8115L68.6274 21.7128C68.6274 21.7128 68.6208 21.7195 68.6163 21.7239L68.572 21.7683C68.572 21.7683 68.5631 21.7771 68.5587 21.7794L68.4567 21.8814C68.4567 21.8814 68.45 21.888 68.4456 21.8924L68.3458 21.9944C68.3458 21.9944 68.3392 22.0011 68.3347 22.0055L68.2904 22.0499C68.2904 22.0499 68.2815 22.0587 68.2771 22.0632L68.1751 22.1652C68.1751 22.1652 68.1685 22.1718 68.164 22.1762L68.062 22.2782C68.062 22.2782 68.0554 22.2849 68.0509 22.2893L68.0066 22.3337C68.0066 22.3337 67.9977 22.3425 67.9933 22.347L67.949 22.3913C67.949 22.3913 67.9401 22.4002 67.9356 22.4024L67.8913 22.4467C67.8913 22.4467 67.8824 22.4556 67.878 22.4578L67.776 22.5598C67.776 22.5598 67.7694 22.5665 67.7649 22.5709L67.7206 22.6153C67.7206 22.6153 67.7117 22.6241 67.7073 22.6286L67.6629 22.6729C67.6629 22.6729 67.6541 22.6818 67.6496 22.684L67.6053 22.7283C67.6053 22.7283 67.5964 22.7372 67.592 22.7394L67.49 22.8414C67.49 22.8414 67.4833 22.8481 67.4789 22.8525L67.4346 22.8968C67.4346 22.8968 67.4257 22.9057 67.4212 22.9101L67.3769 22.9545C67.3769 22.9545 67.368 22.9634 67.3636 22.9656L67.3193 23.0099C67.3193 23.0099 67.3104 23.0188 67.306 23.021L67.2616 23.0653C67.2616 23.0653 67.2528 23.0742 67.2483 23.0764L67.204 23.1208C67.204 23.1208 67.1951 23.1296 67.1907 23.1319L67.1463 23.1762C67.1463 23.1762 67.1375 23.1851 67.133 23.1873L67.0887 23.2316C67.0887 23.2316 67.0798 23.2405 67.0754 23.2427L67.031 23.2871C67.031 23.2871 67.0221 23.2959 67.0177 23.2982L66.9734 23.3425C66.9734 23.3425 66.9645 23.3514 66.9601 23.3536L66.9157 23.3979C66.9157 23.3979 66.9069 23.4068 66.9024 23.4112L66.8581 23.4556C66.8581 23.4556 66.8492 23.4644 66.847 23.4667L66.8027 23.511C66.8027 23.511 66.7938 23.5199 66.7894 23.5243L66.745 23.5687C66.745 23.5687 66.7361 23.5775 66.7317 23.5797L66.6874 23.6241C66.6874 23.6241 66.6785 23.633 66.674 23.6352L66.6297 23.6795C66.6297 23.6795 66.6208 23.6884 66.6164 23.6906L66.5721 23.7349C66.5721 23.7349 66.5632 23.7438 66.5588 23.7483L66.5144 23.7926C66.5144 23.7926 66.5055 23.8015 66.5011 23.8037L66.4568 23.848C66.4568 23.848 66.4479 23.8569 66.4435 23.8591L66.3991 23.9035C66.3991 23.9035 66.3903 23.9123 66.3858 23.9168L66.3415 23.9611C66.3415 23.9611 66.3326 23.97 66.3282 23.9722L66.2838 24.0165C66.2838 24.0165 66.275 24.0254 66.2727 24.0276L66.2284 24.072C66.2284 24.072 66.2195 24.0808 66.2151 24.0831L66.1707 24.1274C66.1707 24.1274 66.1619 24.1363 66.1574 24.1385L66.1131 24.1828C66.1131 24.1828 66.1042 24.1917 66.0998 24.1939L66.0555 24.2383C66.0555 24.2383 66.0466 24.2471 66.0422 24.2516L65.9978 24.2959C65.9978 24.2959 65.9889 24.3048 65.9845 24.3092L61.9824 28.3534C61.8871 28.4488 61.743 28.4776 61.6188 28.4266C61.4946 28.3756 61.4126 28.2536 61.4126 28.1184V26.369C58.9049 26.4289 56.9471 27.1761 55.588 28.5884L54.2975 29.8789C54.2975 29.8789 54.2731 29.901 54.2687 29.9055C54.1712 29.9964 54.0226 30.0274 53.9007 29.9742C53.7787 29.921 53.6922 29.8101 53.6922 29.6771V26.1185L46.7457 26.9189L44.0651 29.5995V30.4952C44.0651 30.6505 43.9586 30.7835 43.8079 30.819C43.6549 30.8544 43.5019 30.779 43.4332 30.6416C42.1206 27.961 38.8879 26.3624 34.7816 26.3624C31.0345 26.3624 27.9392 27.1539 27.4071 27.298L24.9726 29.7325C24.8728 29.8323 24.7243 29.8567 24.5979 29.799C24.4715 29.7392 24.3939 29.6084 24.4072 29.4687C24.4294 29.2004 24.4405 28.9543 24.4405 28.7148C24.4405 23.409 20.0149 21.5266 16.2257 21.5266H4.0975L1.43241 24.1917V41.5503C1.43241 42.9715 1.54992 44.2775 1.78273 45.4282C2.89134 50.9424 6.67169 53.623 13.3367 53.623C16.3255 53.623 18.9373 52.7894 19.3874 52.6364L22.0947 49.9269V44.293C20.4584 45.0047 18.7932 45.3661 17.1392 45.3661C13.4564 45.3661 11.3434 43.4216 11.3434 40.0315V39.0604C11.3434 38.8763 11.4919 38.7278 11.676 38.7278H13.3633C15.9596 38.7278 18.199 37.934 19.669 36.4906L22.4716 33.688C23.0082 33.1736 23.4405 32.5816 23.7554 31.9254C23.8662 31.6948 23.9682 31.4442 24.0569 31.1848C24.1079 31.0296 24.2653 30.9365 24.425 30.9631C24.5868 30.9897 24.7043 31.1294 24.7043 31.2912V35.382C24.895 35.3155 25.1367 35.2334 25.4249 35.1448C25.5713 35.1004 25.7287 35.1603 25.8085 35.2911C25.8883 35.4219 25.8662 35.5904 25.7597 35.6968L25.7309 35.7279L25.6178 35.841C25.6178 35.841 25.5979 35.8609 25.5957 35.8631L25.5624 35.8964C25.5624 35.8964 25.5424 35.9163 25.5402 35.9186L25.5047 35.954C25.5047 35.954 25.487 35.9718 25.4848 35.974L25.2254 36.2334C25.2254 36.2334 25.2076 36.2511 25.2032 36.2534L24.6644 36.7921C24.6644 36.7921 24.6467 36.8099 24.6445 36.8121L24.3274 37.1292C24.3274 37.1292 24.3074 37.1491 24.3052 37.1513L23.0924 38.3642C22.3962 39.0581 22.0459 39.9362 22.0459 40.9716C22.0459 43.9937 24.3207 45.7275 28.2874 45.7275C31.5289 45.7275 33.3892 44.1178 33.8836 43.6234C33.979 43.5281 34.1231 43.4992 34.245 43.5524C34.3692 43.6034 34.4512 43.7254 34.4512 43.8606V45.1577H41.4133L43.493 43.078C43.5884 42.9826 43.7303 42.9538 43.8544 43.0048C43.9786 43.0558 44.0606 43.1777 44.0606 43.313V45.1577H51.0227L53.6878 42.4926V35.6724C53.6878 35.5062 53.8098 35.3665 53.9738 35.3421C54.3375 35.2911 54.6989 35.2667 55.0758 35.2667C56.8407 35.2667 58.273 35.801 58.8051 36.0294L60.1709 34.6636C60.2663 34.5683 60.4104 34.5395 60.5324 34.5927C60.6565 34.6437 60.7386 34.7656 60.7386 34.9009V39.087C60.7386 43.364 62.9403 45.4437 67.4656 45.4437C69.9422 45.4437 71.4233 45.1754 71.787 45.1001L74.492 42.3951C74.5718 42.3152 74.6849 42.282 74.7935 42.3041C74.9021 42.3263 74.9931 42.4039 75.0352 42.5059C75.4964 43.6677 76.1615 44.4903 77.0662 45.0202C77.1548 45.0712 77.2147 45.1621 77.228 45.2641C77.2413 45.3661 77.2058 45.4681 77.1327 45.5413L75.9065 46.7674V52.6785L75.9708 52.7029ZM12.0684 39.4107V40.0492C12.0684 43.0602 13.891 44.7187 17.199 44.7187C18.8265 44.7187 20.4717 44.3462 22.088 43.6123C21.6645 42.8673 21.4406 41.9893 21.4406 40.9938C21.4406 39.7743 21.8574 38.7389 22.6778 37.9185L24.3895 36.2068C24.3385 36.2001 24.2875 36.1824 24.2454 36.1514C24.1545 36.0893 24.099 35.9873 24.099 35.8764V32.8122C23.7931 33.3111 23.425 33.7723 22.9949 34.1825L20.1901 36.9873C18.5981 38.5504 16.1924 39.4107 13.4231 39.4107H12.0684Z" fill="#0A1B33"/>
<path d="M44.4729 33.5593V42.6499H37.0408V41.0203C36.3823 41.6766 34.44 43.222 31.2095 43.222C26.8062 43.222 24.6355 41.1068 24.6355 38.1335C24.6355 35.1602 27.2939 33.3886 32.296 33.3886H36.8125C36.3557 32.3022 35.154 31.759 33.582 31.759C30.438 31.759 27.2939 33.0161 27.2939 33.0161V27.0141C27.2939 27.0141 30.6375 26.043 34.8414 26.043C40.4731 26.043 44.4752 28.9586 44.4752 33.5616L44.4729 33.5593ZM37.0408 38.1911V35.7899H34.8391C33.0099 35.7899 32.123 36.3907 32.123 37.4772C32.123 38.5636 32.9523 39.1645 34.3247 39.1645C35.6972 39.1645 36.6107 38.5924 37.0408 38.1933V38.1911Z" fill="#FF0090"/>
<path d="M31.2096 43.5548C26.8838 43.5548 24.303 41.5283 24.303 38.1337C24.303 34.7392 27.2164 33.0563 32.2961 33.0563H36.2294C35.7239 32.4311 34.8059 32.0918 33.582 32.0918C30.5378 32.0918 27.447 33.3135 27.416 33.3268C27.314 33.3667 27.1965 33.3556 27.1055 33.2936C27.0146 33.2315 26.9592 33.1295 26.9592 33.0186V27.0166C26.9592 26.8681 27.0568 26.7395 27.1987 26.6973C27.3361 26.6574 30.6376 25.7129 34.8392 25.7129C40.8013 25.7129 44.8056 28.868 44.8056 33.5641V42.6547C44.8056 42.8387 44.657 42.9872 44.473 42.9872H37.0409C36.8569 42.9872 36.7083 42.8387 36.7083 42.6547V41.7589C35.7771 42.4861 33.9412 43.5593 31.2096 43.5593V43.5548ZM32.2961 33.7215C27.5712 33.7215 24.9681 35.2891 24.9681 38.1337C24.9681 41.1558 27.243 42.8897 31.2096 42.8897C34.449 42.8897 36.3114 41.28 36.8059 40.7855C36.9012 40.6902 37.0431 40.6614 37.1673 40.7146C37.2914 40.7656 37.3735 40.8875 37.3735 41.0228V42.3199H44.1404V33.5618C44.1404 29.2649 40.4022 26.3758 34.8392 26.3758C31.3693 26.3758 28.458 27.0543 27.6244 27.2694V32.5397C28.6199 32.1916 31.081 31.4267 33.5798 31.4267C35.3625 31.4267 36.6196 32.0785 37.1163 33.2603C37.1584 33.3623 37.1473 33.4798 37.0875 33.5729C37.0254 33.6661 36.9212 33.7215 36.8103 33.7215H32.2938H32.2961ZM34.3248 39.4951C32.7373 39.4951 31.7905 38.7413 31.7905 37.4752C31.7905 36.5551 32.3182 35.4553 34.8392 35.4553H37.0409C37.2249 35.4553 37.3735 35.6039 37.3735 35.7879V38.1892C37.3735 38.2823 37.3358 38.3688 37.2671 38.4331C36.9256 38.7523 35.9545 39.4951 34.3248 39.4951ZM34.8392 36.1227C33.2583 36.1227 32.4557 36.5773 32.4557 37.4774C32.4557 38.6548 33.6264 38.8322 34.3248 38.8322C35.5864 38.8322 36.3846 38.3089 36.7083 38.0428V36.1249H34.8392V36.1227Z" fill="#0A1B33"/>
<path d="M61.8004 26.0409V33.5883C61.8004 33.5883 60.1419 32.7591 57.9979 32.7591C55.3971 32.7591 54.0823 33.9032 54.0823 35.1603V42.6501H46.6501V26.6129L54.0823 25.7549V30.3002C55.1111 28.1273 57.2839 26.0409 61.8004 26.0409Z" fill="#FF0090"/>
<path d="M54.0823 42.9822H46.6502C46.4662 42.9822 46.3176 42.8337 46.3176 42.6497V26.6125C46.3176 26.444 46.444 26.3021 46.6125 26.2822L54.0446 25.4241C54.14 25.413 54.2331 25.444 54.3041 25.5061C54.375 25.5682 54.4149 25.6591 54.4149 25.7545V29.0581C55.5967 27.3464 57.7806 25.7079 61.8005 25.7079C61.9845 25.7079 62.133 25.8564 62.133 26.0405V33.5879C62.133 33.7032 62.0732 33.8096 61.9756 33.8695C61.8781 33.9293 61.7561 33.936 61.6519 33.885C61.6364 33.8761 60.0311 33.0912 57.9979 33.0912C55.5213 33.0912 54.4149 34.1311 54.4149 35.1599V42.6497C54.4149 42.8337 54.2664 42.9822 54.0823 42.9822ZM46.9828 42.3171H53.7497V35.1599C53.7497 33.7985 55.0646 32.4261 57.9979 32.4261C59.5256 32.4261 60.8072 32.8274 61.4679 33.0824V26.3775C58.0046 26.4595 55.6233 27.8253 54.3816 30.4417C54.3151 30.5813 54.1621 30.6589 54.0092 30.6235C53.8584 30.5902 53.7497 30.455 53.7497 30.2998V26.1269L46.9828 26.9074V42.3149V42.3171Z" fill="#0A1B33"/>
<path d="M70.7624 26.6133H74.8798V31.7595H70.7624V35.3891C70.7624 36.7039 71.4476 37.5043 72.6205 37.5043C73.9065 37.5043 74.8798 37.1318 74.8798 37.1318V42.564C74.8798 42.564 73.3366 42.9365 70.3922 42.9365C65.6185 42.9365 63.3303 40.5929 63.3303 36.2471V26.6133L68.676 21.21H70.7624V26.6133Z" fill="#FF0090"/>
<path d="M70.39 43.2686C65.5543 43.2686 62.9956 40.8408 62.9956 36.2467V26.6129C62.9956 26.5242 63.0311 26.4422 63.091 26.3779L68.4367 20.9745C68.4987 20.9124 68.5852 20.877 68.6739 20.877H70.7603C70.9443 20.877 71.0929 21.0255 71.0929 21.2095V26.2803H74.8777C75.0617 26.2803 75.2103 26.4289 75.2103 26.6129V31.7591C75.2103 31.9431 75.0617 32.0916 74.8777 32.0916H71.0929V35.3886C71.0929 36.5216 71.6494 37.1713 72.6183 37.1713C73.8223 37.1713 74.7491 36.8254 74.758 36.821C74.86 36.7811 74.9752 36.7966 75.0639 36.8587C75.1548 36.9207 75.208 37.0227 75.208 37.1314V42.5636C75.208 42.7166 75.1038 42.8518 74.9531 42.8873C74.8888 42.9028 73.3367 43.2686 70.3878 43.2686H70.39ZM63.6608 26.7504V36.2467C63.6608 40.5237 65.8625 42.6035 70.39 42.6035C72.5851 42.6035 73.9997 42.3928 74.5451 42.2931V37.5837C74.1216 37.6968 73.4321 37.8365 72.6206 37.8365C71.2703 37.8365 70.4299 36.8986 70.4299 35.3886V31.7591C70.4299 31.575 70.5785 31.4265 70.7625 31.4265H74.5473V26.9455H70.7625C70.5785 26.9455 70.4299 26.7969 70.4299 26.6129V21.5421H68.8136L63.6608 26.7481V26.7504Z" fill="#0A1B33"/>
<path d="M89.5334 22.067L96.9655 21.209V38.7028C96.9655 47.6493 92.3914 51.1082 84.7309 51.1082C81.3585 51.1082 78.4983 50.0794 78.4983 50.0794V43.7914C80.4716 44.7337 82.272 45.0485 83.7864 45.0485C87.4448 45.0485 89.5312 43.0752 89.5312 40.0465V39.2749C88.3871 41.1617 86.3584 43.2193 82.9838 43.2193C78.8398 43.2193 76.8665 40.532 76.8665 34.6431V26.6101L84.3274 25.7521V33.3571C84.3274 36.3881 85.3274 37.5011 86.7575 37.5011C88.1876 37.5011 89.1011 36.5011 89.5312 35.9579V22.0648L89.5334 22.067Z" fill="#FF0090"/>
<path d="M84.731 51.4433C81.3386 51.4433 78.505 50.4366 78.3853 50.3945C78.2522 50.348 78.1658 50.2216 78.1658 50.0819V43.7939C78.1658 43.6786 78.2234 43.5743 78.321 43.5123C78.4185 43.4524 78.5383 43.4435 78.6425 43.4945C80.3431 44.3082 82.0725 44.7206 83.7886 44.7206C87.0524 44.7206 89.0501 43.1021 89.1942 40.3727C87.9681 41.9846 86.0014 43.5566 82.9882 43.5566C78.6469 43.5566 76.5383 40.6432 76.5383 34.6478V26.6148C76.5383 26.4463 76.6647 26.3044 76.8332 26.2845L84.2942 25.4264C84.3873 25.4153 84.4826 25.4464 84.5536 25.5085C84.6245 25.5705 84.6644 25.6614 84.6644 25.7568V33.3618C84.6644 35.8917 85.3695 37.1732 86.7619 37.1732C87.8617 37.1732 88.6865 36.4704 89.2031 35.8451V22.0695C89.2031 21.901 89.3295 21.7591 89.498 21.7392L96.9301 20.8811C97.0276 20.87 97.1186 20.9011 97.1895 20.9632C97.2605 21.0252 97.3004 21.1161 97.3004 21.2115V38.7053C97.3004 47.2771 93.1896 51.4455 84.7332 51.4455L84.731 51.4433ZM78.8309 49.8424C79.556 50.0752 81.9838 50.7781 84.731 50.7781C88.6621 50.7781 91.5267 49.8757 93.4934 48.0199C95.6064 46.0244 96.633 42.9779 96.633 38.7031V21.5818L89.866 22.3622V35.9582C89.866 36.0336 89.8416 36.1068 89.7951 36.1644C88.9326 37.2575 87.8838 37.834 86.7619 37.834C85.5025 37.834 83.9993 37.0579 83.9993 33.3574V26.1271L77.2035 26.9075V34.6434C77.2035 40.3439 78.9884 42.887 82.9882 42.887C86.2675 42.887 88.2031 40.8294 89.2496 39.1022C89.3272 38.9736 89.4802 38.9138 89.6244 38.9537C89.7685 38.9936 89.8682 39.1244 89.8682 39.2729V40.0445C89.8682 43.3349 87.5402 45.3792 83.7886 45.3792C82.1346 45.3792 80.4695 45.0178 78.8332 44.306V49.838L78.8309 49.8424Z" fill="#0A1B33"/>
<path d="M16.2854 21.2092H4.01978V38.7053C4.01978 40.1642 4.1395 41.4746 4.37674 42.6497C5.59178 48.6872 9.84219 51.1107 16.2566 51.1107C19.629 51.1107 22.487 50.0819 22.487 50.0819V43.7938C20.5137 44.7362 18.7133 45.051 17.1989 45.051C13.5405 45.051 11.7357 43.0777 11.7357 40.049V36.2176H16.2832C19.6046 36.2176 22.7486 34.9161 24.1144 32.0869C24.5712 31.1402 24.8284 30.0227 24.8284 28.7278C24.8284 23.5218 20.7132 21.207 16.281 21.207L16.2854 21.2092ZM16.6579 31.4484C16.1723 32.0581 15.2855 32.3885 13.9418 32.3885H11.7379V27.4995H13.9418C15.2855 27.4995 16.1723 27.8321 16.6579 28.4462C16.9661 28.8387 17.1147 29.3464 17.1147 29.9584C17.1147 30.5703 16.9661 31.0581 16.6579 31.4484Z" fill="#FF0090"/>
<path d="M16.2567 51.4435C9.22587 51.4435 5.23265 48.5877 4.05088 42.7166C3.8092 41.5215 3.68726 40.1712 3.68726 38.7056V21.2095C3.68726 21.0255 3.83581 20.877 4.01984 20.877H16.2855C20.3807 20.877 25.1654 22.9345 25.1654 28.7303C25.1654 30.0274 24.9149 31.207 24.4182 32.2335C23.1123 34.9386 20.0725 36.5527 16.2877 36.5527H12.0728V40.0515C12.0728 43.0624 13.8953 44.7209 17.2034 44.7209C18.9173 44.7209 20.649 44.3085 22.3474 43.4948C22.4494 43.446 22.5713 43.4527 22.6689 43.5125C22.7664 43.5724 22.8241 43.6788 22.8241 43.7941V50.0822C22.8241 50.2218 22.7354 50.3482 22.6046 50.3948C22.4848 50.4369 19.6534 51.4435 16.2611 51.4435H16.2567ZM4.35242 21.5421V38.7056C4.35242 40.1268 4.46993 41.4328 4.70274 42.5835C5.81135 48.0977 9.59171 50.7784 16.2567 50.7784C19.0016 50.7784 21.4294 50.0733 22.1545 49.8427V44.3107C20.5182 45.0225 18.853 45.3839 17.199 45.3839C13.5162 45.3839 11.4032 43.4394 11.4032 40.0492V36.2179C11.4032 36.0339 11.5517 35.8853 11.7358 35.8853H16.2833C19.8086 35.8853 22.6245 34.4109 23.8152 31.9431C24.2675 31.0074 24.4958 29.9254 24.4958 28.7281C24.4958 23.4223 20.0703 21.5399 16.2811 21.5399H4.34798L4.35242 21.5421ZM13.9419 32.7213H11.738C11.5539 32.7213 11.4054 32.5728 11.4054 32.3887V27.4998C11.4054 27.3158 11.5539 27.1672 11.738 27.1672H13.9419C15.3543 27.1672 16.3564 27.5286 16.9174 28.2403C17.2677 28.686 17.4473 29.2647 17.4473 29.9587C17.4473 30.6527 17.2699 31.2114 16.9174 31.6549C16.3542 32.3621 15.352 32.7213 13.9419 32.7213ZM12.0706 32.0562H13.9419C15.1392 32.0562 15.9662 31.7812 16.3963 31.2424C16.6513 30.921 16.7821 30.4886 16.7821 29.9609C16.7821 29.4332 16.6513 28.9787 16.3963 28.655C15.9662 28.1117 15.1414 27.8346 13.9419 27.8346H12.0706V32.0584V32.0562Z" fill="#0A1B33"/>
<path d="M129.47 21.21V42.6505H121.752V29.7285L118.293 42.6505H110.575L107.087 29.7285V42.6505H99.3691V21.21H111.375L114.435 32.5577L117.466 21.21H129.472H129.47Z" fill="#FF0090"/>
<path d="M129.47 42.9826H121.752C121.568 42.9826 121.419 42.8341 121.419 42.65V32.2579L118.615 42.7365C118.575 42.8828 118.444 42.9826 118.293 42.9826H110.575C110.424 42.9826 110.293 42.8828 110.254 42.7365L107.42 32.238V42.65C107.42 42.8341 107.271 42.9826 107.087 42.9826H99.3692C99.1852 42.9826 99.0366 42.8341 99.0366 42.65V21.2095C99.0366 21.0255 99.1852 20.877 99.3692 20.877H111.375C111.526 20.877 111.657 20.9767 111.697 21.1231L114.433 31.2757L117.142 21.1253C117.18 20.9789 117.313 20.8792 117.464 20.8792H129.47C129.654 20.8792 129.803 21.0277 129.803 21.2118V42.6523C129.803 42.8363 129.654 42.9848 129.47 42.9848V42.9826ZM122.085 42.3175H129.138V21.5421H117.719L114.754 32.6437C114.717 32.7901 114.584 32.8898 114.433 32.8898C114.282 32.8898 114.151 32.7901 114.111 32.6437L111.118 21.5399H99.6996V42.3152H106.753V29.7259C106.753 29.5596 106.877 29.4177 107.041 29.3955C107.207 29.3733 107.362 29.4775 107.407 29.6394L110.828 42.3152H118.036L121.428 29.6416C121.47 29.4798 121.626 29.3755 121.792 29.3977C121.958 29.4199 122.08 29.5596 122.08 29.7281V42.3175H122.085Z" fill="#0A1B33"/>
<path d="M151.039 33.5593V42.6499H143.607V41.0203C142.948 41.6766 141.006 43.222 137.776 43.222C133.372 43.222 131.202 41.1068 131.202 38.1335C131.202 35.1602 133.86 33.3886 138.862 33.3886H143.379C142.922 32.3022 141.72 31.759 140.148 31.759C137.004 31.759 133.86 33.0161 133.86 33.0161V27.0141C133.86 27.0141 137.204 26.043 141.408 26.043C147.039 26.043 151.041 28.9586 151.041 33.5616L151.039 33.5593ZM143.607 38.1911V35.7899H141.405C139.576 35.7899 138.689 36.3907 138.689 37.4772C138.689 38.5636 139.518 39.1645 140.891 39.1645C142.263 39.1645 143.177 38.5924 143.607 38.1933V38.1911Z" fill="#FF0090"/>
<path d="M137.776 43.5548C133.45 43.5548 130.869 41.5283 130.869 38.1337C130.869 34.7392 133.783 33.0563 138.862 33.0563H142.796C142.29 32.4311 141.372 32.0918 140.148 32.0918C137.104 32.0918 134.013 33.3135 133.982 33.3268C133.88 33.3667 133.763 33.3556 133.672 33.2936C133.581 33.2315 133.525 33.1295 133.525 33.0186V27.0166C133.525 26.8681 133.623 26.7395 133.765 26.6973C133.902 26.6574 137.204 25.7129 141.405 25.7129C147.365 25.7129 151.372 28.868 151.372 33.5641V42.6547C151.372 42.8387 151.223 42.9872 151.039 42.9872H143.607C143.423 42.9872 143.274 42.8387 143.274 42.6547V41.7589C142.343 42.4861 140.507 43.5593 137.776 43.5593V43.5548ZM138.862 33.7215C134.137 33.7215 131.534 35.2891 131.534 38.1337C131.534 41.1558 133.809 42.8897 137.776 42.8897C141.017 42.8897 142.88 41.28 143.372 40.7855C143.467 40.6902 143.611 40.6614 143.733 40.7124C143.858 40.7634 143.94 40.8853 143.94 41.0206V42.3176H150.707V33.5596C150.707 29.2627 146.968 26.3736 141.405 26.3736C137.935 26.3736 135.024 27.0521 134.191 27.2672V32.5375C135.186 32.1894 137.647 31.4244 140.146 31.4244C141.929 31.4244 143.186 32.0763 143.682 33.2581C143.725 33.3601 143.713 33.4776 143.654 33.5707C143.592 33.6638 143.487 33.7193 143.376 33.7193H138.86L138.862 33.7215ZM140.891 39.4951C139.303 39.4951 138.357 38.7413 138.357 37.4752C138.357 36.5551 138.887 35.4553 141.405 35.4553H143.607C143.791 35.4553 143.94 35.6039 143.94 35.7879V38.1892C143.94 38.2823 143.902 38.3688 143.833 38.4331C143.492 38.7523 142.521 39.4951 140.891 39.4951ZM141.405 36.1227C139.824 36.1227 139.022 36.5773 139.022 37.4774C139.022 38.6548 140.193 38.8322 140.891 38.8322C142.153 38.8322 142.951 38.3089 143.274 38.0428V36.1249H141.405V36.1227Z" fill="#0A1B33"/>
<path d="M171.548 42.6504H163.83L161.943 38.3623L160.028 42.6504H152.31L157.569 34.6463L152.31 26.6133H160.028L161.943 30.9014L163.83 26.6133H171.548L166.289 34.6463L171.548 42.6504Z" fill="#FF0090"/>
<path d="M171.548 42.9828H163.83C163.7 42.9828 163.58 42.9052 163.527 42.7833L161.941 39.1825L160.332 42.7855C160.278 42.9052 160.159 42.9828 160.028 42.9828H152.31C152.188 42.9828 152.075 42.9163 152.017 42.8077C151.959 42.699 151.964 42.5682 152.033 42.4662L157.172 34.6439L152.033 26.7927C151.966 26.6907 151.959 26.5599 152.019 26.4535C152.077 26.3471 152.19 26.2783 152.312 26.2783H160.03C160.161 26.2783 160.281 26.3559 160.334 26.4757L161.943 30.0786L163.529 26.4779C163.582 26.3581 163.702 26.2783 163.833 26.2783H171.551C171.673 26.2783 171.786 26.3448 171.843 26.4535C171.901 26.5599 171.897 26.6907 171.83 26.7949L166.691 34.6461L171.83 42.4684C171.897 42.5704 171.903 42.7013 171.846 42.8099C171.788 42.9185 171.675 42.9851 171.553 42.9851L171.548 42.9828ZM164.048 42.3177H170.932L166.01 34.8279C165.937 34.7171 165.937 34.5729 166.01 34.4621L170.932 26.9435H164.045L162.245 31.032C162.192 31.1518 162.072 31.2294 161.941 31.2316C161.81 31.2316 161.691 31.154 161.637 31.0343L159.811 26.9435H152.924L157.846 34.4621C157.919 34.5729 157.919 34.7171 157.846 34.8279L152.924 42.3177H159.811L161.637 38.2269C161.691 38.1072 161.81 38.0296 161.941 38.0296C162.072 38.0296 162.192 38.1072 162.245 38.2291L164.045 42.3177H164.048Z" fill="#0A1B33"/>
<path d="M156.848 0.997342C146.381 0.713538 136.911 5.10806 130.386 12.2386C128.494 14.3051 128.987 17.5932 131.392 19.03C133.199 20.1098 135.514 19.7639 136.935 18.2118C141.674 13.0391 148.498 9.80413 156.061 9.85291C169.832 9.9416 181.189 21.0299 181.595 34.7944C181.69 38.016 181.189 41.1113 180.193 43.9759C179.499 45.978 180.271 48.1953 182.091 49.2817L182.098 49.2861C184.501 50.7207 187.623 49.5965 188.548 46.9558C189.827 43.3019 190.508 39.3685 190.472 35.2755C190.319 16.7374 175.378 1.50065 156.846 0.997342H156.848Z" fill="#FF0090"/>
<path d="M184.368 50.2489C183.519 50.2489 182.679 50.0205 181.93 49.5726C179.992 48.4175 179.134 46.0206 179.881 43.8677C180.89 40.9587 181.355 37.9101 181.264 34.8037C180.867 21.3164 169.56 10.2724 156.061 10.1837C156.008 10.1837 155.953 10.1837 155.899 10.1837C148.806 10.1837 141.993 13.1859 137.184 18.434C135.663 20.0947 133.155 20.465 131.226 19.312C129.989 18.5737 129.16 17.3321 128.951 15.9064C128.743 14.4874 129.177 13.0661 130.144 12.0107C136.991 4.52541 146.727 0.390296 156.857 0.665231C165.906 0.911342 174.404 4.63183 180.79 11.1416C187.173 17.6513 190.732 26.2209 190.807 35.2738C190.841 39.3158 190.186 43.2846 188.863 47.0672C188.39 48.4175 187.346 49.4729 186 49.9606C185.47 50.1535 184.918 50.2489 184.368 50.2489ZM155.895 9.5208C155.95 9.5208 156.006 9.5208 156.061 9.5208C162.808 9.56515 169.205 12.2059 174.069 16.9574C178.936 21.7111 181.726 28.0412 181.925 34.7838C182.018 37.9721 181.541 41.1006 180.506 44.085C179.863 45.9408 180.599 48.0051 182.26 48.9962C183.331 49.6347 184.606 49.7567 185.77 49.3332C186.929 48.9119 187.825 48.0051 188.231 46.8455C189.528 43.136 190.171 39.2426 190.138 35.2782C189.987 17.0527 175.047 1.82262 156.835 1.32818C146.902 1.05768 137.35 5.1174 130.628 12.4608C129.796 13.3699 129.424 14.5894 129.601 15.811C129.781 17.0372 130.494 18.1059 131.559 18.7422C133.219 19.7333 135.377 19.4162 136.685 17.9861C141.618 12.6005 148.611 9.5208 155.89 9.5208H155.895Z" fill="#0A1B33"/>
<path d="M132.705 14.2855L131.769 15.2677L131.16 14.6868L133.743 11.9707L134.352 12.5516L133.417 13.5338L135.975 15.9661L135.262 16.7155L132.703 14.2833L132.705 14.2855Z" fill="#E2F8FC"/>
<path d="M135.548 10.4009L136.384 9.80227L137.383 11.1969L138.783 10.1925L137.783 8.79787L138.618 8.19922L141.166 11.7512L140.33 12.3499L139.27 10.871L137.871 11.8754L138.931 13.3543L138.095 13.9529L135.548 10.4009Z" fill="#E2F8FC"/>
<path d="M141.006 6.85094L143.853 5.53613L144.195 6.27668L142.281 7.16135L142.667 7.99503L144.354 7.21678L144.689 7.9396L143.002 8.71784L143.43 9.64464L145.343 8.75997L145.685 9.50052L142.838 10.8153L141.004 6.84651L141.006 6.85094Z" fill="#E2F8FC"/>
<path d="M148.911 3.97808L150.591 3.69649C151.656 3.5169 152.407 3.94482 152.558 4.85167C152.713 5.77625 152.137 6.42146 151.09 6.59662L150.412 6.70969L150.649 8.11763L149.633 8.28835L148.908 3.97586L148.911 3.97808ZM150.061 4.61221L150.279 5.90484L150.9 5.80063C151.394 5.71638 151.578 5.41927 151.514 5.03348C151.447 4.64103 151.163 4.42818 150.707 4.50356L150.059 4.61221H150.061Z" fill="#E2F8FC"/>
<path d="M157.057 6.82904L155.341 6.80687L155.041 7.62059L154.006 7.60728L155.655 3.25488L156.89 3.2704L158.436 7.6605L157.336 7.64719L157.057 6.82682V6.82904ZM155.633 6.01975L156.784 6.03306L156.356 4.76703L156.234 4.27037L156.092 4.76481L155.633 6.01975Z" fill="#E2F8FC"/>
<path d="M160.828 3.59818L162.578 3.96181C163.578 4.17023 164.09 4.80213 163.926 5.5959C163.828 6.06817 163.564 6.35419 163.183 6.485C163.347 6.67125 163.422 6.90849 163.434 7.23886L163.482 8.61575L162.431 8.39624L162.425 7.22555C162.425 6.82424 162.307 6.71559 161.944 6.64021L161.276 6.50052L160.946 8.08583L159.939 7.8752L160.831 3.59375L160.828 3.59818ZM161.669 4.60702L161.436 5.72006L162.134 5.8664C162.556 5.95509 162.804 5.76884 162.875 5.43626C162.944 5.10368 162.782 4.83983 162.391 4.75779L161.669 4.60702Z" fill="#E2F8FC"/>
<path d="M167.358 6.26165L166.103 5.74726L166.422 4.9668L169.892 6.38803L169.573 7.16849L168.318 6.6541L166.979 9.92006L166.021 9.52761L167.36 6.26165H167.358Z" fill="#E2F8FC"/>
<path d="M171.56 10.6185L171.866 7.41016L172.83 8.03985L172.624 9.66285L172.506 10.1839L172.932 9.8624L174.329 9.01542L175.249 9.61629L172.429 11.1839L171.6 12.4543L170.733 11.8889L171.562 10.6185H171.56Z" fill="#E2F8FC"/>
<path d="M179.171 13.0352L180.036 14.0795L178.652 16.4608L178.271 17.0195L178.89 16.749L181.486 15.8333L182.326 16.8488L178.961 19.638L178.304 18.8465L180.821 16.8355L179.77 17.2723L177.617 18.0195L177.14 17.4452L178.28 15.4564L178.892 14.5229L176.453 16.6182L175.797 15.8266L179.162 13.0374L179.171 13.0352Z" fill="#E2F8FC"/>
<path d="M181.881 23.2369L181.098 21.7092L180.24 21.8245L179.768 20.9021L184.386 20.3301L184.949 21.4298L181.788 24.8488L181.287 23.871L181.881 23.2413V23.2369ZM181.932 21.6005L182.457 22.6249L183.377 21.656L183.759 21.3167L183.258 21.4232L181.934 21.6028L181.932 21.6005Z" fill="#E2F8FC"/>
<path d="M186.497 25.0747L186.987 26.7931C187.266 27.7753 186.945 28.5225 186.167 28.7442C185.703 28.8773 185.326 28.7775 185.034 28.4981C184.947 28.7309 184.77 28.9083 184.482 29.0702L183.287 29.7531L182.992 28.7199L184.025 28.17C184.38 27.9815 184.422 27.8285 184.32 27.4716L184.133 26.8153L182.575 27.2587L182.293 26.2698L186.497 25.0703V25.0747ZM185.994 26.2876L184.898 26.6002L185.094 27.2875C185.211 27.7022 185.49 27.8352 185.819 27.7421C186.147 27.6489 186.304 27.3829 186.196 26.9993L185.994 26.2876Z" fill="#E2F8FC"/>
<path d="M187.929 31.0215L188.016 32.0458L185.965 32.221L188.151 33.6489L188.251 34.8284L185.965 33.2941L183.903 35.3029L183.794 34.0214L185.626 32.252L183.659 32.4183L183.573 31.394L187.929 31.0237V31.0215Z" fill="#E2F8FC"/>
<path d="M188.186 37.2512L187.878 40.3752L187.065 40.2954L187.271 38.1957L186.355 38.1048L186.173 39.954L185.379 39.8764L185.561 38.0272L184.544 37.9274L184.337 40.0271L183.524 39.9473L183.832 36.8232L188.184 37.2534L188.186 37.2512Z" fill="#E2F8FC"/>
<path d="M186.288 43.7012L186.659 42.3975L187.468 42.6281L186.444 46.2332L185.634 46.0027L186.005 44.6989L182.61 43.7344L182.894 42.7389L186.288 43.7034V43.7012Z" fill="#E2F8FC"/>
</svg>
