<svg width="65" height="65" viewBox="0 0 65 65" fill="none" xmlns="http://www.w3.org/2000/svg">
<g clip-path="url(#clip0_1582_12835)">
<path d="M57.0265 63.5851L49.2615 32.5226C49.1571 32.1052 48.7821 31.8125 48.352 31.8125H42.975C45.2282 27.9149 47.2016 23.5956 47.9148 19.4191C48.002 18.9087 47.659 18.4244 47.1486 18.3371C46.6375 18.2505 46.1538 18.5931 46.0667 19.1034C44.4776 28.4074 37.9691 35.8254 32.8207 43.3638C27.3056 35.2884 19.3095 26.5196 19.3095 16.1362C19.3095 8.68612 25.3706 2.625 32.8207 2.625C39.9165 2.625 45.8378 8.16512 46.3015 15.2376C46.3353 15.7544 46.7846 16.1444 47.2983 16.1117C47.8151 16.0779 48.2065 15.6316 48.1726 15.1149C47.6445 7.05987 40.9012 0.75 32.8207 0.75C24.3367 0.75 17.4345 7.65225 17.4345 16.1362C17.4345 21.3299 19.8128 26.8979 22.6566 31.8125H17.2895C16.8593 31.8125 16.4843 32.1052 16.38 32.5226L14.9537 38.2264C14.8281 38.7288 15.1335 39.2376 15.6358 39.3633C16.1091 39.4765 16.4881 39.2491 16.7728 38.6811L18.0215 33.6875H23.7812C24.2072 34.3744 24.6377 35.0445 25.067 35.695H21.172C20.7418 35.695 20.3668 35.9878 20.2625 36.4051L18.3213 44.1714C18.2457 44.8555 18.5488 45.2438 19.2308 45.3363H46.4107C47.0927 45.2438 47.396 44.8555 47.3202 44.1714L45.3791 36.4051C45.2747 35.9878 44.8997 35.695 44.4696 35.695H40.5687C40.9965 35.0455 41.4262 34.3751 41.852 33.6875H47.62L54.9163 62.875H10.7251L15.7827 42.6449C15.9082 42.1426 15.603 41.6336 15.1006 41.508C14.5982 41.3824 14.0893 41.6877 13.9636 42.1901L8.61484 63.5851C8.53922 64.2692 8.84234 64.6575 9.52434 64.75H56.1168C56.799 64.6575 57.1022 64.2692 57.0265 63.5851ZM21.904 37.57H26.3353C27.7152 39.5635 29.1732 41.4974 30.5936 43.4613H20.4313L21.904 37.57ZM43.7375 37.57L45.21 43.4613H35.0478C36.468 41.4979 37.9251 39.5643 39.3028 37.57H43.7375Z" fill="#999999"/>
<path d="M26.0586 17.2187C26.0586 20.947 29.092 23.9803 32.8203 23.9803C36.5487 23.9803 39.5821 20.947 39.5821 17.2187C39.5821 13.4903 36.5487 10.457 32.8203 10.457C29.092 10.457 26.0586 13.4903 26.0586 17.2187ZM37.7071 17.2187C37.7071 19.9132 35.515 22.1053 32.8203 22.1053C30.1257 22.1053 27.9336 19.9132 27.9336 17.2187C27.9336 14.5242 30.1257 12.332 32.8203 12.332C35.515 12.332 37.7071 14.5242 37.7071 17.2187Z" fill="#999999"/>
<path d="M15.3483 60.8668H30.8794C31.3973 60.8668 31.8169 60.447 31.8169 59.9293V48.2803C31.7633 47.7089 31.4508 47.3964 30.8794 47.3428L18.2604 47.3435C17.8303 47.3435 17.4553 47.6363 17.3509 48.0536L14.4388 59.702C14.2999 60.2289 14.6569 60.8668 15.3483 60.8668ZM18.9923 49.2184L29.9419 49.2178V58.9918H16.5489L18.9923 49.2184Z" fill="#999999"/>
<path d="M43.3317 59.9303C43.3317 60.448 43.7513 60.8678 44.2692 60.8678H50.293C50.975 60.7753 51.2782 60.387 51.2025 59.7029L48.29 48.0529C48.1856 47.6355 47.8106 47.3428 47.3805 47.3428H34.7617C34.2438 47.3428 33.8242 47.7625 33.8242 48.2803V59.9303C33.8242 60.448 34.2438 60.8678 34.7617 60.8678H40.183C40.7008 60.8678 41.1205 60.448 41.1205 59.9303C41.1205 59.4125 40.7008 58.9928 40.183 58.9928H35.6992V49.2178H46.6486L49.0923 58.9928H44.2692C43.7513 58.9928 43.3317 59.4125 43.3317 59.9303Z" fill="#999999"/>
</g>
<defs>
<clipPath id="clip0_1582_12835">
<rect width="64" height="64" fill="white" transform="translate(0.820312 0.75)"/>
</clipPath>
</defs>
</svg>