<svg width="25" height="25" viewBox="0 0 25 25" fill="none" xmlns="http://www.w3.org/2000/svg">
<path fill-rule="evenodd" clip-rule="evenodd" d="M13.2071 4.5302C12.8166 4.13967 12.1834 4.13967 11.7929 4.5302C11.4024 4.92072 11.4024 5.55389 11.7929 5.94441L17.0858 11.2373H5.5C4.94772 11.2373 4.5 11.685 4.5 12.2373C4.5 12.7896 4.94772 13.2373 5.5 13.2373H17.0858L11.7929 18.5302C11.4024 18.9207 11.4024 19.5539 11.7929 19.9444C12.1834 20.3349 12.8166 20.3349 13.2071 19.9444L20.2064 12.9451C20.2088 12.9427 20.2112 12.9403 20.2136 12.9379C20.3901 12.7581 20.4992 12.5119 20.5 12.2403C20.5 12.2393 20.5 12.2383 20.5 12.2373C20.5 12.2363 20.5 12.2353 20.5 12.2343C20.4996 12.0998 20.4727 11.9716 20.4241 11.8545C20.3764 11.7393 20.3063 11.6311 20.2136 11.5368C20.2112 11.5344 20.2089 11.532 20.2065 11.5296M13.2071 4.5302L20.2065 11.5296L13.2071 4.5302Z" fill="#0A1B33"/>
</svg>
