<svg width="24" height="25" viewBox="0 0 24 25" fill="none" xmlns="http://www.w3.org/2000/svg">
<g id="Iconos / arrow-right">
<path id="Union" fill-rule="evenodd" clip-rule="evenodd" d="M12.7071 5.07268C12.3166 4.68215 11.6834 4.68215 11.2929 5.07268C10.9024 5.4632 10.9024 6.09637 11.2929 6.48689L16.5858 11.7798H5C4.44772 11.7798 4 12.2275 4 12.7798C4 13.3321 4.44772 13.7798 5 13.7798H16.5858L11.2929 19.0727C10.9024 19.4632 10.9024 20.0964 11.2929 20.4869C11.6834 20.8774 12.3166 20.8774 12.7071 20.4869L19.7064 13.4876C19.7088 13.4852 19.7112 13.4828 19.7136 13.4803C19.8901 13.3006 19.9992 13.0544 20 12.7828C20 12.7818 20 12.7808 20 12.7798C20 12.7788 20 12.7778 20 12.7768C19.9996 12.6423 19.9727 12.514 19.9241 12.397C19.8764 12.2817 19.8063 12.1736 19.7136 12.0792C19.7112 12.0768 19.7089 12.0744 19.7065 12.0721M12.7071 5.07268L19.7065 12.0721L12.7071 5.07268Z" fill="#0A1B33"/>
</g>
</svg>
