<svg width="72" height="73" viewBox="0 0 72 73" fill="none" xmlns="http://www.w3.org/2000/svg">
<path fill-rule="evenodd" clip-rule="evenodd" d="M46.989 11.3707C41.6707 9.00097 35.7289 8.41392 30.0497 9.69706C24.3705 10.9802 19.2583 14.0648 15.4754 18.4908C11.6925 22.9167 9.44162 28.447 9.05853 34.2567C8.67544 40.0664 10.1806 45.8444 13.3496 50.7287C16.5186 55.6131 21.1815 59.3423 26.6431 61.36C32.1046 63.3778 38.0721 63.576 43.6555 61.9252C49.2389 60.2744 54.1391 56.8629 57.6252 52.1996C61.1114 47.5363 62.9967 41.871 63 36.0487V33.2904C63 31.6335 64.3432 30.2904 66 30.2904C67.6569 30.2904 69 31.6335 69 33.2904V36.0504C68.9959 43.1666 66.6917 50.0925 62.4308 55.7921C58.17 61.4917 52.1808 65.6613 45.3567 67.679C38.5325 69.6967 31.239 69.4544 24.5638 66.9882C17.8885 64.5221 12.1894 59.9642 8.31617 53.9944C4.44298 48.0246 2.60331 40.9627 3.07153 33.8619C3.53976 26.7612 6.29078 20.002 10.9143 14.5924C15.5379 9.1829 21.7862 5.41285 28.7274 3.84457C35.6687 2.27629 42.9309 2.9938 49.431 5.89009C50.9444 6.56443 51.6246 8.33796 50.9503 9.85138C50.276 11.3648 48.5024 12.045 46.989 11.3707Z" fill="#6FDDEF"/>
<path fill-rule="evenodd" clip-rule="evenodd" d="M68.1203 9.9284C69.2924 11.0994 69.2934 12.9989 68.1224 14.171L38.1224 44.201C37.5599 44.7641 36.7967 45.0806 36.0007 45.0808C35.2048 45.081 34.4415 44.7649 33.8787 44.2021L24.8787 35.2021C23.7071 34.0305 23.7071 32.131 24.8787 30.9595C26.0503 29.7879 27.9497 29.7879 29.1213 30.9595L35.9989 37.8371L63.8776 9.93052C65.0486 8.75836 66.9481 8.75741 68.1203 9.9284Z" fill="#6FDDEF"/>
</svg>
