<svg width="38" height="51" viewBox="0 0 38 51" fill="none" xmlns="http://www.w3.org/2000/svg">
<path id="path13911" d="M13.4091 26.0255L11.7408 27.6938C11.4898 27.9476 11.4282 28.3331 11.5878 28.6525L14.0846 33.6541C14.3029 34.0876 14.8441 34.2435 15.2597 33.9926L19 31.7514L22.7402 33.9926C23.1544 34.2386 23.6904 34.0833 23.9088 33.6541L26.4137 28.6525C26.5712 28.3314 26.5064 27.9457 26.2526 27.6938L24.5924 26.0255C24.436 25.8683 24.2234 25.7798 24.0016 25.7798V23.8576C25.3546 22.6432 26.2689 20.9501 26.4609 19.04C28.2975 18.7005 29.8333 17.193 29.8333 14.9326C29.7959 13.7924 29.0161 12.9183 28.1666 12.6222V8.27817C28.1666 4.13757 24.8088 0.779785 20.6683 0.779785H17.3333C13.1927 0.779785 9.83492 4.13757 9.83492 8.27817V9.11642C9.83492 10.2278 11.5016 10.2278 11.5016 9.11642V8.27817C11.5016 5.03209 14.0872 2.44811 17.3333 2.44811H20.6683C23.9143 2.44811 26.4983 5.03209 26.4983 8.27817V11.2111C25.052 10.6921 22.3953 9.9465 19 9.9465C13.8148 9.9465 10.2955 11.6994 10.2955 11.6994C9.95188 11.8711 9.78458 12.2526 9.86422 12.6206C8.94391 12.9712 8.20404 13.7923 8.16662 14.9188C8.16647 14.9282 8.16647 14.9377 8.16662 14.9472C8.16662 17.1943 9.70337 18.7017 11.5406 19.0405C11.7326 20.9499 12.6462 22.6423 13.9983 23.8566L13.9959 25.7806C13.7739 25.7823 13.5639 25.8699 13.4091 26.0255ZM19 11.6131C22.601 11.6131 25.039 12.4761 26.2249 12.8745C25.8799 13.5508 25.3361 14.1242 24.8317 14.1099H13.1683C12.5321 14.1162 12.0381 13.3251 11.7653 12.8842C13.1003 12.4362 15.3989 11.6131 19 11.6131ZM11.5016 15.1628V17.3064C10.6216 17.0131 9.84543 16.2474 9.83655 14.9675C9.85566 14.5127 10.2228 14.1974 10.5763 14.1301C10.8113 14.4839 11.1238 14.8621 11.5016 15.1628ZM28.1634 14.9676C28.1546 16.2475 27.3783 17.0133 26.4983 17.3065V15.1646C26.8769 14.8635 27.1785 14.4975 27.4139 14.1432C27.8088 14.2185 28.1443 14.5128 28.1634 14.9676ZM13.1683 15.7781H24.8317V18.2814C24.8316 21.5275 22.2461 24.1131 19 24.1131C15.7539 24.1131 13.1683 21.5275 13.1683 18.2814V15.7781ZM15.6666 24.9904C16.6718 25.491 17.801 25.7798 19 25.7798C20.1994 25.7798 21.3294 25.4912 22.3349 24.9904V26.9142L19 29.6957L15.6666 26.9158V24.9904ZM14.0488 27.7426L17.5677 30.6707L15.1735 32.1047L13.3473 28.4442L14.0488 27.7426ZM23.9462 27.7426L24.6543 28.4442L22.8265 32.1047L20.4339 30.6707L23.9462 27.7426ZM28.8209 29.406C32.7677 30.4276 35.6666 33.991 35.6666 38.2798V44.1115H31.5V38.2798C31.5 36.9092 30.3738 35.783 29.0032 35.783H8.99833C7.62775 35.783 6.49996 36.9092 6.49996 38.2798V44.1115H2.33329V38.2798C2.33328 33.9894 5.23481 30.4261 9.18388 29.406C10.2488 29.1053 9.8476 27.5608 8.76721 27.7914C4.0967 28.9979 0.666614 33.2358 0.666626 38.2798V49.9464C0.666671 50.4067 1.03974 50.7797 1.49996 50.7798H36.5C36.9602 50.7797 37.3332 50.4067 37.3333 49.9464V38.2798C37.3333 33.2377 33.907 29.0014 29.2392 27.7931C28.185 27.5591 27.7435 29.0722 28.8209 29.406ZM8.99833 37.4432H23.165V42.9363L22.3349 43.768L21.2574 42.6906C20.9317 42.3634 20.4032 42.3634 20.0774 42.6906L19 43.768L17.9241 42.6906C17.5984 42.3634 17.0682 42.3634 16.7425 42.6906L15.6666 43.768L14.8365 42.9363V39.948C14.8365 38.8366 13.1683 38.8366 13.1683 39.948V43.2814C13.1668 43.5022 13.2541 43.7149 13.4091 43.8722L15.0758 45.5324C15.4016 45.8595 15.9317 45.8595 16.2574 45.5324L17.3333 44.463L18.4091 45.5324C18.7349 45.8595 19.265 45.8595 19.5908 45.5324L20.6683 44.463L21.7441 45.5324C22.0698 45.8595 22.6 45.8595 22.9257 45.5324L24.5924 43.8722C24.7475 43.7151 24.8331 43.5023 24.8316 43.2814V37.4432H29.0032C29.4793 37.4432 29.8333 37.8037 29.8333 38.2798V49.1131H8.16825V38.2798C8.16825 37.8037 8.52225 37.4432 8.99833 37.4432ZM2.33329 45.7782H6.49996V49.1131H2.33329V45.7782ZM31.5 45.7782H35.6666V49.1131H31.5V45.7782Z" fill="#0A1B33"/>
</svg>
