<svg width="24" height="24" viewBox="0 0 24 24" fill="none" xmlns="http://www.w3.org/2000/svg">
<path d="M23.6478 12.2525H19.1428C20.2934 11.1534 20.8152 9.98378 20.6577 8.83239C20.4605 7.39056 19.445 6.7974 18.5605 6.72311C17.7718 6.65664 17.0352 6.95336 16.5973 7.46757C16.4231 7.26395 16.1987 7.09196 15.9343 6.96264C15.3383 6.67122 14.6157 6.63432 14.001 6.86387C13.8188 6.93193 13.7262 7.13486 13.7943 7.31711C13.8624 7.49936 14.0654 7.59189 14.2476 7.52382C14.6845 7.36056 15.1993 7.38742 15.6248 7.5955C15.9461 7.75267 16.1722 7.996 16.2614 8.28076C16.3074 8.42767 16.4436 8.5277 16.5975 8.5277C16.7515 8.5277 16.8877 8.42771 16.9337 8.28076C17.1055 7.73232 17.7802 7.36464 18.5015 7.42511C18.8825 7.45712 19.7873 7.66764 19.9597 8.92787C20.1456 10.2869 19.0556 11.4742 18.0669 12.2526H17.0545H15.1282C14.1395 11.4743 13.0495 10.2869 13.2354 8.92787C13.2669 8.6972 13.3265 8.48734 13.4124 8.3042C13.495 8.12809 13.4193 7.91837 13.2432 7.83573C13.067 7.75318 12.8573 7.82884 12.7747 8.00504C12.6585 8.25273 12.5786 8.53117 12.5375 8.83248C12.38 9.98387 12.9018 11.1535 14.0524 12.2526H8.8666L9.32602 10.5855C9.44644 10.1486 9.18896 9.69507 8.75213 9.57461L7.18285 9.14181C6.75924 9.01567 6.28069 9.2875 6.17208 9.71589L5.7923 11.094C5.52464 11.0009 5.13788 10.8811 4.71057 10.7962C3.5888 10.5736 2.76783 10.7023 2.27049 11.1786C1.78697 11.6418 1.77774 12.4383 2.24297 13.5459C2.4736 14.0949 2.76146 14.5794 2.90461 14.8077L2.44528 16.4784C2.20519 16.601 1.70991 16.8692 1.23071 17.2221C0.263394 17.9344 -0.136825 18.623 0.0411129 19.2687C0.22416 19.9326 0.86316 20.4639 1.94049 20.8477C2.35097 20.994 2.74453 21.0893 3.02213 21.1465L2.6423 22.5248C2.52188 22.9617 2.77932 23.4152 3.21619 23.5357L4.78542 23.9684C5.20749 24.0949 5.68819 23.8227 5.79624 23.3944L6.32377 21.4801C6.37547 21.2925 6.26532 21.0986 6.07777 21.0469C5.89017 20.9952 5.69625 21.1053 5.6446 21.2929L5.11707 23.2072C5.08397 23.2822 5.05402 23.2992 4.97269 23.2893L3.40346 22.8565C3.34102 22.8393 3.30422 22.7744 3.32147 22.7119L4.7206 17.6348L6.51619 18.1299L6.02766 19.9027C5.97596 20.0903 6.08611 20.2842 6.27366 20.3359C6.46125 20.3875 6.65517 20.2774 6.70683 20.0899L8.06053 15.1776V22.9412C8.06053 23.524 8.53463 23.998 9.11738 23.998H22.9432C23.5259 23.998 24 23.5239 24 22.9412V12.6048C24 12.4103 23.8423 12.2525 23.6478 12.2525ZM2.75789 11.6873C3.15666 11.3052 3.95958 11.3664 4.56282 11.485C4.97799 11.5667 5.35819 11.6877 5.60466 11.775L4.77268 14.7941L3.50775 14.4453C2.92533 13.5392 2.31718 12.1095 2.75789 11.6873ZM3.53218 15.1827L4.58461 15.4729L4.2285 16.7679L3.17607 16.4777L3.53218 15.1827ZM0.720285 19.0815C0.632019 18.7612 0.967691 18.2922 1.64119 17.7947C2.0888 17.4641 2.56603 17.2078 2.77918 17.0991L4.04152 17.4472L3.20939 20.4669C2.40797 20.3066 0.935113 19.8609 0.720285 19.0815ZM4.99894 16.6248L5.265 15.6593L7.0606 16.1545L6.70336 17.4508L4.90777 16.9556L4.99894 16.6248ZM5.45213 14.9802L6.85125 9.90296C6.88435 9.82796 6.91435 9.81095 6.99558 9.82084L8.56482 10.2536C8.62725 10.2708 8.66405 10.3357 8.6468 10.3982L7.24767 15.4753L5.45213 14.9802ZM8.76502 22.9413V12.957H14.6538V23.2936H9.11738C8.92308 23.2936 8.76502 23.1356 8.76502 22.9413ZM23.2955 22.9413C23.2955 23.1356 23.1374 23.2936 22.9432 23.2936H17.4068V17.6662C17.4068 17.4716 17.2491 17.3139 17.0545 17.3139C16.86 17.3139 16.7023 17.4716 16.7023 17.6662V23.2936H15.3584V12.957H16.7023V16.2573C16.7023 16.4518 16.86 16.6095 17.0545 16.6095C17.2491 16.6095 17.4068 16.4518 17.4068 16.2573V12.957H23.2956L23.2955 22.9413Z" fill="#0A1B33"/>
<path d="M15.0176 4.052C15.1149 4.0993 15.2284 4.0993 15.3257 4.052C15.4213 4.0055 17.6646 2.89419 17.4386 1.24198C17.3231 0.397156 16.7233 0.0492031 16.2004 0.00528119C15.807 -0.0275782 15.4352 0.0948124 15.1717 0.320234C14.9081 0.0947655 14.5359 -0.0275782 14.1429 0.00528119C13.62 0.0492499 13.0202 0.397203 12.9047 1.24198C12.6787 2.89414 14.922 4.0055 15.0176 4.052ZM13.6026 1.33742C13.6724 0.827094 14.0079 0.723547 14.2018 0.707281C14.2237 0.705406 14.2455 0.704516 14.2671 0.704516C14.5333 0.704516 14.7759 0.840406 14.8355 1.03077C14.8815 1.17767 15.0176 1.2777 15.1716 1.2777C15.3256 1.2777 15.4617 1.17772 15.5078 1.03077C15.5722 0.824937 15.8506 0.682766 16.1414 0.707234C16.3352 0.723547 16.6709 0.827047 16.7407 1.33737C16.8595 2.20644 15.762 3.0095 15.1716 3.33762C14.581 3.00931 13.4837 2.20639 13.6026 1.33742Z" fill="#0A1B33"/>
<path d="M20.8303 6.02866C20.9276 6.07595 21.0412 6.07595 21.1384 6.02866C21.2313 5.98347 23.4104 4.90394 23.1905 3.29622C23.0777 2.47169 22.492 2.13208 21.9814 2.08919C21.6014 2.05722 21.2413 2.17441 20.9844 2.39064C20.7275 2.17441 20.3674 2.05731 19.9873 2.08919C19.4768 2.13208 18.891 2.47173 18.7783 3.29626C18.5584 4.90394 20.7375 5.98347 20.8303 6.02866ZM19.4762 3.3917C19.5427 2.90533 19.862 2.80666 20.0463 2.79119C20.0672 2.78945 20.0881 2.78856 20.1088 2.78856C20.3617 2.78856 20.592 2.91681 20.6483 3.09662C20.6943 3.24353 20.8304 3.34356 20.9844 3.34356C21.1384 3.34356 21.2745 3.24353 21.3205 3.09662C21.3815 2.90209 21.6464 2.76831 21.9224 2.79119C22.1068 2.80666 22.426 2.90528 22.4926 3.3917C22.6064 4.22439 21.5551 4.99586 20.9844 5.31414C20.4135 4.99567 19.3624 4.2243 19.4762 3.3917Z" fill="#0A1B33"/>
<path d="M10.0188 8.0433C10.116 8.0906 10.2297 8.0906 10.3269 8.0433C10.4198 7.99812 12.5989 6.91858 12.379 5.31091C12.2663 4.48638 11.6805 4.14677 11.1699 4.10384C10.7903 4.07205 10.4299 4.18905 10.1729 4.40529C9.91596 4.18905 9.55601 4.07187 9.1758 4.10384C8.66524 4.14673 8.07949 4.48638 7.96676 5.31091C7.74682 6.91858 9.9259 7.99812 10.0188 8.0433ZM8.66463 5.40635C8.73115 4.91993 9.05037 4.8213 9.23473 4.80584C9.25563 4.8041 9.27644 4.80321 9.29716 4.80321C9.55015 4.80321 9.78035 4.93146 9.83665 5.11127C9.88268 5.25818 10.0188 5.35821 10.1728 5.35821C10.3268 5.35821 10.4629 5.25823 10.5089 5.11127C10.5699 4.91679 10.8344 4.78287 11.1109 4.80584C11.2952 4.82135 11.6145 4.91993 11.681 5.40635C11.7949 6.23904 10.7434 7.01051 10.1728 7.32879C9.60194 7.01027 8.55077 6.23894 8.66463 5.40635Z" fill="#0A1B33"/>
</svg>
