<svg width="24" height="30" viewBox="0 0 24 30" fill="none" xmlns="http://www.w3.org/2000/svg">
<path d="M23.989 26.6941L21.6587 15.5451C21.6016 15.2767 21.3388 15.1053 21.0704 15.1568L16.4954 16.1106L17.2265 15.5509C17.3807 15.4309 17.4493 15.2367 17.4093 15.0539C17.3693 14.8655 17.2265 14.717 17.038 14.6713L14.9133 14.1629L16.741 12.9464C16.901 12.8436 16.9809 12.6551 16.9581 12.4723C16.9352 12.2895 16.8096 12.1239 16.6325 12.0611L15.7015 11.7298C16.3469 11.3643 16.901 10.8502 17.3179 10.2105C18.0033 9.16531 18.2375 7.91448 17.9862 6.68649C17.7291 5.4585 17.0152 4.40757 15.9643 3.72218C14.9476 3.05393 13.7367 2.81404 12.543 3.03679L5.20936 1.66601C5.01517 1.63174 4.81526 1.71171 4.70103 1.87734C4.59251 2.04298 4.5868 2.26002 4.70103 2.42565L8.8305 8.70838C9.10466 9.89068 9.80718 10.9073 10.8296 11.5756C11.6006 12.0782 12.4859 12.3409 13.3883 12.3409C13.6625 12.3409 13.9366 12.3181 14.2108 12.2667L15.3531 12.6722L13.4055 13.9745C13.2398 14.083 13.1542 14.2829 13.1884 14.4771C13.2227 14.6713 13.3712 14.8312 13.5654 14.8769L15.7872 15.4081L14.2508 16.5904L10.127 17.4528L0.771469 11.3243C0.543006 11.1758 0.234581 11.2386 0.0803682 11.4671C-0.0681327 11.6955 -0.00530543 12.004 0.223158 12.1582L9.57872 18.281L11.8633 29.2244C11.9148 29.4585 12.1204 29.6185 12.3488 29.6185C12.3831 29.6185 12.4174 29.6127 12.4516 29.607L23.6063 27.2824C23.8748 27.231 24.0461 26.9626 23.989 26.6941ZM8.78481 6.82356L6.18033 2.86544L10.8238 3.74503C10.2927 4.09343 9.83574 4.55036 9.47591 5.09296C9.1275 5.62985 8.89333 6.21814 8.78481 6.82356ZM14.1537 11.2729C13.1884 11.4728 12.206 11.29 11.3779 10.7474C10.5554 10.2105 9.98995 9.38235 9.78433 8.41709C9.58443 7.45184 9.7672 6.46945 10.3098 5.64127C10.8524 4.81309 11.6749 4.25336 12.6401 4.04774C12.8914 3.99634 13.1485 3.96778 13.3998 3.96778C13.7767 3.96778 14.1537 4.02489 14.5135 4.14484C14.3707 4.23051 14.2736 4.39043 14.2736 4.56749C14.2736 4.84165 14.4964 5.0644 14.7705 5.0644C15.0447 5.0644 15.2674 4.84165 15.2674 4.56749C15.2674 4.53894 15.2617 4.51038 15.2617 4.48182C15.3131 4.51038 15.3588 4.53893 15.4102 4.5732C16.2327 5.11009 16.7981 5.93827 17.0038 6.90353C17.2037 7.86878 17.0209 8.85117 16.4783 9.67935C15.9471 10.5018 15.1189 11.0673 14.1537 11.2729ZM12.7429 28.5333L10.6182 18.3609L20.7905 16.2362L22.9152 26.4086L12.7429 28.5333Z" fill="#0A1B33"/>
<path d="M16.1014 6.01837C16.0043 5.92698 15.8786 5.87558 15.7473 5.88129C15.6159 5.88129 15.4902 5.93841 15.3989 6.0355L12.8743 8.6514C12.6859 8.85131 12.6859 9.16545 12.8858 9.35393C13.337 9.78801 13.9138 10.005 14.4964 10.005C15.1019 10.005 15.7073 9.77087 16.1642 9.29681C16.5926 8.85131 16.8267 8.26873 16.8153 7.64617C16.7982 7.02932 16.5469 6.45245 16.1014 6.01837ZM15.4388 8.6C15.0562 8.9941 14.485 9.10262 13.9995 8.90842L15.6959 7.15497C15.7644 7.31489 15.8044 7.48624 15.8044 7.6633C15.8158 8.01742 15.6844 8.34869 15.4388 8.6Z" fill="#0A1B33"/>
<path d="M5.85485 7.16018C5.79774 6.89174 5.535 6.72039 5.26656 6.7718C4.99812 6.82891 4.82677 7.09164 4.87817 7.36009C4.90102 7.47432 4.87817 7.58855 4.81535 7.67994C4.75252 7.77703 4.65542 7.83986 4.5469 7.86271C4.27846 7.91982 4.10711 8.18255 4.15851 8.451C4.20992 8.68517 4.41553 8.8451 4.644 8.8451C4.67827 8.8451 4.71254 8.83939 4.74681 8.83367C5.11806 8.75371 5.43791 8.53667 5.64924 8.21682C5.86056 7.91411 5.93481 7.53143 5.85485 7.16018Z" fill="#0A1B33"/>
<path d="M20.7676 8.89164C20.6134 8.66318 20.3049 8.60607 20.0765 8.76028C19.7623 8.97161 19.551 9.29717 19.4768 9.67413C19.4025 10.0454 19.4825 10.4281 19.6995 10.7422C19.7966 10.885 19.9508 10.9592 20.1107 10.9592C20.2078 10.9592 20.3049 10.9307 20.3906 10.8736C20.6191 10.7193 20.6762 10.4109 20.522 10.1825C20.4592 10.0854 20.4363 9.97113 20.4534 9.86261C20.4706 9.75409 20.5391 9.65128 20.6362 9.58846C20.8647 9.42853 20.9218 9.12011 20.7676 8.89164Z" fill="#0A1B33"/>
<path d="M10.6355 13.3803C10.5098 13.0205 10.2471 12.7349 9.9044 12.5693C9.5617 12.4036 9.17332 12.3865 8.81349 12.5121C8.55647 12.6035 8.41939 12.8891 8.51077 13.1461C8.60216 13.4031 8.88774 13.5402 9.14476 13.4488C9.25328 13.4089 9.36751 13.4146 9.47032 13.466C9.57313 13.5174 9.65309 13.6031 9.68736 13.7116C9.76161 13.9172 9.95009 14.0428 10.1557 14.0428C10.2128 14.0428 10.2642 14.0314 10.3213 14.0143C10.5898 13.9229 10.7269 13.643 10.6355 13.3803Z" fill="#0A1B33"/>
<path d="M19.8366 0.42093C19.5853 0.31241 19.2883 0.432353 19.1855 0.683663C19.1398 0.786471 19.0598 0.872144 18.9513 0.912126C18.8428 0.957818 18.7286 0.952107 18.6258 0.912126C18.3745 0.803606 18.0774 0.923549 17.9746 1.17486C17.8661 1.42617 17.9861 1.72317 18.2374 1.82598C18.4144 1.90023 18.6029 1.94021 18.7914 1.94021C18.9742 1.94021 19.1512 1.90594 19.3283 1.8374C19.6824 1.69461 19.9566 1.42046 20.1051 1.07205C20.2079 0.82074 20.0879 0.52945 19.8366 0.42093Z" fill="#0A1B33"/>
<path d="M20.3793 20.3199C20.2879 20.1543 20.1051 20.0572 19.9166 20.0686L17.7462 20.2L16.404 18.4922C16.2898 18.3437 16.0956 18.2752 15.9071 18.3095C15.7186 18.3494 15.5758 18.4865 15.5244 18.675L14.9818 20.7769L12.9428 21.5194C12.7657 21.5822 12.6401 21.7478 12.6172 21.9363C12.5944 22.1248 12.6858 22.3076 12.8457 22.4104L14.6791 23.5755L14.7591 25.7459C14.7648 25.9344 14.879 26.1058 15.0504 26.18C15.1132 26.2086 15.1875 26.2257 15.256 26.2257C15.3702 26.2257 15.4845 26.1857 15.5758 26.1115L17.2493 24.7293L19.3398 25.3233C19.5225 25.3747 19.7167 25.3176 19.8481 25.1805C19.9738 25.0377 20.0137 24.8378 19.9452 24.6607L19.1456 22.6388L20.3564 20.834C20.4649 20.6855 20.4707 20.4799 20.3793 20.3199ZM18.1232 22.7702L18.6487 24.0953L17.2779 23.7069C17.118 23.6612 16.9523 23.6955 16.821 23.804L15.7243 24.7121L15.6729 23.29C15.6672 23.1243 15.5816 22.9758 15.4445 22.8901L14.245 22.1248L15.5816 21.6336C15.7358 21.5765 15.85 21.4508 15.8957 21.2909L16.2498 19.9144L17.1294 21.0339C17.2322 21.1652 17.3864 21.2338 17.552 21.2224L18.9742 21.1367L18.1803 22.319C18.0832 22.4446 18.0661 22.616 18.1232 22.7702Z" fill="#0A1B33"/>
<path d="M11.4464 8.38834C11.7208 8.38834 11.9433 8.16587 11.9433 7.89144C11.9433 7.617 11.7208 7.39453 11.4464 7.39453C11.1719 7.39453 10.9495 7.617 10.9495 7.89144C10.9495 8.16587 11.1719 8.38834 11.4464 8.38834Z" fill="#0A1B33"/>
</svg>
