<svg width="24" height="24" viewBox="0 0 24 24" fill="none" xmlns="http://www.w3.org/2000/svg">
<path d="M20.7644 7.7902C20.4976 7.7463 20.3039 7.51756 20.3039 7.24638C20.3039 7.01142 20.4529 6.80201 20.6748 6.72532C21.1705 6.55386 20.9131 5.80968 20.4174 5.98114C20.2087 6.05331 20.027 6.17421 19.8821 6.32791C19.3574 5.59957 18.4361 5.22047 17.5431 5.42146C17.0113 5.54118 16.4946 5.70524 15.9961 5.91157C15.8638 5.29693 15.4398 3.93425 14.6714 2.90705C14.2579 2.35425 13.6773 2 12.9293 2H11.5206C10.2759 2 9.42634 3.1011 9.56811 4.2215C9.8022 6.07118 10.7103 7.99315 12.2568 9.30047C11.9415 10.0176 11.7513 10.7741 11.6883 11.5445C10.7215 11.4354 9.73334 11.4915 8.78693 11.7096C8.63437 10.8616 8.32488 10.0365 7.87972 9.30039C7.38586 8.4837 6.56102 8.28693 5.87779 8.4372L5.38256 7.32165C5.17114 6.84512 4.45145 7.16441 4.66287 7.64094L5.15921 8.75902C4.59248 9.16661 4.18878 9.90535 4.45429 10.8174C4.72228 11.7378 5.16559 12.575 5.77405 13.3115C5.32878 13.7403 4.94173 14.2389 4.62673 14.797C3.7611 16.3307 3.24133 18.0663 3.11173 19.8151C3.01913 21.064 4.04531 22 5.1546 22H7.59126C8.15716 22 8.68295 21.6926 8.9635 21.1979C9.89138 19.5615 10.4262 17.7363 10.5205 15.8956C10.6418 15.8937 10.7632 15.8894 10.8847 15.8822C11.1111 17.7671 11.7805 19.5626 12.8563 21.1441C13.2209 21.68 13.8281 22 14.4807 22H16.4745C17.7461 22 18.5183 20.871 18.4365 19.8676C18.2845 18.0013 17.6943 16.175 16.7207 14.5867C16.287 13.8794 15.712 13.2579 15.0452 12.7728C15.4302 11.8935 15.6344 10.9385 15.639 9.97598C15.9765 10.0126 17.233 10.1217 18.4602 9.8574C19.634 9.60465 20.0487 8.72087 20.1685 8.39669C20.3089 8.48012 20.4666 8.53917 20.6367 8.56717C21.1531 8.65209 21.2809 7.87516 20.7644 7.7902ZM4.69756 5.86224C4.69756 6.07972 4.52126 6.25598 4.30382 6.25598C4.08637 6.25598 3.91007 6.07968 3.91007 5.86224C3.91007 5.64476 4.08637 5.4685 4.30382 5.4685C4.52126 5.4685 4.69756 5.64476 4.69756 5.86224ZM14.0279 3.36083C14.6355 4.22236 15.0591 5.21693 15.2627 6.2528C15.1103 6.33185 14.9598 6.41508 14.8115 6.50256L14.5446 6.12984C14.1869 5.63032 13.9037 5.08268 13.7028 4.50209L13.2681 3.24535C13.2114 3.08157 13.1331 2.92976 13.0372 2.79232C13.4312 2.82469 13.7957 3.03169 14.0279 3.36083ZM10.349 4.12012C10.2645 3.50114 10.7407 2.7874 11.5206 2.7874C11.9727 2.7874 12.3759 3.07492 12.524 3.50283L12.9587 4.75957C13.1844 5.41181 13.5026 6.02709 13.9044 6.58827L14.2894 7.12602C14.2197 7.50839 14.1152 7.88531 13.9627 8.24228C13.7024 8.85169 12.9709 8.93551 12.5547 8.53508C11.3428 7.36886 10.5771 5.7924 10.349 4.12012ZM14.851 9.8565C14.8669 10.9878 14.5713 12.1123 14.0028 13.0894C13.7296 12.8916 13.0776 12.5296 12.4687 12.5763C12.3918 11.5418 12.5739 10.512 13.0029 9.56126C13.169 9.58701 13.4598 9.5502 13.5799 9.51398C13.9961 9.65807 14.4208 9.77256 14.851 9.8565ZM5.21031 10.5973C5.01051 9.91094 5.42004 9.45657 5.83145 9.27598C6.23728 9.09787 6.84082 9.10409 7.20594 9.70783C7.615 10.3843 7.89547 11.1452 8.02571 11.9257C7.43031 12.1333 6.87527 12.4292 6.37456 12.8022C5.83807 12.1505 5.44704 11.4104 5.21031 10.5973ZM3.89712 19.8715C4.01145 18.2376 4.50374 16.6169 5.31248 15.184C5.74677 14.4145 6.33598 13.7741 7.03413 13.2991C7.29063 14.3025 7.83968 14.9377 8.38563 15.3166L7.79913 16.4076C7.40382 17.1429 7.13452 17.9335 6.9987 18.7575L6.70271 20.5533C6.6398 20.9353 6.31303 21.2126 5.92582 21.2126H5.1546C4.47204 21.2126 3.84212 20.6576 3.89712 19.8715ZM8.27854 20.8095C8.1376 21.0581 7.87421 21.2126 7.59126 21.2126H7.29063C7.38263 21.0524 7.44799 20.8735 7.47968 20.6813L7.77567 18.8856C7.89732 18.1474 8.13858 17.4392 8.49267 16.7804L9.08248 15.6832C9.29094 15.7622 9.50901 15.8202 9.73421 15.8552C9.64622 17.5739 9.14618 19.2794 8.27854 20.8095ZM10.1539 15.1056C9.1387 15.0706 8.26 14.4263 7.91531 13.4641C7.84862 13.2778 7.78992 13.087 7.73838 12.8944C8.98819 12.2778 10.6331 12.209 11.6681 12.3352C11.6731 12.4931 11.6832 12.6513 11.6989 12.8094C11.2488 13.058 10.7987 13.632 10.7987 14.3441C10.7987 14.5964 10.8031 14.8477 10.8166 15.0978C10.595 15.1104 10.3733 15.1131 10.1539 15.1056ZM15.371 21.2126H14.4807C14.0891 21.2126 13.7252 21.0215 13.5074 20.7012C12.2326 18.8272 11.5861 16.6311 11.5861 14.3502C11.5861 13.9101 11.9549 13.3595 12.5897 13.3595C13.202 13.3595 14.0935 13.9901 14.3308 14.8049L16.1147 20.1824C16.2627 20.5916 15.9884 21.2126 15.371 21.2126ZM16.0494 14.9983C16.9585 16.4812 17.5125 18.1867 17.6516 19.9302C17.6784 20.2662 17.5328 20.9674 16.7511 21.1804C16.9603 20.7996 17.0017 20.3554 16.862 19.9344L15.0781 14.557C14.9672 14.2225 14.7992 13.9158 14.5861 13.6473C14.6192 13.5937 14.6517 13.5398 14.6833 13.4854C15.2241 13.8982 15.6916 14.4147 16.0494 14.9983ZM18.3102 9.08441C17.0236 9.3389 15.7007 9.28866 14.445 8.95563C14.5454 8.83177 14.629 8.69283 14.6912 8.5413C14.8591 8.13221 14.9841 7.70531 15.0637 7.26988C15.8816 6.76512 16.773 6.40185 17.716 6.18957C18.4092 6.03358 19.1588 6.44177 19.424 7.11906C19.6752 7.76075 19.3971 8.86945 18.3102 9.08441ZM3.22504 4.40236L2.9459 3.77402C2.73677 3.30319 3.45645 2.9835 3.66559 3.45433L3.94472 4.08311C4.15665 4.56075 3.43696 4.88004 3.22504 4.40236Z" fill="#0A1B33"/>
</svg>