<svg width="16" height="14" viewBox="0 0 16 14" fill="none" xmlns="http://www.w3.org/2000/svg">
<path d="M9 1.19922L7.5 2.69922L5.5 0.699219H3.5L2 1.19922L0.5 3.19922V6.19922L2.5 9.19922L7.5 13.1992H8L11.5 10.6992L14.5 6.69922V2.69922L13 1.19922L12 0.699219H10L9 1.19922Z" fill="white"/>
<path d="M7.6 13.7992C7.533 13.7992 7.4665 13.7822 7.4055 13.7487C7.3305 13.7072 5.5445 12.7077 3.732 11.0712C2.659 10.1032 1.803 9.11272 1.1855 8.12722C0.3985 6.87022 0 5.61622 0 4.39922C0 2.08322 1.884 0.199219 4.2 0.199219C4.984 0.199219 5.817 0.492719 6.545 1.02622C6.9705 1.33822 7.333 1.71422 7.6 2.11322C7.867 1.71422 8.2295 1.33822 8.655 1.02622C9.383 0.492719 10.216 0.199219 11 0.199219C13.316 0.199219 15.2 2.08322 15.2 4.39922C15.2 5.61622 14.801 6.87022 14.0145 8.12722C13.3975 9.11272 12.541 10.1032 11.469 11.0712C9.656 12.7082 7.8705 13.7072 7.7955 13.7487C7.7345 13.7822 7.6675 13.7992 7.6 13.7992ZM4.2 0.999219C2.3255 0.999219 0.8 2.52472 0.8 4.39922C0.8 6.83122 2.68 9.04072 4.257 10.4672C5.665 11.7407 7.092 12.6337 7.6 12.9367C8.108 12.6337 9.535 11.7407 10.943 10.4672C12.52 9.04172 14.4 6.83122 14.4 4.39922C14.4 2.52472 12.8745 0.999219 11 0.999219C9.6375 0.999219 8.3145 2.12022 7.979 3.12572C7.9245 3.28872 7.772 3.39922 7.6 3.39922C7.428 3.39922 7.275 3.28872 7.221 3.12572C6.886 2.12022 5.5625 0.999219 4.2 0.999219Z" fill="#999999"/>
</svg>
