<svg width="20" height="20" viewBox="0 0 20 20" fill="none" xmlns="http://www.w3.org/2000/svg">
<path d="M18.207 0.146484H2.59766C2.10547 0.146484 1.68359 0.322266 1.33203 0.673828C0.980469 1.02539 0.804688 1.45117 0.804688 1.95117V17.5488C0.804688 18.0488 0.980469 18.4746 1.33203 18.8262C1.68359 19.1777 2.10547 19.3535 2.59766 19.3535H18.207C18.6992 19.3535 19.1211 19.1777 19.4727 18.8262C19.8242 18.4746 20 18.0488 20 17.5488V1.95117C20 1.45117 19.8242 1.02539 19.4727 0.673828C19.1211 0.322266 18.6992 0.146484 18.207 0.146484ZM18.8047 1.95117V6.14648H14V1.35352H18.207C18.3711 1.35352 18.5117 1.41211 18.6289 1.5293C18.7461 1.64648 18.8047 1.78711 18.8047 1.95117ZM8 12.1465V7.35352H12.8047V12.1465H8ZM12.8047 13.3535V18.1465H8V13.3535H12.8047ZM6.80469 12.1465H2V7.35352H6.80469V12.1465ZM8 6.14648V1.35352H12.8047V6.14648H8ZM14 7.35352H18.8047V12.1465H14V7.35352ZM2.59766 1.35352H6.80469V6.14648H2V1.95117C2 1.78711 2.05859 1.64648 2.17578 1.5293C2.29297 1.41211 2.43359 1.35352 2.59766 1.35352ZM2 17.5488V13.3535H6.80469V18.1465H2.59766C2.43359 18.1465 2.29297 18.0879 2.17578 17.9707C2.05859 17.8535 2 17.7129 2 17.5488ZM18.207 18.1465H14V13.3535H18.8047V17.5488C18.8047 17.7129 18.7461 17.8535 18.6289 17.9707C18.5117 18.0879 18.3711 18.1465 18.207 18.1465Z" fill="#0A1B33"/>
</svg>
