<svg width="32" height="33" viewBox="0 0 32 33" fill="none" xmlns="http://www.w3.org/2000/svg">
<path d="M19.0625 16.0898C19.0625 17.7812 17.6914 19.1523 16 19.1523C14.3086 19.1523 12.9375 17.7812 12.9375 16.0898C12.9375 14.3984 14.3086 13.0273 16 13.0273C17.6914 13.0273 19.0625 14.3984 19.0625 16.0898Z" fill="#6FDDEF"/>
<path d="M23.1621 10.6711C23.0149 10.2722 22.78 9.91113 22.4749 9.61475C22.1785 9.30957 21.8176 9.07471 21.4185 8.92749C21.0947 8.80176 20.6084 8.6521 19.7126 8.61133C18.7437 8.56714 18.4531 8.55762 16 8.55762C13.5466 8.55762 13.2561 8.56689 12.2874 8.61108C11.3916 8.6521 10.905 8.80176 10.5815 8.92749C10.1824 9.07471 9.82129 9.30957 9.52515 9.61475C9.21997 9.91113 8.98511 10.272 8.83765 10.6711C8.71191 10.9949 8.56226 11.4814 8.52148 12.3772C8.47729 13.3459 8.46777 13.6365 8.46777 16.0898C8.46777 18.543 8.47729 18.8335 8.52148 19.8025C8.56226 20.6982 8.71191 21.1846 8.83765 21.5083C8.98511 21.9075 9.21973 22.2683 9.5249 22.5647C9.82129 22.8699 10.1821 23.1047 10.5813 23.252C10.905 23.3779 11.3916 23.5276 12.2874 23.5684C13.2561 23.6126 13.5464 23.6218 15.9998 23.6218C18.4534 23.6218 18.7439 23.6126 19.7124 23.5684C20.6082 23.5276 21.0947 23.3779 21.4185 23.252C22.2197 22.9429 22.853 22.3096 23.1621 21.5083C23.2878 21.1846 23.4375 20.6982 23.4785 19.8025C23.5227 18.8335 23.532 18.543 23.532 16.0898C23.532 13.6365 23.5227 13.3459 23.4785 12.3772C23.4377 11.4814 23.2881 10.9949 23.1621 10.6711ZM16 20.8074C13.3943 20.8074 11.282 18.6953 11.282 16.0896C11.282 13.4839 13.3943 11.3718 16 11.3718C18.6055 11.3718 20.7178 13.4839 20.7178 16.0896C20.7178 18.6953 18.6055 20.8074 16 20.8074ZM20.9043 12.2878C20.2954 12.2878 19.8018 11.7942 19.8018 11.1853C19.8018 10.5764 20.2954 10.0828 20.9043 10.0828C21.5132 10.0828 22.0068 10.5764 22.0068 11.1853C22.0066 11.7942 21.5132 12.2878 20.9043 12.2878Z" fill="#6FDDEF"/>
<path d="M16 0.0898438C7.16479 0.0898438 0 7.25464 0 16.0898C0 24.925 7.16479 32.0898 16 32.0898C24.8352 32.0898 32 24.925 32 16.0898C32 7.25464 24.8352 0.0898438 16 0.0898438ZM25.1321 19.8777C25.0876 20.8557 24.9321 21.5234 24.7051 22.1079C24.2278 23.342 23.2522 24.3176 22.0181 24.7949C21.4338 25.022 20.7659 25.1772 19.7881 25.2219C18.8083 25.2666 18.4954 25.2773 16.0002 25.2773C13.5049 25.2773 13.1921 25.2666 12.2122 25.2219C11.2344 25.1772 10.5664 25.022 9.98218 24.7949C9.3689 24.5642 8.81372 24.2026 8.35474 23.7351C7.88745 23.2764 7.52588 22.7209 7.29517 22.1079C7.06812 21.5237 6.9126 20.8557 6.86816 19.8779C6.823 18.8979 6.8125 18.585 6.8125 16.0898C6.8125 13.5947 6.823 13.2817 6.86792 12.302C6.91235 11.324 7.06763 10.6562 7.29468 10.0718C7.52539 9.45874 7.88721 8.90332 8.35474 8.44458C8.81348 7.97705 9.3689 7.61548 9.98193 7.38477C10.5664 7.15771 11.2341 7.00244 12.2122 6.95776C13.1919 6.91309 13.5049 6.90234 16 6.90234C18.4951 6.90234 18.8081 6.91309 19.7878 6.95801C20.7659 7.00244 21.4336 7.15771 22.0181 7.38452C22.6311 7.61523 23.1865 7.97705 23.6455 8.44458C24.1128 8.90356 24.4746 9.45874 24.7051 10.0718C24.9324 10.6562 25.0876 11.324 25.1323 12.302C25.177 13.2817 25.1875 13.5947 25.1875 16.0898C25.1875 18.585 25.177 18.8979 25.1321 19.8777Z" fill="#6FDDEF"/>
</svg>
