<svg width="24" height="24" viewBox="0 0 24 24" fill="none" xmlns="http://www.w3.org/2000/svg">
<g id="lineas-de-cuadricula">
<g id="Group">
<path id="Vector" fill-rule="evenodd" clip-rule="evenodd" d="M1.5 3C1.5 2.17157 2.17157 1.5 3 1.5H10C10.8284 1.5 11.5 2.17157 11.5 3V10C11.5 10.8284 10.8284 11.5 10 11.5H3C2.17157 11.5 1.5 10.8284 1.5 10V3ZM3 2.5C2.72386 2.5 2.5 2.72386 2.5 3V10C2.5 10.2761 2.72386 10.5 3 10.5H10C10.2761 10.5 10.5 10.2761 10.5 10V3C10.5 2.72386 10.2761 2.5 10 2.5H3Z" fill="white"/>
<path id="Vector_2" fill-rule="evenodd" clip-rule="evenodd" d="M12.5 3C12.5 2.17157 13.1716 1.5 14 1.5H21C21.8284 1.5 22.5 2.17157 22.5 3V10C22.5 10.8284 21.8284 11.5 21 11.5H14C13.1716 11.5 12.5 10.8284 12.5 10V3ZM14 2.5C13.7239 2.5 13.5 2.72386 13.5 3V10C13.5 10.2761 13.7239 10.5 14 10.5H21C21.2761 10.5 21.5 10.2761 21.5 10V3C21.5 2.72386 21.2761 2.5 21 2.5H14Z" fill="white"/>
<path id="Vector_3" fill-rule="evenodd" clip-rule="evenodd" d="M1.5 14C1.5 13.1716 2.17157 12.5 3 12.5H10C10.8284 12.5 11.5 13.1716 11.5 14V21C11.5 21.8284 10.8284 22.5 10 22.5H3C2.17157 22.5 1.5 21.8284 1.5 21V14ZM3 13.5C2.72386 13.5 2.5 13.7239 2.5 14V21C2.5 21.2761 2.72386 21.5 3 21.5H10C10.2761 21.5 10.5 21.2761 10.5 21V14C10.5 13.7239 10.2761 13.5 10 13.5H3Z" fill="white"/>
<path id="Vector_4" fill-rule="evenodd" clip-rule="evenodd" d="M12.5 14C12.5 13.1716 13.1716 12.5 14 12.5H21C21.8284 12.5 22.5 13.1716 22.5 14V21C22.5 21.8284 21.8284 22.5 21 22.5H14C13.1716 22.5 12.5 21.8284 12.5 21V14ZM14 13.5C13.7239 13.5 13.5 13.7239 13.5 14V21C13.5 21.2761 13.7239 21.5 14 21.5H21C21.2761 21.5 21.5 21.2761 21.5 21V14C21.5 13.7239 21.2761 13.5 21 13.5H14Z" fill="white"/>
</g>
</g>
</svg>
