<svg width="41" height="41" viewBox="0 0 41 41" fill="none" xmlns="http://www.w3.org/2000/svg">
<path d="M20.5996 0.950195C9.5556 0.950195 0.599609 9.90619 0.599609 20.9502C0.599609 31.9942 9.5556 40.9502 20.5996 40.9502C31.6436 40.9502 40.5996 31.9942 40.5996 20.9502C40.5996 9.90619 31.6436 0.950195 20.5996 0.950195ZM14.7878 31.1846H9.91693V16.5303H14.7878V31.1846ZM12.3525 14.5293H12.3208C10.6863 14.5293 9.62915 13.4041 9.62915 11.9979C9.62915 10.5599 10.7186 9.46582 12.3849 9.46582C14.0511 9.46582 15.0765 10.5599 15.1083 11.9979C15.1083 13.4041 14.0511 14.5293 12.3525 14.5293ZM32.3513 31.1846H27.481V23.3449C27.481 21.3747 26.7758 20.031 25.0134 20.031C23.6678 20.031 22.8665 20.9374 22.5143 21.8123C22.3855 22.1254 22.3541 22.563 22.3541 23.001V31.1846H17.4835C17.4835 31.1846 17.5472 17.9052 17.4835 16.5303H22.3541V18.6052C23.0013 17.6067 24.1595 16.1864 26.7437 16.1864C29.9484 16.1864 32.3513 18.2808 32.3513 22.7819V31.1846Z" fill="#6FDDEF"/>
</svg>
