<svg width="40" height="40" viewBox="0 0 40 40" fill="none" xmlns="http://www.w3.org/2000/svg">
<path d="M32.5 3.3335H12.5C8.35 3.3335 5 6.6835 5 10.8335V25.8335C5 29.9835 8.35 33.3335 12.5 33.3335H32.5C36.65 33.3335 40 29.9835 40 25.8335V10.8335C40 6.6835 36.65 3.3335 32.5 3.3335ZM32.5 5.00016C34.0833 5.00016 35.5333 5.6335 36.5833 6.66683L26.6333 16.6168C24.35 18.9002 20.6667 18.9002 18.3833 16.6168L8.41667 6.66683C9.46667 5.6335 10.9167 5.00016 12.5 5.00016H32.5ZM38.3333 25.8335C38.3333 29.0502 35.7167 31.6668 32.5 31.6668H12.5C9.28333 31.6668 6.66667 29.0502 6.66667 25.8335V10.8335C6.66667 9.80016 6.93333 8.85016 7.4 8.00016L17.2 17.8002C18.6667 19.2668 20.5833 20.0002 22.5 20.0002C24.4167 20.0002 26.3333 19.2668 27.8 17.8002L37.6 8.00016C38.0667 8.8335 38.3333 9.80016 38.3333 10.8335V25.8335ZM30 37.5002C30 37.9668 29.6333 38.3335 29.1667 38.3335H7.5C3.36667 38.3335 0 34.9668 0 30.8335V12.5002C0 12.0335 0.366667 11.6668 0.833333 11.6668C1.3 11.6668 1.66667 12.0335 1.66667 12.5002V30.8335C1.66667 34.0502 4.28333 36.6668 7.5 36.6668H29.1667C29.6333 36.6668 30 37.0335 30 37.5002Z" fill="#FF0090"/>
</svg>
