<svg width="24" height="25" viewBox="0 0 24 25" fill="none" xmlns="http://www.w3.org/2000/svg">
<path d="M19.0879 10.1641L18.4363 6.17031C18.4035 5.97813 18.2254 5.84687 18.0332 5.87969C17.841 5.9125 17.7098 6.09062 17.7426 6.28281L18.3238 9.84531C15.352 9.25937 12.2348 9.10938 9.06133 9.4C8.86914 9.41875 8.72383 9.5875 8.74258 9.77969C8.76133 9.97188 8.93008 10.1172 9.12227 10.0984C12.2582 9.8125 15.3285 9.9625 18.2582 10.5484C18.7551 10.6469 19.1113 11.0875 19.1113 11.5984V12.7047C19.1113 13.2953 18.6332 13.7734 18.0426 13.7734H5.95352C5.36289 13.7734 4.88477 13.2953 4.88477 12.7047V11.6172C4.88477 11.1016 5.25039 10.6609 5.75664 10.5672C6.38008 10.45 7.01758 10.3516 7.6457 10.2672C7.83789 10.2437 7.97383 10.0656 7.9457 9.87344C7.91758 9.68125 7.74414 9.54531 7.55195 9.57344C6.90977 9.65781 6.26289 9.76094 5.63008 9.87812L6.61914 3.80781C6.88633 2.15313 8.29727 0.953125 9.9707 0.953125H13.9879C15.6613 0.953125 17.0723 2.15313 17.3395 3.80313L17.5035 4.79688C17.5363 4.98906 17.7145 5.12031 17.9066 5.0875C18.0988 5.05469 18.2301 4.87656 18.1973 4.68437L18.0332 3.69063C17.8785 2.72969 17.3816 1.85781 16.641 1.22969C15.9004 0.596875 14.9582 0.25 13.9879 0.25H9.9707C9.00039 0.25 8.05352 0.596875 7.31758 1.225C6.58164 1.85312 6.08477 2.72969 5.92539 3.69063L4.86133 10.2203C4.44414 10.5484 4.18164 11.0547 4.18164 11.6172V12.7047C4.18164 13.6797 4.97852 14.4766 5.95352 14.4766H6.2207L4.85195 23.5C4.82383 23.6875 4.88008 23.8797 5.00195 24.0203C5.12383 24.1656 5.30664 24.2453 5.49414 24.2453H5.84102C6.13164 24.2453 6.38008 24.0578 6.46445 23.7812L8.64414 16.5203L9.4457 16.0234H14.5551L15.3566 16.5203L15.7129 17.6969C15.7598 17.8469 15.8957 17.9453 16.0504 17.9453C16.0832 17.9453 16.116 17.9406 16.1535 17.9313C16.341 17.875 16.4441 17.6781 16.3879 17.4953L15.4785 14.4672H17.077L18.4457 23.5469H18.1973L16.8098 18.9344C16.7535 18.7469 16.5566 18.6438 16.3738 18.7C16.1863 18.7563 16.0832 18.9531 16.1395 19.1359L17.5363 23.7859C17.6207 24.0625 17.8691 24.25 18.1598 24.25H18.5066C18.6941 24.25 18.877 24.1656 18.9988 24.025C19.1207 23.8797 19.177 23.6922 19.1488 23.5047L17.7801 14.4813H18.0473C19.0223 14.4813 19.8191 13.6844 19.8191 12.7094V11.6031C19.8191 11.0172 19.5332 10.4875 19.0879 10.1641ZM5.80352 23.5469H5.55508L6.9332 14.4766H8.53164L5.80352 23.5469ZM15.052 15.5125L14.9207 15.4281C14.8129 15.3625 14.691 15.3297 14.5645 15.3297H9.43633C9.30977 15.3297 9.18789 15.3625 9.08008 15.4328L8.94883 15.5172L9.2582 14.4813H14.7379L15.052 15.5125Z" fill="#0A1B33"/>
</svg>
