<svg width="60" height="54" viewBox="0 0 60 54" fill="none" xmlns="http://www.w3.org/2000/svg">
<path d="M53.1549 35.1815C53.3893 33.06 53.6589 29.2975 53.1314 25.5117C53.0611 25.0311 52.6157 24.6912 52.1352 24.7615C51.6546 24.8318 51.3147 25.2772 51.385 25.7578C51.8773 29.2858 51.6311 32.8725 51.4319 34.7361C50.881 34.6423 50.3184 34.5955 49.7323 34.5955C48.3493 34.5955 47.0248 34.8768 45.8292 35.369C46.6966 32.7435 47.224 29.7898 47.2944 27.0002C47.3881 23.1557 46.6614 19.6043 45.1611 16.6271H45.8996L46.5208 16.756C48.2672 17.682 49.5917 19.3698 50.459 21.7961C50.6231 22.2532 51.1271 22.4876 51.5843 22.3235C52.0414 22.1594 52.2758 21.6554 52.1117 21.1983C51.5843 19.7332 50.9044 18.4908 50.0723 17.471L50.4942 17.5531C51.0334 17.6586 51.5491 17.2366 51.5491 16.6857V11.0479C51.5491 10.497 51.0334 10.0751 50.4942 10.1805L46.849 10.9072V6.35948C46.849 5.99613 46.6263 5.67967 46.2981 5.53901L42.1019 3.86291C41.8089 2.11647 40.2852 0.780273 38.4567 0.780273C36.4172 0.780273 34.7529 2.44466 34.7529 4.48412C34.7529 6.52358 36.4172 8.18797 38.4567 8.18797C40.0742 8.18797 41.4456 7.14479 41.9496 5.70311L45.0908 6.95726V11.1182H36.5813C36.0891 11.1182 35.7023 11.5167 35.7023 11.9973C35.7023 12.4896 36.1008 12.8764 36.5813 12.8764H42.2778V15.748C42.2778 16.2286 42.6646 16.6271 43.1451 16.6271C47.1772 23.5425 45.2783 32.3802 43.485 36.5763C43.4616 36.6349 43.4381 36.6935 43.4264 36.7521C43.1568 36.9631 42.899 37.1741 42.6646 37.4085C42.6411 37.4085 42.6177 37.4085 42.5942 37.4085H34.6357C35.3858 35.0995 35.9132 32.3919 35.5147 29.8953C35.0576 27.0354 33.4987 24.9139 30.8966 23.5542V18.5494C30.8966 18.0571 30.4981 17.6703 30.0176 17.6703H19.6796C16.6087 17.6703 14.1004 20.1786 14.1004 23.2495V23.3081C14.077 23.3081 14.0652 23.3081 14.0418 23.3081H13.9832V17.5531H14.9795C15.4718 17.5531 15.8586 17.1546 15.8586 16.674V11.9739C15.8586 11.4816 15.46 11.0948 14.9795 11.0948H0.879077C0.386794 11.0948 0 11.4933 0 11.9739V16.674C0 17.1663 0.398515 17.5531 0.879077 17.5531H1.87537V23.3081H0.879077C0.386794 23.3081 0 23.7066 0 24.1872C0 24.6677 0.398515 25.0663 0.879077 25.0663H10.7833C10.1035 25.4062 9.45887 25.7812 8.84938 26.1798C-0.187536 32.1223 -0.0351631 41.0069 0.011721 43.9254C0.011721 44.1364 0.0234421 44.3474 0.011721 44.5466C0.011721 44.7107 -0.011721 44.8631 0.0351631 45.0154C0.140652 45.3905 0.492283 45.6601 0.879077 45.6601H2.85993C3.25845 49.9148 6.8568 53.2671 11.217 53.2671C15.5773 53.2671 19.1756 49.9266 19.5741 45.6601H30.0058C30.2403 45.6601 30.463 45.5663 30.6271 45.4022C30.8849 45.1561 31.5061 44.2184 32.2211 42.9291H39.6522C39.535 43.562 39.4647 44.2067 39.4647 44.8631C39.4647 45.3554 39.8632 45.7422 40.3438 45.7422H41.387C41.8324 49.9617 45.4073 53.2553 49.7323 53.2553C54.0574 53.2553 57.644 49.9617 58.0777 45.7422H59.1209C59.6132 45.7422 60 45.3436 60 44.8631C60.0117 40.4091 57.14 36.5998 53.1549 35.1815ZM46.8607 12.7123L49.7909 12.1262V15.6191L47.0951 15.0799C47.0131 15.0448 46.9427 14.9979 46.8607 14.9627V12.7123ZM38.4567 6.41809C37.3901 6.41809 36.5227 5.55073 36.5227 4.48412C36.5227 3.41751 37.3901 2.55015 38.4567 2.55015C39.5233 2.55015 40.3907 3.41751 40.3907 4.48412C40.3907 5.55073 39.535 6.41809 38.4567 6.41809ZM45.1025 14.869H44.0476V12.8764H44.1062H45.1025V14.869ZM15.8586 23.2612C15.8586 21.1514 17.5698 19.4402 19.6796 19.4402H29.1385V23.3198H15.8586V23.2612ZM1.75815 15.8066V12.8764H14.0887V15.8066H1.75815ZM3.64524 23.3198V17.5648H12.2133V23.3198H3.64524ZM11.217 51.5089C7.82965 51.5089 5.02832 48.9537 4.62981 45.6601H6.64583C7.0209 47.8402 8.93143 49.5046 11.217 49.5046C13.5026 49.5046 15.4132 47.8402 15.7882 45.6601H17.8042C17.4057 48.9537 14.6044 51.5089 11.217 51.5089ZM8.45086 45.6601H13.9832C13.6433 46.8674 12.5298 47.7464 11.217 47.7464C9.90427 47.7464 8.79077 46.8674 8.45086 45.6601ZM32.186 38.9674C31.1897 41.3585 30.0527 43.2104 29.5722 43.902H1.76988C1.72299 40.9365 1.59406 33.0717 9.82223 27.6683C11.3225 26.6838 13.0572 25.8867 14.9795 25.3124C15.1319 25.2655 15.2491 25.1835 15.3546 25.0897H29.9941C32.0922 26.1446 33.3112 27.7386 33.7331 29.9539C34.3075 32.978 33.2057 36.5294 32.186 38.9674ZM40.1445 41.171H33.1236C33.3229 40.7607 33.5222 40.327 33.7097 39.8934C33.8035 39.6589 33.9089 39.4245 34.0027 39.1784H41.1877C40.7775 39.7996 40.4258 40.4677 40.1445 41.171ZM49.7323 51.5089C46.1457 51.5089 43.2154 48.649 43.0982 45.0975C43.9773 43.562 44.9853 42.4954 46.216 41.8391C45.5128 42.6478 45.0791 43.7144 45.0791 44.8748C45.0791 47.43 47.1654 49.5163 49.7206 49.5163C52.2758 49.5163 54.3621 47.43 54.3621 44.8748C54.3621 43.8433 54.0222 42.8822 53.4479 42.1086C54.7372 42.9057 55.6866 44.0309 56.3547 45.0858C56.261 48.6372 53.3307 51.5089 49.7323 51.5089ZM46.8607 44.8748C46.8607 43.2925 48.15 42.0031 49.7323 42.0031C51.3147 42.0031 52.604 43.2925 52.604 44.8748C52.604 46.4571 51.3147 47.7464 49.7323 47.7464C48.15 47.7464 46.8607 46.4571 46.8607 44.8748ZM57.7612 43.9957C55.7687 40.96 52.9322 39.2956 49.7323 39.2956C45.1611 39.2956 42.9693 41.8508 41.7034 43.9957H41.258C41.7034 39.7175 45.3252 36.3653 49.7323 36.3653C54.1394 36.3653 57.7612 39.7175 58.2066 43.9957H57.7612Z" fill="#FF0090"/>
<path d="M29.0682 28.958H20.6174C20.1251 28.958 19.7383 29.3565 19.7383 29.8371C19.7383 30.3294 20.1368 30.7162 20.6174 30.7162H29.0682C29.5605 30.7162 29.9473 30.3176 29.9473 29.8371C29.9473 29.3565 29.5488 28.958 29.0682 28.958Z" fill="#FF0090"/>
<path d="M27.193 34.5957H14.9797C14.4874 34.5957 14.1006 34.9942 14.1006 35.4748C14.1006 35.9553 14.4991 36.3539 14.9797 36.3539H27.193C27.6853 36.3539 28.0721 35.9553 28.0721 35.4748C28.0721 34.9942 27.6735 34.5957 27.193 34.5957Z" fill="#FF0090"/>
<path d="M24.3678 40.2334H9.34148C8.8492 40.2334 8.4624 40.6319 8.4624 41.1125C8.4624 41.6048 8.86092 41.9916 9.34148 41.9916H24.3678C24.8601 41.9916 25.2469 41.593 25.2469 41.1125C25.2469 40.6319 24.8601 40.2334 24.3678 40.2334Z" fill="#FF0090"/>
</svg>
