<svg width="57" height="57" viewBox="0 0 57 57" fill="none" xmlns="http://www.w3.org/2000/svg">
<rect x="0.607422" y="1.05078" width="55" height="55" rx="27.5" fill="white"/>
<rect x="0.607422" y="1.05078" width="55" height="55" rx="27.5" stroke="#E1E1E1"/>
<g clip-path="url(#clip0_71_463)">
<g clip-path="url(#clip1_71_463)">
<path fill-rule="evenodd" clip-rule="evenodd" d="M27.8565 32.1404C31.585 32.1404 34.6075 29.0423 34.6075 25.2206C34.6075 21.3989 31.585 18.3008 27.8565 18.3008C24.128 18.3008 21.1055 21.3989 21.1055 25.2206C21.1055 29.0423 24.128 32.1404 27.8565 32.1404ZM27.8565 30.6029C24.9564 30.6029 22.6055 28.1931 22.6055 25.2206C22.6055 22.248 24.9564 19.8383 27.8565 19.8383C30.7565 19.8383 33.1075 22.248 33.1075 25.2206C33.1075 28.1931 30.7565 30.6029 27.8565 30.6029Z" fill="#0A1B33"/>
<path d="M21.8379 35.2152C20.606 35.2152 19.6074 36.2387 19.6074 37.5014V38.2701H18.1074V37.5014C18.1074 35.3896 19.7776 33.6777 21.8379 33.6777H33.8574C35.9285 33.6777 37.6074 35.3986 37.6074 37.5214V38.2902H36.1074V37.5214C36.1074 36.2477 35.1 35.2152 33.8574 35.2152H21.8379Z" fill="#0A1B33"/>
</g>
</g>
<defs>
<clipPath id="clip0_71_463">
<rect width="20" height="21" fill="white" transform="translate(18.1074 18.0508)"/>
</clipPath>
<clipPath id="clip1_71_463">
<rect width="20" height="21" fill="white" transform="translate(18.1074 18.0508)"/>
</clipPath>
</defs>
</svg>
