<svg width="21" height="19" viewBox="0 0 21 19" fill="none" xmlns="http://www.w3.org/2000/svg">
<path d="M19.4724 2.9025C19.4712 2.9025 19.47 2.90234 19.4688 2.90234H14.1562V2.31641C14.1562 1.34717 13.3677 0.558594 12.3984 0.558594H7.71094C6.7417 0.558594 5.95312 1.34717 5.95312 2.31641V2.90234H0.640625C0.314392 2.90234 0.0546875 3.16968 0.0546875 3.48828V16.3789C0.0546875 17.3481 0.843262 18.1367 1.8125 18.1367H18.2969C19.2661 18.1367 20.0547 17.3481 20.0547 16.3789V3.50064C20.0547 3.49988 20.0547 3.49911 20.0547 3.49835C20.0323 3.11353 19.7956 2.90463 19.4724 2.9025ZM7.125 2.31641C7.125 1.99338 7.38791 1.73047 7.71094 1.73047H12.3984C12.7215 1.73047 12.9844 1.99338 12.9844 2.31641V2.90234H7.125V2.31641ZM18.6558 4.07422L16.8362 9.5329C16.7563 9.77261 16.533 9.93359 16.2804 9.93359H12.9844V9.34766C12.9844 9.02402 12.7221 8.76172 12.3984 8.76172H7.71094C7.3873 8.76172 7.125 9.02402 7.125 9.34766V9.93359H3.82895C3.57642 9.93359 3.35303 9.77261 3.27322 9.5329L1.45361 4.07422H18.6558ZM11.8125 9.93359V11.1055H8.29688V9.93359H11.8125ZM18.8828 16.3789C18.8828 16.7019 18.6199 16.9648 18.2969 16.9648H1.8125C1.48947 16.9648 1.22656 16.7019 1.22656 16.3789V7.09897L2.16147 9.90353C2.40103 10.6225 3.0712 11.1055 3.82895 11.1055H7.125V11.6914C7.125 12.015 7.3873 12.2773 7.71094 12.2773H12.3984C12.7221 12.2773 12.9844 12.015 12.9844 11.6914V11.1055H16.2804C17.0382 11.1055 17.7083 10.6225 17.9479 9.90353L18.8828 7.09897V16.3789Z" fill="#0A1B33"/>
</svg>
