<svg width="40" height="40" viewBox="0 0 40 40" fill="none" xmlns="http://www.w3.org/2000/svg">
<g clip-path="url(#clip0_4112_34564)">
<path d="M25.8532 3.18094C25.7183 3.08552 25.5499 3.05166 25.3894 3.08798C25.2285 3.1243 25.0906 3.22711 25.0088 3.37116C25.0048 3.37824 25 3.38471 24.9957 3.39117C24.8077 3.66204 24.4363 3.72791 24.1678 3.53861C23.9026 3.35146 23.5373 3.4161 23.3517 3.68359L22.4978 4.91389C22.3123 5.18137 22.3767 5.54982 22.6416 5.73696C22.7441 5.8093 22.8613 5.84408 22.9773 5.84408C23.1619 5.84408 23.3438 5.75605 23.4576 5.59199L24.0329 4.76306C24.573 4.91481 25.1599 4.79785 25.6024 4.44633L26.4666 5.05671C26.7318 5.24386 27.0968 5.17891 27.2827 4.91173C27.4682 4.64425 27.4038 4.27581 27.1386 4.08866L25.8532 3.18094Z" fill="#999999"/>
<path d="M32.3331 10.6255L31.7579 11.4541C31.5723 11.7216 31.6367 12.0901 31.9016 12.2772C32.0041 12.3496 32.1213 12.384 32.2373 12.384C32.4219 12.384 32.6038 12.2963 32.7176 12.1319L33.5718 10.9019C33.7574 10.6345 33.693 10.266 33.4281 10.0789C33.1595 9.88925 33.0939 9.51465 33.2822 9.24348C33.2868 9.23701 33.2911 9.23055 33.2962 9.2247C33.4024 9.09758 33.451 8.93167 33.4296 8.76699C33.4085 8.60232 33.3197 8.45395 33.1849 8.35884L31.8995 7.45112C31.6343 7.26397 31.269 7.32892 31.0834 7.59641C30.8976 7.86358 30.9623 8.23233 31.2272 8.41948L32.0914 9.02955C31.915 9.56944 32.0069 10.1654 32.3331 10.6255Z" fill="#999999"/>
<path d="M29.2236 23.9027C29.5019 23.9027 29.7604 24.015 29.9514 24.2194C30.1736 24.4564 30.5444 24.4672 30.7797 24.2431C31.0153 24.019 31.0256 23.645 30.8035 23.4077C30.3948 22.9713 29.819 22.7207 29.2236 22.7207C28.0255 22.7207 27.051 23.7038 27.051 24.9123C27.051 26.1204 28.0255 27.1036 29.2236 27.1036C29.804 27.1036 30.3497 26.8758 30.7598 26.4618C30.9887 26.2309 30.9887 25.8566 30.7598 25.6261C30.5312 25.3952 30.1602 25.3952 29.9313 25.6261C29.7424 25.8166 29.4909 25.9216 29.2236 25.9216C28.6718 25.9216 28.2229 25.4688 28.2229 24.9123C28.2229 24.3555 28.6718 23.9027 29.2236 23.9027Z" fill="#999999"/>
<path d="M34.4406 20.7493V16.0158C34.4406 14.4087 33.1442 13.1012 31.5509 13.1012H28.4414C28.6233 11.5166 28.1103 10.1229 27.0282 9.35857C26.1114 8.71125 24.9237 8.59521 23.6835 9.03168C22.5113 9.44445 21.4209 10.3118 20.614 11.4741C20.2566 11.9885 19.9722 12.5339 19.7659 13.1012H15.9512L24.1507 1.29035L35.5285 9.32564L33.7951 11.8229C33.6096 12.0904 33.674 12.4588 33.9389 12.6459C34.2041 12.8331 34.5694 12.7681 34.7549 12.5007L36.6446 9.77873C36.9293 9.36965 36.8307 8.80298 36.4245 8.51549L24.5999 0.164705C24.4034 0.0255763 24.1647 -0.0279821 23.9282 0.0138796C23.6917 0.0560491 23.4857 0.188098 23.3475 0.386633L20.6354 4.29362V1.93767C20.6354 1.43748 20.2319 1.03056 19.736 1.03056H5.68207C5.18616 1.03056 4.78271 1.43748 4.78271 1.93767V5.17302C4.78271 5.4996 5.04516 5.76401 5.36865 5.76401C5.69244 5.76401 5.95459 5.4996 5.95459 5.17302V2.21285H7.65228V13.1009H6.09283C6.04675 13.1009 6.00067 13.1021 5.95459 13.1043V7.53697C5.95459 7.2107 5.69244 6.94599 5.36865 6.94599C5.04516 6.94599 4.78271 7.2107 4.78271 7.53697V13.4182C3.84613 13.9009 3.20312 14.884 3.20312 16.0158V33.8085C3.20312 35.4156 4.49951 36.7232 6.09283 36.7232H10.4678C10.7916 36.7232 11.0538 36.4588 11.0538 36.1322C11.0538 35.8059 10.7916 35.5412 10.4678 35.5412H6.09283C5.14557 35.5412 4.375 34.764 4.375 33.8085V16.0158C4.375 15.2586 4.85901 14.6134 5.531 14.3783C5.54596 14.374 5.56091 14.369 5.57525 14.3635C5.73883 14.3112 5.91278 14.2829 6.09314 14.2829H31.5509C32.4981 14.2829 33.269 15.0604 33.269 16.0158V20.6674H29.0741C26.7535 20.6674 24.8654 22.5715 24.8654 24.9123C24.8654 27.2529 26.7535 29.157 29.0741 29.157H33.269V33.8085C33.269 34.764 32.4981 35.5412 31.5509 35.5412H27.0736C26.7499 35.5412 26.4877 35.8059 26.4877 36.1322C26.4877 36.4588 26.7499 36.7232 27.0736 36.7232H31.5509C33.1442 36.7232 34.4409 35.4156 34.4409 33.8085V29.0751C35.7666 28.7578 36.7556 27.5536 36.7556 26.1211V23.7036C36.7553 22.2707 35.7663 21.0666 34.4406 20.7493ZM21.5738 12.1525C22.9101 10.2275 25.0555 9.40874 26.3562 10.3269C27.1054 10.856 27.4353 11.8943 27.2598 13.1009H21.0324C21.181 12.7746 21.3617 12.4573 21.5738 12.1525ZM19.4635 5.98163L14.5209 13.1012H11.6336V2.21254H19.4635V5.98163ZM8.82415 2.21254H10.4617V13.1009H8.82415V2.21254ZM35.5835 26.1208C35.5835 27.1433 34.7589 27.975 33.7451 27.975H29.0741C27.3996 27.975 26.0373 26.601 26.0373 24.912C26.0373 23.2234 27.3996 21.8494 29.0741 21.8494H33.7451C34.7589 21.8494 35.5835 22.681 35.5835 23.7036V26.1208Z" fill="#999999"/>
<path d="M18.8218 26.0649C14.9186 26.0649 11.7429 29.268 11.7429 33.2051C11.7429 37.142 14.9186 40.345 18.8218 40.345C22.7253 40.345 25.9009 37.142 25.9009 33.2051C25.9009 29.268 22.7253 26.0649 18.8218 26.0649ZM18.8218 39.163C15.5646 39.163 12.9148 36.4903 12.9148 33.2051C12.9148 29.9196 15.5646 27.2469 18.8218 27.2469C22.0792 27.2469 24.7291 29.9196 24.7291 33.2051C24.7291 36.4903 22.0792 39.163 18.8218 39.163Z" fill="#999999"/>
<path d="M19.3216 32.614H18.3221C18.0276 32.614 17.7881 32.3724 17.7881 32.0754C17.7881 31.7783 18.0276 31.5367 18.3221 31.5367H20.2347C20.5582 31.5367 20.8206 31.272 20.8206 30.9457C20.8206 30.6194 20.5582 30.3547 20.2347 30.3547H19.5154V29.8551C19.5154 29.5289 19.2529 29.2642 18.9294 29.2642C18.606 29.2642 18.3435 29.5289 18.3435 29.8551V30.3547H18.3221C17.3816 30.3547 16.6162 31.1267 16.6162 32.0754C16.6162 33.024 17.3816 33.796 18.3221 33.796H19.3216C19.6161 33.796 19.8553 34.0373 19.8553 34.3343C19.8553 34.6314 19.6161 34.873 19.3216 34.873H17.4091C17.0853 34.873 16.8231 35.1377 16.8231 35.464C16.8231 35.7903 17.0853 36.055 17.4091 36.055H18.3435V36.5546C18.3435 36.8808 18.606 37.1455 18.9294 37.1455C19.2532 37.1455 19.5154 36.8808 19.5154 36.5546V36.0439C20.365 35.9463 21.0275 35.2171 21.0275 34.3343C21.0272 33.3857 20.2621 32.614 19.3216 32.614Z" fill="#999999"/>
</g>
<defs>
<clipPath id="clip0_4112_34564">
<rect width="40" height="40" fill="white"/>
</clipPath>
</defs>
</svg>
