<svg width="50" height="51" viewBox="0 0 50 51" fill="none" xmlns="http://www.w3.org/2000/svg">
<g id="Usuario">
<g id="Group">
<g id="Group_2">
<path id="Vector" d="M25.6649 49.1128C25.4834 48.9312 25.2314 48.8267 24.9746 48.8267C24.7177 48.8267 24.4657 48.9312 24.2842 49.1128C24.1025 49.2944 23.998 49.5464 23.998 49.8032C23.998 50.0601 24.1024 50.312 24.2842 50.4937C24.4657 50.6753 24.7177 50.7798 24.9746 50.7798C25.2314 50.7798 25.4834 50.6753 25.6649 50.4937C25.8466 50.312 25.9512 50.0601 25.9512 49.8032C25.9512 49.5464 25.8467 49.2944 25.6649 49.1128Z" fill="#0A1B33"/>
</g>
</g>
<g id="Group_3">
<g id="Group_4">
<path id="Vector_2" d="M44.7812 32.7201L41.5236 31.9419V30.6497C43.3318 29.5068 44.5361 27.4913 44.5361 25.1987V21.5594C44.5361 18.0054 41.6447 15.1141 38.0906 15.1141C36.1734 15.1141 34.4501 15.9564 33.2684 17.2894C32.2334 13.7051 28.9231 11.0762 25.0102 11.0762H25.0101C21.0907 11.0762 17.776 13.7134 16.7468 17.3064C15.5647 15.9637 13.8351 15.1141 11.9097 15.1141C8.35557 15.1141 5.46416 18.0055 5.46416 21.5594V25.1987C5.46416 27.4914 6.66846 29.5069 8.47666 30.6497V31.9419L5.21904 32.7201C2.14609 33.4541 0 36.1731 0 39.3322V45.8968C0 46.4361 0.437305 46.8733 0.976562 46.8733H8.78545V49.803C8.78545 50.3424 9.22275 50.7796 9.76201 50.7796H20.4753C21.0146 50.7796 21.4519 50.3424 21.4519 49.803C21.4519 49.2637 21.0146 48.8265 20.4753 48.8265H16.1156V44.5284C16.1156 43.9891 15.6783 43.5519 15.1391 43.5519C14.5998 43.5519 14.1625 43.9891 14.1625 44.5284V48.8265H10.7385V44.4204C10.7385 41.1085 12.9879 38.2564 16.2087 37.4847L21.0117 36.3337L24.1021 43.3645C24.258 43.7191 24.6087 43.9481 24.996 43.9481H24.9961C25.3834 43.9481 25.7342 43.7192 25.89 43.3647L28.9773 36.344L33.7664 37.4881C36.9901 38.2581 39.2415 41.1107 39.2415 44.425V45.5147C39.1916 45.6321 39.1639 45.7611 39.1639 45.8967C39.1639 46.0322 39.1916 46.1613 39.2415 46.2786V48.8265H35.8375V44.5284C35.8375 43.9891 35.4002 43.5519 34.8609 43.5519C34.3217 43.5519 33.8844 43.9891 33.8844 44.5284V48.8265H29.1017C28.5624 48.8265 28.1251 49.2637 28.1251 49.803C28.1251 50.3424 28.5624 50.7796 29.1017 50.7796H40.2181C40.7573 50.7796 41.1946 50.3424 41.1946 49.803V46.8733H49.0234C49.5627 46.8733 50 46.4361 50 45.8968V39.3322C50 36.1731 47.8539 33.4541 44.7812 32.7201ZM38.0905 17.0672C40.5676 17.0672 42.5829 19.0824 42.5829 21.5594V21.8012V21.8993H39.7896C37.6797 21.8993 35.6063 21.3453 33.7791 20.2952C34.3266 18.4317 36.0521 17.0672 38.0905 17.0672ZM33.5981 25.0394C33.6016 24.9396 33.604 22.4136 33.604 22.4136C35.5238 23.3577 37.6403 23.8525 39.7897 23.8525H42.583V25.1988C42.5829 27.6758 40.5676 29.6909 38.0905 29.6909C35.6135 29.6909 33.5981 27.6757 33.5981 25.1987V25.0394ZM18.3691 19.67C18.3691 16.0083 21.3482 13.0294 25.0101 13.0294C28.6718 13.0294 31.6509 16.0084 31.6509 19.67V19.7974L28.0264 17.668C27.6151 17.4263 27.0896 17.5172 26.7832 17.8827C25.375 19.5632 23.3098 20.5271 21.1171 20.5271H18.3691V19.67ZM7.41709 21.8013V21.5594C7.41709 19.0823 9.43242 17.0672 11.9095 17.0672C13.9479 17.0672 15.6734 18.4317 16.2208 20.2953C14.3936 21.3453 12.3203 21.8994 10.2103 21.8994H7.41709V21.8013ZM7.41709 25.1987V23.8524H10.2104C12.3619 23.8524 14.4806 23.3567 16.4019 22.4107V25.1987C16.4019 27.6758 14.3865 29.6909 11.9095 29.6909C9.43242 29.6909 7.41709 27.6757 7.41709 25.1987ZM8.78545 44.4204V44.9202H5.85938V40.5814C5.85938 40.0421 5.42207 39.6049 4.88281 39.6049C4.34355 39.6049 3.90625 40.0421 3.90625 40.5814V44.9202H1.95312V39.3322C1.95312 37.0808 3.48262 35.143 5.67256 34.6198L8.76807 33.8803L10.7884 38.7196C9.52481 40.2894 8.78545 42.279 8.78545 44.4204ZM11.9097 36.3356L10.4266 32.783C10.4282 32.7597 10.4296 32.7363 10.4296 32.7127V31.4707C10.9051 31.5828 11.4002 31.644 11.9095 31.644C12.4165 31.644 12.9093 31.5833 13.3829 31.4722V32.6509C13.3818 32.6692 13.3813 32.6876 13.3813 32.706C13.3813 32.7367 13.3843 32.7673 13.3872 32.7979L11.9097 36.3356ZM15.7536 35.5854C15.177 35.7235 14.6259 35.9158 14.1026 36.1529L15.0538 33.8754L18.1498 34.6173C18.3899 34.6748 18.6239 34.7509 18.8504 34.8433L15.7536 35.5854ZM20.6009 33.5499C19.9878 33.1696 19.3151 32.8881 18.605 32.718L15.336 31.9347V30.6539C16.149 30.1415 16.8396 29.4528 17.3543 28.6415C18.0905 30.0799 19.2205 31.2844 20.6009 32.1129V33.5499ZM27.4349 34.9996L24.9963 40.5451L22.554 34.9888V32.9747C23.3325 33.2073 24.1568 33.3328 25.01 33.3328C25.8518 33.3328 26.6655 33.2105 27.4349 32.9839V34.9996ZM25.0101 31.3798C21.3481 31.3797 18.3691 28.4007 18.3691 24.7391V22.4803H21.117C23.6096 22.4803 25.972 21.4951 27.7173 19.7517L31.6451 22.0592V24.9683C31.5236 28.524 28.595 31.3798 25.0101 31.3798ZM29.388 32.1312C30.7769 31.3056 31.9148 30.1002 32.6567 28.6587C33.1704 29.4625 33.8568 30.145 34.664 30.6539V31.9347L31.395 32.718C30.6806 32.8892 30.0041 33.1732 29.388 33.557V32.1312ZM34.2201 35.5886L31.1317 34.8507C31.3638 34.755 31.6037 34.6764 31.8502 34.6173L34.9387 33.8772L35.8937 36.1649C35.3638 35.9235 34.8051 35.7283 34.2201 35.5886ZM36.6107 32.8124C36.6147 32.777 36.6175 32.7413 36.6175 32.7056C36.6175 32.6965 36.6174 32.6873 36.6171 32.6782V31.4722C37.0907 31.5834 37.5835 31.644 38.0905 31.644C38.5998 31.644 39.0949 31.5828 39.5704 31.4706V32.7126C39.5704 32.7304 39.5717 32.7479 39.5727 32.7654L38.0816 36.3356L36.6107 32.8124ZM48.0469 44.9202H46.0938V40.5814C46.0938 40.0421 45.6564 39.6049 45.1172 39.6049C44.5779 39.6049 44.1406 40.0421 44.1406 40.5814V44.9202H41.1946V44.4251C41.1946 42.2865 40.4577 40.2996 39.1978 38.7312L41.2244 33.8785L44.3274 34.6198C46.5174 35.143 48.0469 37.0808 48.0469 39.3322V44.9202Z" fill="#0A1B33"/>
</g>
</g>
<g id="Group_5">
<g id="Group_6">
<path id="Vector_3" d="M22.4149 23.6489C22.2334 23.4673 21.9814 23.3628 21.7246 23.3628C21.4678 23.3628 21.2158 23.4673 21.0342 23.6489C20.8525 23.8306 20.748 24.0825 20.748 24.3394C20.748 24.5962 20.8524 24.8481 21.0342 25.0298C21.2159 25.2114 21.4678 25.3159 21.7246 25.3159C21.9824 25.3159 22.2334 25.2114 22.4149 25.0298C22.5976 24.8481 22.7012 24.5962 22.7012 24.3394C22.7012 24.0825 22.5976 23.8306 22.4149 23.6489Z" fill="#0A1B33"/>
</g>
</g>
<g id="Group_7">
<g id="Group_8">
<path id="Vector_4" d="M28.9452 23.6489C28.7637 23.4673 28.5117 23.3628 28.2549 23.3628C27.998 23.3628 27.7461 23.4673 27.5645 23.6489C27.3828 23.8306 27.2783 24.0825 27.2783 24.3394C27.2783 24.5962 27.3827 24.8481 27.5645 25.0298C27.7462 25.2114 27.998 25.3159 28.2549 25.3159C28.5117 25.3159 28.7637 25.2114 28.9452 25.0298C29.1278 24.8481 29.2314 24.5962 29.2314 24.3394C29.2314 24.0825 29.1278 23.8306 28.9452 23.6489Z" fill="#0A1B33"/>
</g>
</g>
<g id="Group_9">
<g id="Group_10">
<path id="Vector_5" d="M26.8796 26.9364C26.4982 26.5551 25.88 26.5551 25.4985 26.9364C25.2097 27.2252 24.7399 27.2252 24.4511 26.9364C24.0697 26.5551 23.4515 26.5551 23.0699 26.9364C22.6886 27.3177 22.6886 27.9361 23.0699 28.3176C23.5951 28.8426 24.2849 29.1052 24.9747 29.1052C25.6646 29.1052 26.3543 28.8427 26.8795 28.3176C27.261 27.9361 27.261 27.3177 26.8796 26.9364Z" fill="#0A1B33"/>
</g>
</g>
<g id="Group_11">
<g id="Group_12">
<path id="Vector_6" d="M40.3788 6.05322H39.709C39.1697 6.05322 38.7324 6.49043 38.7324 7.02979C38.7324 7.56914 39.1697 8.00635 39.709 8.00635H40.3788C40.9181 8.00635 41.3554 7.56914 41.3554 7.02979C41.3554 6.49043 40.9181 6.05322 40.3788 6.05322Z" fill="#0A1B33"/>
</g>
</g>
<g id="Group_13">
<g id="Group_14">
<path id="Vector_7" d="M45.1172 6.05322H44.4474C43.9081 6.05322 43.4708 6.49043 43.4708 7.02979C43.4708 7.56914 43.908 8.00635 44.4474 8.00635H45.1172C45.6565 8.00635 46.0938 7.56914 46.0938 7.02979C46.0938 6.49043 45.6565 6.05322 45.1172 6.05322Z" fill="#0A1B33"/>
</g>
</g>
<g id="Group_15">
<g id="Group_16">
<path id="Vector_8" d="M42.4132 8.0874C41.874 8.0874 41.4366 8.52461 41.4366 9.06396V9.73379C41.4366 10.2731 41.8739 10.7104 42.4132 10.7104C42.9525 10.7104 43.3898 10.2731 43.3898 9.73379V9.06396C43.3898 8.52461 42.9525 8.0874 42.4132 8.0874Z" fill="#0A1B33"/>
</g>
</g>
<g id="Group_17">
<g id="Group_18">
<path id="Vector_9" d="M42.4132 3.34912C41.874 3.34912 41.4366 3.78633 41.4366 4.32568V4.99551C41.4366 5.53486 41.8739 5.97207 42.4132 5.97207C42.9525 5.97207 43.3898 5.53486 43.3898 4.99551V4.32568C43.3898 3.78633 42.9525 3.34912 42.4132 3.34912Z" fill="#0A1B33"/>
</g>
</g>
<g id="Group_19">
<g id="Group_20">
<path id="Vector_10" d="M5.49822 6.05322H4.82849C4.28923 6.05322 3.85193 6.49043 3.85193 7.02979C3.85193 7.56914 4.28923 8.00635 4.82849 8.00635H5.49822C6.03748 8.00635 6.47478 7.56914 6.47478 7.02979C6.47478 6.49043 6.03748 6.05322 5.49822 6.05322Z" fill="#0A1B33"/>
</g>
</g>
<g id="Group_21">
<g id="Group_22">
<path id="Vector_11" d="M10.2366 6.05322H9.56689C9.02764 6.05322 8.59033 6.49043 8.59033 7.02979C8.59033 7.56914 9.02754 8.00635 9.56689 8.00635H10.2366C10.7759 8.00635 11.2132 7.56914 11.2132 7.02979C11.2132 6.49043 10.7759 6.05322 10.2366 6.05322Z" fill="#0A1B33"/>
</g>
</g>
<g id="Group_23">
<g id="Group_24">
<path id="Vector_12" d="M7.53259 8.0874C6.99333 8.0874 6.55603 8.52461 6.55603 9.06396V9.73379C6.55603 10.2731 6.99324 10.7104 7.53259 10.7104C8.07185 10.7104 8.50916 10.2731 8.50916 9.73379V9.06396C8.50916 8.52461 8.07185 8.0874 7.53259 8.0874Z" fill="#0A1B33"/>
</g>
</g>
<g id="Group_25">
<g id="Group_26">
<path id="Vector_13" d="M7.53259 3.34912C6.99333 3.34912 6.55603 3.78633 6.55603 4.32568V4.99551C6.55603 5.53486 6.99324 5.97207 7.53259 5.97207C8.07185 5.97207 8.50916 5.53486 8.50916 4.99551V4.32568C8.50916 3.78633 8.07185 3.34912 7.53259 3.34912Z" fill="#0A1B33"/>
</g>
</g>
<g id="Group_27">
<g id="Group_28">
<path id="Vector_14" d="M25 4.49902C24.4607 4.49902 24.0234 4.93623 24.0234 5.47559V8.04492C24.0234 8.58428 24.4607 9.02148 25 9.02148C25.5393 9.02148 25.9766 8.58428 25.9766 8.04492V5.47559C25.9766 4.93623 25.5393 4.49902 25 4.49902Z" fill="#0A1B33"/>
</g>
</g>
<g id="Group_29">
<g id="Group_30">
<path id="Vector_15" d="M25.6903 1.06592C25.5088 0.884277 25.2568 0.779785 25 0.779785C24.7432 0.779785 24.4912 0.884277 24.3096 1.06592C24.1278 1.24756 24.0234 1.49951 24.0234 1.75635C24.0234 2.01318 24.1278 2.26514 24.3096 2.44678C24.4913 2.62842 24.7432 2.73291 25 2.73291C25.2568 2.73291 25.5088 2.62842 25.6903 2.44678C25.8721 2.26514 25.9766 2.01318 25.9766 1.75635C25.9766 1.49951 25.8721 1.24756 25.6903 1.06592Z" fill="#0A1B33"/>
</g>
</g>
<g id="Group_31">
<g id="Group_32">
<path id="Vector_16" d="M21.5776 4.69753L20.1485 3.26843C19.767 2.88708 19.1489 2.88708 18.7673 3.26843C18.386 3.64978 18.386 4.26814 18.7673 4.64958L20.1965 6.07869C20.3873 6.26941 20.6372 6.36472 20.8871 6.36472C21.137 6.36472 21.3869 6.26941 21.5776 6.07869C21.9589 5.69734 21.9589 5.07898 21.5776 4.69753Z" fill="#0A1B33"/>
</g>
</g>
<g id="Group_33">
<g id="Group_34">
<path id="Vector_17" d="M31.2324 3.21472C30.851 2.83337 30.2328 2.83337 29.8512 3.21472L28.3744 4.69158C27.993 5.07292 27.993 5.69128 28.3744 6.07273C28.5652 6.26345 28.815 6.35876 29.065 6.35876C29.315 6.35876 29.5648 6.26345 29.7555 6.07273L31.2324 4.59587C31.6137 4.21453 31.6137 3.59617 31.2324 3.21472Z" fill="#0A1B33"/>
</g>
</g>
</g>
</svg>
