<svg width="41" height="41" viewBox="0 0 41 41" fill="none" xmlns="http://www.w3.org/2000/svg">
<path fill-rule="evenodd" clip-rule="evenodd" d="M0.599609 20.9502C0.599609 9.90488 9.5543 0.950195 20.5996 0.950195C31.6449 0.950195 40.5996 9.90488 40.5996 20.9502C40.5996 31.9955 31.6449 40.9502 20.5996 40.9502C9.5543 40.9502 0.599609 31.9955 0.599609 20.9502ZM20.7816 33.1771H20.7886L20.7877 33.1762H20.7947C24.0382 33.1542 26.3243 32.3219 28.2072 30.4779C30.6721 28.065 30.5973 25.0399 29.7852 23.1835C29.2023 21.852 28.0918 20.7705 26.5726 20.0563C26.4652 20.006 26.3568 19.9577 26.246 19.911C26.0531 16.4333 24.1147 14.4422 20.859 14.4219H20.8149C18.8678 14.4219 17.2483 15.2374 16.2514 16.7195L18.0418 17.9234C18.7869 16.8155 19.9555 16.5795 20.8159 16.5795H20.8458C21.9175 16.5866 22.7268 16.8913 23.25 17.4875C23.6305 17.9208 23.8858 18.5205 24.0117 19.277C23.0615 19.1184 22.0338 19.07 20.9348 19.1316C19.4438 19.2153 18.1818 19.6706 17.2845 20.4464C16.3457 21.2584 15.8649 22.3734 15.9309 23.586C15.9988 24.8329 16.6328 25.9056 17.716 26.6066C18.6319 27.1993 19.812 27.4889 21.037 27.4229C22.6556 27.3358 23.9343 26.7219 24.8361 25.5992C25.5124 24.7581 25.9501 23.6414 26.1447 22.2658C26.9187 22.722 27.493 23.3244 27.8091 24.0475C28.3463 25.2741 28.3771 27.2908 26.6987 28.935C25.228 30.3758 23.4596 30.9983 20.7877 31.0177C17.8235 30.9966 15.5822 30.0649 14.1248 28.249C12.7606 26.5493 12.0552 24.0932 12.0288 20.9493C12.0544 17.8063 12.7598 15.3501 14.1248 13.6496C15.5822 11.8337 17.8235 10.902 20.7877 10.8808C25.2774 10.9134 28.1235 12.9759 29.2481 17.0101L31.3265 16.4307C30.6624 14.0485 29.4595 12.1745 27.7501 10.8597C25.9316 9.46116 23.5918 8.7417 20.7949 8.72321H20.7808C17.1331 8.74787 14.3274 9.95084 12.4437 12.2995C10.7661 14.3893 9.90128 17.2963 9.87221 20.9413V20.959C9.90128 24.6031 10.7661 27.5109 12.4437 29.6008C14.3282 31.9494 17.1331 33.1524 20.7816 33.1771ZM21.0582 21.2865C21.3135 21.2716 21.5637 21.2645 21.8103 21.2645V21.2644C22.6205 21.2644 23.3778 21.342 24.0665 21.489C23.7944 24.7175 22.1704 25.2027 20.9226 25.2697C19.5673 25.3427 18.1565 24.7483 18.0869 23.4696C18.0208 22.2491 19.1868 21.3922 21.0582 21.2865Z" fill="#6FDDEF"/>
</svg>
