<svg width="30" height="30" viewBox="0 0 30 30" fill="none" xmlns="http://www.w3.org/2000/svg">
<path fill-rule="evenodd" clip-rule="evenodd" d="M0 15C0 6.71602 6.71602 0 15 0C23.284 0 30 6.71602 30 15C30 23.284 23.284 30 15 30C6.71602 30 0 23.284 0 15ZM15.1365 24.1702H15.1417L15.1411 24.1695H15.1463C17.5789 24.153 19.2935 23.5288 20.7057 22.1458C22.5543 20.3361 22.4982 18.0673 21.8892 16.675C21.452 15.6764 20.6191 14.8653 19.4798 14.3296C19.3992 14.2919 19.3179 14.2556 19.2348 14.2206C19.0901 11.6123 17.6363 10.119 15.1945 10.1038H15.1615C13.7012 10.1038 12.4866 10.7154 11.7389 11.827L13.0816 12.7299C13.6404 11.899 14.5169 11.722 15.1622 11.722H15.1847C15.9884 11.7273 16.5954 11.9558 16.9878 12.403C17.2731 12.7279 17.4646 13.1777 17.5591 13.7451C16.8464 13.6262 16.0757 13.5898 15.2514 13.6361C14.1332 13.6988 13.1867 14.0403 12.5136 14.6222C11.8096 15.2312 11.4489 16.0674 11.4985 16.9768C11.5494 17.912 12.0249 18.7165 12.8373 19.2423C13.5242 19.6869 14.4093 19.9041 15.328 19.8546C16.542 19.7892 17.501 19.3288 18.1773 18.4867C18.6846 17.8559 19.0129 17.0184 19.1588 15.9867C19.7394 16.3289 20.17 16.7807 20.4072 17.3229C20.81 18.243 20.8331 19.7555 19.5743 20.9886C18.4713 22.0692 17.145 22.5361 15.1411 22.5506C12.9179 22.5348 11.237 21.836 10.1439 20.4741C9.12075 19.1993 8.59173 17.3572 8.57191 14.9993C8.59106 12.6421 9.12013 10.7999 10.1439 9.52456C11.237 8.16262 12.9179 7.46382 15.1411 7.44797C18.5083 7.47241 20.643 9.01927 21.4864 12.0449L23.0451 11.6103C22.5471 9.82373 21.6449 8.41824 20.3629 7.43211C18.999 6.38322 17.2441 5.84363 15.1464 5.82976H15.1359C12.4002 5.84826 10.2958 6.75048 8.88306 8.512C7.62485 10.0793 6.97625 12.2596 6.95445 14.9933V15.0066C6.97625 17.7397 7.62485 19.9205 8.88306 21.4879C10.2965 23.2494 12.4002 24.1516 15.1365 24.1702ZM15.3439 15.2523C15.5354 15.241 15.7231 15.2357 15.908 15.2357V15.2357C16.5157 15.2357 17.0836 15.2939 17.6001 15.4041C17.3961 17.8254 16.1781 18.1894 15.2422 18.2396C14.2258 18.2944 13.1677 17.8486 13.1155 16.8896C13.0659 15.9742 13.9404 15.3315 15.3439 15.2523Z" fill="#6FDDEF"/>
</svg>
