<svg width="30" height="30" viewBox="0 0 30 30" fill="none" xmlns="http://www.w3.org/2000/svg">
<path d="M18.8554 1.76865L16.328 1.19247L15.0875 0.882812H12.8268L11.0537 2.12398L8.92602 3.85275L7.86215 6.64538V10.9451L9.32503 13.2945L10.831 14.7573L13.2692 15.8212H16.328L19.2534 14.7573L20.7162 13.2945L22.2234 11.4771L22.5337 9.571V7.88655L22.2234 5.89182L20.7162 3.85275L18.8554 1.76865Z" fill="white"/>
<path d="M27.0116 23.2247L25.0169 21.496L24.0852 21.097L22.2234 19.8559L18.8554 19.1023L15.7073 18.8807H12.3827L9.32503 19.4126L6.39853 20.5208L4.75842 21.496L3.20778 23.2247L1.87788 26.239L1.52148 27.6132L1.87788 28.8543L3.20778 29.209L27.3663 29.4306L28.4301 28.8543L28.6518 27.6132L27.8982 25.3525L27.0116 23.2247Z" fill="white"/>
<path d="M15.1221 16.5088C13.9795 16.5088 12.9077 16.2915 11.9067 15.8569C10.9058 15.4224 10.0317 14.8315 9.28467 14.0845C8.5376 13.3374 7.94922 12.4634 7.51953 11.4624C7.08984 10.4614 6.875 9.39453 6.875 8.26172C6.875 7.11914 7.08984 6.04736 7.51953 5.04639C7.94922 4.04541 8.5376 3.17139 9.28467 2.42432C10.0317 1.67725 10.9058 1.08643 11.9067 0.651855C12.9077 0.217285 13.9795 0 15.1221 0C16.2549 0 17.3218 0.217285 18.3228 0.651855C19.3237 1.08643 20.1978 1.67725 20.9448 2.42432C21.6919 3.17139 22.2827 4.04541 22.7173 5.04639C23.1519 6.04736 23.3691 7.11914 23.3691 8.26172C23.3691 9.39453 23.1519 10.4614 22.7173 11.4624C22.2827 12.4634 21.6919 13.3374 20.9448 14.0845C20.1978 14.8315 19.3237 15.4224 18.3228 15.8569C17.3218 16.2915 16.2549 16.5088 15.1221 16.5088ZM15.1221 1.50879C14.1943 1.50879 13.3203 1.68457 12.5 2.03613C11.6797 2.3877 10.9644 2.86865 10.354 3.479C9.74365 4.08936 9.26025 4.80469 8.90381 5.625C8.54736 6.44531 8.36914 7.32422 8.36914 8.26172C8.36914 9.18945 8.54736 10.0635 8.90381 10.8838C9.26025 11.7041 9.74365 12.4194 10.354 13.0298C10.9644 13.6401 11.6797 14.1211 12.5 14.4727C13.3203 14.8242 14.1943 15 15.1221 15C16.0498 15 16.9238 14.8242 17.7441 14.4727C18.5645 14.1211 19.2798 13.6401 19.8901 13.0298C20.5005 12.4194 20.9839 11.7041 21.3403 10.8838C21.6968 10.0635 21.875 9.18945 21.875 8.26172C21.875 7.32422 21.6968 6.44531 21.3403 5.625C20.9839 4.80469 20.5005 4.08936 19.8901 3.479C19.2798 2.86865 18.5645 2.3877 17.7441 2.03613C16.9238 1.68457 16.0498 1.50879 15.1221 1.50879ZM27.1191 30H3.125C2.5 30 1.96777 29.7803 1.52832 29.3408C1.08887 28.9014 0.869141 28.374 0.869141 27.7588C0.869141 27.7295 0.878906 27.5684 0.898438 27.2754C0.917969 26.9824 0.986328 26.6064 1.10352 26.1475C1.2207 25.6885 1.40381 25.1685 1.65283 24.5874C1.90186 24.0063 2.25098 23.4131 2.7002 22.8076C2.97363 22.4561 3.2666 22.1216 3.5791 21.8042C3.8916 21.4868 4.22607 21.189 4.58252 20.9106C4.93896 20.6323 5.31982 20.3735 5.7251 20.1343C6.13037 19.895 6.55762 19.6777 7.00684 19.4824C7.55371 19.2383 8.13477 19.0234 8.75 18.8379C9.36523 18.6523 10.0122 18.4985 10.6909 18.3765C11.3696 18.2544 12.0776 18.1616 12.8149 18.0981C13.5522 18.0347 14.3213 18.0029 15.1221 18.0029C15.9131 18.0029 16.6797 18.0347 17.4219 18.0981C18.1641 18.1616 18.8721 18.2544 19.5459 18.3765C20.2197 18.4985 20.8643 18.6523 21.4795 18.8379C22.0947 19.0234 22.6758 19.2383 23.2227 19.4824C23.6719 19.6777 24.0991 19.895 24.5044 20.1343C24.9097 20.3735 25.293 20.6323 25.6543 20.9106C26.0156 21.189 26.3525 21.4868 26.665 21.8042C26.9775 22.1216 27.2656 22.4561 27.5293 22.8076C27.9883 23.4131 28.3398 24.0063 28.584 24.5874C28.8281 25.1685 29.0088 25.6885 29.126 26.1475C29.2432 26.6064 29.314 26.9824 29.3384 27.2754C29.3628 27.5684 29.375 27.7295 29.375 27.7588C29.375 28.374 29.1553 28.9014 28.7158 29.3408C28.2764 29.7803 27.7441 30 27.1191 30ZM15.1221 19.5117C13.8135 19.5117 12.5928 19.5996 11.46 19.7754C10.3271 19.9512 9.29199 20.2124 8.35449 20.5591C7.41699 20.9058 6.57959 21.3379 5.84229 21.8555C5.10498 22.373 4.47754 22.9688 3.95996 23.6426C3.56934 24.1504 3.2666 24.6484 3.05176 25.1367C2.83691 25.625 2.67822 26.062 2.57568 26.4478C2.47314 26.8335 2.41211 27.146 2.39258 27.3853C2.37305 27.6245 2.36328 27.749 2.36328 27.7588C2.36328 27.9639 2.43652 28.1396 2.58301 28.2861C2.72949 28.4326 2.91016 28.5059 3.125 28.5059H27.1191C27.3242 28.5059 27.5 28.4326 27.6465 28.2861C27.793 28.1396 27.8662 27.9639 27.8662 27.7588C27.8662 27.749 27.8564 27.6245 27.8369 27.3853C27.8174 27.146 27.7563 26.8335 27.6538 26.4478C27.5513 26.062 27.395 25.625 27.1851 25.1367C26.9751 24.6484 26.6748 24.1504 26.2842 23.6426C25.7666 22.9688 25.1392 22.373 24.4019 21.8555C23.6646 21.3379 22.8247 20.9058 21.8823 20.5591C20.9399 20.2124 19.9048 19.9512 18.7769 19.7754C17.6489 19.5996 16.4307 19.5117 15.1221 19.5117Z" fill="#FF0090"/>
</svg>

