<svg width="35" height="35" viewBox="0 0 35 35" fill="none" xmlns="http://www.w3.org/2000/svg">
<g clip-path="url(#clip0_4343_34538)">
<path d="M17.375 0.0898438C7.98759 0.0898438 0.375 7.70244 0.375 17.0898C0.375 26.4772 7.98759 34.0898 17.375 34.0898C26.7624 34.0898 34.375 26.4772 34.375 17.0898C34.375 7.70244 26.7624 0.0898438 17.375 0.0898438ZM17.7353 26.9877C17.735 26.9877 17.7356 26.9877 17.7353 26.9877H17.7312C16.0282 26.987 14.3548 26.56 12.8687 25.7496L7.47502 27.1641L8.91858 21.8931C8.02806 20.3508 7.55959 18.6008 7.56036 16.8081C7.5627 11.1999 12.1271 6.63734 17.7353 6.63734C20.4569 6.63838 23.0117 7.69777 24.9326 9.62018C26.8537 11.5428 27.911 14.0984 27.91 16.8162C27.9077 22.4247 23.3427 26.9877 17.7353 26.9877Z" fill="#6FDDEF"/>
<path d="M17.7386 8.35535C13.0739 8.35535 9.28015 12.1475 9.27808 16.8089C9.27756 18.4063 9.72476 19.9619 10.5712 21.3079L10.7722 21.6278L9.91776 24.7476L13.1185 23.9082L13.4274 24.0913C14.7257 24.8617 16.2142 25.2692 17.7316 25.2697H17.735C22.3962 25.2697 26.1899 21.4773 26.192 16.8157C26.1927 14.5565 25.3139 12.4326 23.7173 10.8347C22.1207 9.23679 19.9972 8.35612 17.7386 8.35535ZM22.7129 20.4436C22.501 21.0371 21.4854 21.579 20.997 21.6522C20.5588 21.7175 20.0048 21.7448 19.3957 21.5515C19.0263 21.4343 18.5529 21.2778 17.9462 21.0161C15.396 19.9152 13.7304 17.3482 13.6033 17.1786C13.4762 17.0089 12.5652 15.8004 12.5652 14.5493C12.5652 13.2985 13.222 12.6834 13.4549 12.4292C13.6881 12.1747 13.9636 12.1112 14.133 12.1112C14.3024 12.1112 14.472 12.1127 14.6201 12.12C14.7763 12.1278 14.9859 12.0606 15.1921 12.5563C15.4041 13.0653 15.9125 14.3161 15.976 14.4432C16.0396 14.5706 16.0819 14.7189 15.9973 14.8886C15.9125 15.0582 15.6308 15.4242 15.3618 15.7578C15.2489 15.8976 15.1019 16.0222 15.2502 16.2766C15.3983 16.5308 15.9088 17.3633 16.6645 18.0372C17.6357 18.903 18.4548 19.1713 18.7091 19.2986C18.963 19.4257 19.1114 19.4045 19.2598 19.2351C19.4079 19.0654 19.8953 18.4929 20.0647 18.2385C20.2341 17.984 20.4037 18.0265 20.6367 18.1114C20.8699 18.1959 22.1196 18.811 22.3739 18.9381C22.6281 19.0654 22.7975 19.129 22.861 19.2351C22.9248 19.3412 22.9248 19.8499 22.7129 20.4436Z" fill="#6FDDEF"/>
</g>
<defs>
<clipPath id="clip0_4343_34538">
<rect width="34" height="34" fill="white" transform="translate(0.375 0.0898438)"/>
</clipPath>
</defs>
</svg>
